M48
;Layer_Color=9474304
;FILE_FORMAT=2:5
INCH,LZ
;TYPE=PLATED
T1F00S00C0.00787
T2F00S00C0.02756
T3F00S00C0.04000
T4F00S00C0.10630
;TYPE=NON_PLATED
T5F00S00C0.04535
%
T01
X0008268Y0022323
X0012598Y0021535
Y0034134
X0008268Y0032165
X0024016Y0032165
X0026378Y0030197
Y0036102
X0024016Y0038071
Y0043976
Y0047913
X0026378Y0045945
Y0042008
Y005185
X0024016Y0053819
Y0059724
Y0063661
X0022835Y0067205
X0019291Y0071535
X0012598Y0070354
X0010236Y007311
X0012598Y0077047
X0012205Y0079803
X0012598Y0082953
X0011417Y0085315
X0012598Y0088858
X001063Y0090827
X0011024Y0093583
X0011811Y0096339
X0012205Y0099094
X0010236Y0101457
X0006693Y0102244
X0012669Y0105
Y0107756
X0012598Y0110512
X0010236Y011248
X0006299
X0012205Y0116024
Y0119173
X0013386Y012311
X0024016Y0106181
X0023622Y0103425
Y009752
Y0091614
Y0088071
X0007087Y0092795
Y0082559
X0012205Y0061693
X0012598Y0055
X0026378Y0057756
Y0024291
X0024016Y002626
X001811Y0014173
X0050787Y0024291
X0052756Y002626
Y0032165
X0050787Y0030197
Y0036102
X0052756Y0038071
X0050787Y0042008
X0052756Y0043976
X0063779
Y0047913
X0066142Y0045945
Y0042008
Y0036102
X0063779Y0038071
Y0032165
X0066142Y0030197
Y0024291
X0063779Y002626
X0064173Y0020748
X0058661Y0017992
X007441Y002626
X0076378Y0030197
X0078347Y0032165
X0077736Y0035354
X0080315Y0036102
X0068504Y0034134
X0066142Y005185
X0063779Y0053819
X006811Y0055394
X0066142Y0057756
X0063779Y0059724
Y006563
X0066142Y0063661
X0070079
X0074803
X0079134Y0064842
X008189Y0063661
X0080315Y0059724
X0082284Y0057756
X0078347Y0054213
X0091339Y0043976
X0080315Y0021535
X0080315Y0077047
X0082284Y0079016
Y0084921
X0080315Y0082953
X0078347Y0080984
X0075197
X0072047Y0080984
X0063299Y0083346
X0053543Y0082953
X0051181Y0084921
Y0090827
X0053543Y0088858
Y0094764
X0051181Y0096732
Y0100669
X0053937Y0098701
X0053543Y0104606
X0051181Y0106575
Y011248
X0053543Y0110512
Y0116417
X0051181Y0118386
Y0128228
X0053937
X0051968Y0144764
X0049606Y0143189
X0041339Y0142795
X0042913Y0140039
X0040551Y0137001
X0038976Y0134528
X0035039Y014437
X0033071Y0147126
X0030315Y0149094
X0035827Y0151457
X0037795Y0153425
X0040157Y0155
X0043701Y0156575
X0046063Y0155
X0049606Y0157362
X0058661Y015185
X0088583Y015815
Y0160906
Y0163661
Y0166417
X008189Y0124685
X0080315Y0118386
X0082284Y0116417
Y011248
X0080315Y0110512
X0078347Y0108543
X0080315Y0104606
X0082284Y0106575
Y0100669
X0080315Y0098701
Y0094764
X0082284Y0096732
Y0090827
X0080315Y0088858
X0077953Y008689
X0069685Y009752
X0039764Y0101457
X0051181Y0079016
X0053543Y0077047
X0051575Y0173898
X0049606Y0177933
X0045669Y0176654
X0057973Y0179114
X0059055Y0193976
X0057087Y0195945
Y0199882
X0059055Y020185
Y0197913
Y0205787
X0057087Y0203819
X0057087Y0207756
X0057087Y0211693
X0059055Y0213661
X0059055Y0209724
X0059449Y0222717
X0051575
X0052362Y0218779
X0027165Y0214055
X0026969Y019811
Y0186299
X0027559Y0174488
X0086614Y0184528
Y0199882
Y0211693
X0058268Y0245453
X005561Y0254211
X0055512Y0256968
X0055905Y0264449
Y0267008
Y0274685
X0053937Y0280197
Y0282953
X0051968Y0284921
X005Y0287283
X0047638Y0288465
X0039764Y0274783
X0040157Y0267106
X0039862Y0264547
X0040157Y025687
Y0254213
X0020866Y0245453
Y0299882
X0024409
X0024409Y0303425
X0020866
Y0307362
X0024409
X0024409Y0310906
X0020866
X0070866Y0321142
X0073622
X0104724Y0278228
X0111417Y0282165
X0127165Y0285512
T02
X000702Y00075
X009702
Y00175
Y00275
Y00375
Y00475
Y00575
Y00675
Y00775
Y00875
Y00975
Y01075
Y01175
Y01275
Y01375
Y01475
Y01575
X000702
Y01475
Y01375
Y01275
Y01175
Y01075
Y00975
Y00875
Y00775
Y00675
Y00575
Y00475
Y00375
Y00275
Y00175
Y01675
Y01775
Y01875
Y01975
Y02075
Y02175
Y02275
Y02375
Y02475
Y02575
Y02675
Y02775
Y02875
Y02975
Y03075
Y03175
X009702
Y03075
Y02975
Y02875
Y02775
Y02675
Y02575
Y02475
Y02375
Y02275
Y02175
Y02075
Y01975
Y01875
Y01775
Y01675
T03
X0112205Y0032244
X0122205
Y0042244
X0112205
Y0052244
X0122205
Y0062244
X0112205
Y0072244
X0122205
Y0082244
X0112205
Y0092244
X0122205
Y0102244
X0112205
Y0112244
X0122205
Y0122244
X0112205
Y0132244
X0122205
Y0142244
X0112205
Y0152244
X0122205
Y0162244
X0112205
Y0172244
X0122205
Y0182244
X0112205
Y0192244
X0122205
Y0202244
X0112205
Y0212244
X0122205
Y0222244
X0112205
T04
X0117205Y0013044
Y0241444
T05
X0015748Y0005906
X0104331
X0088189Y0313386
M30
