G04*
G04 #@! TF.GenerationSoftware,Altium Limited,Altium Designer,18.0.7 (293)*
G04*
G04 Layer_Physical_Order=3*
G04 Layer_Color=16440176*
%FSLAX25Y25*%
%MOIN*%
G70*
G01*
G75*
%ADD10C,0.00787*%
%ADD45C,0.01000*%
%ADD46C,0.00591*%
%ADD49C,0.07000*%
%ADD51R,0.05906X0.04331*%
%ADD52O,0.05906X0.04331*%
%ADD54C,0.01968*%
G36*
X128815Y286777D02*
X128315Y286625D01*
X128301Y286647D01*
X127780Y286995D01*
X127165Y287118D01*
X126551Y286995D01*
X126030Y286647D01*
X125682Y286126D01*
X125560Y285512D01*
X125682Y284897D01*
X126030Y284377D01*
X126551Y284028D01*
X127165Y283906D01*
X127780Y284028D01*
X128301Y284377D01*
X128315Y284399D01*
X128815Y284247D01*
Y1204D01*
X1204Y1204D01*
Y64314D01*
X1704Y64521D01*
X3990Y62235D01*
X3990Y62235D01*
X4283Y62040D01*
X4629Y61971D01*
X4629Y61971D01*
X9938D01*
X10153Y62014D01*
X10593Y61700D01*
X10599Y61693D01*
X10721Y61079D01*
X11069Y60558D01*
X11590Y60210D01*
X12205Y60087D01*
X12819Y60210D01*
X13340Y60558D01*
X13688Y61079D01*
X13810Y61693D01*
X13688Y62307D01*
X13458Y62652D01*
X13687Y63152D01*
X14072D01*
X14417Y63221D01*
X14710Y63416D01*
X17101Y65807D01*
X17601Y65600D01*
Y60492D01*
X15512Y58403D01*
X10616D01*
X10546Y58434D01*
X10440Y58437D01*
X10401Y58440D01*
X10214Y58890D01*
X9773Y59465D01*
X9197Y59907D01*
X8527Y60185D01*
X7807Y60280D01*
X6232D01*
X5513Y60185D01*
X4843Y59907D01*
X4267Y59465D01*
X3825Y58890D01*
X3547Y58219D01*
X3453Y57500D01*
X3547Y56781D01*
X3825Y56110D01*
X4267Y55534D01*
X4843Y55093D01*
X5513Y54815D01*
X6232Y54720D01*
X7807D01*
X8527Y54815D01*
X9197Y55093D01*
X9773Y55534D01*
X10214Y56110D01*
X10401Y56560D01*
X10440Y56563D01*
X10546Y56566D01*
X10616Y56597D01*
X15886D01*
X16231Y56666D01*
X16524Y56861D01*
X18320Y58657D01*
X18782Y58465D01*
Y50256D01*
X16929Y48403D01*
X10616D01*
X10546Y48434D01*
X10440Y48437D01*
X10401Y48440D01*
X10214Y48890D01*
X9773Y49466D01*
X9197Y49907D01*
X8527Y50185D01*
X7807Y50280D01*
X6232D01*
X5513Y50185D01*
X4843Y49907D01*
X4267Y49466D01*
X3825Y48890D01*
X3547Y48219D01*
X3453Y47500D01*
X3547Y46781D01*
X3825Y46110D01*
X4267Y45535D01*
X4843Y45093D01*
X5513Y44815D01*
X6232Y44720D01*
X7807D01*
X8527Y44815D01*
X9197Y45093D01*
X9773Y45535D01*
X10214Y46110D01*
X10401Y46560D01*
X10440Y46563D01*
X10546Y46566D01*
X10616Y46597D01*
X17303D01*
X17649Y46666D01*
X17942Y46861D01*
X20324Y49243D01*
X20519Y49536D01*
X20588Y49882D01*
Y66263D01*
X20940Y66561D01*
X21435Y66465D01*
X21699Y66069D01*
X22220Y65721D01*
X22835Y65599D01*
X23449Y65721D01*
X23970Y66069D01*
X24318Y66590D01*
X24440Y67205D01*
X24318Y67819D01*
X23970Y68340D01*
X23449Y68688D01*
X23220Y69244D01*
X23246Y69373D01*
Y86706D01*
X23177Y87051D01*
X22981Y87344D01*
X22981Y87344D01*
X22655Y87670D01*
Y89811D01*
X23155Y90101D01*
X23622Y90008D01*
X24237Y90131D01*
X24757Y90479D01*
X25106Y91000D01*
X25228Y91614D01*
X25106Y92229D01*
X24757Y92750D01*
X24237Y93098D01*
X23622Y93220D01*
X23155Y93127D01*
X22655Y93418D01*
Y95716D01*
X23155Y96007D01*
X23622Y95914D01*
X24237Y96036D01*
X24757Y96384D01*
X25106Y96905D01*
X25228Y97520D01*
X25106Y98134D01*
X24757Y98655D01*
X24237Y99003D01*
X23622Y99125D01*
X23155Y99032D01*
X22655Y99323D01*
Y101622D01*
X23155Y101912D01*
X23622Y101820D01*
X24237Y101942D01*
X24757Y102290D01*
X25106Y102811D01*
X25228Y103425D01*
X25106Y104040D01*
X24757Y104561D01*
X24237Y104909D01*
X23622Y105031D01*
X23155Y104938D01*
X22655Y105229D01*
Y118436D01*
X22981Y118762D01*
X22981Y118762D01*
X23177Y119055D01*
X23246Y119400D01*
X23246Y119400D01*
Y124236D01*
X25442Y126432D01*
X25442Y126432D01*
X25638Y126725D01*
X25706Y127070D01*
Y173527D01*
X26206Y173678D01*
X26424Y173353D01*
X26945Y173005D01*
X27559Y172883D01*
X28174Y173005D01*
X28694Y173353D01*
X28710Y173376D01*
X30512D01*
X30512Y173376D01*
X30937Y173461D01*
X31298Y173702D01*
X38916Y181320D01*
X38916Y181320D01*
X39157Y181681D01*
X39241Y182106D01*
Y215897D01*
X41012Y217668D01*
X51211D01*
X51227Y217644D01*
X51748Y217296D01*
X52362Y217174D01*
X52977Y217296D01*
X53498Y217644D01*
X53846Y218165D01*
X53968Y218779D01*
X53846Y219394D01*
X53498Y219915D01*
X52977Y220263D01*
X52362Y220385D01*
X51748Y220263D01*
X51227Y219915D01*
X51211Y219892D01*
X40551D01*
X40126Y219807D01*
X39765Y219566D01*
X37343Y217144D01*
X37102Y216783D01*
X37018Y216358D01*
X37018Y216358D01*
Y182567D01*
X30051Y175600D01*
X28710D01*
X28694Y175624D01*
X28174Y175972D01*
X27988Y176008D01*
X27824Y176551D01*
X34398Y183126D01*
X34594Y183419D01*
X34663Y183765D01*
Y217882D01*
X34594Y218228D01*
X34398Y218521D01*
X34398Y218521D01*
X31612Y221307D01*
Y235656D01*
X35486Y239530D01*
X45742D01*
X46087Y239599D01*
X46380Y239794D01*
X54182Y247596D01*
X54378Y247889D01*
X54447Y248235D01*
Y252493D01*
X54947Y252761D01*
X54996Y252728D01*
X55610Y252606D01*
X56225Y252728D01*
X56746Y253076D01*
X57094Y253597D01*
X57216Y254211D01*
X57094Y254826D01*
X56746Y255346D01*
X56731Y255958D01*
X56995Y256354D01*
X57117Y256968D01*
X56995Y257583D01*
X56647Y258104D01*
X56126Y258452D01*
X55512Y258574D01*
X54897Y258452D01*
X54376Y258104D01*
X54221Y257872D01*
X53150D01*
X52804Y257803D01*
X52584Y257656D01*
X52084Y257800D01*
Y263287D01*
X52343Y263546D01*
X54615D01*
X54770Y263314D01*
X55291Y262965D01*
X55905Y262843D01*
X56520Y262965D01*
X57041Y263314D01*
X57389Y263834D01*
X57511Y264449D01*
X57389Y265063D01*
X57186Y265368D01*
X57082Y265728D01*
X57186Y266089D01*
X57389Y266393D01*
X57511Y267008D01*
X57389Y267622D01*
X57041Y268143D01*
X56520Y268491D01*
X55905Y268614D01*
X55291Y268491D01*
X54770Y268143D01*
X54615Y267911D01*
X51378D01*
X51032Y267842D01*
X50739Y267647D01*
X50184Y267091D01*
X49722Y267283D01*
Y272736D01*
X50768Y273782D01*
X54615D01*
X54770Y273550D01*
X55291Y273202D01*
X55905Y273079D01*
X56520Y273202D01*
X57041Y273550D01*
X57389Y274071D01*
X57511Y274685D01*
X57389Y275300D01*
X57041Y275820D01*
X56520Y276168D01*
X55905Y276291D01*
X55291Y276168D01*
X54770Y275820D01*
X54615Y275588D01*
X50394D01*
X50394Y275588D01*
X50048Y275519D01*
X49755Y275324D01*
X49003Y274571D01*
X48541Y274763D01*
Y277461D01*
X50374Y279294D01*
X52646D01*
X52802Y279062D01*
X53323Y278713D01*
X53937Y278591D01*
X54552Y278713D01*
X55072Y279062D01*
X55420Y279582D01*
X55543Y280197D01*
X55420Y280811D01*
X55072Y281332D01*
Y281817D01*
X55420Y282338D01*
X55543Y282953D01*
X55420Y283567D01*
X55072Y284088D01*
X54552Y284436D01*
X53937Y284558D01*
X53925Y284556D01*
X53572Y284910D01*
X53574Y284921D01*
X53452Y285536D01*
X53104Y286057D01*
X52583Y286405D01*
X51968Y286527D01*
X51940Y286521D01*
X51540Y286951D01*
X51606Y287283D01*
X51483Y287898D01*
X51135Y288419D01*
X50615Y288767D01*
X50000Y288889D01*
X49386Y288767D01*
X49165Y288858D01*
X49121Y289079D01*
X48773Y289600D01*
X48252Y289948D01*
X47638Y290070D01*
X47023Y289948D01*
X46502Y289600D01*
X46154Y289079D01*
X46032Y288465D01*
X46087Y288191D01*
X42275Y284379D01*
X42079Y284086D01*
X42010Y283740D01*
Y268068D01*
X41510Y267916D01*
X41293Y268242D01*
X40772Y268590D01*
X40157Y268712D01*
X39543Y268590D01*
X39234Y268383D01*
X39118Y268352D01*
X39038Y268291D01*
X38973Y268252D01*
X38885Y268211D01*
X38774Y268171D01*
X38640Y268134D01*
X38484Y268102D01*
X38312Y268077D01*
X37878Y268045D01*
X37633Y268041D01*
X37561Y268009D01*
X31869D01*
X31678Y268471D01*
X37087Y273880D01*
X37167D01*
X37239Y273849D01*
X37484Y273845D01*
X37918Y273813D01*
X38090Y273787D01*
X38247Y273755D01*
X38381Y273719D01*
X38491Y273679D01*
X38579Y273638D01*
X38644Y273599D01*
X38724Y273538D01*
X38840Y273506D01*
X39149Y273300D01*
X39764Y273178D01*
X40378Y273300D01*
X40899Y273648D01*
X41247Y274169D01*
X41369Y274783D01*
X41247Y275398D01*
X40899Y275919D01*
X40378Y276267D01*
X39764Y276389D01*
X39149Y276267D01*
X38840Y276061D01*
X38724Y276029D01*
X38644Y275968D01*
X38579Y275929D01*
X38491Y275888D01*
X38381Y275849D01*
X38246Y275812D01*
X38090Y275780D01*
X37918Y275754D01*
X37484Y275722D01*
X37239Y275718D01*
X37167Y275687D01*
X36713D01*
X36367Y275618D01*
X36074Y275422D01*
X11566Y250914D01*
X11370Y250621D01*
X11302Y250276D01*
Y223059D01*
X8651Y220409D01*
X8579Y220381D01*
X8500Y220305D01*
X8440Y220253D01*
X8393Y220218D01*
X8373Y220205D01*
X7807Y220280D01*
X6232D01*
X5513Y220185D01*
X4843Y219907D01*
X4267Y219465D01*
X3825Y218890D01*
X3547Y218219D01*
X3453Y217500D01*
X3547Y216781D01*
X3825Y216110D01*
X4267Y215534D01*
X4843Y215093D01*
X5513Y214815D01*
X6232Y214720D01*
X7807D01*
X8527Y214815D01*
X9197Y215093D01*
X9773Y215534D01*
X10214Y216110D01*
X10492Y216781D01*
X10587Y217500D01*
X10492Y218219D01*
X10214Y218890D01*
X10005Y219163D01*
X10014Y219173D01*
X10042Y219245D01*
X10049Y219252D01*
X10106Y219296D01*
X10107Y219310D01*
X12021Y221224D01*
X12483Y221032D01*
Y214240D01*
X8651Y210409D01*
X8579Y210381D01*
X8500Y210305D01*
X8440Y210254D01*
X8393Y210218D01*
X8373Y210205D01*
X7807Y210280D01*
X6232D01*
X5513Y210185D01*
X4843Y209907D01*
X4267Y209466D01*
X3825Y208890D01*
X3547Y208219D01*
X3453Y207500D01*
X3547Y206781D01*
X3825Y206110D01*
X4267Y205535D01*
X4843Y205093D01*
X5513Y204815D01*
X6232Y204720D01*
X7807D01*
X8527Y204815D01*
X9197Y205093D01*
X9773Y205535D01*
X10214Y206110D01*
X10492Y206781D01*
X10587Y207500D01*
X10492Y208219D01*
X10214Y208890D01*
X10005Y209163D01*
X10014Y209173D01*
X10042Y209245D01*
X10049Y209252D01*
X10106Y209296D01*
X10107Y209311D01*
X13202Y212405D01*
X13664Y212213D01*
Y205421D01*
X8651Y200409D01*
X8579Y200381D01*
X8500Y200305D01*
X8440Y200254D01*
X8393Y200218D01*
X8373Y200205D01*
X7807Y200280D01*
X6232D01*
X5513Y200185D01*
X4843Y199907D01*
X4267Y199466D01*
X3825Y198890D01*
X3547Y198219D01*
X3453Y197500D01*
X3547Y196781D01*
X3825Y196110D01*
X4267Y195535D01*
X4843Y195093D01*
X5513Y194815D01*
X6232Y194720D01*
X7807D01*
X8527Y194815D01*
X9197Y195093D01*
X9773Y195535D01*
X10214Y196110D01*
X10492Y196781D01*
X10587Y197500D01*
X10492Y198219D01*
X10214Y198890D01*
X10005Y199163D01*
X10014Y199173D01*
X10042Y199245D01*
X10049Y199252D01*
X10106Y199296D01*
X10107Y199311D01*
X15206Y204409D01*
X15401Y204702D01*
X15470Y205047D01*
Y248518D01*
X16351Y249399D01*
X16813Y249208D01*
Y186469D01*
X11172Y180828D01*
X10977Y180535D01*
X10908Y180189D01*
Y178522D01*
X10408Y178423D01*
X10214Y178890D01*
X9773Y179465D01*
X9197Y179907D01*
X8527Y180185D01*
X7807Y180280D01*
X6232D01*
X5513Y180185D01*
X4843Y179907D01*
X4267Y179465D01*
X3825Y178890D01*
X3547Y178219D01*
X3453Y177500D01*
X3547Y176781D01*
X3825Y176110D01*
X4267Y175534D01*
X4843Y175093D01*
X5513Y174815D01*
X6232Y174720D01*
X7807D01*
X8527Y174815D01*
X9197Y175093D01*
X9773Y175534D01*
X10214Y176110D01*
X10408Y176577D01*
X10908Y176478D01*
Y168522D01*
X10408Y168423D01*
X10214Y168890D01*
X9773Y169465D01*
X9197Y169907D01*
X8527Y170185D01*
X7807Y170280D01*
X6232D01*
X5513Y170185D01*
X4843Y169907D01*
X4267Y169465D01*
X3825Y168890D01*
X3547Y168219D01*
X3453Y167500D01*
X3547Y166781D01*
X3825Y166110D01*
X4267Y165534D01*
X4843Y165093D01*
X5513Y164815D01*
X6232Y164720D01*
X7807D01*
X8527Y164815D01*
X9197Y165093D01*
X9773Y165534D01*
X10214Y166110D01*
X10408Y166577D01*
X10908Y166478D01*
Y158403D01*
X10416D01*
X10214Y158890D01*
X9773Y159466D01*
X9197Y159907D01*
X8527Y160185D01*
X7807Y160280D01*
X6232D01*
X5513Y160185D01*
X4843Y159907D01*
X4267Y159466D01*
X3825Y158890D01*
X3547Y158219D01*
X3453Y157500D01*
X3547Y156781D01*
X3825Y156110D01*
X4267Y155535D01*
X4843Y155093D01*
X5513Y154815D01*
X6232Y154720D01*
X7807D01*
X8527Y154815D01*
X9197Y155093D01*
X9773Y155535D01*
X10214Y156110D01*
X10416Y156597D01*
X11811D01*
X12089Y156369D01*
Y149075D01*
X11417Y148403D01*
X10616D01*
X10546Y148434D01*
X10440Y148437D01*
X10401Y148440D01*
X10214Y148890D01*
X9773Y149466D01*
X9197Y149907D01*
X8527Y150185D01*
X7807Y150280D01*
X6232D01*
X5513Y150185D01*
X4843Y149907D01*
X4267Y149466D01*
X3825Y148890D01*
X3547Y148219D01*
X3453Y147500D01*
X3547Y146781D01*
X3825Y146110D01*
X4267Y145535D01*
X4843Y145093D01*
X5513Y144815D01*
X6232Y144720D01*
X7807D01*
X8527Y144815D01*
X9197Y145093D01*
X9773Y145535D01*
X10214Y146110D01*
X10401Y146560D01*
X10440Y146563D01*
X10546Y146566D01*
X10616Y146597D01*
X11791D01*
X12137Y146666D01*
X12430Y146861D01*
X12808Y147239D01*
X13270Y147048D01*
Y138403D01*
X10416D01*
X10214Y138890D01*
X9773Y139465D01*
X9197Y139907D01*
X8527Y140185D01*
X7807Y140280D01*
X6232D01*
X5513Y140185D01*
X4843Y139907D01*
X4267Y139465D01*
X3825Y138890D01*
X3547Y138219D01*
X3453Y137500D01*
X3547Y136781D01*
X3825Y136110D01*
X4267Y135535D01*
X4843Y135093D01*
X5513Y134815D01*
X6232Y134720D01*
X7807D01*
X8527Y134815D01*
X9197Y135093D01*
X9773Y135535D01*
X10214Y136110D01*
X10416Y136597D01*
X14173D01*
X14451Y136369D01*
Y131358D01*
X11496Y128403D01*
X10616D01*
X10546Y128434D01*
X10440Y128437D01*
X10401Y128440D01*
X10214Y128890D01*
X9773Y129465D01*
X9197Y129907D01*
X8527Y130185D01*
X7807Y130280D01*
X6232D01*
X5513Y130185D01*
X4843Y129907D01*
X4267Y129465D01*
X3825Y128890D01*
X3547Y128219D01*
X3453Y127500D01*
X3547Y126781D01*
X3825Y126110D01*
X4267Y125534D01*
X4843Y125093D01*
X5513Y124815D01*
X6232Y124720D01*
X7807D01*
X8527Y124815D01*
X9197Y125093D01*
X9444Y124681D01*
X6381Y121618D01*
X6185Y121325D01*
X6117Y120979D01*
Y120349D01*
X6085Y120279D01*
X6085Y120260D01*
X5513Y120185D01*
X4843Y119907D01*
X4267Y119465D01*
X3825Y118890D01*
X3547Y118219D01*
X3453Y117500D01*
X3547Y116781D01*
X3825Y116110D01*
X4267Y115534D01*
X4843Y115093D01*
X5513Y114815D01*
X6232Y114720D01*
X7807D01*
X8527Y114815D01*
X9197Y115093D01*
X9773Y115534D01*
X10121Y115989D01*
X10626Y115874D01*
X10629Y115872D01*
X10721Y115409D01*
X11069Y114888D01*
X11590Y114540D01*
X12205Y114418D01*
X12819Y114540D01*
X13164Y114770D01*
X13664Y114541D01*
Y112224D01*
X13300Y112030D01*
X13164Y112005D01*
X12598Y112118D01*
X12266Y112051D01*
X11836Y112452D01*
X11842Y112480D01*
X11720Y113095D01*
X11372Y113616D01*
X10851Y113964D01*
X10236Y114086D01*
X9622Y113964D01*
X9101Y113616D01*
X8753Y113095D01*
X8631Y112480D01*
X8753Y111866D01*
X9101Y111345D01*
X9622Y110997D01*
X10236Y110875D01*
X10568Y110941D01*
X10998Y110540D01*
X10993Y110512D01*
X11115Y109897D01*
X11463Y109376D01*
X11463Y109376D01*
X11458Y108778D01*
X11186Y108370D01*
X11064Y107756D01*
X11186Y107141D01*
X11534Y106621D01*
Y106135D01*
X11186Y105614D01*
X11107Y105216D01*
X10587Y105028D01*
X9939Y105676D01*
X9919Y105726D01*
X10214Y106110D01*
X10492Y106781D01*
X10587Y107500D01*
X10492Y108219D01*
X10214Y108890D01*
X9773Y109466D01*
X9197Y109907D01*
X8527Y110185D01*
X7807Y110280D01*
X6232D01*
X5513Y110185D01*
X4843Y109907D01*
X4267Y109466D01*
X3825Y108890D01*
X3547Y108219D01*
X3453Y107500D01*
X3547Y106781D01*
X3825Y106110D01*
X4267Y105535D01*
X4843Y105093D01*
X5513Y104815D01*
X6232Y104720D01*
X7807D01*
X8202Y104772D01*
X8212Y104767D01*
X8241Y104747D01*
X8373Y104640D01*
X8450Y104566D01*
X8522Y104538D01*
X9645Y103416D01*
X9497Y102857D01*
X9101Y102592D01*
X8753Y102071D01*
X8292Y102214D01*
X8299Y102244D01*
X8176Y102859D01*
X7828Y103379D01*
X7307Y103727D01*
X6693Y103850D01*
X6078Y103727D01*
X5557Y103379D01*
X5209Y102859D01*
X5087Y102244D01*
X5209Y101630D01*
X5557Y101109D01*
X6075Y100763D01*
X6078Y100747D01*
X6053Y100256D01*
X5513Y100185D01*
X4843Y99907D01*
X4267Y99466D01*
X3825Y98890D01*
X3547Y98219D01*
X3453Y97500D01*
X3547Y96781D01*
X3825Y96110D01*
X4035Y95837D01*
X4026Y95827D01*
X3998Y95755D01*
X3990Y95748D01*
X3934Y95704D01*
X3932Y95690D01*
X1704Y93462D01*
X1204Y93669D01*
Y323796D01*
X128815Y323796D01*
Y286777D01*
D02*
G37*
G36*
X39114Y274044D02*
X39004Y274129D01*
X38878Y274204D01*
X38734Y274271D01*
X38573Y274328D01*
X38396Y274377D01*
X38201Y274417D01*
X37989Y274448D01*
X37513Y274484D01*
X37250Y274488D01*
Y275079D01*
X37513Y275083D01*
X37989Y275119D01*
X38201Y275150D01*
X38396Y275190D01*
X38573Y275238D01*
X38734Y275296D01*
X38878Y275363D01*
X39004Y275438D01*
X39114Y275523D01*
Y274044D01*
D02*
G37*
G36*
X39508Y266367D02*
X39398Y266452D01*
X39272Y266527D01*
X39128Y266594D01*
X38967Y266651D01*
X38789Y266700D01*
X38594Y266740D01*
X38382Y266771D01*
X37907Y266807D01*
X37644Y266811D01*
Y267402D01*
X37907Y267406D01*
X38382Y267442D01*
X38594Y267473D01*
X38789Y267513D01*
X38967Y267561D01*
X39128Y267619D01*
X39272Y267686D01*
X39398Y267761D01*
X39508Y267846D01*
Y266367D01*
D02*
G37*
G36*
X39212Y263808D02*
X39103Y263892D01*
X38976Y263968D01*
X38833Y264035D01*
X38672Y264092D01*
X38494Y264141D01*
X38299Y264181D01*
X38087Y264212D01*
X37612Y264247D01*
X37348Y264252D01*
Y264843D01*
X37612Y264847D01*
X38087Y264882D01*
X38299Y264914D01*
X38494Y264953D01*
X38672Y265002D01*
X38833Y265060D01*
X38976Y265127D01*
X39103Y265202D01*
X39212Y265286D01*
Y263808D01*
D02*
G37*
G36*
X39480Y256156D02*
X39363Y256254D01*
X39231Y256342D01*
X39084Y256420D01*
X38921Y256487D01*
X38742Y256544D01*
X38548Y256591D01*
X38339Y256627D01*
X38114Y256653D01*
X37618Y256673D01*
X37681Y257264D01*
X37951Y257267D01*
X38650Y257323D01*
X38845Y257356D01*
X39021Y257397D01*
X39178Y257445D01*
X39317Y257501D01*
X39436Y257564D01*
X39537Y257634D01*
X39480Y256156D01*
D02*
G37*
G36*
X39508Y253473D02*
X39398Y253558D01*
X39272Y253633D01*
X39128Y253700D01*
X38967Y253758D01*
X38789Y253806D01*
X38594Y253846D01*
X38382Y253877D01*
X37907Y253913D01*
X37644Y253917D01*
Y254508D01*
X37907Y254512D01*
X38382Y254548D01*
X38594Y254579D01*
X38789Y254619D01*
X38967Y254668D01*
X39128Y254725D01*
X39272Y254792D01*
X39398Y254867D01*
X39508Y254952D01*
Y253473D01*
D02*
G37*
G36*
X9551Y219614D02*
X9466Y219524D01*
X9395Y219441D01*
X9339Y219364D01*
X9297Y219293D01*
X9270Y219229D01*
X9258Y219171D01*
X9260Y219119D01*
X9277Y219074D01*
X9308Y219034D01*
X9354Y219002D01*
X8291Y219596D01*
X8345Y219573D01*
X8404Y219562D01*
X8466Y219564D01*
X8533Y219578D01*
X8604Y219604D01*
X8679Y219642D01*
X8758Y219693D01*
X8842Y219756D01*
X8929Y219831D01*
X9021Y219919D01*
X9551Y219614D01*
D02*
G37*
G36*
Y209614D02*
X9466Y209524D01*
X9395Y209441D01*
X9339Y209364D01*
X9297Y209294D01*
X9270Y209229D01*
X9258Y209171D01*
X9260Y209119D01*
X9277Y209074D01*
X9308Y209034D01*
X9354Y209001D01*
X8291Y209596D01*
X8345Y209573D01*
X8404Y209562D01*
X8466Y209564D01*
X8533Y209578D01*
X8604Y209604D01*
X8679Y209642D01*
X8758Y209693D01*
X8842Y209756D01*
X8929Y209831D01*
X9021Y209919D01*
X9551Y209614D01*
D02*
G37*
G36*
Y199614D02*
X9466Y199524D01*
X9395Y199441D01*
X9339Y199364D01*
X9297Y199293D01*
X9270Y199229D01*
X9258Y199171D01*
X9260Y199119D01*
X9277Y199074D01*
X9308Y199034D01*
X9354Y199002D01*
X8291Y199596D01*
X8345Y199573D01*
X8404Y199562D01*
X8466Y199564D01*
X8533Y199578D01*
X8604Y199604D01*
X8679Y199642D01*
X8758Y199693D01*
X8842Y199756D01*
X8929Y199831D01*
X9021Y199919D01*
X9551Y199614D01*
D02*
G37*
G36*
X28132Y215551D02*
Y199828D01*
X27632Y199561D01*
X27583Y199594D01*
X26969Y199716D01*
X26354Y199594D01*
X26206Y199495D01*
X25706Y199762D01*
Y217324D01*
X26168Y217515D01*
X28132Y215551D01*
D02*
G37*
G36*
X26354Y196627D02*
X26969Y196505D01*
X27583Y196627D01*
X27632Y196660D01*
X28132Y196393D01*
Y186096D01*
X26168Y184132D01*
X25706Y184323D01*
Y196458D01*
X26206Y196725D01*
X26354Y196627D01*
D02*
G37*
G36*
X9889Y148031D02*
X9908Y147981D01*
X9940Y147938D01*
X9986Y147900D01*
X10044Y147868D01*
X10116Y147842D01*
X10200Y147821D01*
X10297Y147807D01*
X10407Y147798D01*
X10531Y147795D01*
Y147205D01*
X10407Y147202D01*
X10297Y147193D01*
X10200Y147179D01*
X10116Y147158D01*
X10044Y147132D01*
X9986Y147100D01*
X9940Y147062D01*
X9908Y147019D01*
X9889Y146969D01*
X9882Y146914D01*
Y148086D01*
X9889Y148031D01*
D02*
G37*
G36*
Y128031D02*
X9908Y127981D01*
X9940Y127938D01*
X9986Y127900D01*
X10044Y127868D01*
X10116Y127842D01*
X10200Y127822D01*
X10297Y127807D01*
X10407Y127798D01*
X10531Y127795D01*
Y127205D01*
X10407Y127202D01*
X10297Y127193D01*
X10200Y127179D01*
X10116Y127158D01*
X10044Y127132D01*
X9986Y127100D01*
X9940Y127062D01*
X9908Y127019D01*
X9889Y126969D01*
X9882Y126914D01*
Y128086D01*
X9889Y128031D01*
D02*
G37*
G36*
X7318Y120148D02*
X7327Y120046D01*
X7342Y119955D01*
X7362Y119877D01*
X7389Y119811D01*
X7421Y119756D01*
X7460Y119714D01*
X7504Y119684D01*
X7554Y119666D01*
X7610Y119660D01*
X6429D01*
X6485Y119666D01*
X6535Y119684D01*
X6580Y119714D01*
X6618Y119756D01*
X6651Y119811D01*
X6677Y119877D01*
X6698Y119955D01*
X6713Y120046D01*
X6722Y120148D01*
X6724Y120263D01*
X7315D01*
X7318Y120148D01*
D02*
G37*
G36*
X9210Y105885D02*
X9176Y105848D01*
X9157Y105804D01*
X9153Y105754D01*
X9164Y105696D01*
X9191Y105632D01*
X9232Y105561D01*
X9289Y105483D01*
X9361Y105398D01*
X9448Y105307D01*
X8892Y105028D01*
X8797Y105119D01*
X8620Y105264D01*
X8537Y105318D01*
X8459Y105359D01*
X8385Y105389D01*
X8315Y105406D01*
X8249Y105410D01*
X8187Y105403D01*
X8130Y105383D01*
X9260Y105915D01*
X9210Y105885D01*
D02*
G37*
G36*
X5748Y95404D02*
X5694Y95427D01*
X5636Y95438D01*
X5573Y95436D01*
X5506Y95422D01*
X5435Y95396D01*
X5360Y95358D01*
X5281Y95307D01*
X5198Y95244D01*
X5110Y95169D01*
X5019Y95081D01*
X4488Y95386D01*
X4574Y95476D01*
X4644Y95559D01*
X4701Y95636D01*
X4742Y95706D01*
X4769Y95771D01*
X4782Y95829D01*
X4779Y95881D01*
X4763Y95926D01*
X4731Y95966D01*
X4685Y95999D01*
X5748Y95404D01*
D02*
G37*
G36*
Y85404D02*
X5694Y85427D01*
X5636Y85438D01*
X5573Y85436D01*
X5506Y85422D01*
X5435Y85396D01*
X5360Y85358D01*
X5281Y85307D01*
X5198Y85244D01*
X5110Y85169D01*
X5019Y85081D01*
X4488Y85386D01*
X4574Y85476D01*
X4644Y85559D01*
X4701Y85636D01*
X4742Y85707D01*
X4769Y85771D01*
X4782Y85829D01*
X4779Y85881D01*
X4763Y85926D01*
X4731Y85966D01*
X4685Y85999D01*
X5748Y85404D01*
D02*
G37*
G36*
X9881Y76968D02*
X9871Y76910D01*
X9872Y76847D01*
X9886Y76780D01*
X9912Y76709D01*
X9951Y76634D01*
X10002Y76555D01*
X10065Y76471D01*
X10140Y76384D01*
X10228Y76292D01*
X9924Y75760D01*
X9835Y75846D01*
X9752Y75916D01*
X9675Y75972D01*
X9604Y76014D01*
X9540Y76041D01*
X9482Y76053D01*
X9430Y76051D01*
X9385Y76034D01*
X9346Y76002D01*
X9313Y75956D01*
X9904Y77023D01*
X9881Y76968D01*
D02*
G37*
G36*
X9889Y68031D02*
X9908Y67981D01*
X9940Y67938D01*
X9986Y67900D01*
X10044Y67868D01*
X10116Y67842D01*
X10200Y67822D01*
X10297Y67807D01*
X10407Y67798D01*
X10531Y67795D01*
Y67205D01*
X10407Y67202D01*
X10297Y67193D01*
X10200Y67179D01*
X10116Y67158D01*
X10044Y67132D01*
X9986Y67100D01*
X9940Y67062D01*
X9908Y67019D01*
X9889Y66969D01*
X9882Y66914D01*
Y68086D01*
X9889Y68031D01*
D02*
G37*
G36*
Y58031D02*
X9908Y57981D01*
X9940Y57938D01*
X9986Y57900D01*
X10044Y57868D01*
X10116Y57842D01*
X10200Y57822D01*
X10297Y57807D01*
X10407Y57798D01*
X10531Y57795D01*
Y57205D01*
X10407Y57202D01*
X10297Y57193D01*
X10200Y57179D01*
X10116Y57158D01*
X10044Y57132D01*
X9986Y57100D01*
X9940Y57062D01*
X9908Y57019D01*
X9889Y56969D01*
X9882Y56914D01*
Y58086D01*
X9889Y58031D01*
D02*
G37*
G36*
Y48031D02*
X9908Y47981D01*
X9940Y47938D01*
X9986Y47900D01*
X10044Y47868D01*
X10116Y47842D01*
X10200Y47821D01*
X10297Y47807D01*
X10407Y47798D01*
X10531Y47795D01*
Y47205D01*
X10407Y47202D01*
X10297Y47193D01*
X10200Y47179D01*
X10116Y47158D01*
X10044Y47132D01*
X9986Y47100D01*
X9940Y47062D01*
X9908Y47019D01*
X9889Y46969D01*
X9882Y46914D01*
Y48086D01*
X9889Y48031D01*
D02*
G37*
%LPC*%
G36*
X73622Y322747D02*
X73008Y322625D01*
X72487Y322277D01*
X72001D01*
X71481Y322625D01*
X70866Y322747D01*
X70252Y322625D01*
X69731Y322277D01*
X69383Y321756D01*
X69261Y321142D01*
X69383Y320527D01*
X69731Y320006D01*
X70252Y319658D01*
X70866Y319536D01*
X71481Y319658D01*
X72001Y320006D01*
X72487D01*
X73008Y319658D01*
X73622Y319536D01*
X74237Y319658D01*
X74757Y320006D01*
X75106Y320527D01*
X75228Y321142D01*
X75106Y321756D01*
X74757Y322277D01*
X74237Y322625D01*
X73622Y322747D01*
D02*
G37*
G36*
X97807Y320280D02*
X96232D01*
X95513Y320185D01*
X94842Y319907D01*
X94267Y319465D01*
X93825Y318890D01*
X93639Y318440D01*
X93599Y318437D01*
X93494Y318434D01*
X93423Y318403D01*
X76673D01*
X76673Y318403D01*
X76328Y318334D01*
X76035Y318139D01*
X67656Y309760D01*
X66969Y309781D01*
X58611Y318139D01*
X58318Y318334D01*
X57973Y318403D01*
X10637D01*
X10567Y318434D01*
X10563Y318434D01*
Y320256D01*
X3476D01*
Y314744D01*
X10563D01*
Y316566D01*
X10567Y316566D01*
X10637Y316597D01*
X57598D01*
X65731Y308465D01*
Y303011D01*
X65269Y302819D01*
X62056Y306032D01*
X61763Y306228D01*
X61417Y306297D01*
X10800D01*
X10490Y306692D01*
X10494Y306797D01*
X10587Y307500D01*
X10492Y308219D01*
X10214Y308890D01*
X9773Y309466D01*
X9197Y309907D01*
X8527Y310185D01*
X7807Y310280D01*
X6232D01*
X5513Y310185D01*
X4843Y309907D01*
X4267Y309466D01*
X3825Y308890D01*
X3547Y308219D01*
X3453Y307500D01*
X3547Y306781D01*
X3825Y306110D01*
X4267Y305535D01*
X4843Y305093D01*
X5513Y304815D01*
X6232Y304720D01*
X7807D01*
X8439Y304803D01*
X8487Y304755D01*
X8780Y304559D01*
X9126Y304490D01*
X61043D01*
X64550Y300984D01*
Y293562D01*
X64088Y293371D01*
X59320Y298139D01*
X59027Y298334D01*
X58681Y298403D01*
X10616D01*
X10546Y298434D01*
X10440Y298437D01*
X10401Y298440D01*
X10214Y298890D01*
X9773Y299465D01*
X9197Y299907D01*
X8527Y300185D01*
X7807Y300280D01*
X6232D01*
X5513Y300185D01*
X4843Y299907D01*
X4267Y299465D01*
X3825Y298890D01*
X3547Y298219D01*
X3453Y297500D01*
X3547Y296781D01*
X3825Y296110D01*
X4267Y295534D01*
X4843Y295093D01*
X5513Y294815D01*
X6232Y294720D01*
X7807D01*
X8527Y294815D01*
X9197Y295093D01*
X9773Y295534D01*
X10214Y296110D01*
X10401Y296560D01*
X10440Y296563D01*
X10546Y296566D01*
X10616Y296597D01*
X58307D01*
X63368Y291535D01*
Y289625D01*
X62907Y289434D01*
X56544Y295796D01*
X56251Y295992D01*
X55905Y296061D01*
X14677D01*
X14332Y295992D01*
X14039Y295796D01*
X8439Y290196D01*
X7807Y290280D01*
X6232D01*
X5513Y290185D01*
X4843Y289907D01*
X4267Y289465D01*
X3825Y288890D01*
X3547Y288219D01*
X3453Y287500D01*
X3547Y286781D01*
X3825Y286110D01*
X4267Y285535D01*
X4843Y285093D01*
X5513Y284815D01*
X6232Y284720D01*
X7807D01*
X8527Y284815D01*
X9197Y285093D01*
X9773Y285535D01*
X10214Y286110D01*
X10492Y286781D01*
X10587Y287500D01*
X10492Y288219D01*
X10214Y288890D01*
X9985Y289188D01*
X15051Y294254D01*
X55531D01*
X62187Y287598D01*
Y286869D01*
X61725Y286678D01*
X55757Y292647D01*
X55464Y292842D01*
X55118Y292911D01*
X21528D01*
X21528Y292911D01*
X21182Y292842D01*
X20889Y292647D01*
X8439Y280196D01*
X7807Y280280D01*
X6232D01*
X5513Y280185D01*
X4843Y279907D01*
X4267Y279466D01*
X3825Y278890D01*
X3547Y278219D01*
X3453Y277500D01*
X3547Y276781D01*
X3825Y276110D01*
X4267Y275535D01*
X4843Y275093D01*
X5513Y274815D01*
X6232Y274720D01*
X7807D01*
X8527Y274815D01*
X9197Y275093D01*
X9773Y275535D01*
X10214Y276110D01*
X10492Y276781D01*
X10587Y277500D01*
X10492Y278219D01*
X10214Y278890D01*
X9985Y279188D01*
X21902Y291105D01*
X54744D01*
X61006Y284842D01*
Y214664D01*
X60922Y214602D01*
X60242Y214719D01*
X60190Y214797D01*
X59670Y215145D01*
X59055Y215267D01*
X58441Y215145D01*
X57920Y214797D01*
X57572Y214276D01*
X57464Y213733D01*
X57359Y213557D01*
X57098Y213296D01*
X57087Y213299D01*
X56472Y213176D01*
X55951Y212828D01*
X55603Y212307D01*
X55481Y211693D01*
X55603Y211079D01*
X55951Y210558D01*
X56472Y210209D01*
X57087Y210087D01*
X57136Y209724D01*
X57087Y209362D01*
X56472Y209239D01*
X55951Y208891D01*
X55603Y208370D01*
X55481Y207756D01*
X55603Y207141D01*
X55951Y206621D01*
X56472Y206273D01*
X57087Y206150D01*
X57098Y206153D01*
X57359Y205892D01*
X57421Y205787D01*
X57359Y205683D01*
X57098Y205422D01*
X57087Y205425D01*
X56472Y205302D01*
X55951Y204954D01*
X55603Y204433D01*
X55481Y203819D01*
X55603Y203204D01*
X55951Y202683D01*
X56472Y202336D01*
X57087Y202213D01*
X57108Y201850D01*
X57087Y201488D01*
X56472Y201365D01*
X55951Y201017D01*
X55603Y200496D01*
X55481Y199882D01*
X55603Y199267D01*
X55951Y198747D01*
X56472Y198398D01*
X57015Y198291D01*
X57089Y198246D01*
X57156Y198035D01*
X57133Y197878D01*
X57050Y197543D01*
X56472Y197428D01*
X55951Y197080D01*
X55603Y196559D01*
X55481Y195945D01*
X55603Y195330D01*
X55951Y194809D01*
X56472Y194462D01*
X57087Y194339D01*
X57098Y194342D01*
X57452Y193988D01*
X57450Y193976D01*
X57572Y193362D01*
X57920Y192841D01*
X58441Y192493D01*
X59055Y192371D01*
X59670Y192493D01*
X60190Y192841D01*
X60242Y192918D01*
X60922Y193036D01*
X61006Y192974D01*
Y87381D01*
X61075Y87035D01*
X61271Y86742D01*
X62708Y85305D01*
X62560Y84746D01*
X62164Y84482D01*
X61816Y83961D01*
X61694Y83346D01*
X61816Y82732D01*
X62164Y82211D01*
X62685Y81863D01*
X63299Y81741D01*
X63914Y81863D01*
X64435Y82211D01*
X64699Y82607D01*
X65258Y82755D01*
X68093Y79920D01*
Y79720D01*
X68162Y79375D01*
X68357Y79082D01*
X70145Y77294D01*
X70145Y77294D01*
X70182Y77269D01*
X70031Y76769D01*
X59449D01*
X59449Y76769D01*
X59103Y76701D01*
X58810Y76505D01*
X52905Y70599D01*
X52709Y70306D01*
X52640Y69961D01*
Y45559D01*
X52141Y45460D01*
X51621Y45112D01*
X51272Y44591D01*
X51150Y43976D01*
X51153Y43965D01*
X50799Y43611D01*
X50787Y43613D01*
X50173Y43491D01*
X49652Y43143D01*
X49304Y42622D01*
X49182Y42008D01*
X49304Y41393D01*
X49652Y40872D01*
X50173Y40525D01*
X50787Y40402D01*
X51402Y40525D01*
X51923Y40872D01*
X52144Y41203D01*
X53531D01*
X53876Y41272D01*
X54169Y41468D01*
X54521Y41113D01*
X53953Y40545D01*
X53880Y40517D01*
X53704Y40346D01*
X53374Y40062D01*
X53235Y39959D01*
X53102Y39871D01*
X52981Y39802D01*
X52875Y39752D01*
X52784Y39719D01*
X52710Y39700D01*
X52610Y39687D01*
X52506Y39627D01*
X52141Y39554D01*
X51621Y39206D01*
X51272Y38685D01*
X51150Y38071D01*
X51153Y38059D01*
X50799Y37706D01*
X50787Y37708D01*
X50173Y37586D01*
X49652Y37238D01*
X49304Y36717D01*
X49182Y36102D01*
X49304Y35488D01*
X49652Y34967D01*
X50173Y34619D01*
X50787Y34497D01*
X51402Y34619D01*
X51711Y34825D01*
X51827Y34857D01*
X51907Y34918D01*
X51972Y34957D01*
X52060Y34998D01*
X52171Y35037D01*
X52305Y35074D01*
X52461Y35106D01*
X52633Y35131D01*
X53067Y35164D01*
X53312Y35168D01*
X53384Y35199D01*
X53509D01*
X53552Y35189D01*
X53917Y34764D01*
X53880Y34611D01*
X53704Y34441D01*
X53374Y34157D01*
X53235Y34053D01*
X53102Y33965D01*
X52981Y33897D01*
X52875Y33846D01*
X52784Y33813D01*
X52710Y33794D01*
X52610Y33781D01*
X52506Y33721D01*
X52141Y33649D01*
X51621Y33301D01*
X51272Y32780D01*
X51150Y32165D01*
X51153Y32154D01*
X50799Y31800D01*
X50787Y31802D01*
X50173Y31680D01*
X49652Y31332D01*
X49304Y30811D01*
X49182Y30197D01*
X49304Y29582D01*
X49652Y29061D01*
X50173Y28713D01*
X50787Y28591D01*
X51402Y28713D01*
X51711Y28920D01*
X51827Y28951D01*
X51907Y29012D01*
X51972Y29052D01*
X52060Y29092D01*
X52171Y29132D01*
X52305Y29169D01*
X52461Y29201D01*
X52633Y29226D01*
X53067Y29258D01*
X53312Y29263D01*
X53384Y29294D01*
X53509D01*
X53552Y29283D01*
X53917Y28858D01*
X53880Y28706D01*
X53704Y28535D01*
X53374Y28251D01*
X53235Y28148D01*
X53102Y28060D01*
X52981Y27991D01*
X52874Y27941D01*
X52784Y27908D01*
X52710Y27889D01*
X52610Y27876D01*
X52506Y27816D01*
X52141Y27743D01*
X51621Y27395D01*
X51272Y26874D01*
X51150Y26260D01*
X51153Y26248D01*
X50799Y25895D01*
X50787Y25897D01*
X50173Y25775D01*
X49652Y25427D01*
X49304Y24906D01*
X49182Y24291D01*
X49304Y23677D01*
X49652Y23156D01*
X50173Y22808D01*
X50787Y22686D01*
X51402Y22808D01*
X51711Y23014D01*
X51827Y23046D01*
X51907Y23107D01*
X51972Y23146D01*
X52060Y23187D01*
X52171Y23226D01*
X52305Y23263D01*
X52461Y23295D01*
X52633Y23320D01*
X53067Y23353D01*
X53312Y23357D01*
X53384Y23388D01*
X54331D01*
X54676Y23457D01*
X54969Y23653D01*
X62164Y30848D01*
X62629Y31024D01*
X62878Y30874D01*
X63165Y30682D01*
X63779Y30560D01*
X64112Y30626D01*
X64542Y30225D01*
X64536Y30197D01*
X64658Y29582D01*
X65006Y29061D01*
X65527Y28713D01*
X66142Y28591D01*
X66756Y28713D01*
X67277Y29061D01*
X67625Y29582D01*
X67747Y30197D01*
X67625Y30811D01*
X67277Y31332D01*
X66756Y31680D01*
X66142Y31802D01*
X65810Y31736D01*
X65380Y32137D01*
X65385Y32165D01*
X65263Y32780D01*
X64915Y33301D01*
X64394Y33649D01*
X63779Y33771D01*
X63214Y33659D01*
X63078Y33683D01*
X62714Y33878D01*
Y36358D01*
X63078Y36553D01*
X63214Y36578D01*
X63779Y36465D01*
X64112Y36531D01*
X64542Y36131D01*
X64536Y36102D01*
X64658Y35488D01*
X65006Y34967D01*
X65527Y34619D01*
X66142Y34497D01*
X66756Y34619D01*
X67277Y34967D01*
X67625Y35488D01*
X67747Y36102D01*
X67625Y36717D01*
X67277Y37238D01*
X66756Y37586D01*
X66142Y37708D01*
X65810Y37642D01*
X65380Y38043D01*
X65385Y38071D01*
X65263Y38685D01*
X64915Y39206D01*
X64394Y39554D01*
X63779Y39676D01*
X63214Y39564D01*
X63078Y39589D01*
X62714Y39783D01*
Y42264D01*
X63078Y42458D01*
X63214Y42483D01*
X63779Y42371D01*
X64112Y42437D01*
X64542Y42036D01*
X64536Y42008D01*
X64658Y41393D01*
X65006Y40872D01*
X65527Y40525D01*
X66142Y40402D01*
X66756Y40525D01*
X67277Y40872D01*
X67625Y41393D01*
X67747Y42008D01*
X67625Y42622D01*
X67277Y43143D01*
X66756Y43491D01*
X66142Y43613D01*
X65776Y43976D01*
X66142Y44339D01*
X66756Y44462D01*
X67277Y44809D01*
X67625Y45330D01*
X67747Y45945D01*
X67625Y46559D01*
X67277Y47080D01*
X66756Y47428D01*
X66142Y47550D01*
X65810Y47484D01*
X65380Y47885D01*
X65385Y47913D01*
X65263Y48528D01*
X64915Y49049D01*
X64394Y49397D01*
X63779Y49519D01*
X63214Y49407D01*
X63078Y49431D01*
X62714Y49626D01*
Y52106D01*
X63078Y52301D01*
X63214Y52326D01*
X63779Y52213D01*
X64112Y52279D01*
X64542Y51879D01*
X64536Y51850D01*
X64658Y51236D01*
X65006Y50715D01*
X65527Y50367D01*
X66142Y50245D01*
X66756Y50367D01*
X67277Y50715D01*
X67625Y51236D01*
X67747Y51850D01*
X67625Y52465D01*
X67277Y52986D01*
X66756Y53334D01*
X66142Y53456D01*
X65810Y53390D01*
X65380Y53791D01*
X65385Y53819D01*
X65263Y54433D01*
X64915Y54954D01*
X64394Y55302D01*
X63779Y55425D01*
X63214Y55312D01*
X63078Y55337D01*
X62714Y55531D01*
Y58012D01*
X63078Y58206D01*
X63214Y58231D01*
X63779Y58119D01*
X64112Y58185D01*
X64542Y57784D01*
X64536Y57756D01*
X64658Y57142D01*
X65006Y56621D01*
X65527Y56273D01*
X66142Y56150D01*
X66756Y56273D01*
X67277Y56621D01*
X67625Y57142D01*
X67747Y57756D01*
X67625Y58370D01*
X67277Y58891D01*
X66756Y59239D01*
X66142Y59362D01*
X65810Y59295D01*
X65380Y59696D01*
X65385Y59724D01*
X65263Y60339D01*
X64915Y60860D01*
X64394Y61208D01*
X63779Y61330D01*
X63214Y61218D01*
X63078Y61243D01*
X62714Y61437D01*
Y63917D01*
X63078Y64112D01*
X63214Y64137D01*
X63779Y64024D01*
X64112Y64090D01*
X64542Y63690D01*
X64536Y63661D01*
X64658Y63047D01*
X65006Y62526D01*
X65527Y62178D01*
X66142Y62056D01*
X66756Y62178D01*
X67277Y62526D01*
X67625Y63047D01*
X67747Y63661D01*
X67625Y64276D01*
X67277Y64797D01*
X66756Y65145D01*
X66142Y65267D01*
X65810Y65201D01*
X65380Y65602D01*
X65385Y65630D01*
X65273Y66195D01*
X65298Y66332D01*
X65492Y66695D01*
X66674D01*
X67098Y66271D01*
X67391Y66075D01*
X67737Y66006D01*
X77416D01*
X77683Y65506D01*
X77650Y65457D01*
X77528Y64842D01*
X77650Y64228D01*
X77999Y63707D01*
X78519Y63359D01*
X79134Y63237D01*
X79748Y63359D01*
X79824Y63410D01*
X80380Y63180D01*
X80406Y63047D01*
X80754Y62526D01*
X81275Y62178D01*
X81890Y62056D01*
X82504Y62178D01*
X83025Y62526D01*
X83373Y63047D01*
X83495Y63661D01*
X83373Y64276D01*
X83025Y64797D01*
X82504Y65145D01*
X81890Y65267D01*
X81275Y65145D01*
X80863Y65422D01*
X80830Y65515D01*
X81157Y66006D01*
X84744D01*
X84924Y65859D01*
Y61673D01*
X83481Y60230D01*
X83408Y60202D01*
X83232Y60031D01*
X82902Y59747D01*
X82763Y59644D01*
X82629Y59556D01*
X82509Y59487D01*
X82402Y59437D01*
X82371Y59425D01*
X82146Y59540D01*
X81971Y59683D01*
X81904Y59807D01*
X81798Y60339D01*
X81450Y60860D01*
X80929Y61208D01*
X80315Y61330D01*
X79700Y61208D01*
X79180Y60860D01*
X78831Y60339D01*
X78709Y59724D01*
X78831Y59110D01*
X79180Y58589D01*
X79700Y58241D01*
X80243Y58133D01*
X80420Y58028D01*
X80680Y57767D01*
X80678Y57756D01*
X80800Y57142D01*
X81148Y56621D01*
X81669Y56273D01*
X82284Y56150D01*
X82898Y56273D01*
X83419Y56621D01*
X83767Y57142D01*
X83839Y57506D01*
X83900Y57610D01*
X83912Y57710D01*
X83931Y57784D01*
X83965Y57875D01*
X84015Y57981D01*
X84083Y58102D01*
X84171Y58235D01*
X84275Y58374D01*
X84559Y58704D01*
X84729Y58880D01*
X84758Y58953D01*
X86465Y60661D01*
X86661Y60954D01*
X86730Y61299D01*
X86730Y61299D01*
Y65948D01*
X95378Y74596D01*
X95450Y74624D01*
X95529Y74699D01*
X95588Y74750D01*
X95635Y74786D01*
X95653Y74797D01*
X96232Y74720D01*
X97807D01*
X98527Y74815D01*
X99197Y75093D01*
X99773Y75534D01*
X100214Y76110D01*
X100492Y76781D01*
X100587Y77500D01*
X100492Y78219D01*
X100214Y78890D01*
X99773Y79466D01*
X99197Y79907D01*
X98527Y80185D01*
X97807Y80280D01*
X96232D01*
X95513Y80185D01*
X94842Y79907D01*
X94267Y79466D01*
X93923Y79017D01*
X93423Y79174D01*
Y85826D01*
X93923Y85983D01*
X94267Y85535D01*
X94842Y85093D01*
X95513Y84815D01*
X96232Y84720D01*
X97807D01*
X98527Y84815D01*
X99197Y85093D01*
X99773Y85535D01*
X100214Y86110D01*
X100492Y86781D01*
X100587Y87500D01*
X100492Y88219D01*
X100214Y88890D01*
X99773Y89465D01*
X99197Y89907D01*
X98527Y90185D01*
X97807Y90280D01*
X96232D01*
X95513Y90185D01*
X94842Y89907D01*
X94267Y89465D01*
X93923Y89017D01*
X93423Y89174D01*
Y95826D01*
X93923Y95983D01*
X94267Y95534D01*
X94842Y95093D01*
X95513Y94815D01*
X96232Y94720D01*
X97807D01*
X98527Y94815D01*
X99197Y95093D01*
X99773Y95534D01*
X100214Y96110D01*
X100492Y96781D01*
X100587Y97500D01*
X100492Y98219D01*
X100214Y98890D01*
X99773Y99466D01*
X99197Y99907D01*
X98527Y100185D01*
X97807Y100280D01*
X96232D01*
X95513Y100185D01*
X94842Y99907D01*
X94267Y99466D01*
X93923Y99017D01*
X93423Y99174D01*
Y105826D01*
X93923Y105983D01*
X94267Y105535D01*
X94842Y105093D01*
X95513Y104815D01*
X96232Y104720D01*
X97807D01*
X98527Y104815D01*
X99197Y105093D01*
X99773Y105535D01*
X100214Y106110D01*
X100492Y106781D01*
X100587Y107500D01*
X100492Y108219D01*
X100214Y108890D01*
X99773Y109466D01*
X99197Y109907D01*
X98527Y110185D01*
X97807Y110280D01*
X96232D01*
X95513Y110185D01*
X94842Y109907D01*
X94267Y109466D01*
X93923Y109017D01*
X93423Y109174D01*
Y115655D01*
X93881Y115927D01*
X93986Y115900D01*
X94267Y115534D01*
X94842Y115093D01*
X95513Y114815D01*
X96232Y114720D01*
X97807D01*
X98527Y114815D01*
X99197Y115093D01*
X99773Y115534D01*
X100214Y116110D01*
X100492Y116781D01*
X100587Y117500D01*
X100492Y118219D01*
X100214Y118890D01*
X99773Y119465D01*
X99197Y119907D01*
X98527Y120185D01*
X97807Y120280D01*
X96232D01*
X95513Y120185D01*
X94842Y119907D01*
X94267Y119465D01*
X93825Y118890D01*
X93637Y118435D01*
X93592Y118434D01*
X93450Y118373D01*
X93257Y118334D01*
X92964Y118139D01*
X92964Y118139D01*
X92704Y117879D01*
X92242Y118070D01*
Y125098D01*
X93344Y126200D01*
X93884Y126033D01*
X94267Y125534D01*
X94842Y125093D01*
X95513Y124815D01*
X96232Y124720D01*
X97807D01*
X98527Y124815D01*
X99197Y125093D01*
X99773Y125534D01*
X100214Y126110D01*
X100492Y126781D01*
X100587Y127500D01*
X100492Y128219D01*
X100214Y128890D01*
X99773Y129465D01*
X99197Y129907D01*
X98527Y130185D01*
X97807Y130280D01*
X96232D01*
X95513Y130185D01*
X94842Y129907D01*
X94267Y129465D01*
X93825Y128890D01*
X93639Y128440D01*
X93599Y128437D01*
X93494Y128434D01*
X93423Y128403D01*
X93366D01*
X93020Y128334D01*
X92728Y128139D01*
X91523Y126934D01*
X91061Y127125D01*
Y135157D01*
X92500Y136597D01*
X93423D01*
X93494Y136566D01*
X93599Y136563D01*
X93639Y136560D01*
X93825Y136110D01*
X94267Y135535D01*
X94842Y135093D01*
X95513Y134815D01*
X96232Y134720D01*
X97807D01*
X98527Y134815D01*
X99197Y135093D01*
X99773Y135535D01*
X100214Y136110D01*
X100492Y136781D01*
X100587Y137500D01*
X100492Y138219D01*
X100214Y138890D01*
X99773Y139465D01*
X99197Y139907D01*
X98527Y140185D01*
X97807Y140280D01*
X96232D01*
X95513Y140185D01*
X94842Y139907D01*
X94267Y139465D01*
X93825Y138890D01*
X93639Y138440D01*
X93599Y138437D01*
X93494Y138434D01*
X93423Y138403D01*
X92126D01*
X91780Y138334D01*
X91487Y138139D01*
X90342Y136993D01*
X89880Y137184D01*
Y144390D01*
X92087Y146597D01*
X93423D01*
X93494Y146566D01*
X93599Y146563D01*
X93639Y146560D01*
X93825Y146110D01*
X94267Y145535D01*
X94842Y145093D01*
X95513Y144815D01*
X96232Y144720D01*
X97807D01*
X98527Y144815D01*
X99197Y145093D01*
X99773Y145535D01*
X100214Y146110D01*
X100492Y146781D01*
X100587Y147500D01*
X100492Y148219D01*
X100214Y148890D01*
X99773Y149466D01*
X99197Y149907D01*
X98527Y150185D01*
X97807Y150280D01*
X96232D01*
X95513Y150185D01*
X94842Y149907D01*
X94267Y149466D01*
X93825Y148890D01*
X93639Y148440D01*
X93599Y148437D01*
X93494Y148434D01*
X93423Y148403D01*
X91713D01*
X91367Y148334D01*
X91074Y148139D01*
X89160Y146225D01*
X88698Y146416D01*
Y152795D01*
X92500Y156597D01*
X93423D01*
X93494Y156566D01*
X93599Y156563D01*
X93639Y156560D01*
X93825Y156110D01*
X94267Y155535D01*
X94842Y155093D01*
X95513Y154815D01*
X96232Y154720D01*
X97807D01*
X98527Y154815D01*
X99197Y155093D01*
X99773Y155535D01*
X100214Y156110D01*
X100492Y156781D01*
X100587Y157500D01*
X100492Y158219D01*
X100214Y158890D01*
X99773Y159466D01*
X99212Y159896D01*
X99206Y159944D01*
X99323Y160396D01*
X101797D01*
X103034Y159159D01*
Y120748D01*
X103103Y120402D01*
X103298Y120109D01*
X107235Y116172D01*
X107528Y115977D01*
X107874Y115908D01*
X109439D01*
X109608Y115408D01*
X109287Y115162D01*
X108632Y114307D01*
X108220Y113312D01*
X108079Y112244D01*
X108220Y111176D01*
X108632Y110181D01*
X109287Y109327D01*
X110142Y108671D01*
X111137Y108259D01*
X112205Y108118D01*
X113273Y108259D01*
X114268Y108671D01*
X115122Y109327D01*
X115778Y110181D01*
X116190Y111176D01*
X116331Y112244D01*
X116190Y113312D01*
X115778Y114307D01*
X115122Y115162D01*
X114801Y115408D01*
X114971Y115908D01*
X117204D01*
X117282Y115825D01*
X117543Y115505D01*
X117759Y115193D01*
X117932Y114888D01*
X118064Y114592D01*
X118157Y114303D01*
X118213Y114021D01*
X118234Y113742D01*
X118220Y113464D01*
X118166Y113146D01*
X118178Y113090D01*
X118157Y113038D01*
X118177Y112989D01*
X118079Y112244D01*
X118219Y111176D01*
X118632Y110181D01*
X119287Y109327D01*
X120142Y108671D01*
X121137Y108259D01*
X122205Y108118D01*
X123273Y108259D01*
X124268Y108671D01*
X125122Y109327D01*
X125778Y110181D01*
X125802Y110239D01*
X126302Y110139D01*
Y104349D01*
X125802Y104250D01*
X125778Y104307D01*
X125122Y105161D01*
X124268Y105817D01*
X123273Y106229D01*
X122205Y106370D01*
X121137Y106229D01*
X120142Y105817D01*
X119287Y105161D01*
X118632Y104307D01*
X118219Y103312D01*
X118079Y102244D01*
X118219Y101176D01*
X118632Y100181D01*
X119287Y99327D01*
X120142Y98671D01*
X121137Y98259D01*
X121757Y98177D01*
X121874Y97923D01*
X121892Y97655D01*
X121867Y97636D01*
X116693D01*
X116347Y97567D01*
X116189Y97461D01*
X116047Y97407D01*
X115716Y97096D01*
X115407Y96843D01*
X115106Y96635D01*
X114816Y96469D01*
X114535Y96343D01*
X114265Y96257D01*
X114003Y96206D01*
X113747Y96189D01*
X113493Y96205D01*
X113198Y96261D01*
X113136Y96249D01*
X113077Y96273D01*
X113045Y96259D01*
X112205Y96370D01*
X111137Y96229D01*
X110142Y95817D01*
X109287Y95161D01*
X108632Y94307D01*
X108220Y93312D01*
X108079Y92244D01*
X108220Y91176D01*
X108632Y90181D01*
X109287Y89327D01*
X110142Y88671D01*
X111137Y88259D01*
X112205Y88118D01*
X113273Y88259D01*
X114268Y88671D01*
X115122Y89327D01*
X115778Y90181D01*
X116190Y91176D01*
X116331Y92244D01*
X116220Y93085D01*
X116233Y93117D01*
X116209Y93176D01*
X116222Y93238D01*
X116165Y93532D01*
X116149Y93786D01*
X116166Y94042D01*
X116217Y94304D01*
X116304Y94574D01*
X116429Y94855D01*
X116595Y95146D01*
X116804Y95446D01*
X117057Y95755D01*
X117126Y95829D01*
X119336D01*
X119506Y95329D01*
X119287Y95161D01*
X118632Y94307D01*
X118219Y93312D01*
X118079Y92244D01*
X118219Y91176D01*
X118632Y90181D01*
X119287Y89327D01*
X120142Y88671D01*
X121137Y88259D01*
X122205Y88118D01*
X123273Y88259D01*
X124268Y88671D01*
X125122Y89327D01*
X125778Y90181D01*
X126190Y91176D01*
X126331Y92244D01*
X126190Y93312D01*
X125778Y94307D01*
X125122Y95161D01*
X124888Y95341D01*
X125018Y95872D01*
X125149Y95898D01*
X125442Y96094D01*
X127843Y98495D01*
X128039Y98788D01*
X128108Y99134D01*
X128108Y99134D01*
Y115197D01*
X128108Y115197D01*
X128039Y115542D01*
X127843Y115835D01*
X125836Y117843D01*
X125542Y118039D01*
X125197Y118108D01*
X124215D01*
X124115Y118608D01*
X124268Y118671D01*
X125122Y119327D01*
X125778Y120181D01*
X126190Y121176D01*
X126331Y122244D01*
X126190Y123312D01*
X125778Y124307D01*
X125122Y125162D01*
X124268Y125817D01*
X123273Y126229D01*
X122205Y126370D01*
X121137Y126229D01*
X120142Y125817D01*
X119287Y125162D01*
X118726Y124430D01*
X118226Y124578D01*
Y125079D01*
X118157Y125424D01*
X117962Y125717D01*
X115993Y127686D01*
X115700Y127882D01*
X115354Y127950D01*
X113835D01*
X113735Y128450D01*
X114268Y128671D01*
X115122Y129327D01*
X115778Y130181D01*
X116190Y131176D01*
X116331Y132244D01*
X116190Y133312D01*
X115778Y134307D01*
X115122Y135161D01*
X114268Y135817D01*
X114115Y135880D01*
X114215Y136380D01*
X116729D01*
X116844Y136257D01*
X117141Y135885D01*
X117396Y135505D01*
X117610Y135118D01*
X117784Y134723D01*
X117919Y134318D01*
X118017Y133903D01*
X118076Y133475D01*
X118096Y133034D01*
X118078Y132552D01*
X118082Y132539D01*
X118077Y132527D01*
X118107Y132455D01*
X118079Y132244D01*
X118219Y131176D01*
X118632Y130181D01*
X119287Y129327D01*
X120142Y128671D01*
X121137Y128259D01*
X122205Y128118D01*
X123273Y128259D01*
X124268Y128671D01*
X125122Y129327D01*
X125778Y130181D01*
X126190Y131176D01*
X126331Y132244D01*
X126190Y133312D01*
X125778Y134307D01*
X125122Y135161D01*
X124268Y135817D01*
X123273Y136229D01*
X122205Y136370D01*
X121994Y136342D01*
X121922Y136372D01*
X121909Y136367D01*
X121897Y136371D01*
X121415Y136352D01*
X120974Y136373D01*
X120546Y136432D01*
X120131Y136529D01*
X119726Y136665D01*
X119331Y136839D01*
X118944Y137053D01*
X118564Y137308D01*
X118192Y137605D01*
X117809Y137960D01*
X117668Y138013D01*
X117511Y138118D01*
X117165Y138187D01*
X114445D01*
X114284Y138637D01*
X114288Y138687D01*
X115122Y139327D01*
X115778Y140181D01*
X116190Y141176D01*
X116331Y142244D01*
X116190Y143312D01*
X115778Y144307D01*
X115122Y145161D01*
X114268Y145817D01*
X113273Y146229D01*
X112205Y146370D01*
X111137Y146229D01*
X110142Y145817D01*
X109287Y145161D01*
X108632Y144307D01*
X108220Y143312D01*
X108079Y142244D01*
X108220Y141176D01*
X108632Y140181D01*
X109287Y139327D01*
X110121Y138687D01*
X110126Y138637D01*
X109964Y138187D01*
X108642D01*
X107202Y139626D01*
Y160512D01*
X107202Y160512D01*
X107134Y160857D01*
X106938Y161151D01*
X106938Y161151D01*
X103788Y164300D01*
X103495Y164496D01*
X103150Y164565D01*
X99229D01*
X99129Y165065D01*
X99197Y165093D01*
X99773Y165534D01*
X100214Y166110D01*
X100492Y166781D01*
X100587Y167500D01*
X100492Y168219D01*
X100214Y168890D01*
X99773Y169465D01*
X99197Y169907D01*
X98527Y170185D01*
X97807Y170280D01*
X96232D01*
X95513Y170185D01*
X94842Y169907D01*
X94267Y169465D01*
X93825Y168890D01*
X93547Y168219D01*
X93453Y167500D01*
X93547Y166781D01*
X93825Y166110D01*
X94267Y165534D01*
X94603Y165277D01*
X94483Y164738D01*
X94329Y164704D01*
X91977Y167056D01*
X91684Y167252D01*
X91339Y167321D01*
X91179D01*
X91107Y167352D01*
X90862Y167356D01*
X90428Y167388D01*
X90257Y167413D01*
X90100Y167446D01*
X89966Y167482D01*
X89855Y167522D01*
X89767Y167563D01*
X89702Y167602D01*
X89623Y167663D01*
X89506Y167694D01*
X89197Y167901D01*
X88583Y168023D01*
X88017Y167911D01*
X87881Y167935D01*
X87517Y168130D01*
Y168799D01*
X89744Y171026D01*
X100000D01*
X100346Y171095D01*
X100639Y171291D01*
X104969Y175621D01*
X105165Y175914D01*
X105234Y176260D01*
Y203996D01*
X106356Y205118D01*
X106426Y205145D01*
X107001Y205687D01*
X107572Y206164D01*
X108151Y206588D01*
X108739Y206959D01*
X109336Y207278D01*
X109942Y207545D01*
X110557Y207762D01*
X111183Y207929D01*
X111821Y208046D01*
X112495Y208116D01*
X112595Y208170D01*
X113273Y208259D01*
X114268Y208671D01*
X115122Y209327D01*
X115778Y210181D01*
X116190Y211176D01*
X116331Y212244D01*
X116190Y213312D01*
X115778Y214307D01*
X115122Y215161D01*
X114268Y215817D01*
X113273Y216229D01*
X112205Y216370D01*
X111137Y216229D01*
X110142Y215817D01*
X109287Y215161D01*
X108632Y214307D01*
X108220Y213312D01*
X108130Y212634D01*
X108076Y212534D01*
X108007Y211860D01*
X107890Y211223D01*
X107723Y210596D01*
X107506Y209981D01*
X107238Y209375D01*
X106919Y208779D01*
X106548Y208191D01*
X106125Y207611D01*
X105648Y207041D01*
X105105Y206466D01*
X105078Y206395D01*
X103692Y205009D01*
X103496Y204716D01*
X103428Y204370D01*
Y176634D01*
X99626Y172832D01*
X89836D01*
X89629Y173332D01*
X92894Y176597D01*
X93423D01*
X93494Y176566D01*
X93599Y176563D01*
X93639Y176560D01*
X93825Y176110D01*
X94267Y175534D01*
X94842Y175093D01*
X95513Y174815D01*
X96232Y174720D01*
X97807D01*
X98527Y174815D01*
X99197Y175093D01*
X99773Y175534D01*
X100214Y176110D01*
X100492Y176781D01*
X100587Y177500D01*
X100492Y178219D01*
X100214Y178890D01*
X99773Y179465D01*
X99197Y179907D01*
X98527Y180185D01*
X97807Y180280D01*
X96232D01*
X95513Y180185D01*
X94842Y179907D01*
X94267Y179465D01*
X93825Y178890D01*
X93639Y178440D01*
X93599Y178437D01*
X93494Y178434D01*
X93423Y178403D01*
X92520D01*
X92174Y178334D01*
X91881Y178139D01*
X86798Y173056D01*
X86336Y173247D01*
Y180216D01*
X92717Y186597D01*
X93423D01*
X93494Y186566D01*
X93599Y186563D01*
X93639Y186560D01*
X93825Y186110D01*
X94267Y185535D01*
X94842Y185093D01*
X95513Y184815D01*
X96232Y184720D01*
X97807D01*
X98527Y184815D01*
X99197Y185093D01*
X99773Y185535D01*
X100214Y186110D01*
X100492Y186781D01*
X100587Y187500D01*
X100492Y188219D01*
X100214Y188890D01*
X99773Y189465D01*
X99197Y189907D01*
X98527Y190185D01*
X97807Y190280D01*
X96232D01*
X95513Y190185D01*
X94842Y189907D01*
X94267Y189465D01*
X93825Y188890D01*
X93639Y188440D01*
X93599Y188437D01*
X93494Y188434D01*
X93423Y188403D01*
X92343D01*
X91997Y188334D01*
X91704Y188139D01*
X85617Y182052D01*
X85155Y182243D01*
Y189665D01*
X92087Y196597D01*
X93423D01*
X93494Y196566D01*
X93599Y196563D01*
X93639Y196560D01*
X93825Y196110D01*
X94267Y195535D01*
X94842Y195093D01*
X95513Y194815D01*
X96232Y194720D01*
X97807D01*
X98527Y194815D01*
X99197Y195093D01*
X99773Y195535D01*
X100214Y196110D01*
X100492Y196781D01*
X100587Y197500D01*
X100492Y198219D01*
X100214Y198890D01*
X99773Y199466D01*
X99197Y199907D01*
X98527Y200185D01*
X97807Y200280D01*
X96232D01*
X95513Y200185D01*
X94842Y199907D01*
X94267Y199466D01*
X93825Y198890D01*
X93639Y198440D01*
X93599Y198437D01*
X93494Y198434D01*
X93423Y198403D01*
X91713D01*
X91367Y198334D01*
X91074Y198139D01*
X91074Y198139D01*
X83613Y190678D01*
X83418Y190385D01*
X83349Y190039D01*
Y172947D01*
X82432Y172030D01*
X82236Y171738D01*
X82168Y171392D01*
Y153234D01*
X82236Y152889D01*
X82432Y152595D01*
X83349Y151679D01*
Y126168D01*
X82849Y125938D01*
X82504Y126169D01*
X81890Y126291D01*
X81275Y126169D01*
X81029Y126004D01*
X80529Y126271D01*
Y214173D01*
X82953Y216597D01*
X93423D01*
X93494Y216566D01*
X93599Y216563D01*
X93639Y216560D01*
X93825Y216110D01*
X94267Y215534D01*
X94842Y215093D01*
X95513Y214815D01*
X96232Y214720D01*
X97807D01*
X98527Y214815D01*
X99197Y215093D01*
X99773Y215534D01*
X100214Y216110D01*
X100492Y216781D01*
X100587Y217500D01*
X100492Y218219D01*
X100214Y218890D01*
X99773Y219465D01*
X99197Y219907D01*
X98527Y220185D01*
X97807Y220280D01*
X96232D01*
X95513Y220185D01*
X94842Y219907D01*
X94267Y219465D01*
X93825Y218890D01*
X93639Y218440D01*
X93599Y218437D01*
X93494Y218434D01*
X93423Y218403D01*
X82579D01*
X82233Y218334D01*
X81940Y218139D01*
X79810Y216008D01*
X79348Y216200D01*
Y222441D01*
X83504Y226597D01*
X93423D01*
X93494Y226566D01*
X93599Y226563D01*
X93639Y226560D01*
X93825Y226110D01*
X94267Y225535D01*
X94842Y225093D01*
X95513Y224815D01*
X96232Y224720D01*
X97807D01*
X98527Y224815D01*
X99197Y225093D01*
X99773Y225535D01*
X100214Y226110D01*
X100492Y226781D01*
X100587Y227500D01*
X100492Y228219D01*
X100214Y228890D01*
X99773Y229466D01*
X99197Y229907D01*
X98527Y230185D01*
X97807Y230280D01*
X96232D01*
X95513Y230185D01*
X94842Y229907D01*
X94267Y229466D01*
X93825Y228890D01*
X93639Y228440D01*
X93599Y228437D01*
X93494Y228434D01*
X93423Y228403D01*
X83130D01*
X83130Y228403D01*
X82784Y228334D01*
X82491Y228139D01*
X78629Y224276D01*
X78167Y224468D01*
Y233071D01*
X81693Y236597D01*
X93423D01*
X93494Y236566D01*
X93599Y236563D01*
X93639Y236560D01*
X93825Y236110D01*
X94267Y235535D01*
X94842Y235093D01*
X95513Y234815D01*
X96232Y234720D01*
X97807D01*
X98527Y234815D01*
X99197Y235093D01*
X99773Y235535D01*
X100214Y236110D01*
X100492Y236781D01*
X100587Y237500D01*
X100492Y238219D01*
X100214Y238890D01*
X99773Y239465D01*
X99197Y239907D01*
X98527Y240185D01*
X97807Y240280D01*
X96232D01*
X95513Y240185D01*
X94842Y239907D01*
X94267Y239465D01*
X93825Y238890D01*
X93639Y238440D01*
X93599Y238437D01*
X93494Y238434D01*
X93423Y238403D01*
X81319D01*
X81319Y238403D01*
X80973Y238334D01*
X80680Y238139D01*
X80680Y238139D01*
X77448Y234906D01*
X76986Y235098D01*
Y241732D01*
X81850Y246597D01*
X93423D01*
X93494Y246566D01*
X93599Y246563D01*
X93639Y246560D01*
X93825Y246110D01*
X94267Y245534D01*
X94842Y245093D01*
X95513Y244815D01*
X96232Y244720D01*
X97807D01*
X98527Y244815D01*
X99197Y245093D01*
X99773Y245534D01*
X100214Y246110D01*
X100492Y246781D01*
X100587Y247500D01*
X100492Y248219D01*
X100214Y248890D01*
X99773Y249465D01*
X99197Y249907D01*
X98527Y250185D01*
X97807Y250280D01*
X96232D01*
X95513Y250185D01*
X94842Y249907D01*
X94267Y249465D01*
X93825Y248890D01*
X93639Y248440D01*
X93599Y248437D01*
X93494Y248434D01*
X93423Y248403D01*
X81476D01*
X81131Y248334D01*
X80838Y248139D01*
X76267Y243568D01*
X75805Y243759D01*
Y251575D01*
X80827Y256597D01*
X93423D01*
X93494Y256566D01*
X93599Y256563D01*
X93639Y256560D01*
X93825Y256110D01*
X94267Y255535D01*
X94842Y255093D01*
X95513Y254815D01*
X96232Y254720D01*
X97807D01*
X98527Y254815D01*
X99197Y255093D01*
X99773Y255535D01*
X100214Y256110D01*
X100492Y256781D01*
X100587Y257500D01*
X100492Y258219D01*
X100214Y258890D01*
X99773Y259466D01*
X99197Y259907D01*
X98527Y260185D01*
X97807Y260280D01*
X96232D01*
X95513Y260185D01*
X94842Y259907D01*
X94267Y259466D01*
X93825Y258890D01*
X93639Y258440D01*
X93599Y258437D01*
X93494Y258434D01*
X93423Y258403D01*
X80453D01*
X80107Y258334D01*
X79814Y258139D01*
X75086Y253410D01*
X74624Y253602D01*
Y261417D01*
X79803Y266597D01*
X93423D01*
X93494Y266566D01*
X93599Y266563D01*
X93639Y266560D01*
X93825Y266110D01*
X94267Y265534D01*
X94842Y265093D01*
X95513Y264815D01*
X96232Y264720D01*
X97807D01*
X98527Y264815D01*
X99197Y265093D01*
X99773Y265534D01*
X100214Y266110D01*
X100492Y266781D01*
X100587Y267500D01*
X100492Y268219D01*
X100214Y268890D01*
X99773Y269465D01*
X99197Y269907D01*
X98527Y270185D01*
X97807Y270280D01*
X96232D01*
X95513Y270185D01*
X94842Y269907D01*
X94267Y269465D01*
X93825Y268890D01*
X93639Y268440D01*
X93599Y268437D01*
X93494Y268434D01*
X93423Y268403D01*
X79429D01*
X79084Y268334D01*
X78790Y268139D01*
X73905Y263253D01*
X73443Y263444D01*
Y272047D01*
X77992Y276597D01*
X93423D01*
X93494Y276566D01*
X93599Y276563D01*
X93639Y276560D01*
X93825Y276110D01*
X94267Y275535D01*
X94842Y275093D01*
X95513Y274815D01*
X96232Y274720D01*
X97807D01*
X98527Y274815D01*
X99197Y275093D01*
X99773Y275535D01*
X100214Y276110D01*
X100492Y276781D01*
X100587Y277500D01*
X100492Y278219D01*
X100214Y278890D01*
X99773Y279466D01*
X99197Y279907D01*
X98527Y280185D01*
X97807Y280280D01*
X96232D01*
X95513Y280185D01*
X94842Y279907D01*
X94267Y279466D01*
X93825Y278890D01*
X93639Y278440D01*
X93599Y278437D01*
X93494Y278434D01*
X93423Y278403D01*
X77618D01*
X77272Y278334D01*
X76980Y278139D01*
X72723Y273883D01*
X72262Y274074D01*
Y281890D01*
X76969Y286597D01*
X93423D01*
X93494Y286566D01*
X93599Y286563D01*
X93639Y286560D01*
X93825Y286110D01*
X94267Y285535D01*
X94842Y285093D01*
X95513Y284815D01*
X96232Y284720D01*
X97807D01*
X98527Y284815D01*
X99197Y285093D01*
X99773Y285535D01*
X100214Y286110D01*
X100492Y286781D01*
X100587Y287500D01*
X100492Y288219D01*
X100214Y288890D01*
X99773Y289465D01*
X99197Y289907D01*
X98527Y290185D01*
X97807Y290280D01*
X96232D01*
X95513Y290185D01*
X94842Y289907D01*
X94267Y289465D01*
X93825Y288890D01*
X93639Y288440D01*
X93599Y288437D01*
X93494Y288434D01*
X93423Y288403D01*
X76595D01*
X76249Y288334D01*
X75956Y288139D01*
X71542Y283725D01*
X71080Y283916D01*
Y291732D01*
X75945Y296597D01*
X93423D01*
X93494Y296566D01*
X93599Y296563D01*
X93639Y296560D01*
X93825Y296110D01*
X94267Y295534D01*
X94842Y295093D01*
X95513Y294815D01*
X96232Y294720D01*
X97807D01*
X98527Y294815D01*
X99197Y295093D01*
X99773Y295534D01*
X100214Y296110D01*
X100492Y296781D01*
X100587Y297500D01*
X100492Y298219D01*
X100214Y298890D01*
X99773Y299465D01*
X99197Y299907D01*
X98527Y300185D01*
X97807Y300280D01*
X96232D01*
X95513Y300185D01*
X94842Y299907D01*
X94267Y299465D01*
X93825Y298890D01*
X93639Y298440D01*
X93599Y298437D01*
X93494Y298434D01*
X93423Y298403D01*
X75571D01*
X75571Y298403D01*
X75225Y298334D01*
X74932Y298139D01*
X74932Y298139D01*
X70361Y293568D01*
X69899Y293759D01*
Y301181D01*
X75315Y306597D01*
X93423D01*
X93494Y306566D01*
X93599Y306563D01*
X93639Y306560D01*
X93825Y306110D01*
X94267Y305535D01*
X94842Y305093D01*
X95513Y304815D01*
X96232Y304720D01*
X97807D01*
X98527Y304815D01*
X99197Y305093D01*
X99773Y305535D01*
X100214Y306110D01*
X100492Y306781D01*
X100587Y307500D01*
X100492Y308219D01*
X100214Y308890D01*
X99773Y309466D01*
X99197Y309907D01*
X98527Y310185D01*
X97807Y310280D01*
X96232D01*
X95513Y310185D01*
X94842Y309907D01*
X94267Y309466D01*
X93825Y308890D01*
X93639Y308440D01*
X93599Y308437D01*
X93494Y308434D01*
X93423Y308403D01*
X74941D01*
X74595Y308334D01*
X74302Y308139D01*
X69180Y303016D01*
X68718Y303208D01*
Y308268D01*
X77047Y316597D01*
X87165D01*
X87265Y316097D01*
X86747Y315882D01*
X86150Y315424D01*
X85692Y314827D01*
X85404Y314132D01*
X85306Y313386D01*
X85404Y312640D01*
X85692Y311944D01*
X86150Y311347D01*
X86747Y310889D01*
X87443Y310601D01*
X88189Y310503D01*
X88935Y310601D01*
X89630Y310889D01*
X90228Y311347D01*
X90686Y311944D01*
X90974Y312640D01*
X91072Y313386D01*
X90974Y314132D01*
X90686Y314827D01*
X90228Y315424D01*
X89630Y315882D01*
X89113Y316097D01*
X89213Y316597D01*
X93423D01*
X93494Y316566D01*
X93599Y316563D01*
X93639Y316560D01*
X93825Y316110D01*
X94267Y315534D01*
X94842Y315093D01*
X95513Y314815D01*
X96232Y314720D01*
X97807D01*
X98527Y314815D01*
X99197Y315093D01*
X99773Y315534D01*
X100214Y316110D01*
X100492Y316781D01*
X100587Y317500D01*
X100492Y318219D01*
X100214Y318890D01*
X99773Y319465D01*
X99197Y319907D01*
X98527Y320185D01*
X97807Y320280D01*
D02*
G37*
G36*
X111417Y283771D02*
X110803Y283649D01*
X110282Y283301D01*
X109934Y282780D01*
X109812Y282165D01*
X109934Y281551D01*
X110282Y281030D01*
X110803Y280682D01*
X111417Y280560D01*
X112032Y280682D01*
X112553Y281030D01*
X112901Y281551D01*
X113023Y282165D01*
X112901Y282780D01*
X112553Y283301D01*
X112032Y283649D01*
X111417Y283771D01*
D02*
G37*
G36*
X7807Y270280D02*
X6232D01*
X5513Y270185D01*
X4843Y269907D01*
X4267Y269465D01*
X3825Y268890D01*
X3547Y268219D01*
X3453Y267500D01*
X3547Y266781D01*
X3825Y266110D01*
X4267Y265534D01*
X4843Y265093D01*
X5513Y264815D01*
X6232Y264720D01*
X7807D01*
X8527Y264815D01*
X9197Y265093D01*
X9773Y265534D01*
X10214Y266110D01*
X10492Y266781D01*
X10587Y267500D01*
X10492Y268219D01*
X10214Y268890D01*
X9773Y269465D01*
X9197Y269907D01*
X8527Y270185D01*
X7807Y270280D01*
D02*
G37*
G36*
Y260280D02*
X6232D01*
X5513Y260185D01*
X4843Y259907D01*
X4267Y259466D01*
X3825Y258890D01*
X3547Y258219D01*
X3453Y257500D01*
X3547Y256781D01*
X3825Y256110D01*
X4267Y255535D01*
X4843Y255093D01*
X5513Y254815D01*
X6232Y254720D01*
X7807D01*
X8527Y254815D01*
X9197Y255093D01*
X9773Y255535D01*
X10214Y256110D01*
X10492Y256781D01*
X10587Y257500D01*
X10492Y258219D01*
X10214Y258890D01*
X9773Y259466D01*
X9197Y259907D01*
X8527Y260185D01*
X7807Y260280D01*
D02*
G37*
G36*
Y250280D02*
X6232D01*
X5513Y250185D01*
X4843Y249907D01*
X4267Y249465D01*
X3825Y248890D01*
X3547Y248219D01*
X3453Y247500D01*
X3547Y246781D01*
X3825Y246110D01*
X4267Y245534D01*
X4843Y245093D01*
X5513Y244815D01*
X6232Y244720D01*
X7807D01*
X8527Y244815D01*
X9197Y245093D01*
X9773Y245534D01*
X10214Y246110D01*
X10492Y246781D01*
X10587Y247500D01*
X10492Y248219D01*
X10214Y248890D01*
X9773Y249465D01*
X9197Y249907D01*
X8527Y250185D01*
X7807Y250280D01*
D02*
G37*
G36*
X58268Y247058D02*
X57653Y246936D01*
X57132Y246588D01*
X56784Y246067D01*
X56662Y245453D01*
X56784Y244838D01*
X57132Y244317D01*
X57653Y243969D01*
X58268Y243847D01*
X58882Y243969D01*
X59403Y244317D01*
X59751Y244838D01*
X59873Y245453D01*
X59751Y246067D01*
X59403Y246588D01*
X58882Y246936D01*
X58268Y247058D01*
D02*
G37*
G36*
X117205Y247972D02*
X115931Y247846D01*
X114707Y247475D01*
X113578Y246871D01*
X112589Y246060D01*
X111777Y245071D01*
X111174Y243942D01*
X110803Y242718D01*
X110677Y241444D01*
X110803Y240171D01*
X111174Y238946D01*
X111777Y237818D01*
X112589Y236828D01*
X113578Y236017D01*
X114707Y235414D01*
X115931Y235042D01*
X117205Y234917D01*
X118478Y235042D01*
X119703Y235414D01*
X120831Y236017D01*
X121820Y236828D01*
X122632Y237818D01*
X123235Y238946D01*
X123607Y240171D01*
X123732Y241444D01*
X123607Y242718D01*
X123235Y243942D01*
X122632Y245071D01*
X121820Y246060D01*
X120831Y246871D01*
X119703Y247475D01*
X118478Y247846D01*
X117205Y247972D01*
D02*
G37*
G36*
X7807Y240280D02*
X6232D01*
X5513Y240185D01*
X4843Y239907D01*
X4267Y239465D01*
X3825Y238890D01*
X3547Y238219D01*
X3453Y237500D01*
X3547Y236781D01*
X3825Y236110D01*
X4267Y235535D01*
X4843Y235093D01*
X5513Y234815D01*
X6232Y234720D01*
X7807D01*
X8527Y234815D01*
X9197Y235093D01*
X9773Y235535D01*
X10214Y236110D01*
X10492Y236781D01*
X10587Y237500D01*
X10492Y238219D01*
X10214Y238890D01*
X9773Y239465D01*
X9197Y239907D01*
X8527Y240185D01*
X7807Y240280D01*
D02*
G37*
G36*
Y230280D02*
X6232D01*
X5513Y230185D01*
X4843Y229907D01*
X4267Y229466D01*
X3825Y228890D01*
X3547Y228219D01*
X3453Y227500D01*
X3547Y226781D01*
X3825Y226110D01*
X4267Y225535D01*
X4843Y225093D01*
X5513Y224815D01*
X6232Y224720D01*
X7807D01*
X8527Y224815D01*
X9197Y225093D01*
X9773Y225535D01*
X10214Y226110D01*
X10492Y226781D01*
X10587Y227500D01*
X10492Y228219D01*
X10214Y228890D01*
X9773Y229466D01*
X9197Y229907D01*
X8527Y230185D01*
X7807Y230280D01*
D02*
G37*
G36*
X51575Y224322D02*
X50960Y224200D01*
X50439Y223852D01*
X50091Y223331D01*
X49969Y222717D01*
X50091Y222102D01*
X50439Y221581D01*
X50960Y221233D01*
X51575Y221111D01*
X52189Y221233D01*
X52710Y221581D01*
X53058Y222102D01*
X53180Y222717D01*
X53058Y223331D01*
X52710Y223852D01*
X52189Y224200D01*
X51575Y224322D01*
D02*
G37*
G36*
X122205Y226370D02*
X121137Y226229D01*
X120142Y225817D01*
X119287Y225162D01*
X118632Y224307D01*
X118219Y223312D01*
X118079Y222244D01*
X118219Y221176D01*
X118632Y220181D01*
X119287Y219327D01*
X120142Y218671D01*
X121137Y218259D01*
X122205Y218118D01*
X123273Y218259D01*
X124268Y218671D01*
X125122Y219327D01*
X125778Y220181D01*
X126190Y221176D01*
X126331Y222244D01*
X126190Y223312D01*
X125778Y224307D01*
X125122Y225162D01*
X124268Y225817D01*
X123273Y226229D01*
X122205Y226370D01*
D02*
G37*
G36*
X112205D02*
X111137Y226229D01*
X110142Y225817D01*
X109287Y225162D01*
X108632Y224307D01*
X108220Y223312D01*
X108079Y222244D01*
X108220Y221176D01*
X108632Y220181D01*
X109287Y219327D01*
X110142Y218671D01*
X111137Y218259D01*
X112205Y218118D01*
X113273Y218259D01*
X114268Y218671D01*
X115122Y219327D01*
X115778Y220181D01*
X116190Y221176D01*
X116331Y222244D01*
X116190Y223312D01*
X115778Y224307D01*
X115122Y225162D01*
X114268Y225817D01*
X113273Y226229D01*
X112205Y226370D01*
D02*
G37*
G36*
X122205Y216370D02*
X121137Y216229D01*
X120142Y215817D01*
X119287Y215161D01*
X118632Y214307D01*
X118219Y213312D01*
X118079Y212244D01*
X118219Y211176D01*
X118632Y210181D01*
X119287Y209327D01*
X120142Y208671D01*
X121137Y208259D01*
X122205Y208118D01*
X123273Y208259D01*
X124268Y208671D01*
X125122Y209327D01*
X125778Y210181D01*
X126190Y211176D01*
X126331Y212244D01*
X126190Y213312D01*
X125778Y214307D01*
X125122Y215161D01*
X124268Y215817D01*
X123273Y216229D01*
X122205Y216370D01*
D02*
G37*
G36*
X97807Y210280D02*
X96232D01*
X95513Y210185D01*
X94842Y209907D01*
X94267Y209466D01*
X93825Y208890D01*
X93547Y208219D01*
X93453Y207500D01*
X93547Y206781D01*
X93825Y206110D01*
X94267Y205535D01*
X94842Y205093D01*
X95513Y204815D01*
X96232Y204720D01*
X97807D01*
X98527Y204815D01*
X99197Y205093D01*
X99773Y205535D01*
X100214Y206110D01*
X100492Y206781D01*
X100587Y207500D01*
X100492Y208219D01*
X100214Y208890D01*
X99773Y209466D01*
X99197Y209907D01*
X98527Y210185D01*
X97807Y210280D01*
D02*
G37*
G36*
X86614Y201488D02*
X86000Y201365D01*
X85479Y201017D01*
X85131Y200496D01*
X85009Y199882D01*
X85131Y199267D01*
X85479Y198747D01*
X86000Y198398D01*
X86614Y198276D01*
X87229Y198398D01*
X87749Y198747D01*
X88098Y199267D01*
X88220Y199882D01*
X88098Y200496D01*
X87749Y201017D01*
X87229Y201365D01*
X86614Y201488D01*
D02*
G37*
G36*
X122205Y206370D02*
X121137Y206229D01*
X120142Y205817D01*
X119287Y205161D01*
X118632Y204307D01*
X118219Y203312D01*
X118079Y202244D01*
X118219Y201176D01*
X118632Y200181D01*
X119287Y199327D01*
X120142Y198671D01*
X121137Y198259D01*
X122205Y198118D01*
X123273Y198259D01*
X124268Y198671D01*
X125122Y199327D01*
X125778Y200181D01*
X126190Y201176D01*
X126331Y202244D01*
X126190Y203312D01*
X125778Y204307D01*
X125122Y205161D01*
X124268Y205817D01*
X123273Y206229D01*
X122205Y206370D01*
D02*
G37*
G36*
X112205D02*
X111137Y206229D01*
X110142Y205817D01*
X109287Y205161D01*
X108632Y204307D01*
X108220Y203312D01*
X108079Y202244D01*
X108220Y201176D01*
X108632Y200181D01*
X109287Y199327D01*
X110142Y198671D01*
X111137Y198259D01*
X112205Y198118D01*
X113273Y198259D01*
X114268Y198671D01*
X115122Y199327D01*
X115778Y200181D01*
X116190Y201176D01*
X116331Y202244D01*
X116190Y203312D01*
X115778Y204307D01*
X115122Y205161D01*
X114268Y205817D01*
X113273Y206229D01*
X112205Y206370D01*
D02*
G37*
G36*
X122205Y196370D02*
X121137Y196229D01*
X120142Y195817D01*
X119287Y195161D01*
X118632Y194307D01*
X118219Y193312D01*
X118079Y192244D01*
X118219Y191176D01*
X118632Y190181D01*
X119287Y189327D01*
X120142Y188671D01*
X121137Y188259D01*
X122205Y188118D01*
X123273Y188259D01*
X124268Y188671D01*
X125122Y189327D01*
X125778Y190181D01*
X126190Y191176D01*
X126331Y192244D01*
X126190Y193312D01*
X125778Y194307D01*
X125122Y195161D01*
X124268Y195817D01*
X123273Y196229D01*
X122205Y196370D01*
D02*
G37*
G36*
X112205D02*
X111137Y196229D01*
X110142Y195817D01*
X109287Y195161D01*
X108632Y194307D01*
X108220Y193312D01*
X108079Y192244D01*
X108220Y191176D01*
X108632Y190181D01*
X109287Y189327D01*
X110142Y188671D01*
X111137Y188259D01*
X112205Y188118D01*
X113273Y188259D01*
X114268Y188671D01*
X115122Y189327D01*
X115778Y190181D01*
X116190Y191176D01*
X116331Y192244D01*
X116190Y193312D01*
X115778Y194307D01*
X115122Y195161D01*
X114268Y195817D01*
X113273Y196229D01*
X112205Y196370D01*
D02*
G37*
G36*
X7807Y190280D02*
X6232D01*
X5513Y190185D01*
X4843Y189907D01*
X4267Y189465D01*
X3825Y188890D01*
X3547Y188219D01*
X3453Y187500D01*
X3547Y186781D01*
X3825Y186110D01*
X4267Y185535D01*
X4843Y185093D01*
X5513Y184815D01*
X6232Y184720D01*
X7807D01*
X8527Y184815D01*
X9197Y185093D01*
X9773Y185535D01*
X10214Y186110D01*
X10492Y186781D01*
X10587Y187500D01*
X10492Y188219D01*
X10214Y188890D01*
X9773Y189465D01*
X9197Y189907D01*
X8527Y190185D01*
X7807Y190280D01*
D02*
G37*
G36*
X122205Y186370D02*
X121137Y186229D01*
X120142Y185817D01*
X119287Y185161D01*
X118632Y184307D01*
X118219Y183312D01*
X118079Y182244D01*
X118219Y181176D01*
X118632Y180181D01*
X119287Y179327D01*
X120142Y178671D01*
X121137Y178259D01*
X122205Y178118D01*
X123273Y178259D01*
X124268Y178671D01*
X125122Y179327D01*
X125778Y180181D01*
X126190Y181176D01*
X126331Y182244D01*
X126190Y183312D01*
X125778Y184307D01*
X125122Y185161D01*
X124268Y185817D01*
X123273Y186229D01*
X122205Y186370D01*
D02*
G37*
G36*
X112205D02*
X111137Y186229D01*
X110142Y185817D01*
X109287Y185161D01*
X108632Y184307D01*
X108220Y183312D01*
X108079Y182244D01*
X108220Y181176D01*
X108632Y180181D01*
X109287Y179327D01*
X110142Y178671D01*
X111137Y178259D01*
X112205Y178118D01*
X113273Y178259D01*
X114268Y178671D01*
X115122Y179327D01*
X115778Y180181D01*
X116190Y181176D01*
X116331Y182244D01*
X116190Y183312D01*
X115778Y184307D01*
X115122Y185161D01*
X114268Y185817D01*
X113273Y186229D01*
X112205Y186370D01*
D02*
G37*
G36*
X57973Y180720D02*
X57358Y180598D01*
X56837Y180250D01*
X56489Y179729D01*
X56367Y179114D01*
X56489Y178500D01*
X56837Y177979D01*
X57358Y177631D01*
X57973Y177508D01*
X58587Y177631D01*
X59108Y177979D01*
X59456Y178500D01*
X59578Y179114D01*
X59456Y179729D01*
X59108Y180250D01*
X58587Y180598D01*
X57973Y180720D01*
D02*
G37*
G36*
X49606Y179539D02*
X48992Y179417D01*
X48471Y179069D01*
X48123Y178548D01*
X48001Y177933D01*
X48123Y177319D01*
X48471Y176798D01*
X48992Y176450D01*
X49606Y176327D01*
X50221Y176450D01*
X50742Y176798D01*
X51090Y177319D01*
X51212Y177933D01*
X51090Y178548D01*
X50742Y179069D01*
X50221Y179417D01*
X49606Y179539D01*
D02*
G37*
G36*
X51575Y175503D02*
X50960Y175381D01*
X50439Y175033D01*
X50091Y174512D01*
X49969Y173898D01*
X50091Y173283D01*
X50439Y172762D01*
X50960Y172414D01*
X51575Y172292D01*
X52189Y172414D01*
X52710Y172762D01*
X53058Y173283D01*
X53180Y173898D01*
X53058Y174512D01*
X52710Y175033D01*
X52189Y175381D01*
X51575Y175503D01*
D02*
G37*
G36*
X122205Y176370D02*
X121137Y176229D01*
X120142Y175817D01*
X119287Y175162D01*
X118632Y174307D01*
X118219Y173312D01*
X118079Y172244D01*
X118219Y171176D01*
X118632Y170181D01*
X119287Y169327D01*
X120142Y168671D01*
X121137Y168259D01*
X122205Y168118D01*
X123273Y168259D01*
X124268Y168671D01*
X125122Y169327D01*
X125778Y170181D01*
X126190Y171176D01*
X126331Y172244D01*
X126190Y173312D01*
X125778Y174307D01*
X125122Y175162D01*
X124268Y175817D01*
X123273Y176229D01*
X122205Y176370D01*
D02*
G37*
G36*
X112205D02*
X111137Y176229D01*
X110142Y175817D01*
X109287Y175162D01*
X108632Y174307D01*
X108220Y173312D01*
X108079Y172244D01*
X108220Y171176D01*
X108632Y170181D01*
X109287Y169327D01*
X110142Y168671D01*
X111137Y168259D01*
X112205Y168118D01*
X113273Y168259D01*
X114268Y168671D01*
X115122Y169327D01*
X115778Y170181D01*
X116190Y171176D01*
X116331Y172244D01*
X116190Y173312D01*
X115778Y174307D01*
X115122Y175162D01*
X114268Y175817D01*
X113273Y176229D01*
X112205Y176370D01*
D02*
G37*
G36*
X122205Y166370D02*
X121137Y166229D01*
X120142Y165817D01*
X119287Y165162D01*
X118632Y164307D01*
X118219Y163312D01*
X118079Y162244D01*
X118219Y161176D01*
X118632Y160181D01*
X119287Y159327D01*
X120142Y158671D01*
X121137Y158259D01*
X122205Y158118D01*
X123273Y158259D01*
X124268Y158671D01*
X125122Y159327D01*
X125778Y160181D01*
X126190Y161176D01*
X126331Y162244D01*
X126190Y163312D01*
X125778Y164307D01*
X125122Y165162D01*
X124268Y165817D01*
X123273Y166229D01*
X122205Y166370D01*
D02*
G37*
G36*
X112205D02*
X111137Y166229D01*
X110142Y165817D01*
X109287Y165162D01*
X108632Y164307D01*
X108220Y163312D01*
X108079Y162244D01*
X108220Y161176D01*
X108632Y160181D01*
X109287Y159327D01*
X110142Y158671D01*
X111137Y158259D01*
X112205Y158118D01*
X113273Y158259D01*
X114268Y158671D01*
X115122Y159327D01*
X115778Y160181D01*
X116190Y161176D01*
X116331Y162244D01*
X116190Y163312D01*
X115778Y164307D01*
X115122Y165162D01*
X114268Y165817D01*
X113273Y166229D01*
X112205Y166370D01*
D02*
G37*
G36*
X49606Y158968D02*
X48992Y158846D01*
X48471Y158498D01*
X48123Y157977D01*
X48001Y157362D01*
X48123Y156748D01*
X48329Y156439D01*
X48361Y156322D01*
X48422Y156243D01*
X48461Y156177D01*
X48502Y156090D01*
X48541Y155979D01*
X48578Y155845D01*
X48610Y155688D01*
X48635Y155517D01*
X48668Y155083D01*
X48670Y154947D01*
X48043Y154321D01*
X47583Y154567D01*
X47669Y155000D01*
X47546Y155614D01*
X47198Y156135D01*
X46678Y156483D01*
X46063Y156606D01*
X45782Y156550D01*
X45407Y156570D01*
X45239Y156913D01*
X45184Y157189D01*
X44836Y157710D01*
X44315Y158058D01*
X43701Y158180D01*
X43086Y158058D01*
X42565Y157710D01*
X42217Y157189D01*
X42095Y156575D01*
X42217Y155960D01*
X42565Y155439D01*
X42678Y155364D01*
X42703Y155304D01*
X42710Y155301D01*
X42721Y155261D01*
X42735Y155194D01*
X42747Y155111D01*
X42764Y154858D01*
X42766Y154708D01*
X42828Y154566D01*
X42866Y154372D01*
X43062Y154079D01*
X43880Y153261D01*
Y141843D01*
X43380Y141552D01*
X43047Y141618D01*
X42829Y141970D01*
X42788Y142130D01*
X42822Y142181D01*
X42944Y142795D01*
X42822Y143410D01*
X42474Y143931D01*
X41953Y144279D01*
X41339Y144401D01*
X40773Y144289D01*
X40637Y144313D01*
X40273Y144508D01*
Y151476D01*
X40796Y151999D01*
X40796Y151999D01*
X40992Y152292D01*
X41028Y152475D01*
X41091Y152611D01*
X41109Y153035D01*
X41127Y153200D01*
X41154Y153356D01*
X41186Y153496D01*
X41223Y153619D01*
X41265Y153726D01*
X41309Y153817D01*
X41356Y153895D01*
X41425Y153986D01*
X41456Y154110D01*
X41641Y154385D01*
X41763Y155000D01*
X41641Y155614D01*
X41293Y156135D01*
X40772Y156483D01*
X40157Y156606D01*
X39543Y156483D01*
X39022Y156135D01*
X38674Y155614D01*
X38619Y155338D01*
X38452Y154995D01*
X38076Y154975D01*
X37795Y155031D01*
X37181Y154909D01*
X36660Y154561D01*
X36312Y154040D01*
X36190Y153425D01*
X36192Y153414D01*
X35838Y153060D01*
X35827Y153062D01*
X35212Y152940D01*
X34691Y152592D01*
X34343Y152071D01*
X34221Y151457D01*
X34343Y150842D01*
X34550Y150533D01*
X34581Y150417D01*
X34642Y150337D01*
X34681Y150272D01*
X34722Y150184D01*
X34762Y150073D01*
X34799Y149939D01*
X34831Y149783D01*
X34856Y149611D01*
X34888Y149177D01*
X34892Y148932D01*
X34924Y148860D01*
Y148088D01*
X34424Y147936D01*
X34206Y148261D01*
X33685Y148609D01*
X33071Y148732D01*
X32456Y148609D01*
X32315Y148515D01*
X31865Y148816D01*
X31921Y149094D01*
X31798Y149709D01*
X31450Y150230D01*
X30929Y150578D01*
X30315Y150700D01*
X29700Y150578D01*
X29180Y150230D01*
X28831Y149709D01*
X28709Y149094D01*
X28831Y148480D01*
X29038Y148171D01*
X29069Y148055D01*
X29131Y147975D01*
X29170Y147910D01*
X29210Y147822D01*
X29250Y147711D01*
X29287Y147577D01*
X29319Y147421D01*
X29344Y147249D01*
X29376Y146815D01*
X29381Y146570D01*
X29412Y146498D01*
Y145945D01*
X29480Y145599D01*
X29676Y145306D01*
X30199Y144783D01*
Y95945D01*
X30268Y95599D01*
X30464Y95306D01*
X49361Y76409D01*
X49654Y76213D01*
X50000Y76144D01*
X50947D01*
X51019Y76113D01*
X51264Y76109D01*
X51698Y76076D01*
X51869Y76051D01*
X52026Y76019D01*
X52160Y75982D01*
X52271Y75942D01*
X52359Y75902D01*
X52424Y75863D01*
X52503Y75802D01*
X52620Y75770D01*
X52929Y75564D01*
X53543Y75442D01*
X54158Y75564D01*
X54679Y75912D01*
X55027Y76433D01*
X55149Y77047D01*
X55027Y77662D01*
X54679Y78183D01*
X54158Y78531D01*
X53543Y78653D01*
X53211Y78587D01*
X52781Y78988D01*
X52787Y79016D01*
X52665Y79630D01*
X52316Y80151D01*
X51796Y80499D01*
X51181Y80621D01*
X50567Y80499D01*
X50339Y80347D01*
X48984Y81702D01*
X49243Y82091D01*
X49279Y82115D01*
X49606Y82050D01*
X50947D01*
X51019Y82018D01*
X51264Y82014D01*
X51698Y81982D01*
X51869Y81957D01*
X52026Y81925D01*
X52160Y81888D01*
X52271Y81848D01*
X52359Y81807D01*
X52424Y81768D01*
X52503Y81707D01*
X52620Y81676D01*
X52929Y81469D01*
X53543Y81347D01*
X54158Y81469D01*
X54679Y81817D01*
X55027Y82338D01*
X55149Y82953D01*
X55027Y83567D01*
X54679Y84088D01*
X54158Y84436D01*
X53543Y84558D01*
X53211Y84492D01*
X52781Y84893D01*
X52787Y84921D01*
X52665Y85536D01*
X52316Y86057D01*
X51796Y86405D01*
X51181Y86527D01*
X50567Y86405D01*
X50103Y86095D01*
X48705Y87493D01*
X48897Y87955D01*
X50947D01*
X51019Y87924D01*
X51264Y87920D01*
X51698Y87887D01*
X51869Y87862D01*
X52026Y87830D01*
X52160Y87793D01*
X52271Y87753D01*
X52359Y87713D01*
X52424Y87674D01*
X52503Y87613D01*
X52620Y87581D01*
X52929Y87375D01*
X53543Y87253D01*
X54158Y87375D01*
X54679Y87723D01*
X55027Y88244D01*
X55149Y88858D01*
X55027Y89473D01*
X54679Y89994D01*
X54158Y90342D01*
X53543Y90464D01*
X53211Y90398D01*
X52781Y90799D01*
X52787Y90827D01*
X52665Y91441D01*
X52316Y91962D01*
X51796Y92310D01*
X51181Y92432D01*
X50567Y92310D01*
X50258Y92104D01*
X50141Y92072D01*
X50062Y92011D01*
X49996Y91972D01*
X49909Y91931D01*
X49798Y91892D01*
X49664Y91855D01*
X49507Y91823D01*
X49336Y91798D01*
X48902Y91765D01*
X48657Y91761D01*
X48585Y91730D01*
X48012D01*
X40236Y99506D01*
X40297Y99707D01*
X40437Y100012D01*
X40899Y100321D01*
X41208Y100784D01*
X41513Y100923D01*
X41715Y100984D01*
X48574Y94125D01*
X48867Y93929D01*
X49213Y93861D01*
X50947D01*
X51019Y93829D01*
X51264Y93825D01*
X51698Y93793D01*
X51869Y93768D01*
X52026Y93736D01*
X52160Y93699D01*
X52271Y93659D01*
X52359Y93618D01*
X52424Y93579D01*
X52503Y93518D01*
X52620Y93487D01*
X52929Y93280D01*
X53543Y93158D01*
X54158Y93280D01*
X54679Y93628D01*
X55027Y94149D01*
X55149Y94764D01*
X55027Y95378D01*
X54679Y95899D01*
X54158Y96247D01*
X53543Y96369D01*
X53311Y96323D01*
X52919Y96664D01*
X52923Y96883D01*
X53093Y97025D01*
X53401Y97202D01*
X53937Y97095D01*
X54552Y97217D01*
X55072Y97565D01*
X55420Y98086D01*
X55493Y98451D01*
X55553Y98555D01*
X55566Y98655D01*
X55585Y98729D01*
X55618Y98820D01*
X55668Y98926D01*
X55737Y99047D01*
X55825Y99180D01*
X55928Y99319D01*
X56213Y99649D01*
X56383Y99825D01*
X56412Y99898D01*
X57725Y101212D01*
X57921Y101505D01*
X57990Y101850D01*
Y149869D01*
X58490Y150279D01*
X58661Y150245D01*
X59276Y150367D01*
X59797Y150715D01*
X60145Y151236D01*
X60267Y151850D01*
X60145Y152465D01*
X59797Y152986D01*
X59276Y153334D01*
X58661Y153456D01*
X58047Y153334D01*
X57526Y152986D01*
X57354Y152728D01*
X57135Y152685D01*
X56842Y152489D01*
X56842Y152489D01*
X56448Y152095D01*
X56252Y151802D01*
X56183Y151457D01*
Y145235D01*
X55721Y145044D01*
X55363Y145402D01*
X55070Y145598D01*
X54724Y145667D01*
X54565D01*
X54493Y145698D01*
X54248Y145702D01*
X53814Y145735D01*
X53642Y145760D01*
X53486Y145792D01*
X53352Y145829D01*
X53241Y145869D01*
X53153Y145909D01*
X53088Y145948D01*
X53009Y146009D01*
X52892Y146041D01*
X52583Y146247D01*
X51968Y146369D01*
X51354Y146247D01*
X50833Y145899D01*
X50485Y145378D01*
X50430Y145102D01*
X50263Y144758D01*
X49887Y144739D01*
X49606Y144795D01*
X48992Y144672D01*
X48647Y144442D01*
X48147Y144671D01*
Y151870D01*
X50245Y153968D01*
X50245Y153968D01*
X50441Y154261D01*
X50510Y154606D01*
X50510Y154606D01*
Y154766D01*
X50541Y154838D01*
X50545Y155083D01*
X50577Y155517D01*
X50602Y155688D01*
X50634Y155845D01*
X50671Y155979D01*
X50711Y156090D01*
X50752Y156177D01*
X50791Y156243D01*
X50852Y156322D01*
X50883Y156439D01*
X51090Y156748D01*
X51212Y157362D01*
X51090Y157977D01*
X50742Y158498D01*
X50221Y158846D01*
X49606Y158968D01*
D02*
G37*
G36*
X122205Y156370D02*
X121137Y156229D01*
X120142Y155817D01*
X119287Y155161D01*
X118632Y154307D01*
X118219Y153312D01*
X118079Y152244D01*
X118219Y151176D01*
X118632Y150181D01*
X119287Y149327D01*
X120142Y148671D01*
X121137Y148259D01*
X122205Y148118D01*
X123273Y148259D01*
X124268Y148671D01*
X125122Y149327D01*
X125778Y150181D01*
X126190Y151176D01*
X126331Y152244D01*
X126190Y153312D01*
X125778Y154307D01*
X125122Y155161D01*
X124268Y155817D01*
X123273Y156229D01*
X122205Y156370D01*
D02*
G37*
G36*
X112205D02*
X111137Y156229D01*
X110142Y155817D01*
X109287Y155161D01*
X108632Y154307D01*
X108220Y153312D01*
X108079Y152244D01*
X108220Y151176D01*
X108632Y150181D01*
X109287Y149327D01*
X110142Y148671D01*
X111137Y148259D01*
X112205Y148118D01*
X113273Y148259D01*
X114268Y148671D01*
X115122Y149327D01*
X115778Y150181D01*
X116190Y151176D01*
X116331Y152244D01*
X116190Y153312D01*
X115778Y154307D01*
X115122Y155161D01*
X114268Y155817D01*
X113273Y156229D01*
X112205Y156370D01*
D02*
G37*
G36*
X122205Y146370D02*
X121137Y146229D01*
X120142Y145817D01*
X119287Y145161D01*
X118632Y144307D01*
X118219Y143312D01*
X118079Y142244D01*
X118219Y141176D01*
X118632Y140181D01*
X119287Y139327D01*
X120142Y138671D01*
X121137Y138259D01*
X122205Y138118D01*
X123273Y138259D01*
X124268Y138671D01*
X125122Y139327D01*
X125778Y140181D01*
X126190Y141176D01*
X126331Y142244D01*
X126190Y143312D01*
X125778Y144307D01*
X125122Y145161D01*
X124268Y145817D01*
X123273Y146229D01*
X122205Y146370D01*
D02*
G37*
G36*
X6299Y114086D02*
X5685Y113964D01*
X5164Y113616D01*
X4816Y113095D01*
X4694Y112480D01*
X4816Y111866D01*
X5164Y111345D01*
X5685Y110997D01*
X6299Y110875D01*
X6914Y110997D01*
X7435Y111345D01*
X7783Y111866D01*
X7905Y112480D01*
X7783Y113095D01*
X7435Y113616D01*
X6914Y113964D01*
X6299Y114086D01*
D02*
G37*
G36*
X112205Y106370D02*
X111137Y106229D01*
X110142Y105817D01*
X109287Y105161D01*
X108632Y104307D01*
X108220Y103312D01*
X108079Y102244D01*
X108220Y101176D01*
X108632Y100181D01*
X109287Y99327D01*
X110142Y98671D01*
X111137Y98259D01*
X112205Y98118D01*
X113273Y98259D01*
X114268Y98671D01*
X115122Y99327D01*
X115778Y100181D01*
X116190Y101176D01*
X116331Y102244D01*
X116190Y103312D01*
X115778Y104307D01*
X115122Y105161D01*
X114268Y105817D01*
X113273Y106229D01*
X112205Y106370D01*
D02*
G37*
G36*
X122205Y86370D02*
X121137Y86229D01*
X120142Y85817D01*
X119287Y85162D01*
X118632Y84307D01*
X118219Y83312D01*
X118079Y82244D01*
X118219Y81176D01*
X118632Y80181D01*
X119287Y79327D01*
X120142Y78671D01*
X121137Y78259D01*
X122205Y78118D01*
X123273Y78259D01*
X124268Y78671D01*
X125122Y79327D01*
X125778Y80181D01*
X126190Y81176D01*
X126331Y82244D01*
X126190Y83312D01*
X125778Y84307D01*
X125122Y85162D01*
X124268Y85817D01*
X123273Y86229D01*
X122205Y86370D01*
D02*
G37*
G36*
X112205D02*
X111137Y86229D01*
X110142Y85817D01*
X109287Y85162D01*
X108632Y84307D01*
X108220Y83312D01*
X108079Y82244D01*
X108220Y81176D01*
X108632Y80181D01*
X109287Y79327D01*
X110142Y78671D01*
X111137Y78259D01*
X112205Y78118D01*
X113273Y78259D01*
X114268Y78671D01*
X115122Y79327D01*
X115778Y80181D01*
X116190Y81176D01*
X116331Y82244D01*
X116190Y83312D01*
X115778Y84307D01*
X115122Y85162D01*
X114268Y85817D01*
X113273Y86229D01*
X112205Y86370D01*
D02*
G37*
G36*
X122205Y76370D02*
X121137Y76229D01*
X120142Y75817D01*
X119287Y75161D01*
X118632Y74307D01*
X118219Y73312D01*
X118079Y72244D01*
X118219Y71176D01*
X118632Y70181D01*
X119287Y69327D01*
X120142Y68671D01*
X121137Y68259D01*
X122205Y68118D01*
X123273Y68259D01*
X124268Y68671D01*
X125122Y69327D01*
X125778Y70181D01*
X126190Y71176D01*
X126331Y72244D01*
X126190Y73312D01*
X125778Y74307D01*
X125122Y75161D01*
X124268Y75817D01*
X123273Y76229D01*
X122205Y76370D01*
D02*
G37*
G36*
X112205D02*
X111137Y76229D01*
X110142Y75817D01*
X109287Y75161D01*
X108632Y74307D01*
X108220Y73312D01*
X108079Y72244D01*
X108220Y71176D01*
X108632Y70181D01*
X109287Y69327D01*
X110142Y68671D01*
X111137Y68259D01*
X112205Y68118D01*
X113273Y68259D01*
X114268Y68671D01*
X115122Y69327D01*
X115778Y70181D01*
X116190Y71176D01*
X116331Y72244D01*
X116190Y73312D01*
X115778Y74307D01*
X115122Y75161D01*
X114268Y75817D01*
X113273Y76229D01*
X112205Y76370D01*
D02*
G37*
G36*
X97807Y70280D02*
X96232D01*
X95513Y70185D01*
X94842Y69907D01*
X94267Y69466D01*
X93825Y68890D01*
X93547Y68219D01*
X93453Y67500D01*
X93547Y66781D01*
X93825Y66110D01*
X94267Y65535D01*
X94842Y65093D01*
X95513Y64815D01*
X96232Y64720D01*
X97807D01*
X98527Y64815D01*
X99197Y65093D01*
X99773Y65535D01*
X100214Y66110D01*
X100492Y66781D01*
X100587Y67500D01*
X100492Y68219D01*
X100214Y68890D01*
X99773Y69466D01*
X99197Y69907D01*
X98527Y70185D01*
X97807Y70280D01*
D02*
G37*
G36*
X70079Y65267D02*
X69464Y65145D01*
X68943Y64797D01*
X68595Y64276D01*
X68473Y63661D01*
X68595Y63047D01*
X68943Y62526D01*
X69464Y62178D01*
X70079Y62056D01*
X70693Y62178D01*
X71214Y62526D01*
X71562Y63047D01*
X71684Y63661D01*
X71562Y64276D01*
X71214Y64797D01*
X70693Y65145D01*
X70079Y65267D01*
D02*
G37*
G36*
X24016D02*
X23401Y65145D01*
X22880Y64797D01*
X22532Y64276D01*
X22410Y63661D01*
X22532Y63047D01*
X22880Y62526D01*
X23401Y62178D01*
X24016Y62056D01*
X24630Y62178D01*
X25151Y62526D01*
X25499Y63047D01*
X25621Y63661D01*
X25499Y64276D01*
X25151Y64797D01*
X24630Y65145D01*
X24016Y65267D01*
D02*
G37*
G36*
X122205Y66370D02*
X121137Y66229D01*
X120142Y65817D01*
X119287Y65162D01*
X118632Y64307D01*
X118219Y63312D01*
X118079Y62244D01*
X118219Y61176D01*
X118632Y60181D01*
X119287Y59327D01*
X120142Y58671D01*
X121137Y58259D01*
X122205Y58118D01*
X123273Y58259D01*
X124268Y58671D01*
X125122Y59327D01*
X125778Y60181D01*
X126190Y61176D01*
X126331Y62244D01*
X126190Y63312D01*
X125778Y64307D01*
X125122Y65162D01*
X124268Y65817D01*
X123273Y66229D01*
X122205Y66370D01*
D02*
G37*
G36*
X112205D02*
X111137Y66229D01*
X110142Y65817D01*
X109287Y65162D01*
X108632Y64307D01*
X108220Y63312D01*
X108079Y62244D01*
X108220Y61176D01*
X108632Y60181D01*
X109287Y59327D01*
X110142Y58671D01*
X111137Y58259D01*
X112205Y58118D01*
X113273Y58259D01*
X114268Y58671D01*
X115122Y59327D01*
X115778Y60181D01*
X116190Y61176D01*
X116331Y62244D01*
X116190Y63312D01*
X115778Y64307D01*
X115122Y65162D01*
X114268Y65817D01*
X113273Y66229D01*
X112205Y66370D01*
D02*
G37*
G36*
X24016Y61330D02*
X23401Y61208D01*
X22880Y60860D01*
X22532Y60339D01*
X22410Y59724D01*
X22532Y59110D01*
X22880Y58589D01*
X23401Y58241D01*
X24016Y58119D01*
X24348Y58185D01*
X24778Y57784D01*
X24772Y57756D01*
X24894Y57142D01*
X25243Y56621D01*
X25763Y56273D01*
X26378Y56150D01*
X26992Y56273D01*
X27513Y56621D01*
X27861Y57142D01*
X27984Y57756D01*
X27861Y58370D01*
X27513Y58891D01*
X26992Y59239D01*
X26378Y59362D01*
X26046Y59295D01*
X25616Y59696D01*
X25621Y59724D01*
X25499Y60339D01*
X25151Y60860D01*
X24630Y61208D01*
X24016Y61330D01*
D02*
G37*
G36*
X97807Y60280D02*
X96232D01*
X95513Y60185D01*
X94842Y59907D01*
X94267Y59465D01*
X93825Y58890D01*
X93547Y58219D01*
X93453Y57500D01*
X93547Y56781D01*
X93825Y56110D01*
X94267Y55534D01*
X94842Y55093D01*
X95513Y54815D01*
X96232Y54720D01*
X97807D01*
X98527Y54815D01*
X99197Y55093D01*
X99773Y55534D01*
X100214Y56110D01*
X100492Y56781D01*
X100587Y57500D01*
X100492Y58219D01*
X100214Y58890D01*
X99773Y59465D01*
X99197Y59907D01*
X98527Y60185D01*
X97807Y60280D01*
D02*
G37*
G36*
X24016Y55425D02*
X23401Y55302D01*
X22880Y54954D01*
X22532Y54433D01*
X22410Y53819D01*
X22532Y53204D01*
X22880Y52684D01*
X23401Y52336D01*
X24016Y52213D01*
X24348Y52279D01*
X24778Y51879D01*
X24772Y51850D01*
X24894Y51236D01*
X25243Y50715D01*
X25763Y50367D01*
X26378Y50245D01*
X26992Y50367D01*
X27513Y50715D01*
X27861Y51236D01*
X27984Y51850D01*
X27861Y52465D01*
X27513Y52986D01*
X26992Y53334D01*
X26378Y53456D01*
X26046Y53390D01*
X25616Y53791D01*
X25621Y53819D01*
X25499Y54433D01*
X25151Y54954D01*
X24630Y55302D01*
X24016Y55425D01*
D02*
G37*
G36*
X122205Y56370D02*
X121137Y56229D01*
X120142Y55817D01*
X119287Y55161D01*
X118632Y54307D01*
X118219Y53312D01*
X118079Y52244D01*
X118219Y51176D01*
X118632Y50181D01*
X119287Y49327D01*
X120142Y48671D01*
X121137Y48259D01*
X122205Y48118D01*
X123273Y48259D01*
X124268Y48671D01*
X125122Y49327D01*
X125778Y50181D01*
X126190Y51176D01*
X126331Y52244D01*
X126190Y53312D01*
X125778Y54307D01*
X125122Y55161D01*
X124268Y55817D01*
X123273Y56229D01*
X122205Y56370D01*
D02*
G37*
G36*
X112205D02*
X111137Y56229D01*
X110142Y55817D01*
X109287Y55161D01*
X108632Y54307D01*
X108220Y53312D01*
X108079Y52244D01*
X108220Y51176D01*
X108632Y50181D01*
X109287Y49327D01*
X110142Y48671D01*
X111137Y48259D01*
X112205Y48118D01*
X113273Y48259D01*
X114268Y48671D01*
X115122Y49327D01*
X115778Y50181D01*
X116190Y51176D01*
X116331Y52244D01*
X116190Y53312D01*
X115778Y54307D01*
X115122Y55161D01*
X114268Y55817D01*
X113273Y56229D01*
X112205Y56370D01*
D02*
G37*
G36*
X97807Y50280D02*
X96232D01*
X95513Y50185D01*
X94842Y49907D01*
X94267Y49466D01*
X93825Y48890D01*
X93547Y48219D01*
X93453Y47500D01*
X93547Y46781D01*
X93825Y46110D01*
X94267Y45535D01*
X94842Y45093D01*
X95513Y44815D01*
X96232Y44720D01*
X97807D01*
X98527Y44815D01*
X99197Y45093D01*
X99773Y45535D01*
X100214Y46110D01*
X100492Y46781D01*
X100587Y47500D01*
X100492Y48219D01*
X100214Y48890D01*
X99773Y49466D01*
X99197Y49907D01*
X98527Y50185D01*
X97807Y50280D01*
D02*
G37*
G36*
X91339Y45582D02*
X90724Y45460D01*
X90203Y45112D01*
X89855Y44591D01*
X89733Y43976D01*
X89855Y43362D01*
X90203Y42841D01*
X90724Y42493D01*
X91339Y42371D01*
X91953Y42493D01*
X92474Y42841D01*
X92822Y43362D01*
X92944Y43976D01*
X92822Y44591D01*
X92474Y45112D01*
X91953Y45460D01*
X91339Y45582D01*
D02*
G37*
G36*
X24016Y49519D02*
X23401Y49397D01*
X22880Y49049D01*
X22532Y48528D01*
X22410Y47913D01*
X22532Y47299D01*
X22880Y46778D01*
X23401Y46430D01*
X24016Y46308D01*
X24381Y45945D01*
X24016Y45582D01*
X23401Y45460D01*
X22880Y45112D01*
X22532Y44591D01*
X22410Y43976D01*
X22532Y43362D01*
X22880Y42841D01*
X23401Y42493D01*
X24016Y42371D01*
X24348Y42437D01*
X24778Y42036D01*
X24772Y42008D01*
X24894Y41393D01*
X25243Y40872D01*
X25763Y40525D01*
X26378Y40402D01*
X26992Y40525D01*
X27513Y40872D01*
X27861Y41393D01*
X27984Y42008D01*
X27861Y42622D01*
X27513Y43143D01*
X26992Y43491D01*
X26378Y43613D01*
X26013Y43976D01*
X26378Y44339D01*
X26992Y44462D01*
X27513Y44809D01*
X27861Y45330D01*
X27984Y45945D01*
X27861Y46559D01*
X27513Y47080D01*
X26992Y47428D01*
X26378Y47550D01*
X26046Y47484D01*
X25616Y47885D01*
X25621Y47913D01*
X25499Y48528D01*
X25151Y49049D01*
X24630Y49397D01*
X24016Y49519D01*
D02*
G37*
G36*
X122205Y46370D02*
X121137Y46229D01*
X120142Y45817D01*
X119287Y45162D01*
X118632Y44307D01*
X118219Y43312D01*
X118079Y42244D01*
X118219Y41176D01*
X118632Y40181D01*
X119287Y39327D01*
X120142Y38671D01*
X121137Y38259D01*
X122205Y38118D01*
X123273Y38259D01*
X124268Y38671D01*
X125122Y39327D01*
X125778Y40181D01*
X126190Y41176D01*
X126331Y42244D01*
X126190Y43312D01*
X125778Y44307D01*
X125122Y45162D01*
X124268Y45817D01*
X123273Y46229D01*
X122205Y46370D01*
D02*
G37*
G36*
X112205D02*
X111137Y46229D01*
X110142Y45817D01*
X109287Y45162D01*
X108632Y44307D01*
X108220Y43312D01*
X108079Y42244D01*
X108220Y41176D01*
X108632Y40181D01*
X109287Y39327D01*
X110142Y38671D01*
X111137Y38259D01*
X112205Y38118D01*
X113273Y38259D01*
X114268Y38671D01*
X115122Y39327D01*
X115778Y40181D01*
X116190Y41176D01*
X116331Y42244D01*
X116190Y43312D01*
X115778Y44307D01*
X115122Y45162D01*
X114268Y45817D01*
X113273Y46229D01*
X112205Y46370D01*
D02*
G37*
G36*
X74803Y65267D02*
X74189Y65145D01*
X73668Y64797D01*
X73320Y64276D01*
X73198Y63661D01*
X73320Y63047D01*
X73522Y62745D01*
X73550Y62632D01*
X73588Y62580D01*
X73608Y62543D01*
X73636Y62473D01*
X73666Y62371D01*
X73695Y62239D01*
X73719Y62091D01*
X73767Y61433D01*
X73770Y61177D01*
X73800Y61108D01*
Y51457D01*
X73876Y51073D01*
X74094Y50747D01*
X81674Y43167D01*
Y37690D01*
X81174Y37423D01*
X80929Y37586D01*
X80315Y37708D01*
X79700Y37586D01*
X79180Y37238D01*
X78831Y36717D01*
X78709Y36102D01*
X78831Y35488D01*
X79180Y34967D01*
X79700Y34619D01*
X80315Y34497D01*
X80929Y34619D01*
X81174Y34782D01*
X81674Y34515D01*
Y24313D01*
X81415Y24055D01*
X81348Y24029D01*
X80977Y23677D01*
X80664Y23416D01*
X80537Y23325D01*
X80423Y23252D01*
X80330Y23202D01*
X80260Y23171D01*
X80220Y23159D01*
X80156Y23150D01*
X80057Y23090D01*
X79700Y23019D01*
X79180Y22671D01*
X78831Y22150D01*
X78761Y21793D01*
X78701Y21694D01*
X78691Y21630D01*
X78679Y21590D01*
X78649Y21521D01*
X78598Y21427D01*
X78525Y21313D01*
X78438Y21192D01*
X78007Y20693D01*
X77828Y20509D01*
X77800Y20440D01*
X76356Y18996D01*
X65285D01*
X65134Y19496D01*
X65309Y19613D01*
X65657Y20134D01*
X65779Y20748D01*
X65657Y21362D01*
X65309Y21883D01*
X64788Y22231D01*
X64173Y22354D01*
X63559Y22231D01*
X63038Y21883D01*
X62690Y21362D01*
X62568Y20748D01*
X62690Y20134D01*
X63038Y19613D01*
X63213Y19496D01*
X63061Y18996D01*
X61220D01*
X61155Y19025D01*
X60644Y19038D01*
X60238Y19076D01*
X60084Y19100D01*
X59952Y19129D01*
X59850Y19160D01*
X59780Y19188D01*
X59742Y19207D01*
X59691Y19246D01*
X59578Y19274D01*
X59276Y19476D01*
X58661Y19598D01*
X58047Y19476D01*
X57526Y19128D01*
X57178Y18607D01*
X57056Y17992D01*
X57178Y17378D01*
X57526Y16857D01*
X58047Y16509D01*
X58661Y16387D01*
X59276Y16509D01*
X59578Y16711D01*
X59691Y16739D01*
X59742Y16777D01*
X59780Y16797D01*
X59850Y16824D01*
X59952Y16855D01*
X60084Y16884D01*
X60232Y16908D01*
X60889Y16956D01*
X61146Y16959D01*
X61215Y16989D01*
X76772D01*
X77156Y17065D01*
X77481Y17282D01*
X79215Y19016D01*
X79282Y19042D01*
X79653Y19394D01*
X79966Y19655D01*
X80092Y19746D01*
X80207Y19819D01*
X80300Y19869D01*
X80370Y19899D01*
X80410Y19912D01*
X80474Y19921D01*
X80573Y19981D01*
X80929Y20052D01*
X81450Y20400D01*
X81798Y20921D01*
X81869Y21278D01*
X81929Y21377D01*
X81939Y21441D01*
X81951Y21481D01*
X81981Y21550D01*
X82032Y21644D01*
X82105Y21758D01*
X82192Y21879D01*
X82623Y22378D01*
X82802Y22562D01*
X82830Y22631D01*
X83387Y23188D01*
X83604Y23514D01*
X83681Y23898D01*
Y43583D01*
X83604Y43967D01*
X83387Y44292D01*
X75807Y51872D01*
Y61102D01*
X75836Y61168D01*
X75849Y61679D01*
X75887Y62085D01*
X75911Y62239D01*
X75941Y62371D01*
X75971Y62473D01*
X75999Y62543D01*
X76019Y62580D01*
X76057Y62632D01*
X76085Y62745D01*
X76287Y63047D01*
X76409Y63661D01*
X76287Y64276D01*
X75938Y64797D01*
X75418Y65145D01*
X74803Y65267D01*
D02*
G37*
G36*
X97807Y40280D02*
X96232D01*
X95513Y40185D01*
X94842Y39907D01*
X94267Y39465D01*
X93825Y38890D01*
X93547Y38219D01*
X93453Y37500D01*
X93547Y36781D01*
X93825Y36110D01*
X94267Y35535D01*
X94842Y35093D01*
X95513Y34815D01*
X96232Y34720D01*
X97807D01*
X98527Y34815D01*
X99197Y35093D01*
X99773Y35535D01*
X100214Y36110D01*
X100492Y36781D01*
X100587Y37500D01*
X100492Y38219D01*
X100214Y38890D01*
X99773Y39465D01*
X99197Y39907D01*
X98527Y40185D01*
X97807Y40280D01*
D02*
G37*
G36*
X7807D02*
X6232D01*
X5513Y40185D01*
X4843Y39907D01*
X4267Y39465D01*
X3825Y38890D01*
X3547Y38219D01*
X3453Y37500D01*
X3547Y36781D01*
X3825Y36110D01*
X4267Y35535D01*
X4843Y35093D01*
X5513Y34815D01*
X6232Y34720D01*
X7807D01*
X8527Y34815D01*
X9197Y35093D01*
X9773Y35535D01*
X10214Y36110D01*
X10492Y36781D01*
X10587Y37500D01*
X10492Y38219D01*
X10214Y38890D01*
X9773Y39465D01*
X9197Y39907D01*
X8527Y40185D01*
X7807Y40280D01*
D02*
G37*
G36*
X24016Y39676D02*
X23401Y39554D01*
X22880Y39206D01*
X22532Y38685D01*
X22410Y38071D01*
X22532Y37456D01*
X22880Y36935D01*
X23401Y36588D01*
X24016Y36465D01*
X24348Y36531D01*
X24778Y36131D01*
X24772Y36102D01*
X24894Y35488D01*
X25243Y34967D01*
X25763Y34619D01*
X26378Y34497D01*
X26992Y34619D01*
X27513Y34967D01*
X27861Y35488D01*
X27984Y36102D01*
X27861Y36717D01*
X27513Y37238D01*
X26992Y37586D01*
X26378Y37708D01*
X26046Y37642D01*
X25616Y38043D01*
X25621Y38071D01*
X25499Y38685D01*
X25151Y39206D01*
X24630Y39554D01*
X24016Y39676D01*
D02*
G37*
G36*
X78347Y33771D02*
X77732Y33649D01*
X77211Y33301D01*
X76863Y32780D01*
X76741Y32165D01*
X76743Y32154D01*
X76390Y31800D01*
X76378Y31802D01*
X75763Y31680D01*
X75243Y31332D01*
X74894Y30811D01*
X74772Y30197D01*
X74894Y29582D01*
X75243Y29061D01*
X75763Y28713D01*
X76378Y28591D01*
X76992Y28713D01*
X77513Y29061D01*
X77861Y29582D01*
X77984Y30197D01*
X77981Y30209D01*
X78335Y30562D01*
X78347Y30560D01*
X78961Y30682D01*
X79482Y31030D01*
X79830Y31551D01*
X79952Y32165D01*
X79830Y32780D01*
X79482Y33301D01*
X78961Y33649D01*
X78347Y33771D01*
D02*
G37*
G36*
X24016Y33771D02*
X23401Y33649D01*
X22880Y33301D01*
X22532Y32780D01*
X22410Y32165D01*
X22532Y31551D01*
X22880Y31030D01*
X23401Y30682D01*
X24016Y30560D01*
X24348Y30626D01*
X24778Y30225D01*
X24772Y30197D01*
X24894Y29582D01*
X25243Y29061D01*
X25763Y28713D01*
X26378Y28591D01*
X26992Y28713D01*
X27513Y29061D01*
X27861Y29582D01*
X27984Y30197D01*
X27861Y30811D01*
X27513Y31332D01*
X26992Y31680D01*
X26378Y31802D01*
X26046Y31736D01*
X25616Y32137D01*
X25621Y32165D01*
X25499Y32780D01*
X25151Y33301D01*
X24630Y33649D01*
X24016Y33771D01*
D02*
G37*
G36*
X116295Y36335D02*
X108114D01*
Y28154D01*
X116295D01*
Y36335D01*
D02*
G37*
G36*
X122205Y36370D02*
X121137Y36229D01*
X120142Y35817D01*
X119287Y35162D01*
X118632Y34307D01*
X118219Y33312D01*
X118079Y32244D01*
X118219Y31176D01*
X118632Y30181D01*
X119287Y29327D01*
X120142Y28671D01*
X121137Y28259D01*
X122205Y28118D01*
X123273Y28259D01*
X124268Y28671D01*
X125122Y29327D01*
X125778Y30181D01*
X126190Y31176D01*
X126331Y32244D01*
X126190Y33312D01*
X125778Y34307D01*
X125122Y35162D01*
X124268Y35817D01*
X123273Y36229D01*
X122205Y36370D01*
D02*
G37*
G36*
X97807Y30280D02*
X96232D01*
X95513Y30185D01*
X94842Y29907D01*
X94267Y29465D01*
X93825Y28890D01*
X93547Y28219D01*
X93453Y27500D01*
X93547Y26781D01*
X93825Y26110D01*
X94267Y25534D01*
X94842Y25093D01*
X95513Y24815D01*
X96232Y24720D01*
X97807D01*
X98527Y24815D01*
X99197Y25093D01*
X99773Y25534D01*
X100214Y26110D01*
X100492Y26781D01*
X100587Y27500D01*
X100492Y28219D01*
X100214Y28890D01*
X99773Y29465D01*
X99197Y29907D01*
X98527Y30185D01*
X97807Y30280D01*
D02*
G37*
G36*
X8268Y33771D02*
X7653Y33649D01*
X7132Y33301D01*
X6784Y32780D01*
X6662Y32165D01*
X6784Y31551D01*
X7132Y31030D01*
X7507Y30780D01*
X7355Y30280D01*
X6232D01*
X5513Y30185D01*
X4843Y29907D01*
X4267Y29465D01*
X3825Y28890D01*
X3547Y28219D01*
X3453Y27500D01*
X3547Y26781D01*
X3825Y26110D01*
X4267Y25534D01*
X4843Y25093D01*
X5513Y24815D01*
X6232Y24720D01*
X7807D01*
X8527Y24815D01*
X9197Y25093D01*
X9773Y25534D01*
X10214Y26110D01*
X10492Y26781D01*
X10587Y27500D01*
X10492Y28219D01*
X10214Y28890D01*
X9773Y29465D01*
X9197Y29907D01*
X8663Y30128D01*
X8706Y30647D01*
X8882Y30682D01*
X9403Y31030D01*
X9751Y31551D01*
X9873Y32165D01*
X9751Y32780D01*
X9403Y33301D01*
X8882Y33649D01*
X8268Y33771D01*
D02*
G37*
G36*
X74410Y27865D02*
X73795Y27743D01*
X73274Y27395D01*
X72926Y26874D01*
X72804Y26260D01*
X72926Y25645D01*
X73274Y25124D01*
X73795Y24776D01*
X74410Y24654D01*
X75024Y24776D01*
X75545Y25124D01*
X75893Y25645D01*
X76015Y26260D01*
X75893Y26874D01*
X75545Y27395D01*
X75024Y27743D01*
X74410Y27865D01*
D02*
G37*
G36*
X63779Y27865D02*
X63165Y27743D01*
X62644Y27395D01*
X62296Y26874D01*
X62174Y26260D01*
X62296Y25645D01*
X62644Y25124D01*
X63165Y24776D01*
X63779Y24654D01*
X64112Y24720D01*
X64542Y24319D01*
X64536Y24291D01*
X64658Y23677D01*
X65006Y23156D01*
X65527Y22808D01*
X66142Y22686D01*
X66756Y22808D01*
X67277Y23156D01*
X67625Y23677D01*
X67747Y24291D01*
X67625Y24906D01*
X67277Y25427D01*
X66756Y25775D01*
X66142Y25897D01*
X65810Y25831D01*
X65380Y26232D01*
X65385Y26260D01*
X65263Y26874D01*
X64915Y27395D01*
X64394Y27743D01*
X63779Y27865D01*
D02*
G37*
G36*
X24016D02*
X23401Y27743D01*
X22880Y27395D01*
X22532Y26874D01*
X22410Y26260D01*
X22532Y25645D01*
X22880Y25124D01*
X23401Y24776D01*
X24016Y24654D01*
X24348Y24720D01*
X24778Y24319D01*
X24772Y24291D01*
X24894Y23677D01*
X25243Y23156D01*
X25763Y22808D01*
X26378Y22686D01*
X26992Y22808D01*
X27513Y23156D01*
X27861Y23677D01*
X27984Y24291D01*
X27861Y24906D01*
X27513Y25427D01*
X26992Y25775D01*
X26378Y25897D01*
X26046Y25831D01*
X25616Y26232D01*
X25621Y26260D01*
X25499Y26874D01*
X25151Y27395D01*
X24630Y27743D01*
X24016Y27865D01*
D02*
G37*
G36*
X12598Y23141D02*
X11984Y23019D01*
X11463Y22671D01*
X11115Y22150D01*
X10993Y21535D01*
X11115Y20921D01*
X11463Y20400D01*
X11984Y20052D01*
X12598Y19930D01*
X13213Y20052D01*
X13734Y20400D01*
X14082Y20921D01*
X14204Y21535D01*
X14082Y22150D01*
X13734Y22671D01*
X13213Y23019D01*
X12598Y23141D01*
D02*
G37*
G36*
X97807Y20280D02*
X96232D01*
X95513Y20185D01*
X94842Y19907D01*
X94267Y19466D01*
X93825Y18890D01*
X93547Y18219D01*
X93453Y17500D01*
X93547Y16781D01*
X93825Y16110D01*
X94267Y15534D01*
X94842Y15093D01*
X95513Y14815D01*
X96232Y14720D01*
X97807D01*
X98527Y14815D01*
X99197Y15093D01*
X99773Y15534D01*
X100214Y16110D01*
X100492Y16781D01*
X100587Y17500D01*
X100492Y18219D01*
X100214Y18890D01*
X99773Y19466D01*
X99197Y19907D01*
X98527Y20185D01*
X97807Y20280D01*
D02*
G37*
G36*
X8268Y23929D02*
X7653Y23806D01*
X7132Y23458D01*
X6784Y22937D01*
X6662Y22323D01*
X6784Y21708D01*
X7132Y21188D01*
X7653Y20839D01*
X7774Y20815D01*
X7836Y20294D01*
X7833Y20291D01*
X7807Y20280D01*
X7700Y20280D01*
X6232D01*
X5513Y20185D01*
X4843Y19907D01*
X4267Y19466D01*
X3825Y18890D01*
X3547Y18219D01*
X3453Y17500D01*
X3547Y16781D01*
X3825Y16110D01*
X4267Y15534D01*
X4843Y15093D01*
X5513Y14815D01*
X6232Y14720D01*
X7807D01*
X8527Y14815D01*
X9197Y15093D01*
X9773Y15534D01*
X10214Y16110D01*
X10492Y16781D01*
X10587Y17500D01*
X10492Y18219D01*
X10214Y18890D01*
X9773Y19466D01*
X9197Y19907D01*
X8587Y20160D01*
X8527Y20185D01*
X8479Y20249D01*
X8692Y20802D01*
X8882Y20839D01*
X9403Y21188D01*
X9751Y21708D01*
X9873Y22323D01*
X9751Y22937D01*
X9403Y23458D01*
X8882Y23806D01*
X8268Y23929D01*
D02*
G37*
G36*
X18110Y15779D02*
X17496Y15657D01*
X16975Y15309D01*
X16627Y14788D01*
X16505Y14173D01*
X16627Y13559D01*
X16975Y13038D01*
X17496Y12690D01*
X18110Y12568D01*
X18725Y12690D01*
X19246Y13038D01*
X19594Y13559D01*
X19716Y14173D01*
X19594Y14788D01*
X19246Y15309D01*
X18725Y15657D01*
X18110Y15779D01*
D02*
G37*
G36*
X117205Y19572D02*
X115931Y19446D01*
X114707Y19075D01*
X113578Y18472D01*
X112589Y17660D01*
X111777Y16671D01*
X111174Y15542D01*
X110803Y14318D01*
X110677Y13044D01*
X110803Y11771D01*
X111174Y10546D01*
X111777Y9418D01*
X112589Y8428D01*
X113578Y7617D01*
X114707Y7013D01*
X115931Y6642D01*
X117205Y6517D01*
X118478Y6642D01*
X119703Y7013D01*
X120831Y7617D01*
X121820Y8428D01*
X122632Y9418D01*
X123235Y10546D01*
X123607Y11771D01*
X123732Y13044D01*
X123607Y14318D01*
X123235Y15542D01*
X122632Y16671D01*
X121820Y17660D01*
X120831Y18472D01*
X119703Y19075D01*
X118478Y19446D01*
X117205Y19572D01*
D02*
G37*
G36*
X97807Y10280D02*
X96232D01*
X95513Y10185D01*
X94842Y9907D01*
X94267Y9465D01*
X93825Y8890D01*
X93547Y8219D01*
X93453Y7500D01*
X93547Y6781D01*
X93825Y6110D01*
X94267Y5534D01*
X94842Y5093D01*
X95513Y4815D01*
X96232Y4720D01*
X97807D01*
X98527Y4815D01*
X99197Y5093D01*
X99773Y5534D01*
X100214Y6110D01*
X100492Y6781D01*
X100587Y7500D01*
X100492Y8219D01*
X100214Y8890D01*
X99773Y9465D01*
X99197Y9907D01*
X98527Y10185D01*
X97807Y10280D01*
D02*
G37*
G36*
X7807D02*
X6232D01*
X5513Y10185D01*
X4843Y9907D01*
X4267Y9465D01*
X3825Y8890D01*
X3547Y8219D01*
X3453Y7500D01*
X3547Y6781D01*
X3825Y6110D01*
X4267Y5534D01*
X4843Y5093D01*
X5513Y4815D01*
X6232Y4720D01*
X7807D01*
X8527Y4815D01*
X9197Y5093D01*
X9773Y5534D01*
X10214Y6110D01*
X10492Y6781D01*
X10587Y7500D01*
X10492Y8219D01*
X10214Y8890D01*
X9773Y9465D01*
X9197Y9907D01*
X8527Y10185D01*
X7807Y10280D01*
D02*
G37*
G36*
X104331Y8788D02*
X103585Y8690D01*
X102889Y8402D01*
X102292Y7944D01*
X101834Y7347D01*
X101546Y6652D01*
X101448Y5906D01*
X101546Y5159D01*
X101834Y4464D01*
X102292Y3867D01*
X102889Y3409D01*
X103585Y3121D01*
X104331Y3023D01*
X105077Y3121D01*
X105772Y3409D01*
X106369Y3867D01*
X106827Y4464D01*
X107115Y5159D01*
X107214Y5906D01*
X107115Y6652D01*
X106827Y7347D01*
X106369Y7944D01*
X105772Y8402D01*
X105077Y8690D01*
X104331Y8788D01*
D02*
G37*
G36*
X15748D02*
X15002Y8690D01*
X14307Y8402D01*
X13710Y7944D01*
X13251Y7347D01*
X12963Y6652D01*
X12865Y5906D01*
X12963Y5159D01*
X13251Y4464D01*
X13710Y3867D01*
X14307Y3409D01*
X15002Y3121D01*
X15748Y3023D01*
X16494Y3121D01*
X17189Y3409D01*
X17787Y3867D01*
X18245Y4464D01*
X18533Y5159D01*
X18631Y5906D01*
X18533Y6652D01*
X18245Y7347D01*
X17787Y7944D01*
X17189Y8402D01*
X16494Y8690D01*
X15748Y8788D01*
D02*
G37*
%LPD*%
G36*
X94157Y316914D02*
X94151Y316969D01*
X94131Y317019D01*
X94099Y317062D01*
X94054Y317100D01*
X93995Y317132D01*
X93924Y317158D01*
X93839Y317179D01*
X93742Y317193D01*
X93632Y317202D01*
X93509Y317205D01*
Y317795D01*
X93632Y317798D01*
X93742Y317807D01*
X93839Y317822D01*
X93924Y317842D01*
X93995Y317868D01*
X94054Y317900D01*
X94099Y317938D01*
X94131Y317981D01*
X94151Y318031D01*
X94157Y318086D01*
Y316914D01*
D02*
G37*
G36*
X9955Y318035D02*
X9973Y317984D01*
X10003Y317940D01*
X10045Y317902D01*
X10099Y317869D01*
X10165Y317843D01*
X10244Y317822D01*
X10334Y317807D01*
X10436Y317798D01*
X10551Y317795D01*
Y317205D01*
X10436Y317202D01*
X10334Y317193D01*
X10244Y317178D01*
X10165Y317158D01*
X10099Y317131D01*
X10045Y317098D01*
X10003Y317060D01*
X9973Y317016D01*
X9955Y316966D01*
X9948Y316910D01*
Y318091D01*
X9955Y318035D01*
D02*
G37*
G36*
X94157Y306914D02*
X94151Y306969D01*
X94131Y307019D01*
X94099Y307062D01*
X94054Y307100D01*
X93995Y307132D01*
X93924Y307158D01*
X93839Y307179D01*
X93742Y307193D01*
X93632Y307202D01*
X93509Y307205D01*
Y307795D01*
X93632Y307798D01*
X93742Y307807D01*
X93839Y307821D01*
X93924Y307842D01*
X93995Y307868D01*
X94054Y307900D01*
X94099Y307938D01*
X94131Y307981D01*
X94151Y308031D01*
X94157Y308086D01*
Y306914D01*
D02*
G37*
G36*
Y296914D02*
X94151Y296969D01*
X94131Y297019D01*
X94099Y297062D01*
X94054Y297100D01*
X93995Y297132D01*
X93924Y297158D01*
X93839Y297179D01*
X93742Y297193D01*
X93632Y297202D01*
X93509Y297205D01*
Y297795D01*
X93632Y297798D01*
X93742Y297807D01*
X93839Y297821D01*
X93924Y297842D01*
X93995Y297868D01*
X94054Y297900D01*
X94099Y297938D01*
X94131Y297981D01*
X94151Y298031D01*
X94157Y298086D01*
Y296914D01*
D02*
G37*
G36*
X9889Y298031D02*
X9908Y297981D01*
X9940Y297938D01*
X9986Y297900D01*
X10044Y297868D01*
X10116Y297842D01*
X10200Y297821D01*
X10297Y297807D01*
X10407Y297798D01*
X10531Y297795D01*
Y297205D01*
X10407Y297202D01*
X10297Y297193D01*
X10200Y297179D01*
X10116Y297158D01*
X10044Y297132D01*
X9986Y297100D01*
X9940Y297062D01*
X9908Y297019D01*
X9889Y296969D01*
X9882Y296914D01*
Y298086D01*
X9889Y298031D01*
D02*
G37*
G36*
X94157Y286914D02*
X94151Y286969D01*
X94131Y287019D01*
X94099Y287062D01*
X94054Y287100D01*
X93995Y287132D01*
X93924Y287158D01*
X93839Y287179D01*
X93742Y287193D01*
X93632Y287202D01*
X93509Y287205D01*
Y287795D01*
X93632Y287798D01*
X93742Y287807D01*
X93839Y287822D01*
X93924Y287842D01*
X93995Y287868D01*
X94054Y287900D01*
X94099Y287938D01*
X94131Y287981D01*
X94151Y288031D01*
X94157Y288086D01*
Y286914D01*
D02*
G37*
G36*
Y276914D02*
X94151Y276969D01*
X94131Y277019D01*
X94099Y277062D01*
X94054Y277100D01*
X93995Y277132D01*
X93924Y277158D01*
X93839Y277179D01*
X93742Y277193D01*
X93632Y277202D01*
X93509Y277205D01*
Y277795D01*
X93632Y277798D01*
X93742Y277807D01*
X93839Y277821D01*
X93924Y277842D01*
X93995Y277868D01*
X94054Y277900D01*
X94099Y277938D01*
X94131Y277981D01*
X94151Y278031D01*
X94157Y278086D01*
Y276914D01*
D02*
G37*
G36*
Y266914D02*
X94151Y266969D01*
X94131Y267019D01*
X94099Y267062D01*
X94054Y267100D01*
X93995Y267132D01*
X93924Y267158D01*
X93839Y267179D01*
X93742Y267193D01*
X93632Y267202D01*
X93509Y267205D01*
Y267795D01*
X93632Y267798D01*
X93742Y267807D01*
X93839Y267822D01*
X93924Y267842D01*
X93995Y267868D01*
X94054Y267900D01*
X94099Y267938D01*
X94131Y267981D01*
X94151Y268031D01*
X94157Y268086D01*
Y266914D01*
D02*
G37*
G36*
Y256914D02*
X94151Y256969D01*
X94131Y257019D01*
X94099Y257062D01*
X94054Y257100D01*
X93995Y257132D01*
X93924Y257158D01*
X93839Y257179D01*
X93742Y257193D01*
X93632Y257202D01*
X93509Y257205D01*
Y257795D01*
X93632Y257798D01*
X93742Y257807D01*
X93839Y257821D01*
X93924Y257842D01*
X93995Y257868D01*
X94054Y257900D01*
X94099Y257938D01*
X94131Y257981D01*
X94151Y258031D01*
X94157Y258086D01*
Y256914D01*
D02*
G37*
G36*
Y246914D02*
X94151Y246969D01*
X94131Y247019D01*
X94099Y247062D01*
X94054Y247100D01*
X93995Y247132D01*
X93924Y247158D01*
X93839Y247179D01*
X93742Y247193D01*
X93632Y247202D01*
X93509Y247205D01*
Y247795D01*
X93632Y247798D01*
X93742Y247807D01*
X93839Y247821D01*
X93924Y247842D01*
X93995Y247868D01*
X94054Y247900D01*
X94099Y247938D01*
X94131Y247981D01*
X94151Y248031D01*
X94157Y248086D01*
Y246914D01*
D02*
G37*
G36*
Y236914D02*
X94151Y236969D01*
X94131Y237019D01*
X94099Y237062D01*
X94054Y237100D01*
X93995Y237132D01*
X93924Y237158D01*
X93839Y237179D01*
X93742Y237193D01*
X93632Y237202D01*
X93509Y237205D01*
Y237795D01*
X93632Y237798D01*
X93742Y237807D01*
X93839Y237822D01*
X93924Y237842D01*
X93995Y237868D01*
X94054Y237900D01*
X94099Y237938D01*
X94131Y237981D01*
X94151Y238031D01*
X94157Y238086D01*
Y236914D01*
D02*
G37*
G36*
Y226914D02*
X94151Y226969D01*
X94131Y227019D01*
X94099Y227062D01*
X94054Y227100D01*
X93995Y227132D01*
X93924Y227158D01*
X93839Y227179D01*
X93742Y227193D01*
X93632Y227202D01*
X93509Y227205D01*
Y227795D01*
X93632Y227798D01*
X93742Y227807D01*
X93839Y227821D01*
X93924Y227842D01*
X93995Y227868D01*
X94054Y227900D01*
X94099Y227938D01*
X94131Y227981D01*
X94151Y228031D01*
X94157Y228086D01*
Y226914D01*
D02*
G37*
G36*
Y216914D02*
X94151Y216969D01*
X94131Y217019D01*
X94099Y217062D01*
X94054Y217100D01*
X93995Y217132D01*
X93924Y217158D01*
X93839Y217179D01*
X93742Y217193D01*
X93632Y217202D01*
X93509Y217205D01*
Y217795D01*
X93632Y217798D01*
X93742Y217807D01*
X93839Y217822D01*
X93924Y217842D01*
X93995Y217868D01*
X94054Y217900D01*
X94099Y217938D01*
X94131Y217981D01*
X94151Y218031D01*
X94157Y218086D01*
Y216914D01*
D02*
G37*
G36*
X112429Y208751D02*
X111730Y208679D01*
X111043Y208553D01*
X110368Y208373D01*
X109706Y208140D01*
X109056Y207853D01*
X108418Y207511D01*
X107792Y207117D01*
X107178Y206668D01*
X106577Y206166D01*
X105988Y205609D01*
X105570Y206027D01*
X106126Y206616D01*
X106629Y207218D01*
X107077Y207831D01*
X107472Y208457D01*
X107813Y209095D01*
X108100Y209745D01*
X108334Y210408D01*
X108514Y211083D01*
X108640Y211769D01*
X108712Y212469D01*
X112429Y208751D01*
D02*
G37*
G36*
X94157Y196914D02*
X94151Y196969D01*
X94131Y197019D01*
X94099Y197062D01*
X94054Y197100D01*
X93995Y197132D01*
X93924Y197158D01*
X93839Y197179D01*
X93742Y197193D01*
X93632Y197202D01*
X93509Y197205D01*
Y197795D01*
X93632Y197798D01*
X93742Y197807D01*
X93839Y197821D01*
X93924Y197842D01*
X93995Y197868D01*
X94054Y197900D01*
X94099Y197938D01*
X94131Y197981D01*
X94151Y198031D01*
X94157Y198086D01*
Y196914D01*
D02*
G37*
G36*
Y186914D02*
X94151Y186969D01*
X94131Y187019D01*
X94099Y187062D01*
X94054Y187100D01*
X93995Y187132D01*
X93924Y187158D01*
X93839Y187179D01*
X93742Y187193D01*
X93632Y187202D01*
X93509Y187205D01*
Y187795D01*
X93632Y187798D01*
X93742Y187807D01*
X93839Y187821D01*
X93924Y187842D01*
X93995Y187868D01*
X94054Y187900D01*
X94099Y187938D01*
X94131Y187981D01*
X94151Y188031D01*
X94157Y188086D01*
Y186914D01*
D02*
G37*
G36*
Y176914D02*
X94151Y176969D01*
X94131Y177019D01*
X94099Y177062D01*
X94054Y177100D01*
X93995Y177132D01*
X93924Y177158D01*
X93839Y177179D01*
X93742Y177193D01*
X93632Y177202D01*
X93509Y177205D01*
Y177795D01*
X93632Y177798D01*
X93742Y177807D01*
X93839Y177822D01*
X93924Y177842D01*
X93995Y177868D01*
X94054Y177900D01*
X94099Y177938D01*
X94131Y177981D01*
X94151Y178031D01*
X94157Y178086D01*
Y176914D01*
D02*
G37*
G36*
X89342Y167072D02*
X89469Y166997D01*
X89612Y166930D01*
X89773Y166872D01*
X89951Y166824D01*
X90146Y166784D01*
X90358Y166753D01*
X90833Y166717D01*
X91096Y166713D01*
Y166122D01*
X90833Y166118D01*
X90358Y166082D01*
X90146Y166051D01*
X89951Y166011D01*
X89773Y165962D01*
X89612Y165904D01*
X89469Y165838D01*
X89342Y165762D01*
X89233Y165678D01*
Y167157D01*
X89342Y167072D01*
D02*
G37*
G36*
X86991Y165287D02*
X87159Y165145D01*
X87329Y165022D01*
X87500Y164916D01*
X87671Y164827D01*
X87843Y164755D01*
X88017Y164702D01*
X88191Y164665D01*
X88366Y164646D01*
X88542Y164645D01*
X87614Y163485D01*
X87590Y163573D01*
X87546Y163673D01*
X87483Y163787D01*
X87400Y163913D01*
X87298Y164051D01*
X87036Y164367D01*
X86697Y164733D01*
X86498Y164935D01*
X86823Y165445D01*
X86991Y165287D01*
D02*
G37*
G36*
X89342Y161560D02*
X89469Y161485D01*
X89612Y161418D01*
X89773Y161361D01*
X89951Y161312D01*
X90146Y161272D01*
X90358Y161241D01*
X90833Y161205D01*
X91096Y161201D01*
Y160610D01*
X90833Y160606D01*
X90358Y160570D01*
X90146Y160539D01*
X89951Y160499D01*
X89773Y160450D01*
X89612Y160393D01*
X89469Y160326D01*
X89342Y160251D01*
X89233Y160166D01*
Y161645D01*
X89342Y161560D01*
D02*
G37*
G36*
X89377Y158752D02*
X89467Y158688D01*
X89571Y158631D01*
X89686Y158581D01*
X89815Y158540D01*
X89956Y158506D01*
X90110Y158479D01*
X90276Y158460D01*
X90647Y158445D01*
Y157854D01*
X90455Y157851D01*
X90110Y157820D01*
X89956Y157794D01*
X89815Y157759D01*
X89686Y157718D01*
X89571Y157668D01*
X89467Y157611D01*
X89377Y157547D01*
X89299Y157475D01*
Y158825D01*
X89377Y158752D01*
D02*
G37*
G36*
X94157Y156914D02*
X94151Y156969D01*
X94131Y157019D01*
X94099Y157062D01*
X94054Y157100D01*
X93995Y157132D01*
X93924Y157158D01*
X93839Y157179D01*
X93742Y157193D01*
X93632Y157202D01*
X93509Y157205D01*
Y157795D01*
X93632Y157798D01*
X93742Y157807D01*
X93839Y157822D01*
X93924Y157842D01*
X93995Y157868D01*
X94054Y157900D01*
X94099Y157938D01*
X94131Y157981D01*
X94151Y158031D01*
X94157Y158086D01*
Y156914D01*
D02*
G37*
G36*
Y146914D02*
X94151Y146969D01*
X94131Y147019D01*
X94099Y147062D01*
X94054Y147100D01*
X93995Y147132D01*
X93924Y147158D01*
X93839Y147179D01*
X93742Y147193D01*
X93632Y147202D01*
X93509Y147205D01*
Y147795D01*
X93632Y147798D01*
X93742Y147807D01*
X93839Y147821D01*
X93924Y147842D01*
X93995Y147868D01*
X94054Y147900D01*
X94099Y147938D01*
X94131Y147981D01*
X94151Y148031D01*
X94157Y148086D01*
Y146914D01*
D02*
G37*
G36*
Y136914D02*
X94151Y136969D01*
X94131Y137019D01*
X94099Y137062D01*
X94054Y137100D01*
X93995Y137132D01*
X93924Y137158D01*
X93839Y137179D01*
X93742Y137193D01*
X93632Y137202D01*
X93509Y137205D01*
Y137795D01*
X93632Y137798D01*
X93742Y137807D01*
X93839Y137821D01*
X93924Y137842D01*
X93995Y137868D01*
X94054Y137900D01*
X94099Y137938D01*
X94131Y137981D01*
X94151Y138031D01*
X94157Y138086D01*
Y136914D01*
D02*
G37*
G36*
X117774Y137120D02*
X118186Y136792D01*
X118610Y136507D01*
X119047Y136266D01*
X119495Y136068D01*
X119956Y135914D01*
X120429Y135803D01*
X120915Y135736D01*
X121412Y135713D01*
X121922Y135733D01*
X118716Y132527D01*
X118736Y133037D01*
X118713Y133534D01*
X118646Y134019D01*
X118535Y134493D01*
X118381Y134953D01*
X118183Y135402D01*
X117942Y135838D01*
X117657Y136263D01*
X117329Y136675D01*
X116957Y137075D01*
X117374Y137492D01*
X117774Y137120D01*
D02*
G37*
G36*
X94157Y126914D02*
X94151Y126969D01*
X94131Y127019D01*
X94099Y127062D01*
X94054Y127100D01*
X93995Y127132D01*
X93924Y127158D01*
X93839Y127179D01*
X93742Y127193D01*
X93632Y127202D01*
X93509Y127205D01*
Y127795D01*
X93632Y127798D01*
X93742Y127807D01*
X93839Y127822D01*
X93924Y127842D01*
X93995Y127868D01*
X94054Y127900D01*
X94099Y127938D01*
X94131Y127981D01*
X94151Y128031D01*
X94157Y128086D01*
Y126914D01*
D02*
G37*
G36*
X80615Y120596D02*
X80651Y120140D01*
X80683Y119935D01*
X80723Y119745D01*
X80773Y119571D01*
X80832Y119412D01*
X80900Y119268D01*
X80977Y119139D01*
X81063Y119026D01*
X79567D01*
X79653Y119139D01*
X79730Y119268D01*
X79798Y119412D01*
X79857Y119571D01*
X79906Y119745D01*
X79947Y119935D01*
X79979Y120140D01*
X80015Y120596D01*
X80020Y120846D01*
X80610D01*
X80615Y120596D01*
D02*
G37*
G36*
X94133Y117044D02*
X94127Y117074D01*
X94111Y117102D01*
X94085Y117126D01*
X94048Y117147D01*
X94000Y117165D01*
X93942Y117179D01*
X93873Y117190D01*
X93793Y117198D01*
X93602Y117205D01*
Y117795D01*
X93703Y117797D01*
X93873Y117810D01*
X93942Y117821D01*
X94000Y117836D01*
X94048Y117853D01*
X94085Y117874D01*
X94111Y117898D01*
X94127Y117926D01*
X94133Y117956D01*
Y117044D01*
D02*
G37*
G36*
X81634Y115678D02*
X81524Y115762D01*
X81397Y115838D01*
X81254Y115904D01*
X81093Y115962D01*
X80915Y116011D01*
X80720Y116051D01*
X80508Y116082D01*
X80033Y116118D01*
X79770Y116122D01*
Y116713D01*
X80033Y116717D01*
X80508Y116753D01*
X80720Y116784D01*
X80915Y116824D01*
X81093Y116872D01*
X81254Y116930D01*
X81397Y116997D01*
X81524Y117072D01*
X81634Y117157D01*
Y115678D01*
D02*
G37*
G36*
X118203Y116685D02*
X118559Y116395D01*
X118916Y116148D01*
X119272Y115946D01*
X119629Y115787D01*
X119985Y115672D01*
X120342Y115602D01*
X120698Y115575D01*
X121054Y115592D01*
X121411Y115653D01*
X118796Y113038D01*
X118857Y113394D01*
X118874Y113751D01*
X118847Y114107D01*
X118776Y114464D01*
X118662Y114820D01*
X118503Y115177D01*
X118300Y115533D01*
X118054Y115889D01*
X117763Y116246D01*
X117429Y116602D01*
X117847Y117020D01*
X118203Y116685D01*
D02*
G37*
G36*
X81634Y111741D02*
X81524Y111826D01*
X81397Y111901D01*
X81254Y111968D01*
X81093Y112025D01*
X80915Y112074D01*
X80720Y112114D01*
X80508Y112145D01*
X80033Y112181D01*
X79770Y112185D01*
Y112776D01*
X80033Y112780D01*
X80508Y112816D01*
X80720Y112847D01*
X80915Y112887D01*
X81093Y112935D01*
X81254Y112993D01*
X81397Y113060D01*
X81524Y113135D01*
X81634Y113219D01*
Y111741D01*
D02*
G37*
G36*
X79403Y110143D02*
X79391Y110157D01*
X79366Y110169D01*
X79330Y110180D01*
X79282Y110190D01*
X79222Y110198D01*
X79065Y110210D01*
X78740Y110217D01*
Y110807D01*
X78861Y110808D01*
X79282Y110834D01*
X79330Y110843D01*
X79366Y110854D01*
X79391Y110867D01*
X79403Y110881D01*
Y110143D01*
D02*
G37*
G36*
X81634Y105836D02*
X81524Y105920D01*
X81397Y105995D01*
X81254Y106062D01*
X81093Y106120D01*
X80915Y106169D01*
X80720Y106209D01*
X80508Y106240D01*
X80033Y106275D01*
X79770Y106280D01*
Y106870D01*
X80033Y106875D01*
X80508Y106910D01*
X80720Y106941D01*
X80915Y106981D01*
X81093Y107030D01*
X81254Y107088D01*
X81397Y107154D01*
X81524Y107230D01*
X81634Y107314D01*
Y105836D01*
D02*
G37*
G36*
X79665Y103867D02*
X79556Y103952D01*
X79429Y104027D01*
X79285Y104094D01*
X79124Y104151D01*
X78947Y104200D01*
X78752Y104240D01*
X78540Y104271D01*
X78065Y104307D01*
X77801Y104311D01*
Y104902D01*
X78065Y104906D01*
X78540Y104941D01*
X78752Y104973D01*
X78947Y105013D01*
X79124Y105061D01*
X79285Y105119D01*
X79429Y105186D01*
X79556Y105261D01*
X79665Y105345D01*
Y103867D01*
D02*
G37*
G36*
X81634Y99930D02*
X81524Y100014D01*
X81397Y100090D01*
X81254Y100156D01*
X81093Y100214D01*
X80915Y100263D01*
X80720Y100303D01*
X80508Y100334D01*
X80033Y100370D01*
X79770Y100374D01*
Y100965D01*
X80033Y100969D01*
X80508Y101005D01*
X80720Y101036D01*
X80915Y101075D01*
X81093Y101124D01*
X81254Y101182D01*
X81397Y101249D01*
X81524Y101324D01*
X81634Y101409D01*
Y99930D01*
D02*
G37*
G36*
X79665Y97962D02*
X79556Y98046D01*
X79429Y98121D01*
X79285Y98188D01*
X79124Y98246D01*
X78947Y98295D01*
X78752Y98334D01*
X78540Y98366D01*
X78065Y98401D01*
X77801Y98405D01*
Y98996D01*
X78065Y99001D01*
X78540Y99036D01*
X78752Y99067D01*
X78947Y99107D01*
X79124Y99156D01*
X79285Y99214D01*
X79429Y99280D01*
X79556Y99356D01*
X79665Y99440D01*
Y97962D01*
D02*
G37*
G36*
X116902Y96523D02*
X116576Y96177D01*
X116294Y95831D01*
X116054Y95487D01*
X115859Y95144D01*
X115706Y94803D01*
X115597Y94463D01*
X115531Y94125D01*
X115509Y93787D01*
X115530Y93451D01*
X115594Y93117D01*
X113077Y95634D01*
X113412Y95569D01*
X113748Y95548D01*
X114085Y95571D01*
X114424Y95636D01*
X114764Y95745D01*
X115105Y95898D01*
X115448Y96094D01*
X115792Y96333D01*
X116137Y96615D01*
X116484Y96941D01*
X116902Y96523D01*
D02*
G37*
G36*
X79665Y94025D02*
X79556Y94109D01*
X79429Y94184D01*
X79285Y94251D01*
X79124Y94309D01*
X78947Y94358D01*
X78752Y94397D01*
X78540Y94429D01*
X78065Y94464D01*
X77801Y94468D01*
Y95059D01*
X78065Y95064D01*
X78540Y95099D01*
X78752Y95130D01*
X78947Y95170D01*
X79124Y95219D01*
X79285Y95277D01*
X79429Y95343D01*
X79556Y95419D01*
X79665Y95503D01*
Y94025D01*
D02*
G37*
G36*
X81634Y90088D02*
X81524Y90172D01*
X81397Y90247D01*
X81254Y90314D01*
X81093Y90372D01*
X80915Y90421D01*
X80720Y90460D01*
X80508Y90491D01*
X80033Y90527D01*
X79770Y90531D01*
Y91122D01*
X80033Y91127D01*
X80508Y91162D01*
X80720Y91193D01*
X80915Y91233D01*
X81093Y91282D01*
X81254Y91340D01*
X81397Y91406D01*
X81524Y91482D01*
X81634Y91566D01*
Y90088D01*
D02*
G37*
G36*
X79665Y88119D02*
X79556Y88203D01*
X79429Y88279D01*
X79285Y88345D01*
X79124Y88403D01*
X78947Y88452D01*
X78752Y88492D01*
X78540Y88523D01*
X78065Y88559D01*
X77801Y88563D01*
Y89153D01*
X78065Y89158D01*
X78540Y89193D01*
X78752Y89225D01*
X78947Y89265D01*
X79124Y89313D01*
X79285Y89371D01*
X79429Y89438D01*
X79556Y89513D01*
X79665Y89597D01*
Y88119D01*
D02*
G37*
G36*
X71802Y88220D02*
X72095Y88024D01*
X72441Y87955D01*
X77719D01*
X77790Y87924D01*
X78035Y87920D01*
X78470Y87887D01*
X78641Y87862D01*
X78798Y87830D01*
X78932Y87793D01*
X79043Y87753D01*
X79130Y87713D01*
X79196Y87674D01*
X79275Y87613D01*
X79392Y87581D01*
X79700Y87375D01*
X80315Y87253D01*
X80929Y87375D01*
X81450Y87723D01*
X81798Y88244D01*
X81921Y88858D01*
X81918Y88870D01*
X82272Y89223D01*
X82284Y89221D01*
X82849Y89334D01*
X82985Y89309D01*
X83349Y89114D01*
Y86634D01*
X82985Y86439D01*
X82849Y86414D01*
X82284Y86527D01*
X81669Y86405D01*
X81360Y86198D01*
X81243Y86167D01*
X81164Y86106D01*
X81099Y86067D01*
X81011Y86026D01*
X80900Y85986D01*
X80766Y85949D01*
X80610Y85917D01*
X80438Y85892D01*
X80004Y85860D01*
X79759Y85856D01*
X79687Y85824D01*
X72815D01*
X66356Y92283D01*
Y93013D01*
X66818Y93204D01*
X71802Y88220D01*
D02*
G37*
G36*
X81634Y84182D02*
X81524Y84266D01*
X81397Y84342D01*
X81254Y84408D01*
X81093Y84466D01*
X80915Y84515D01*
X80720Y84555D01*
X80508Y84586D01*
X80033Y84622D01*
X79770Y84626D01*
Y85216D01*
X80033Y85221D01*
X80508Y85256D01*
X80720Y85288D01*
X80915Y85328D01*
X81093Y85376D01*
X81254Y85434D01*
X81397Y85501D01*
X81524Y85576D01*
X81634Y85660D01*
Y84182D01*
D02*
G37*
G36*
X79665Y82214D02*
X79556Y82298D01*
X79429Y82373D01*
X79285Y82440D01*
X79124Y82498D01*
X78947Y82547D01*
X78752Y82586D01*
X78540Y82617D01*
X78065Y82653D01*
X77801Y82657D01*
Y83248D01*
X78065Y83253D01*
X78540Y83288D01*
X78752Y83319D01*
X78947Y83359D01*
X79124Y83408D01*
X79285Y83465D01*
X79429Y83532D01*
X79556Y83608D01*
X79665Y83692D01*
Y82214D01*
D02*
G37*
G36*
X81662Y78253D02*
X81542Y78342D01*
X81412Y78421D01*
X81273Y78491D01*
X81123Y78552D01*
X80963Y78604D01*
X80794Y78646D01*
X80615Y78678D01*
X80425Y78702D01*
X80226Y78716D01*
X80017Y78720D01*
Y79311D01*
X80226Y79316D01*
X80615Y79353D01*
X80794Y79386D01*
X80963Y79428D01*
X81123Y79479D01*
X81273Y79540D01*
X81412Y79610D01*
X81542Y79690D01*
X81662Y79779D01*
Y78253D01*
D02*
G37*
G36*
X95735Y75406D02*
X95681Y75429D01*
X95623Y75440D01*
X95561Y75439D01*
X95495Y75425D01*
X95424Y75400D01*
X95349Y75361D01*
X95270Y75311D01*
X95187Y75248D01*
X95100Y75173D01*
X95008Y75086D01*
X94480Y75393D01*
X94565Y75482D01*
X94636Y75565D01*
X94692Y75643D01*
X94734Y75713D01*
X94762Y75778D01*
X94774Y75836D01*
X94772Y75888D01*
X94756Y75934D01*
X94725Y75974D01*
X94679Y76007D01*
X95735Y75406D01*
D02*
G37*
G36*
X84270Y59325D02*
X84087Y59135D01*
X83776Y58774D01*
X83648Y58602D01*
X83538Y58436D01*
X83447Y58276D01*
X83374Y58121D01*
X83320Y57973D01*
X83284Y57830D01*
X83266Y57693D01*
X82220Y58738D01*
X82357Y58756D01*
X82500Y58792D01*
X82649Y58847D01*
X82803Y58920D01*
X82964Y59011D01*
X83130Y59120D01*
X83302Y59248D01*
X83663Y59559D01*
X83852Y59742D01*
X84270Y59325D01*
D02*
G37*
G36*
X54742Y39640D02*
X54559Y39450D01*
X54248Y39089D01*
X54120Y38917D01*
X54011Y38751D01*
X53920Y38591D01*
X53847Y38436D01*
X53792Y38288D01*
X53756Y38145D01*
X53738Y38008D01*
X52693Y39053D01*
X52830Y39071D01*
X52973Y39107D01*
X53121Y39162D01*
X53276Y39234D01*
X53436Y39326D01*
X53602Y39435D01*
X53774Y39563D01*
X54135Y39874D01*
X54325Y40057D01*
X54742Y39640D01*
D02*
G37*
G36*
X51547Y36757D02*
X51673Y36682D01*
X51817Y36615D01*
X51978Y36557D01*
X52156Y36509D01*
X52351Y36469D01*
X52563Y36438D01*
X53038Y36402D01*
X53301Y36398D01*
Y35807D01*
X53038Y35803D01*
X52563Y35767D01*
X52351Y35736D01*
X52156Y35696D01*
X51978Y35647D01*
X51817Y35590D01*
X51673Y35523D01*
X51547Y35447D01*
X51437Y35363D01*
Y36841D01*
X51547Y36757D01*
D02*
G37*
G36*
X54742Y33734D02*
X54559Y33545D01*
X54248Y33184D01*
X54120Y33012D01*
X54011Y32846D01*
X53920Y32685D01*
X53847Y32531D01*
X53792Y32382D01*
X53756Y32239D01*
X53738Y32102D01*
X52693Y33148D01*
X52830Y33165D01*
X52973Y33202D01*
X53121Y33256D01*
X53276Y33329D01*
X53436Y33420D01*
X53602Y33530D01*
X53774Y33658D01*
X54135Y33969D01*
X54325Y34152D01*
X54742Y33734D01*
D02*
G37*
G36*
X51547Y30852D02*
X51673Y30776D01*
X51817Y30710D01*
X51978Y30652D01*
X52156Y30603D01*
X52351Y30563D01*
X52563Y30532D01*
X53038Y30497D01*
X53301Y30492D01*
Y29902D01*
X53038Y29897D01*
X52563Y29862D01*
X52351Y29831D01*
X52156Y29791D01*
X51978Y29742D01*
X51817Y29684D01*
X51673Y29618D01*
X51547Y29542D01*
X51437Y29458D01*
Y30936D01*
X51547Y30852D01*
D02*
G37*
G36*
X54742Y27828D02*
X54559Y27639D01*
X54248Y27278D01*
X54120Y27106D01*
X54011Y26940D01*
X53920Y26780D01*
X53847Y26625D01*
X53792Y26477D01*
X53756Y26334D01*
X53738Y26197D01*
X52693Y27242D01*
X52830Y27260D01*
X52973Y27296D01*
X53121Y27351D01*
X53276Y27423D01*
X53436Y27515D01*
X53602Y27624D01*
X53774Y27752D01*
X54135Y28063D01*
X54325Y28246D01*
X54742Y27828D01*
D02*
G37*
G36*
X51547Y24946D02*
X51673Y24871D01*
X51817Y24804D01*
X51978Y24746D01*
X52156Y24698D01*
X52351Y24658D01*
X52563Y24627D01*
X53038Y24591D01*
X53301Y24587D01*
Y23996D01*
X53038Y23992D01*
X52563Y23956D01*
X52351Y23925D01*
X52156Y23885D01*
X51978Y23836D01*
X51817Y23779D01*
X51673Y23712D01*
X51547Y23637D01*
X51437Y23552D01*
Y25030D01*
X51547Y24946D01*
D02*
G37*
G36*
X50261Y156603D02*
X50186Y156476D01*
X50119Y156333D01*
X50061Y156172D01*
X50012Y155994D01*
X49973Y155799D01*
X49942Y155587D01*
X49906Y155112D01*
X49902Y154849D01*
X49311D01*
X49307Y155112D01*
X49271Y155587D01*
X49240Y155799D01*
X49200Y155994D01*
X49151Y156172D01*
X49093Y156333D01*
X49027Y156476D01*
X48952Y156603D01*
X48867Y156712D01*
X50345D01*
X50261Y156603D01*
D02*
G37*
G36*
X44199Y155715D02*
X44156Y155661D01*
X44119Y155592D01*
X44086Y155509D01*
X44059Y155413D01*
X44036Y155302D01*
X44019Y155177D01*
X43999Y154885D01*
X43996Y154718D01*
X43406D01*
X43403Y154885D01*
X43383Y155177D01*
X43365Y155302D01*
X43343Y155413D01*
X43315Y155509D01*
X43283Y155592D01*
X43245Y155661D01*
X43203Y155715D01*
X43155Y155756D01*
X44246D01*
X44199Y155715D01*
D02*
G37*
G36*
X40826Y154253D02*
X40748Y154124D01*
X40679Y153982D01*
X40619Y153827D01*
X40568Y153660D01*
X40527Y153481D01*
X40494Y153289D01*
X40471Y153085D01*
X40453Y152638D01*
X39862D01*
X39858Y152867D01*
X39821Y153289D01*
X39788Y153481D01*
X39747Y153660D01*
X39696Y153827D01*
X39636Y153982D01*
X39567Y154124D01*
X39489Y154253D01*
X39402Y154370D01*
X40914D01*
X40826Y154253D01*
D02*
G37*
G36*
X36482Y150697D02*
X36406Y150571D01*
X36340Y150427D01*
X36282Y150266D01*
X36233Y150088D01*
X36193Y149893D01*
X36162Y149681D01*
X36127Y149206D01*
X36122Y148943D01*
X35531D01*
X35527Y149206D01*
X35492Y149681D01*
X35460Y149893D01*
X35421Y150088D01*
X35372Y150266D01*
X35314Y150427D01*
X35247Y150571D01*
X35172Y150697D01*
X35088Y150807D01*
X36566D01*
X36482Y150697D01*
D02*
G37*
G36*
X30970Y148335D02*
X30894Y148208D01*
X30828Y148065D01*
X30770Y147904D01*
X30721Y147726D01*
X30681Y147531D01*
X30650Y147319D01*
X30615Y146844D01*
X30610Y146581D01*
X30020D01*
X30015Y146844D01*
X29980Y147319D01*
X29949Y147531D01*
X29909Y147726D01*
X29860Y147904D01*
X29802Y148065D01*
X29736Y148208D01*
X29660Y148335D01*
X29576Y148445D01*
X31054D01*
X30970Y148335D01*
D02*
G37*
G36*
X52728Y145419D02*
X52855Y145343D01*
X52998Y145277D01*
X53159Y145219D01*
X53337Y145170D01*
X53532Y145130D01*
X53744Y145099D01*
X54219Y145063D01*
X54482Y145059D01*
Y144468D01*
X54219Y144464D01*
X53744Y144429D01*
X53532Y144397D01*
X53337Y144358D01*
X53159Y144309D01*
X52998Y144251D01*
X52855Y144184D01*
X52728Y144109D01*
X52618Y144025D01*
Y145503D01*
X52728Y145419D01*
D02*
G37*
G36*
X35144Y143391D02*
X34995Y143369D01*
X34846Y143334D01*
X34699Y143286D01*
X34551Y143225D01*
X34404Y143150D01*
X34257Y143064D01*
X34110Y142964D01*
X33964Y142851D01*
X33819Y142725D01*
X33673Y142587D01*
X33256Y143004D01*
X33394Y143149D01*
X33633Y143441D01*
X33733Y143588D01*
X33820Y143734D01*
X33894Y143882D01*
X33955Y144029D01*
X34003Y144177D01*
X34038Y144326D01*
X34061Y144474D01*
X35144Y143391D01*
D02*
G37*
G36*
X49195Y142295D02*
X49183Y142294D01*
X49162Y142285D01*
X49135Y142268D01*
X49100Y142241D01*
X49007Y142162D01*
X48732Y141897D01*
X48315Y142315D01*
X48394Y142395D01*
X48703Y142745D01*
X48712Y142765D01*
X48712Y142778D01*
X49195Y142295D01*
D02*
G37*
G36*
X42000Y142066D02*
X41874Y141940D01*
X41762Y141801D01*
X41663Y141650D01*
X41577Y141486D01*
X41504Y141309D01*
X41444Y141120D01*
X41398Y140918D01*
X41365Y140703D01*
X41345Y140476D01*
X41339Y140236D01*
X40748Y140433D01*
X40746Y140718D01*
X40668Y141795D01*
X40639Y141941D01*
X40606Y142063D01*
X40569Y142163D01*
X40526Y142239D01*
X42000Y142066D01*
D02*
G37*
G36*
X39631Y133768D02*
X39556Y133642D01*
X39489Y133498D01*
X39432Y133337D01*
X39383Y133159D01*
X39343Y132964D01*
X39312Y132752D01*
X39276Y132277D01*
X39272Y132014D01*
X38681D01*
X38677Y132277D01*
X38641Y132752D01*
X38610Y132964D01*
X38570Y133159D01*
X38521Y133337D01*
X38464Y133498D01*
X38397Y133642D01*
X38322Y133768D01*
X38237Y133878D01*
X39716D01*
X39631Y133768D01*
D02*
G37*
G36*
X51941Y119041D02*
X52067Y118965D01*
X52211Y118899D01*
X52372Y118841D01*
X52549Y118792D01*
X52744Y118752D01*
X52956Y118721D01*
X53432Y118685D01*
X53695Y118681D01*
Y118091D01*
X53432Y118086D01*
X52956Y118051D01*
X52744Y118019D01*
X52549Y117980D01*
X52372Y117931D01*
X52211Y117873D01*
X52067Y117806D01*
X51941Y117731D01*
X51831Y117647D01*
Y119125D01*
X51941Y119041D01*
D02*
G37*
G36*
X52893Y115678D02*
X52784Y115762D01*
X52657Y115838D01*
X52514Y115904D01*
X52353Y115962D01*
X52175Y116011D01*
X51980Y116051D01*
X51768Y116082D01*
X51293Y116118D01*
X51030Y116122D01*
Y116713D01*
X51293Y116717D01*
X51768Y116753D01*
X51980Y116784D01*
X52175Y116824D01*
X52353Y116872D01*
X52514Y116930D01*
X52657Y116997D01*
X52784Y117072D01*
X52893Y117157D01*
Y115678D01*
D02*
G37*
G36*
X49315Y113840D02*
X49474Y113720D01*
X49641Y113619D01*
X49813Y113536D01*
X49993Y113473D01*
X50179Y113430D01*
X50372Y113405D01*
X50572Y113400D01*
X50778Y113413D01*
X50992Y113446D01*
X50262Y112128D01*
X48876Y113432D01*
X49162Y113980D01*
X49315Y113840D01*
D02*
G37*
G36*
X52893Y109773D02*
X52784Y109857D01*
X52657Y109932D01*
X52514Y109999D01*
X52353Y110057D01*
X52175Y110106D01*
X51980Y110145D01*
X51768Y110177D01*
X51293Y110212D01*
X51030Y110217D01*
Y110807D01*
X51293Y110811D01*
X51768Y110847D01*
X51980Y110878D01*
X52175Y110918D01*
X52353Y110967D01*
X52514Y111025D01*
X52657Y111091D01*
X52784Y111167D01*
X52893Y111251D01*
Y109773D01*
D02*
G37*
G36*
X50531Y105836D02*
X50422Y105920D01*
X50295Y105995D01*
X50151Y106062D01*
X49991Y106120D01*
X49813Y106169D01*
X49618Y106209D01*
X49406Y106240D01*
X48931Y106275D01*
X48667Y106280D01*
Y106870D01*
X48931Y106875D01*
X49406Y106910D01*
X49618Y106941D01*
X49813Y106981D01*
X49991Y107030D01*
X50151Y107088D01*
X50295Y107154D01*
X50422Y107230D01*
X50531Y107314D01*
Y105836D01*
D02*
G37*
G36*
X52893Y103867D02*
X52784Y103952D01*
X52657Y104027D01*
X52514Y104094D01*
X52353Y104151D01*
X52175Y104200D01*
X51980Y104240D01*
X51768Y104271D01*
X51293Y104307D01*
X51030Y104311D01*
Y104902D01*
X51293Y104906D01*
X51768Y104941D01*
X51980Y104973D01*
X52175Y105013D01*
X52353Y105061D01*
X52514Y105119D01*
X52657Y105186D01*
X52784Y105261D01*
X52893Y105345D01*
Y103867D01*
D02*
G37*
G36*
X50531Y99930D02*
X50422Y100014D01*
X50295Y100090D01*
X50151Y100156D01*
X49991Y100214D01*
X49813Y100263D01*
X49618Y100303D01*
X49406Y100334D01*
X48931Y100370D01*
X48667Y100374D01*
Y100965D01*
X48931Y100969D01*
X49406Y101005D01*
X49618Y101036D01*
X49813Y101075D01*
X49991Y101124D01*
X50151Y101182D01*
X50295Y101249D01*
X50422Y101324D01*
X50531Y101409D01*
Y99930D01*
D02*
G37*
G36*
X55923Y100269D02*
X55740Y100080D01*
X55429Y99719D01*
X55301Y99547D01*
X55192Y99381D01*
X55101Y99221D01*
X55028Y99066D01*
X54973Y98918D01*
X54937Y98775D01*
X54919Y98638D01*
X53874Y99683D01*
X54011Y99701D01*
X54154Y99737D01*
X54303Y99792D01*
X54457Y99864D01*
X54617Y99956D01*
X54783Y100065D01*
X54955Y100193D01*
X55316Y100504D01*
X55506Y100687D01*
X55923Y100269D01*
D02*
G37*
G36*
X50559Y95969D02*
X50440Y96058D01*
X50310Y96138D01*
X50170Y96208D01*
X50021Y96269D01*
X49861Y96320D01*
X49692Y96362D01*
X49512Y96395D01*
X49323Y96418D01*
X49124Y96432D01*
X48914Y96437D01*
Y97028D01*
X49124Y97032D01*
X49512Y97070D01*
X49692Y97102D01*
X49861Y97145D01*
X50021Y97196D01*
X50170Y97257D01*
X50310Y97327D01*
X50440Y97407D01*
X50559Y97495D01*
Y95969D01*
D02*
G37*
G36*
X52893Y94025D02*
X52784Y94109D01*
X52657Y94184D01*
X52514Y94251D01*
X52353Y94309D01*
X52175Y94358D01*
X51980Y94397D01*
X51768Y94429D01*
X51293Y94464D01*
X51030Y94468D01*
Y95059D01*
X51293Y95064D01*
X51768Y95099D01*
X51980Y95130D01*
X52175Y95170D01*
X52353Y95219D01*
X52514Y95277D01*
X52657Y95343D01*
X52784Y95419D01*
X52893Y95503D01*
Y94025D01*
D02*
G37*
G36*
X50531Y90088D02*
X50422Y90172D01*
X50295Y90247D01*
X50151Y90314D01*
X49991Y90372D01*
X49813Y90421D01*
X49618Y90460D01*
X49406Y90491D01*
X48931Y90527D01*
X48667Y90531D01*
Y91122D01*
X48931Y91127D01*
X49406Y91162D01*
X49618Y91193D01*
X49813Y91233D01*
X49991Y91282D01*
X50151Y91340D01*
X50295Y91406D01*
X50422Y91482D01*
X50531Y91566D01*
Y90088D01*
D02*
G37*
G36*
X52893Y88119D02*
X52784Y88203D01*
X52657Y88279D01*
X52514Y88345D01*
X52353Y88403D01*
X52175Y88452D01*
X51980Y88492D01*
X51768Y88523D01*
X51293Y88559D01*
X51030Y88563D01*
Y89153D01*
X51293Y89158D01*
X51768Y89193D01*
X51980Y89225D01*
X52175Y89265D01*
X52353Y89313D01*
X52514Y89371D01*
X52657Y89438D01*
X52784Y89513D01*
X52893Y89597D01*
Y88119D01*
D02*
G37*
G36*
Y82214D02*
X52784Y82298D01*
X52657Y82373D01*
X52514Y82440D01*
X52353Y82498D01*
X52175Y82547D01*
X51980Y82586D01*
X51768Y82617D01*
X51293Y82653D01*
X51030Y82657D01*
Y83248D01*
X51293Y83253D01*
X51768Y83288D01*
X51980Y83319D01*
X52175Y83359D01*
X52353Y83408D01*
X52514Y83465D01*
X52657Y83532D01*
X52784Y83608D01*
X52893Y83692D01*
Y82214D01*
D02*
G37*
G36*
Y76308D02*
X52784Y76392D01*
X52657Y76468D01*
X52514Y76534D01*
X52353Y76592D01*
X52175Y76641D01*
X51980Y76681D01*
X51768Y76712D01*
X51293Y76748D01*
X51030Y76752D01*
Y77342D01*
X51293Y77347D01*
X51768Y77382D01*
X51980Y77413D01*
X52175Y77454D01*
X52353Y77502D01*
X52514Y77560D01*
X52657Y77627D01*
X52784Y77702D01*
X52893Y77786D01*
Y76308D01*
D02*
G37*
G36*
X75477Y62923D02*
X75418Y62813D01*
X75366Y62682D01*
X75321Y62531D01*
X75283Y62358D01*
X75252Y62165D01*
X75211Y61717D01*
X75197Y61185D01*
X74410D01*
X74406Y61461D01*
X74354Y62165D01*
X74323Y62358D01*
X74285Y62531D01*
X74240Y62682D01*
X74188Y62813D01*
X74130Y62923D01*
X74064Y63011D01*
X75542D01*
X75477Y62923D01*
D02*
G37*
G36*
X82345Y23009D02*
X82152Y22811D01*
X81690Y22276D01*
X81576Y22117D01*
X81481Y21969D01*
X81406Y21830D01*
X81350Y21701D01*
X81314Y21582D01*
X81297Y21472D01*
X80252Y22518D01*
X80361Y22534D01*
X80480Y22570D01*
X80609Y22626D01*
X80748Y22701D01*
X80897Y22796D01*
X81055Y22911D01*
X81402Y23199D01*
X81788Y23565D01*
X82345Y23009D01*
D02*
G37*
G36*
X80378Y20553D02*
X80269Y20537D01*
X80150Y20501D01*
X80020Y20445D01*
X79882Y20369D01*
X79733Y20275D01*
X79575Y20160D01*
X79228Y19872D01*
X78842Y19506D01*
X78285Y20062D01*
X78478Y20260D01*
X78939Y20795D01*
X79054Y20954D01*
X79149Y21102D01*
X79224Y21241D01*
X79280Y21370D01*
X79316Y21489D01*
X79333Y21599D01*
X80378Y20553D01*
D02*
G37*
G36*
X59400Y18666D02*
X59510Y18607D01*
X59641Y18555D01*
X59792Y18510D01*
X59965Y18472D01*
X60158Y18441D01*
X60606Y18400D01*
X61138Y18386D01*
Y17598D01*
X60862Y17595D01*
X60158Y17543D01*
X59965Y17512D01*
X59792Y17474D01*
X59641Y17429D01*
X59510Y17377D01*
X59400Y17319D01*
X59311Y17253D01*
Y18731D01*
X59400Y18666D01*
D02*
G37*
D10*
X58661Y17992D02*
X76772D01*
X80315Y21535D01*
X82677Y23898D01*
Y43583D01*
X74803Y51457D02*
X82677Y43583D01*
X74803Y51457D02*
Y63661D01*
D45*
X38130Y182106D02*
Y216358D01*
X30512Y174488D02*
X38130Y182106D01*
X27559Y174488D02*
X30512D01*
X38130Y216358D02*
X40551Y218779D01*
X52362D01*
D46*
X55905Y295158D02*
X63091Y287972D01*
X14677Y295158D02*
X55905D01*
X7020Y287500D02*
X14677Y295158D01*
X55118Y292008D02*
X61910Y285216D01*
X21528Y292008D02*
X55118D01*
X7020Y277500D02*
X21528Y292008D01*
X11811Y180189D02*
X17717Y186095D01*
X11811Y157500D02*
Y180189D01*
X7020Y157500D02*
X11811D01*
X12992Y148701D02*
Y179700D01*
X11791Y147500D02*
X12992Y148701D01*
X14173Y137500D02*
Y179211D01*
X7020Y137500D02*
X14173D01*
X15354Y130984D02*
Y178722D01*
X11870Y127500D02*
X15354Y130984D01*
X16535Y130495D02*
Y178232D01*
X7020Y120979D02*
X16535Y130495D01*
X17717Y130006D02*
Y177743D01*
X15256Y127545D02*
X17717Y130006D01*
X18898Y129517D02*
Y177254D01*
X16437Y127056D02*
X18898Y129517D01*
X20079Y129027D02*
Y176765D01*
X17618Y126567D02*
X20079Y129027D01*
X21260Y128538D02*
Y176276D01*
X18799Y126077D02*
X21260Y128538D01*
X22441Y128049D02*
Y175786D01*
X19980Y125588D02*
X22441Y128049D01*
X23622Y127560D02*
Y175297D01*
X21161Y125099D02*
X23622Y127560D01*
X24803Y174808D02*
X33760Y183765D01*
X24803Y127070D02*
Y174808D01*
X22343Y124610D02*
X24803Y127070D01*
X61417Y305394D02*
X65453Y301358D01*
X9126Y305394D02*
X61417D01*
X7020Y307500D02*
X9126Y305394D01*
X42913Y283740D02*
X47638Y288465D01*
X42913Y252638D02*
Y283740D01*
X44094Y252149D02*
Y281378D01*
X50000Y287283D01*
X45276Y251659D02*
Y279803D01*
X46457Y251170D02*
Y278622D01*
X50787Y282953D01*
X47638Y250681D02*
Y277835D01*
X50000Y280197D01*
X48819Y250192D02*
Y273110D01*
X50394Y274685D01*
X50000Y249703D02*
Y265630D01*
X51378Y267008D01*
X55905D01*
X51181Y249213D02*
Y263661D01*
X51968Y264449D01*
X55905D01*
X52362Y248724D02*
Y256181D01*
X53150Y256968D01*
X55512D01*
X53739Y254211D02*
X55610D01*
X53543Y254016D02*
X53739Y254211D01*
X53543Y248235D02*
Y254016D01*
X45742Y240433D02*
X53543Y248235D01*
X45252Y241614D02*
X52362Y248724D01*
X44763Y242795D02*
X51181Y249213D01*
X44274Y243976D02*
X50000Y249703D01*
X43785Y245158D02*
X48819Y250192D01*
X43295Y246339D02*
X47638Y250681D01*
X42806Y247520D02*
X46457Y251170D01*
X42317Y248701D02*
X45276Y251659D01*
X41828Y249882D02*
X44094Y252149D01*
X41339Y251063D02*
X42913Y252638D01*
X50394Y274685D02*
X55905D01*
X50787Y282953D02*
X53937D01*
X50000Y280197D02*
X53937D01*
X50394Y284921D02*
X51968D01*
X45276Y279803D02*
X50394Y284921D01*
X7480Y106857D02*
Y107500D01*
X35112Y240433D02*
X45742D01*
X30709Y236030D02*
X35112Y240433D01*
X30709Y220933D02*
Y236030D01*
X34622Y241614D02*
X45252D01*
X29528Y236519D02*
X34622Y241614D01*
X29528Y220444D02*
Y236519D01*
X34133Y242795D02*
X44763D01*
X28346Y237009D02*
X34133Y242795D01*
X28346Y219955D02*
Y237009D01*
X33644Y243976D02*
X44274D01*
X27165Y237498D02*
X33644Y243976D01*
X27165Y219466D02*
Y237498D01*
X33155Y245158D02*
X43785D01*
X25984Y237987D02*
X33155Y245158D01*
X25984Y218976D02*
Y237987D01*
X32666Y246339D02*
X43295D01*
X24803Y238476D02*
X32666Y246339D01*
X24803Y183159D02*
Y238476D01*
X32176Y247520D02*
X42806D01*
X23622Y238965D02*
X32176Y247520D01*
X23622Y183649D02*
Y238965D01*
X31687Y248701D02*
X42317D01*
X22441Y239455D02*
X31687Y248701D01*
X22441Y184138D02*
Y239455D01*
X31198Y249882D02*
X41828D01*
X21260Y239944D02*
X31198Y249882D01*
X21260Y184627D02*
Y239944D01*
X30709Y251063D02*
X41339D01*
X20079Y240433D02*
X30709Y251063D01*
X20079Y185116D02*
Y240433D01*
X61910Y87381D02*
Y285216D01*
X63091Y87972D02*
Y287972D01*
X24314Y256968D02*
X39370D01*
X17717Y250371D02*
X24314Y256968D01*
X31111Y267106D02*
X40157D01*
X13386Y249381D02*
X31111Y267106D01*
X30222Y264547D02*
X39862D01*
X14567Y248892D02*
X30222Y264547D01*
X13386Y213866D02*
Y249381D01*
X14567Y205047D02*
Y248892D01*
X12205Y250276D02*
X36713Y274783D01*
X17717Y186095D02*
Y250371D01*
X23228Y254213D02*
X39370D01*
X18898Y249882D02*
X23228Y254213D01*
X18898Y185606D02*
Y249882D01*
X36713Y274783D02*
X39764D01*
X12205Y222685D02*
Y250276D01*
X7020Y197500D02*
X14567Y205047D01*
X7020Y207500D02*
X13386Y213866D01*
X7020Y217500D02*
X12205Y222685D01*
X7020Y227500D02*
X7746D01*
X23622Y175297D02*
X32579Y184254D01*
X22441Y175786D02*
X31398Y184743D01*
X21260Y176276D02*
X30217Y185232D01*
X20079Y176765D02*
X29035Y185722D01*
X18898Y177254D02*
X24803Y183159D01*
X12992Y179700D02*
X18898Y185606D01*
X14173Y179211D02*
X20079Y185116D01*
X15354Y178722D02*
X21260Y184627D01*
X16535Y178232D02*
X22441Y184138D01*
X17717Y177743D02*
X23622Y183649D01*
X22343Y119400D02*
Y124610D01*
X21752Y118810D02*
X22343Y119400D01*
X21752Y87296D02*
Y118810D01*
Y87296D02*
X22343Y86706D01*
Y69373D02*
Y86706D01*
X19685Y66716D02*
X22343Y69373D01*
X21161Y69862D02*
Y72310D01*
X18504Y67205D02*
X21161Y69862D01*
X21161Y119889D02*
Y125099D01*
X20472Y119201D02*
X21161Y119889D01*
X20472Y72999D02*
Y119201D01*
Y72999D02*
X21161Y72310D01*
X19980Y120379D02*
Y125588D01*
X19291Y119690D02*
X19980Y120379D01*
X18799Y120868D02*
Y126077D01*
X18110Y120179D02*
X18799Y120868D01*
X17618Y121357D02*
Y126567D01*
X16929Y120668D02*
X17618Y121357D01*
X16437Y121846D02*
Y127056D01*
X15748Y121158D02*
X16437Y121846D01*
X15256Y122336D02*
Y127545D01*
X14567Y121647D02*
X15256Y122336D01*
X19291Y75678D02*
Y119690D01*
X18110Y76167D02*
Y120179D01*
X16929Y76657D02*
Y120668D01*
X15748Y77146D02*
Y121158D01*
X14567Y103819D02*
Y121647D01*
X13878Y103130D02*
X14567Y103819D01*
X13287Y74685D02*
X15748Y77146D01*
X16831Y73217D02*
X19291Y75678D01*
X15650Y73707D02*
X18110Y76167D01*
X14469Y74196D02*
X16929Y76657D01*
X11208Y103130D02*
X13878D01*
X7020Y117500D02*
Y120979D01*
X16831Y66814D02*
Y73217D01*
X15650Y67303D02*
Y73707D01*
X14469Y68681D02*
Y74196D01*
X13287Y67500D02*
X14469Y68681D01*
X13583Y65236D02*
X15650Y67303D01*
X11417Y74685D02*
X13287D01*
X10630Y65236D02*
X13583D01*
X9449Y64055D02*
X10630Y65236D01*
X14072Y64055D02*
X16831Y66814D01*
X11119Y64055D02*
X14072D01*
X9938Y62874D02*
X11119Y64055D01*
X19685Y49882D02*
Y66716D01*
X17303Y47500D02*
X19685Y49882D01*
X7020Y47500D02*
X17303D01*
X18504Y60118D02*
Y67205D01*
X15886Y57500D02*
X18504Y60118D01*
X7020Y57500D02*
X15886D01*
X30709Y220933D02*
X33760Y217882D01*
Y183765D02*
Y217882D01*
X29528Y220444D02*
X32579Y217393D01*
Y184254D02*
Y217393D01*
X3150Y83630D02*
X7020Y87500D01*
X3150Y66024D02*
Y83630D01*
Y66024D02*
X5118Y64055D01*
X1969Y65534D02*
Y92449D01*
X4629Y62874D02*
X9938D01*
X5118Y64055D02*
X9449D01*
X1969Y65534D02*
X4629Y62874D01*
X1969Y92449D02*
X7020Y97500D01*
X28346Y219955D02*
X31398Y216904D01*
Y184743D02*
Y216904D01*
X27165Y219466D02*
X30217Y216414D01*
Y185232D02*
Y216414D01*
X25984Y218976D02*
X29035Y215925D01*
Y185722D02*
Y215925D01*
X7020Y127500D02*
X11870D01*
X7020Y147500D02*
X11791D01*
X7020Y107500D02*
X7480D01*
Y106857D02*
X11208Y103130D01*
X7020Y67500D02*
X13287D01*
X8602Y77500D02*
X11417Y74685D01*
X7020Y77500D02*
X8602D01*
X7020Y117500D02*
X7861D01*
X64272Y89345D02*
Y291909D01*
X65453Y91909D02*
Y301358D01*
X66634Y94665D02*
Y308839D01*
X67815Y96240D02*
Y308642D01*
X68996Y100965D02*
Y301555D01*
X70177Y102146D02*
Y292106D01*
X71358Y104508D02*
Y282264D01*
X72539Y106083D02*
Y272421D01*
X73721Y108445D02*
Y261791D01*
X74902Y109232D02*
Y251949D01*
X76083Y113169D02*
Y242106D01*
X77264Y113957D02*
Y233445D01*
X78445Y117106D02*
Y222815D01*
X79626Y214547D02*
X82579Y217500D01*
X79626Y121535D02*
Y214547D01*
X84252Y78340D02*
Y152053D01*
X83071Y153234D02*
X84252Y152053D01*
X83071Y153234D02*
Y171392D01*
X85433Y77850D02*
Y152542D01*
X84252Y153723D02*
X85433Y152542D01*
X86614Y77361D02*
Y153032D01*
X85433Y154213D02*
X86614Y153032D01*
X85433Y154213D02*
Y170413D01*
X119685Y117205D02*
X125197D01*
X117323Y119567D02*
X119685Y117205D01*
X125197D02*
X127205Y115197D01*
Y99134D02*
Y115197D01*
X104331Y204370D02*
X112205Y212244D01*
X104331Y176260D02*
Y204370D01*
X100000Y171929D02*
X104331Y176260D01*
X89370Y171929D02*
X100000D01*
X86614Y169173D02*
X89370Y171929D01*
X86614Y165236D02*
Y169173D01*
Y165236D02*
X88189Y163661D01*
X88583D01*
X84252Y153723D02*
Y170903D01*
X85433Y170413D02*
X92520Y177500D01*
X83071Y171392D02*
X84252Y172573D01*
X84252Y170903D02*
X85433Y172084D01*
X84252Y172573D02*
Y190039D01*
X85433Y172084D02*
Y180591D01*
X81090Y75177D02*
X84252Y78340D01*
Y190039D02*
X91713Y197500D01*
X112205Y92244D02*
X116693Y96732D01*
X124803D01*
X127205Y99134D01*
X117323Y119567D02*
Y125079D01*
X115354Y127047D02*
X117323Y125079D01*
X107087Y127047D02*
X115354D01*
X105118Y129016D02*
X107087Y127047D01*
X105118Y129016D02*
Y160023D01*
X117638Y116811D02*
X122205Y112244D01*
X107874Y116811D02*
X117638D01*
X103937Y120748D02*
X107874Y116811D01*
X103937Y120748D02*
Y159533D01*
X102171Y161299D02*
X103937Y159533D01*
X93796Y161299D02*
X102171D01*
X90647Y158150D02*
X93796Y161299D01*
X88583Y158150D02*
X90647D01*
X102660Y162480D02*
X105118Y160023D01*
X93307Y162480D02*
X102660D01*
X91732Y160906D02*
X93307Y162480D01*
X88583Y160906D02*
X91732D01*
X117165Y137284D02*
X122205Y132244D01*
X108268Y137284D02*
X117165D01*
X106299Y139252D02*
X108268Y137284D01*
X106299Y139252D02*
Y160512D01*
X103150Y163661D02*
X106299Y160512D01*
X94095Y163661D02*
X103150D01*
X91339Y166417D02*
X94095Y163661D01*
X88583Y166417D02*
X91339D01*
X87795Y153169D02*
X92126Y157500D01*
X57087Y151457D02*
X57480Y151850D01*
X57087Y101850D02*
Y151457D01*
X53937Y98701D02*
X57087Y101850D01*
X54724Y144764D02*
X55905Y143583D01*
Y119567D02*
Y143583D01*
X54724Y118386D02*
X55905Y119567D01*
X51968Y144764D02*
X54724D01*
X51181Y118386D02*
X54724D01*
X57480Y151850D02*
X58661D01*
X43701Y154718D02*
Y156575D01*
Y154718D02*
X44783Y153635D01*
Y109918D02*
Y153635D01*
X46063Y144370D02*
Y155000D01*
X46063Y144370D02*
X46063Y144370D01*
X47244Y152244D02*
X49606Y154606D01*
X47244Y115481D02*
Y152244D01*
X49606Y154606D02*
Y157362D01*
X40157Y152638D02*
Y155000D01*
X39370Y151850D02*
X40157Y152638D01*
X39370Y142598D02*
Y151850D01*
X37795Y153425D02*
X38189Y153032D01*
Y143205D02*
Y153032D01*
X35827Y146339D02*
Y151457D01*
X42913Y140039D02*
X43602Y139350D01*
X41043Y142500D02*
X41339Y142795D01*
X41043Y139154D02*
Y142500D01*
Y139154D02*
X42421Y137776D01*
Y106566D02*
Y137776D01*
X50000Y79409D02*
X51181D01*
X37106Y140335D02*
X39370Y142598D01*
X35827Y140842D02*
X38189Y143205D01*
X36909Y143596D02*
Y145256D01*
X34646Y141332D02*
X36909Y143596D01*
X46063Y114449D02*
Y144370D01*
X48524Y142106D02*
X49606Y143189D01*
X48524Y118091D02*
Y142106D01*
X43602Y108248D02*
Y139350D01*
X35827Y146339D02*
X36909Y145256D01*
X50245Y112480D02*
X51181D01*
X47244Y115481D02*
X50245Y112480D01*
X48524Y118091D02*
X50197Y116417D01*
X53543D01*
X42421Y106566D02*
X48318Y100669D01*
X43602Y108248D02*
X47244Y104606D01*
X44783Y109918D02*
X48127Y106575D01*
X40846Y104800D02*
X48914Y96732D01*
X40551Y135598D02*
Y137001D01*
Y135598D02*
X40846Y135302D01*
X38976Y105000D02*
Y134528D01*
X40846Y104800D02*
Y135302D01*
X33465Y99094D02*
X49606Y82953D01*
X32283Y97126D02*
X50000Y79409D01*
X31102Y95945D02*
X50000Y77047D01*
X37106Y101358D02*
Y140335D01*
Y101358D02*
X47638Y90827D01*
X35827Y100968D02*
Y140842D01*
X34646Y100276D02*
Y141332D01*
X33465Y99094D02*
Y142795D01*
X32283Y97126D02*
Y146339D01*
X31102Y95945D02*
Y145158D01*
X35827Y100968D02*
X47936Y88858D01*
X34646Y100276D02*
X50000Y84921D01*
X33465Y142795D02*
X35039Y144370D01*
X32283Y146339D02*
X33071Y147126D01*
X30315Y145945D02*
Y149094D01*
Y145945D02*
X31102Y145158D01*
X47244Y104606D02*
X53543D01*
X38976Y105000D02*
X49213Y94764D01*
X48318Y100669D02*
X51181D01*
X48914Y96732D02*
X51181D01*
X49213Y94764D02*
X53543D01*
X73228Y90827D02*
X82284D01*
X67815Y96240D02*
X73228Y90827D01*
X75197Y94764D02*
X80315D01*
X68996Y100965D02*
X75197Y94764D01*
X72441Y84921D02*
X82284D01*
X80017Y79016D02*
X82284D01*
X79918Y79114D02*
X80017Y79016D01*
X79429Y77933D02*
X80315Y77047D01*
X70783Y77933D02*
X79429D01*
X68996Y79720D02*
Y80294D01*
X61910Y87381D02*
X68996Y80294D01*
Y79720D02*
X70783Y77933D01*
X71273Y79114D02*
X79918D01*
X70177Y80210D02*
X71273Y79114D01*
X70177Y80210D02*
Y80886D01*
X63091Y87972D02*
X70177Y80886D01*
X71161Y75177D02*
X81090D01*
X81579Y73996D02*
X85433Y77850D01*
X70672Y73996D02*
X81579D01*
X82068Y72815D02*
X86614Y77361D01*
X70183Y72815D02*
X82068D01*
X82557Y71634D02*
X87795Y76872D01*
X69694Y71634D02*
X82557D01*
X83047Y70453D02*
X88976Y76383D01*
X69204Y70453D02*
X83047D01*
X83536Y69272D02*
X90158Y75893D01*
X68715Y69272D02*
X83536D01*
X84025Y68091D02*
X91339Y75404D01*
X68226Y68091D02*
X84025D01*
X84744Y66909D02*
X92520Y74685D01*
X67737Y66909D02*
X84744D01*
X85827Y66322D02*
X97005Y77500D01*
X85827Y61299D02*
Y66322D01*
X77559Y106575D02*
X82284D01*
X74902Y109232D02*
X77559Y106575D01*
X47638Y90827D02*
X51181D01*
X47936Y88858D02*
X53543D01*
X50000Y84921D02*
X51181D01*
X49606Y82953D02*
X53543D01*
X97005Y77500D02*
X97020D01*
X82284Y57756D02*
X85827Y61299D01*
X92520Y74685D02*
Y116417D01*
X91339Y75404D02*
Y125472D01*
X90158Y75893D02*
Y135531D01*
X88976Y76383D02*
Y144764D01*
X87795Y76872D02*
Y153169D01*
X67048Y67598D02*
X67737Y66909D01*
X62873Y67598D02*
X67048D01*
X67537Y68779D02*
X68226Y68091D01*
X62384Y68779D02*
X67537D01*
X68026Y69961D02*
X68715Y69272D01*
X61895Y69961D02*
X68026D01*
X68516Y71142D02*
X69204Y70453D01*
X61406Y71142D02*
X68516D01*
X69005Y72323D02*
X69694Y71634D01*
X60917Y72323D02*
X69005D01*
X69494Y73504D02*
X70183Y72815D01*
X60427Y73504D02*
X69494D01*
X69983Y74685D02*
X70672Y73996D01*
X59938Y74685D02*
X69983D01*
X70473Y75866D02*
X71161Y75177D01*
X59449Y75866D02*
X70473D01*
X61811Y66536D02*
X62873Y67598D01*
X53543Y69961D02*
X59449Y75866D01*
X54724Y69471D02*
X59938Y74685D01*
X55905Y68982D02*
X60427Y73504D01*
X57087Y68493D02*
X60917Y72323D01*
X58268Y68004D02*
X61406Y71142D01*
X59449Y67514D02*
X61895Y69961D01*
X60630Y67025D02*
X62384Y68779D01*
X93602Y117500D02*
X97020D01*
X92520Y116417D02*
X93602Y117500D01*
X61811Y31772D02*
Y66536D01*
X54331Y24291D02*
X61811Y31772D01*
X50787Y24291D02*
X54331D01*
X52756Y26260D02*
Y26260D01*
X59449Y36102D02*
Y67514D01*
X53543Y30197D02*
X59449Y36102D01*
X50787Y30197D02*
X53543D01*
Y44764D02*
Y69961D01*
X52756Y43976D02*
X53543Y44764D01*
X53531Y42106D02*
X54724Y43300D01*
X60630Y34134D02*
Y67025D01*
X58268Y37677D02*
Y68004D01*
X57087Y39646D02*
Y68493D01*
X55905Y41221D02*
Y68982D01*
X54724Y43300D02*
Y69471D01*
X93366Y127500D02*
X97020D01*
X91339Y125472D02*
X93366Y127500D01*
X52756Y26260D02*
X60630Y34134D01*
X92126Y137500D02*
X97020D01*
X90158Y135531D02*
X92126Y137500D01*
X91713Y147500D02*
X97020D01*
X88976Y144764D02*
X91713Y147500D01*
X52756Y32165D02*
X58268Y37677D01*
X92126Y157500D02*
X97020D01*
X53543Y36102D02*
X57087Y39646D01*
X50787Y36102D02*
X53543D01*
X92520Y177500D02*
X97020D01*
X52756Y38071D02*
X55905Y41221D01*
X92343Y187500D02*
X97020D01*
X85433Y180591D02*
X92343Y187500D01*
X50886Y42106D02*
X53531D01*
X50787Y42008D02*
X50886Y42106D01*
X91713Y197500D02*
X97020D01*
X78740Y112480D02*
X82284D01*
X77264Y113957D02*
X78740Y112480D01*
X78740Y110512D02*
X80315D01*
X76083Y113169D02*
X78740Y110512D01*
X77559Y104606D02*
X80315D01*
X73721Y108445D02*
X77559Y104606D01*
X77953Y100669D02*
X82284D01*
X72539Y106083D02*
X77953Y100669D01*
X77165Y98701D02*
X80315D01*
X71358Y104508D02*
X77165Y98701D01*
X75492Y96831D02*
X82185D01*
X70177Y102146D02*
X75492Y96831D01*
X72441Y88858D02*
X80315D01*
X66634Y94665D02*
X72441Y88858D01*
X65453Y91909D02*
X72441Y84921D01*
X70663Y82953D02*
X80315D01*
X64272Y89345D02*
X70663Y82953D01*
X81476Y247500D02*
X97020D01*
X76083Y242106D02*
X81476Y247500D01*
X80453Y257500D02*
X97020D01*
X74902Y251949D02*
X80453Y257500D01*
X79429Y267500D02*
X97020D01*
X73721Y261791D02*
X79429Y267500D01*
X77618Y277500D02*
X97020D01*
X72539Y272421D02*
X77618Y277500D01*
X76595Y287500D02*
X97020D01*
X71358Y282264D02*
X76595Y287500D01*
X76673Y317500D02*
X97020D01*
X67815Y308642D02*
X76673Y317500D01*
X75571Y297500D02*
X97020D01*
X70177Y292106D02*
X75571Y297500D01*
X58681D02*
X64272Y291909D01*
X7020Y297500D02*
X58681D01*
X74941Y307500D02*
X97020D01*
X68996Y301555D02*
X74941Y307500D01*
X57973Y317500D02*
X66634Y308839D01*
X7020Y317500D02*
X57973D01*
X79626Y121535D02*
X80315Y120846D01*
Y118386D02*
Y120846D01*
X78445Y222815D02*
X83130Y227500D01*
X77264Y233445D02*
X81319Y237500D01*
X82185Y96831D02*
X82284Y96732D01*
X79134Y116417D02*
X82284D01*
X78445Y117106D02*
X79134Y116417D01*
X81319Y237500D02*
X97020D01*
X83130Y227500D02*
X97020D01*
X82579Y217500D02*
X97020D01*
X46063Y114449D02*
X50000Y110512D01*
X51181Y79016D02*
Y79409D01*
X50000Y77047D02*
X53543D01*
X50000Y110512D02*
X53543D01*
X48127Y106575D02*
X51181D01*
D49*
X112205Y92244D02*
D03*
X122205Y112244D02*
D03*
Y132244D02*
D03*
X112205Y212244D02*
D03*
D51*
X7020Y317500D02*
D03*
D52*
Y307500D02*
D03*
Y297500D02*
D03*
Y287500D02*
D03*
Y277500D02*
D03*
Y227500D02*
D03*
Y217500D02*
D03*
Y207500D02*
D03*
Y197500D02*
D03*
Y157500D02*
D03*
Y147500D02*
D03*
Y137500D02*
D03*
Y127500D02*
D03*
Y117500D02*
D03*
Y107500D02*
D03*
Y97500D02*
D03*
Y87500D02*
D03*
Y77500D02*
D03*
Y67500D02*
D03*
Y57500D02*
D03*
Y47500D02*
D03*
X97020Y317500D02*
D03*
Y307500D02*
D03*
Y297500D02*
D03*
Y287500D02*
D03*
Y277500D02*
D03*
Y267500D02*
D03*
Y257500D02*
D03*
Y247500D02*
D03*
Y237500D02*
D03*
Y227500D02*
D03*
Y217500D02*
D03*
Y197500D02*
D03*
Y187500D02*
D03*
Y177500D02*
D03*
Y157500D02*
D03*
Y147500D02*
D03*
Y137500D02*
D03*
Y127500D02*
D03*
Y117500D02*
D03*
Y77500D02*
D03*
D54*
X104724Y278228D02*
D03*
X52362Y218779D02*
D03*
X27559Y174488D02*
D03*
X20866Y310906D02*
D03*
Y307362D02*
D03*
X24409D02*
D03*
X24409Y310906D02*
D03*
Y303425D02*
D03*
X24409Y299882D02*
D03*
X20866D02*
D03*
Y303425D02*
D03*
X47638Y288465D02*
D03*
X50000Y287283D02*
D03*
X51968Y284921D02*
D03*
X53937Y282953D02*
D03*
Y280197D02*
D03*
X55905Y274685D02*
D03*
Y267008D02*
D03*
Y264449D02*
D03*
X55512Y256968D02*
D03*
X55610Y254211D02*
D03*
X40157Y254213D02*
D03*
Y256870D02*
D03*
X39764Y274783D02*
D03*
X39862Y264547D02*
D03*
X40157Y267106D02*
D03*
X26969Y186299D02*
D03*
X23622Y88071D02*
D03*
X24016Y106181D02*
D03*
X45669Y176654D02*
D03*
X88583Y163661D02*
D03*
Y166417D02*
D03*
Y160906D02*
D03*
Y158150D02*
D03*
X86614Y184528D02*
D03*
Y211693D02*
D03*
X59449Y222717D02*
D03*
X27165Y214055D02*
D03*
X53937Y98701D02*
D03*
X46063Y155000D02*
D03*
X49606Y157362D02*
D03*
X43701Y156575D02*
D03*
X40157Y155000D02*
D03*
X37795Y153425D02*
D03*
X58661Y151850D02*
D03*
X35827Y151457D02*
D03*
X41339Y142795D02*
D03*
X42913Y140039D02*
D03*
X49606Y143189D02*
D03*
X51968Y144764D02*
D03*
X40551Y137001D02*
D03*
X38976Y134528D02*
D03*
X33071Y147126D02*
D03*
X30315Y149094D02*
D03*
X35039Y144370D02*
D03*
X82284Y84921D02*
D03*
X80315Y77047D02*
D03*
X80315Y21535D02*
D03*
X58661Y17992D02*
D03*
X74803Y63661D02*
D03*
X12598Y55000D02*
D03*
Y34134D02*
D03*
X77953Y86890D02*
D03*
X77736Y35354D02*
D03*
X68110Y55394D02*
D03*
X68504Y34134D02*
D03*
X78347Y54213D02*
D03*
X51181Y90827D02*
D03*
X53543Y88858D02*
D03*
X51181Y84921D02*
D03*
X82284Y57756D02*
D03*
X50787Y42008D02*
D03*
X52756Y43976D02*
D03*
X50787Y36102D02*
D03*
X52756Y38071D02*
D03*
Y32165D02*
D03*
X50787Y30197D02*
D03*
X52756Y26260D02*
D03*
X50787Y24291D02*
D03*
X80315Y104606D02*
D03*
Y118386D02*
D03*
X82284Y116417D02*
D03*
Y112480D02*
D03*
X80315Y110512D02*
D03*
Y82953D02*
D03*
Y88858D02*
D03*
X82284Y90827D02*
D03*
Y100669D02*
D03*
X80315Y94764D02*
D03*
X82284Y96732D02*
D03*
X80315Y98701D02*
D03*
X82284Y79016D02*
D03*
Y106575D02*
D03*
X53543Y116417D02*
D03*
X51181Y112480D02*
D03*
X53543Y110512D02*
D03*
X51181Y106575D02*
D03*
X53543Y104606D02*
D03*
X51181Y100669D02*
D03*
X53543Y77047D02*
D03*
X51181Y79016D02*
D03*
X53543Y82953D02*
D03*
Y94764D02*
D03*
X51181Y96732D02*
D03*
Y118386D02*
D03*
M02*
