G04*
G04 #@! TF.GenerationSoftware,Altium Limited,Altium Designer,18.0.7 (293)*
G04*
G04 Layer_Physical_Order=4*
G04 Layer_Color=16711680*
%FSLAX25Y25*%
%MOIN*%
G70*
G01*
G75*
%ADD10C,0.00787*%
%ADD43C,0.01968*%
%ADD44C,0.01181*%
%ADD46C,0.00591*%
%ADD48R,0.07000X0.07000*%
%ADD49C,0.07000*%
%ADD50C,0.11811*%
%ADD51R,0.05906X0.04331*%
%ADD52O,0.05906X0.04331*%
%ADD53C,0.04535*%
%ADD54C,0.01968*%
G36*
X128815Y286777D02*
X128315Y286625D01*
X128301Y286647D01*
X127780Y286995D01*
X127165Y287118D01*
X126551Y286995D01*
X126030Y286647D01*
X125682Y286126D01*
X125560Y285512D01*
X125682Y284897D01*
X126030Y284377D01*
X126551Y284028D01*
X127165Y283906D01*
X127780Y284028D01*
X128301Y284377D01*
X128315Y284399D01*
X128815Y284247D01*
Y1204D01*
X1204Y1204D01*
Y323796D01*
X128815Y323796D01*
Y286777D01*
D02*
G37*
%LPC*%
G36*
X73622Y322747D02*
X73008Y322625D01*
X72487Y322277D01*
X72001D01*
X71481Y322625D01*
X70866Y322747D01*
X70252Y322625D01*
X69731Y322277D01*
X69383Y321756D01*
X69261Y321142D01*
X69383Y320527D01*
X69731Y320006D01*
X70252Y319658D01*
X70866Y319536D01*
X71481Y319658D01*
X72001Y320006D01*
X72487D01*
X73008Y319658D01*
X73622Y319536D01*
X74237Y319658D01*
X74757Y320006D01*
X75106Y320527D01*
X75228Y321142D01*
X75106Y321756D01*
X74757Y322277D01*
X74237Y322625D01*
X73622Y322747D01*
D02*
G37*
G36*
X10563Y320256D02*
X3476D01*
Y314744D01*
X10563D01*
Y320256D01*
D02*
G37*
G36*
X97807Y320280D02*
X96232D01*
X95513Y320185D01*
X94842Y319907D01*
X94267Y319465D01*
X93825Y318890D01*
X93547Y318219D01*
X93453Y317500D01*
X93547Y316781D01*
X93825Y316110D01*
X94267Y315534D01*
X94842Y315093D01*
X95513Y314815D01*
X96232Y314720D01*
X97807D01*
X98527Y314815D01*
X99197Y315093D01*
X99773Y315534D01*
X100214Y316110D01*
X100492Y316781D01*
X100587Y317500D01*
X100492Y318219D01*
X100214Y318890D01*
X99773Y319465D01*
X99197Y319907D01*
X98527Y320185D01*
X97807Y320280D01*
D02*
G37*
G36*
X24409Y312511D02*
X23795Y312389D01*
X23274Y312041D01*
X22926Y311520D01*
X22893Y311352D01*
X22383D01*
X22350Y311520D01*
X22002Y312041D01*
X21481Y312389D01*
X20866Y312511D01*
X20252Y312389D01*
X19731Y312041D01*
X19383Y311520D01*
X19261Y310906D01*
X19383Y310291D01*
X19731Y309770D01*
X20252Y309422D01*
X20419Y309389D01*
Y308879D01*
X20252Y308846D01*
X19731Y308498D01*
X19383Y307977D01*
X19261Y307362D01*
X19383Y306748D01*
X19731Y306227D01*
X20252Y305879D01*
X20866Y305757D01*
X21481Y305879D01*
X22002Y306227D01*
X22350Y306748D01*
X22383Y306915D01*
X22893D01*
X22926Y306748D01*
X23274Y306227D01*
X23795Y305879D01*
X24409Y305757D01*
X25024Y305879D01*
X25545Y306227D01*
X25893Y306748D01*
X26015Y307362D01*
X25893Y307977D01*
X25545Y308498D01*
X25024Y308846D01*
X24856Y308879D01*
Y309389D01*
X25024Y309422D01*
X25545Y309770D01*
X25893Y310291D01*
X26015Y310906D01*
X25893Y311520D01*
X25545Y312041D01*
X25024Y312389D01*
X24409Y312511D01*
D02*
G37*
G36*
X88189Y316269D02*
X87443Y316171D01*
X86747Y315882D01*
X86150Y315424D01*
X85692Y314827D01*
X85404Y314132D01*
X85306Y313386D01*
X85404Y312640D01*
X85692Y311944D01*
X86150Y311347D01*
X86747Y310889D01*
X87443Y310601D01*
X88189Y310503D01*
X88935Y310601D01*
X89630Y310889D01*
X90228Y311347D01*
X90686Y311944D01*
X90974Y312640D01*
X91072Y313386D01*
X90974Y314132D01*
X90686Y314827D01*
X90228Y315424D01*
X89630Y315882D01*
X88935Y316171D01*
X88189Y316269D01*
D02*
G37*
G36*
X81693Y315830D02*
X32497D01*
Y309437D01*
X81693D01*
Y315830D01*
D02*
G37*
G36*
X97807Y310280D02*
X96232D01*
X95513Y310185D01*
X94842Y309907D01*
X94267Y309466D01*
X93825Y308890D01*
X93547Y308219D01*
X93453Y307500D01*
X93547Y306781D01*
X93825Y306110D01*
X94267Y305535D01*
X94842Y305093D01*
X95513Y304815D01*
X96232Y304720D01*
X97807D01*
X98527Y304815D01*
X99197Y305093D01*
X99773Y305535D01*
X100214Y306110D01*
X100492Y306781D01*
X100587Y307500D01*
X100492Y308219D01*
X100214Y308890D01*
X99773Y309466D01*
X99197Y309907D01*
X98527Y310185D01*
X97807Y310280D01*
D02*
G37*
G36*
X7807D02*
X6232D01*
X5513Y310185D01*
X4843Y309907D01*
X4267Y309466D01*
X3825Y308890D01*
X3547Y308219D01*
X3453Y307500D01*
X3547Y306781D01*
X3825Y306110D01*
X4267Y305535D01*
X4843Y305093D01*
X5513Y304815D01*
X6232Y304720D01*
X7807D01*
X8527Y304815D01*
X9197Y305093D01*
X9773Y305535D01*
X10214Y306110D01*
X10492Y306781D01*
X10587Y307500D01*
X10492Y308219D01*
X10214Y308890D01*
X9773Y309466D01*
X9197Y309907D01*
X8527Y310185D01*
X7807Y310280D01*
D02*
G37*
G36*
X24409Y305031D02*
X23795Y304909D01*
X23274Y304561D01*
X22926Y304040D01*
X22893Y303872D01*
X22383D01*
X22350Y304040D01*
X22002Y304561D01*
X21481Y304909D01*
X20866Y305031D01*
X20252Y304909D01*
X19731Y304561D01*
X19383Y304040D01*
X19261Y303425D01*
X19383Y302811D01*
X19731Y302290D01*
X20252Y301942D01*
X20419Y301908D01*
Y301399D01*
X20252Y301365D01*
X19731Y301017D01*
X19383Y300496D01*
X19261Y299882D01*
X19383Y299267D01*
X19731Y298746D01*
X20252Y298398D01*
X20866Y298276D01*
X21481Y298398D01*
X22002Y298746D01*
X22350Y299267D01*
X22383Y299435D01*
X22893D01*
X22926Y299267D01*
X23274Y298746D01*
X23795Y298398D01*
X24409Y298276D01*
X25024Y298398D01*
X25545Y298746D01*
X25893Y299267D01*
X26015Y299882D01*
X25893Y300496D01*
X25545Y301017D01*
X25024Y301365D01*
X24856Y301399D01*
Y301908D01*
X25024Y301942D01*
X25545Y302290D01*
X25893Y302811D01*
X26015Y303425D01*
X25893Y304040D01*
X25545Y304561D01*
X25024Y304909D01*
X24409Y305031D01*
D02*
G37*
G36*
X97807Y300280D02*
X96232D01*
X95513Y300185D01*
X94842Y299907D01*
X94267Y299465D01*
X93825Y298890D01*
X93547Y298219D01*
X93453Y297500D01*
X93547Y296781D01*
X93825Y296110D01*
X94267Y295534D01*
X94842Y295093D01*
X95513Y294815D01*
X96232Y294720D01*
X97807D01*
X98527Y294815D01*
X99197Y295093D01*
X99773Y295534D01*
X100214Y296110D01*
X100492Y296781D01*
X100587Y297500D01*
X100492Y298219D01*
X100214Y298890D01*
X99773Y299465D01*
X99197Y299907D01*
X98527Y300185D01*
X97807Y300280D01*
D02*
G37*
G36*
X7807D02*
X6232D01*
X5513Y300185D01*
X4843Y299907D01*
X4267Y299465D01*
X3825Y298890D01*
X3547Y298219D01*
X3453Y297500D01*
X3547Y296781D01*
X3825Y296110D01*
X4267Y295534D01*
X4843Y295093D01*
X5513Y294815D01*
X6232Y294720D01*
X7807D01*
X8527Y294815D01*
X9197Y295093D01*
X9773Y295534D01*
X10214Y296110D01*
X10492Y296781D01*
X10587Y297500D01*
X10492Y298219D01*
X10214Y298890D01*
X9773Y299465D01*
X9197Y299907D01*
X8527Y300185D01*
X7807Y300280D01*
D02*
G37*
G36*
X97807Y290280D02*
X96232D01*
X95513Y290185D01*
X94842Y289907D01*
X94267Y289465D01*
X93825Y288890D01*
X93547Y288219D01*
X93453Y287500D01*
X93547Y286781D01*
X93825Y286110D01*
X94267Y285535D01*
X94842Y285093D01*
X95513Y284815D01*
X96232Y284720D01*
X97807D01*
X98527Y284815D01*
X99197Y285093D01*
X99773Y285535D01*
X100214Y286110D01*
X100492Y286781D01*
X100587Y287500D01*
X100492Y288219D01*
X100214Y288890D01*
X99773Y289465D01*
X99197Y289907D01*
X98527Y290185D01*
X97807Y290280D01*
D02*
G37*
G36*
X7807D02*
X6232D01*
X5513Y290185D01*
X4843Y289907D01*
X4267Y289465D01*
X3825Y288890D01*
X3547Y288219D01*
X3453Y287500D01*
X3547Y286781D01*
X3825Y286110D01*
X4267Y285535D01*
X4843Y285093D01*
X5513Y284815D01*
X6232Y284720D01*
X7807D01*
X8527Y284815D01*
X9197Y285093D01*
X9773Y285535D01*
X10214Y286110D01*
X10492Y286781D01*
X10587Y287500D01*
X10492Y288219D01*
X10214Y288890D01*
X9773Y289465D01*
X9197Y289907D01*
X8527Y290185D01*
X7807Y290280D01*
D02*
G37*
G36*
X47638Y290070D02*
X47023Y289948D01*
X46502Y289600D01*
X46154Y289079D01*
X46032Y288465D01*
X46154Y287850D01*
X46502Y287329D01*
X47023Y286981D01*
X47638Y286859D01*
X48252Y286981D01*
X48473Y286890D01*
X48517Y286669D01*
X48865Y286148D01*
X49385Y285800D01*
X50000Y285678D01*
X50028Y285683D01*
X50429Y285253D01*
X50363Y284921D01*
X50485Y284307D01*
X50833Y283786D01*
X51354Y283438D01*
X51968Y283316D01*
X51980Y283318D01*
X52334Y282964D01*
X52331Y282953D01*
X52454Y282338D01*
X52802Y281817D01*
Y281332D01*
X52454Y280811D01*
X52331Y280197D01*
X52454Y279582D01*
X52802Y279062D01*
X53323Y278713D01*
X53937Y278591D01*
X54552Y278713D01*
X55072Y279062D01*
X55420Y279582D01*
X55543Y280197D01*
X55420Y280811D01*
X55072Y281332D01*
Y281817D01*
X55420Y282338D01*
X55543Y282953D01*
X55420Y283567D01*
X55072Y284088D01*
X54552Y284436D01*
X53937Y284558D01*
X53925Y284556D01*
X53572Y284910D01*
X53574Y284921D01*
X53452Y285536D01*
X53104Y286057D01*
X52583Y286405D01*
X51968Y286527D01*
X51940Y286521D01*
X51540Y286951D01*
X51606Y287283D01*
X51483Y287898D01*
X51135Y288419D01*
X50615Y288767D01*
X50000Y288889D01*
X49386Y288767D01*
X49165Y288858D01*
X49121Y289079D01*
X48773Y289600D01*
X48252Y289948D01*
X47638Y290070D01*
D02*
G37*
G36*
X104724Y279834D02*
X104110Y279712D01*
X103589Y279364D01*
X103241Y278843D01*
X103119Y278228D01*
X103241Y277614D01*
X103589Y277093D01*
X104110Y276745D01*
X104724Y276623D01*
X105339Y276745D01*
X105860Y277093D01*
X106208Y277614D01*
X106330Y278228D01*
X106208Y278843D01*
X105860Y279364D01*
X105339Y279712D01*
X104724Y279834D01*
D02*
G37*
G36*
X90158Y283771D02*
X89543Y283649D01*
X89022Y283301D01*
X89022Y283301D01*
X83510Y277789D01*
X83162Y277268D01*
X83040Y276654D01*
X83040Y276654D01*
Y231059D01*
X73548Y221566D01*
X61176D01*
X60908Y222066D01*
X60932Y222102D01*
X61054Y222717D01*
X60932Y223331D01*
X60584Y223852D01*
X60063Y224200D01*
X59449Y224322D01*
X58834Y224200D01*
X58314Y223852D01*
X57965Y223331D01*
X57843Y222717D01*
X57957Y222144D01*
X57680Y221698D01*
X57267Y221657D01*
X55072Y223852D01*
X54552Y224200D01*
X53937Y224322D01*
X53937Y224322D01*
X51575D01*
X50960Y224200D01*
X50439Y223852D01*
X50439Y223852D01*
X26469Y199882D01*
X26007Y200073D01*
Y211194D01*
X27287Y212474D01*
X27780Y212572D01*
X28301Y212920D01*
X28649Y213441D01*
X28771Y214055D01*
X28649Y214670D01*
X28301Y215191D01*
X27780Y215539D01*
X27165Y215661D01*
X26551Y215539D01*
X26030Y215191D01*
X25682Y214670D01*
X25584Y214177D01*
X23952Y212544D01*
X23691Y212154D01*
X23599Y211693D01*
X23599Y211693D01*
Y188465D01*
X23599Y188465D01*
X23691Y188004D01*
X23952Y187613D01*
X25387Y186178D01*
X25485Y185685D01*
X25833Y185164D01*
X26354Y184816D01*
X26969Y184694D01*
X27583Y184816D01*
X28104Y185164D01*
X28152Y185236D01*
X28830Y185350D01*
X28918Y185283D01*
Y176076D01*
X28418Y175809D01*
X28174Y175972D01*
X27559Y176094D01*
X26945Y175972D01*
X26424Y175624D01*
X26076Y175103D01*
X25953Y174488D01*
X26076Y173874D01*
X26424Y173353D01*
X26945Y173005D01*
X27559Y172883D01*
X27569Y172885D01*
X27816Y172424D01*
X12676Y157284D01*
X12459Y156959D01*
X12382Y156575D01*
Y124334D01*
X12250Y124246D01*
X11902Y123725D01*
X11780Y123110D01*
X11902Y122496D01*
X12250Y121975D01*
X12771Y121627D01*
X13386Y121505D01*
X13851Y121597D01*
X14351Y121306D01*
Y111624D01*
X13851Y111472D01*
X13734Y111647D01*
X13213Y111995D01*
X12598Y112118D01*
X12266Y112051D01*
X11836Y112452D01*
X11842Y112480D01*
X11720Y113095D01*
X11372Y113616D01*
X10851Y113964D01*
X10236Y114086D01*
X9622Y113964D01*
X9101Y113616D01*
X8753Y113095D01*
X8631Y112480D01*
X8753Y111866D01*
X9101Y111345D01*
X9622Y110997D01*
X10236Y110875D01*
X10568Y110941D01*
X10998Y110540D01*
X10993Y110512D01*
X11115Y109897D01*
X11463Y109376D01*
X11463Y109376D01*
X11458Y108778D01*
X11186Y108370D01*
X11064Y107756D01*
X11186Y107141D01*
X11534Y106621D01*
Y106135D01*
X11186Y105614D01*
X11064Y105000D01*
X11186Y104385D01*
X11534Y103865D01*
X12055Y103517D01*
X12669Y103394D01*
X13284Y103517D01*
X13805Y103865D01*
X13851Y103934D01*
X14351Y103782D01*
Y89970D01*
X13851Y89819D01*
X13734Y89994D01*
X13213Y90342D01*
X12598Y90464D01*
X12587Y90462D01*
X12233Y90815D01*
X12236Y90827D01*
X12113Y91441D01*
X11765Y91962D01*
X12047Y92372D01*
X12159Y92447D01*
X12507Y92968D01*
X12629Y93583D01*
X12507Y94197D01*
X12410Y94342D01*
X12426Y94855D01*
X12946Y95203D01*
X13295Y95724D01*
X13417Y96339D01*
X13295Y96953D01*
X12946Y97474D01*
X13228Y97884D01*
X13340Y97959D01*
X13688Y98480D01*
X13810Y99094D01*
X13688Y99709D01*
X13340Y100230D01*
X12819Y100578D01*
X12205Y100700D01*
X12177Y100695D01*
X11776Y101125D01*
X11842Y101457D01*
X11720Y102071D01*
X11372Y102592D01*
X10851Y102940D01*
X10236Y103062D01*
X9622Y102940D01*
X9101Y102592D01*
X8753Y102071D01*
X8631Y101457D01*
X8753Y100842D01*
X8947Y100552D01*
X8615Y100148D01*
X8527Y100185D01*
X7807Y100280D01*
X6232D01*
X5513Y100185D01*
X4843Y99907D01*
X4267Y99466D01*
X3825Y98890D01*
X3547Y98219D01*
X3453Y97500D01*
X3547Y96781D01*
X3825Y96110D01*
X4267Y95534D01*
X4843Y95093D01*
X5513Y94815D01*
X6232Y94720D01*
X7807D01*
X8527Y94815D01*
X9197Y95093D01*
X9773Y95534D01*
X9840Y95622D01*
X9956Y95647D01*
X10424Y95571D01*
X10409Y95066D01*
X9888Y94718D01*
X9540Y94197D01*
X9418Y93583D01*
X9540Y92968D01*
X9888Y92447D01*
X9607Y92037D01*
X9495Y91962D01*
X9146Y91441D01*
X9024Y90827D01*
X9091Y90492D01*
X8653Y90133D01*
X8527Y90185D01*
X7807Y90280D01*
X6232D01*
X5513Y90185D01*
X4843Y89907D01*
X4267Y89465D01*
X3825Y88890D01*
X3547Y88219D01*
X3453Y87500D01*
X3547Y86781D01*
X3825Y86110D01*
X4267Y85535D01*
X4843Y85093D01*
X5513Y84815D01*
X6232Y84720D01*
X7807D01*
X8527Y84815D01*
X9197Y85093D01*
X9326Y85192D01*
X9877Y84985D01*
X9934Y84701D01*
X10282Y84180D01*
X10803Y83832D01*
X11024Y83788D01*
X11115Y83567D01*
X10993Y82953D01*
X11115Y82338D01*
X11463Y81817D01*
X11517Y81782D01*
X11540Y81622D01*
X11474Y81209D01*
X11069Y80939D01*
X10721Y80418D01*
X10599Y79803D01*
X10721Y79189D01*
X11069Y78668D01*
X11182Y78593D01*
X11463Y78183D01*
X11115Y77662D01*
X11075Y77462D01*
X10587Y77500D01*
X10492Y78219D01*
X10214Y78890D01*
X9773Y79466D01*
X9197Y79907D01*
X8527Y80185D01*
X7807Y80280D01*
X6232D01*
X5513Y80185D01*
X4843Y79907D01*
X4267Y79466D01*
X3825Y78890D01*
X3547Y78219D01*
X3453Y77500D01*
X3547Y76781D01*
X3825Y76110D01*
X4267Y75534D01*
X4843Y75093D01*
X5513Y74815D01*
X6232Y74720D01*
X7807D01*
X8527Y74815D01*
X9197Y75093D01*
X9773Y75534D01*
X10214Y76110D01*
X10492Y76781D01*
X10510Y76914D01*
X11016Y76930D01*
X11115Y76433D01*
X11463Y75912D01*
X11984Y75564D01*
X12598Y75442D01*
X13213Y75564D01*
X13734Y75912D01*
X13851Y76087D01*
X14296Y75952D01*
X14347Y75471D01*
X12993Y74117D01*
X12988Y74114D01*
X11460D01*
X11372Y74246D01*
X10851Y74594D01*
X10236Y74716D01*
X9622Y74594D01*
X9101Y74246D01*
X8753Y73725D01*
X8631Y73110D01*
X8753Y72496D01*
X9101Y71975D01*
X9622Y71627D01*
X10236Y71505D01*
X10851Y71627D01*
X11036Y71751D01*
X11397Y71390D01*
X11115Y70969D01*
X10993Y70354D01*
X11115Y69740D01*
X11463Y69219D01*
X11984Y68871D01*
X12598Y68749D01*
X13213Y68871D01*
X13734Y69219D01*
X14082Y69740D01*
X14204Y70354D01*
X14173Y70510D01*
X15857Y72194D01*
X16319Y72003D01*
Y24313D01*
X14584Y22579D01*
X14524Y22581D01*
X14151Y22620D01*
X14011Y22646D01*
X13887Y22675D01*
X13788Y22707D01*
X13714Y22738D01*
X13666Y22764D01*
X13602Y22810D01*
X13483Y22838D01*
X13213Y23019D01*
X12598Y23141D01*
X11984Y23019D01*
X11463Y22671D01*
X11115Y22150D01*
X10993Y21535D01*
X11115Y20921D01*
X11463Y20400D01*
X11984Y20052D01*
X12598Y19930D01*
X13213Y20052D01*
X13483Y20233D01*
X13602Y20261D01*
X13666Y20306D01*
X13714Y20333D01*
X13788Y20364D01*
X13887Y20395D01*
X14011Y20425D01*
X14144Y20449D01*
X14741Y20499D01*
X14970Y20503D01*
X15104Y20560D01*
X15345Y20608D01*
X15670Y20826D01*
X18033Y23188D01*
X18250Y23514D01*
X18326Y23898D01*
Y72321D01*
X18820Y72814D01*
X19037Y73140D01*
X19114Y73524D01*
Y134720D01*
X19576Y134911D01*
X35020Y119467D01*
Y74902D01*
X35096Y74518D01*
X35314Y74192D01*
X43288Y66218D01*
Y18976D01*
X43364Y18592D01*
X43582Y18267D01*
X46534Y15314D01*
X46860Y15097D01*
X47244Y15020D01*
X59477D01*
X59861Y15097D01*
X60186Y15314D01*
X63094Y18222D01*
X63161Y18248D01*
X63534Y18602D01*
X63848Y18866D01*
X63974Y18958D01*
X64088Y19032D01*
X64181Y19084D01*
X64249Y19114D01*
X64286Y19126D01*
X64346Y19135D01*
X64445Y19196D01*
X64788Y19265D01*
X65309Y19613D01*
X65657Y20134D01*
X65779Y20748D01*
X65657Y21362D01*
X65309Y21883D01*
X64788Y22231D01*
X64173Y22354D01*
X63559Y22231D01*
X63038Y21883D01*
X62690Y21362D01*
X62616Y20992D01*
X62558Y20893D01*
X62548Y20825D01*
X62536Y20782D01*
X62506Y20711D01*
X62456Y20616D01*
X62384Y20502D01*
X62298Y20381D01*
X61871Y19884D01*
X61694Y19701D01*
X61693Y19698D01*
X61690Y19697D01*
X61663Y19629D01*
X60620Y18586D01*
X60060Y18733D01*
X59797Y19128D01*
X59276Y19476D01*
X58661Y19598D01*
X58047Y19476D01*
X57745Y19274D01*
X57632Y19246D01*
X57580Y19207D01*
X57543Y19188D01*
X57473Y19160D01*
X57371Y19129D01*
X57239Y19100D01*
X57091Y19077D01*
X56433Y19028D01*
X56177Y19025D01*
X56108Y18996D01*
X48054D01*
X46673Y20376D01*
Y67205D01*
X46596Y67589D01*
X46379Y67914D01*
X38405Y75888D01*
Y119286D01*
X38867Y119478D01*
X41122Y117222D01*
Y77835D01*
X41199Y77451D01*
X41416Y77125D01*
X48897Y69645D01*
X49222Y69427D01*
X49606Y69351D01*
X65332D01*
X69036Y65648D01*
X69033Y65587D01*
X68994Y65214D01*
X68969Y65074D01*
X68939Y64950D01*
X68907Y64851D01*
X68876Y64777D01*
X68850Y64728D01*
X68804Y64665D01*
X68776Y64546D01*
X68595Y64276D01*
X68473Y63661D01*
X68595Y63047D01*
X68943Y62526D01*
X69464Y62178D01*
X70079Y62056D01*
X70693Y62178D01*
X71214Y62526D01*
X71562Y63047D01*
X71684Y63661D01*
X71562Y64276D01*
X71381Y64546D01*
X71353Y64665D01*
X71308Y64728D01*
X71281Y64777D01*
X71250Y64851D01*
X71219Y64950D01*
X71189Y65074D01*
X71165Y65207D01*
X71115Y65804D01*
X71112Y66033D01*
X71054Y66167D01*
X71006Y66408D01*
X70788Y66733D01*
X66458Y71064D01*
X66316Y71158D01*
X66191Y71741D01*
X72463Y78012D01*
X76012D01*
X76396Y78089D01*
X76722Y78306D01*
X77886Y79470D01*
X78347Y79379D01*
X78961Y79501D01*
X79482Y79849D01*
X79830Y80370D01*
X79952Y80984D01*
X79950Y80996D01*
X80303Y81349D01*
X80315Y81347D01*
X80929Y81469D01*
X81450Y81817D01*
X81798Y82338D01*
X81921Y82953D01*
X81918Y82964D01*
X82272Y83318D01*
X82284Y83316D01*
X82898Y83438D01*
X83419Y83786D01*
X83767Y84307D01*
X83889Y84921D01*
X83767Y85536D01*
X83419Y86057D01*
X82898Y86405D01*
X82284Y86527D01*
X81669Y86405D01*
X81148Y86057D01*
X80800Y85536D01*
X80678Y84921D01*
X80680Y84910D01*
X80327Y84556D01*
X80315Y84558D01*
X79700Y84436D01*
X79180Y84088D01*
X78831Y83567D01*
X78725Y83033D01*
X78677Y82938D01*
X78670Y82930D01*
X78549Y82830D01*
X78251Y82694D01*
X78238Y82701D01*
X78124Y82774D01*
X78003Y82862D01*
X77504Y83292D01*
X77320Y83472D01*
X77251Y83499D01*
X76988Y83762D01*
Y85085D01*
X77488Y85377D01*
X77953Y85284D01*
X78567Y85406D01*
X79088Y85754D01*
X79436Y86275D01*
X79558Y86890D01*
X79553Y86918D01*
X79983Y87319D01*
X80315Y87253D01*
X80929Y87375D01*
X81450Y87723D01*
X81798Y88244D01*
X81921Y88858D01*
X81918Y88870D01*
X82272Y89223D01*
X82284Y89221D01*
X82898Y89343D01*
X83419Y89691D01*
X83767Y90212D01*
X83889Y90827D01*
X83767Y91441D01*
X83419Y91962D01*
X82898Y92310D01*
X82284Y92432D01*
X81669Y92310D01*
X81148Y91962D01*
X80800Y91441D01*
X80678Y90827D01*
X80680Y90815D01*
X80327Y90462D01*
X80315Y90464D01*
X79700Y90342D01*
X79180Y89994D01*
X78831Y89473D01*
X78709Y88858D01*
X78715Y88830D01*
X78285Y88429D01*
X77953Y88495D01*
X77488Y88403D01*
X76988Y88695D01*
Y106956D01*
X77488Y107223D01*
X77732Y107060D01*
X78347Y106938D01*
X78961Y107060D01*
X79482Y107408D01*
X79830Y107929D01*
X79952Y108543D01*
X79950Y108555D01*
X80303Y108908D01*
X80315Y108906D01*
X80929Y109028D01*
X81450Y109376D01*
X81798Y109897D01*
X81921Y110512D01*
X81918Y110523D01*
X82272Y110877D01*
X82284Y110875D01*
X82898Y110997D01*
X83419Y111345D01*
X83767Y111866D01*
X83889Y112480D01*
X83767Y113095D01*
X83419Y113616D01*
X82898Y113964D01*
X82284Y114086D01*
X81669Y113964D01*
X81148Y113616D01*
X80800Y113095D01*
X80678Y112480D01*
X80680Y112469D01*
X80327Y112115D01*
X80315Y112118D01*
X79700Y111995D01*
X79180Y111647D01*
X78831Y111126D01*
X78709Y110512D01*
X78712Y110500D01*
X78358Y110147D01*
X78347Y110149D01*
X77732Y110027D01*
X77488Y109864D01*
X76988Y110131D01*
Y121120D01*
X79517Y123649D01*
X79907Y123639D01*
X80313Y123602D01*
X80467Y123577D01*
X80599Y123548D01*
X80701Y123517D01*
X80772Y123489D01*
X80809Y123470D01*
X80860Y123432D01*
X80973Y123404D01*
X81275Y123202D01*
X81890Y123079D01*
X82504Y123202D01*
X83025Y123550D01*
X83373Y124071D01*
X83495Y124685D01*
X83373Y125300D01*
X83025Y125820D01*
X82504Y126169D01*
X81890Y126291D01*
X81275Y126169D01*
X80973Y125967D01*
X80860Y125939D01*
X80809Y125900D01*
X80772Y125881D01*
X80701Y125853D01*
X80599Y125822D01*
X80467Y125793D01*
X80319Y125769D01*
X79662Y125721D01*
X79405Y125718D01*
X79337Y125689D01*
X79134D01*
X78750Y125612D01*
X78424Y125395D01*
X75275Y122245D01*
X75057Y121920D01*
X74981Y121535D01*
Y84109D01*
X74973Y84094D01*
X74836Y83961D01*
X74481Y83826D01*
X74400Y83880D01*
X74016Y83956D01*
X71232D01*
X70848Y83880D01*
X70522Y83662D01*
X62549Y75689D01*
X55131D01*
X54864Y76189D01*
X55027Y76433D01*
X55149Y77047D01*
X55027Y77662D01*
X54679Y78183D01*
X54158Y78531D01*
X53543Y78653D01*
X53211Y78587D01*
X52781Y78988D01*
X52787Y79016D01*
X52665Y79630D01*
X52316Y80151D01*
X51796Y80499D01*
X51181Y80621D01*
X50567Y80499D01*
X50046Y80151D01*
X49698Y79630D01*
X49575Y79016D01*
X49698Y78401D01*
X50046Y77880D01*
X50567Y77532D01*
X51181Y77410D01*
X51513Y77476D01*
X51943Y77075D01*
X51938Y77047D01*
X52060Y76433D01*
X52223Y76189D01*
X52002Y75775D01*
X51496Y75730D01*
X47263Y79963D01*
Y127094D01*
X47317Y127117D01*
X47398Y127144D01*
X47486Y127165D01*
X47582Y127181D01*
X47687Y127192D01*
X47820Y127196D01*
X47885Y127225D01*
X48622D01*
X48688Y127196D01*
X49198Y127182D01*
X49605Y127145D01*
X49758Y127120D01*
X49890Y127091D01*
X49993Y127061D01*
X50063Y127033D01*
X50100Y127013D01*
X50152Y126975D01*
X50264Y126947D01*
X50567Y126745D01*
X51181Y126623D01*
X51796Y126745D01*
X52236Y127039D01*
X52559Y127089D01*
X52882Y127039D01*
X53322Y126745D01*
X53937Y126623D01*
X54552Y126745D01*
X55072Y127093D01*
X55420Y127614D01*
X55543Y128228D01*
X55420Y128843D01*
X55072Y129364D01*
X55054Y129376D01*
X55054Y129377D01*
X55041Y129397D01*
X55041Y129398D01*
X55029Y129435D01*
X55015Y129503D01*
X55002Y129585D01*
X54972Y130026D01*
X54970Y130204D01*
X54912Y130339D01*
X54864Y130581D01*
X54647Y130906D01*
X53859Y131694D01*
X53534Y131911D01*
X53150Y131988D01*
X37030D01*
X28169Y140849D01*
Y150452D01*
X44410Y166693D01*
X44628Y167019D01*
X44704Y167403D01*
Y169173D01*
X44704Y169173D01*
Y174849D01*
X45204Y175140D01*
X45669Y175048D01*
X46284Y175170D01*
X46805Y175518D01*
X47153Y176039D01*
X47275Y176654D01*
X47153Y177268D01*
X46805Y177789D01*
X46284Y178137D01*
X45669Y178259D01*
X45204Y178167D01*
X44704Y178458D01*
Y185293D01*
X52384Y192973D01*
X57832D01*
X57920Y192841D01*
X58441Y192493D01*
X59055Y192371D01*
X59670Y192493D01*
X60190Y192841D01*
X60539Y193362D01*
X60661Y193976D01*
X60539Y194591D01*
X60190Y195112D01*
X59670Y195460D01*
X59055Y195582D01*
X59034Y195945D01*
X59055Y196308D01*
X59670Y196430D01*
X60190Y196778D01*
X60539Y197299D01*
X60661Y197913D01*
X60539Y198528D01*
X60190Y199049D01*
X59670Y199397D01*
X59055Y199519D01*
X59044Y199517D01*
X58690Y199870D01*
X58692Y199882D01*
X58690Y199893D01*
X59044Y200247D01*
X59055Y200245D01*
X59670Y200367D01*
X60190Y200715D01*
X60539Y201236D01*
X60661Y201850D01*
X60539Y202465D01*
X60190Y202986D01*
X59670Y203334D01*
X59055Y203456D01*
X59034Y203819D01*
X59055Y204182D01*
X59670Y204304D01*
X60190Y204652D01*
X60539Y205173D01*
X60661Y205787D01*
X60539Y206402D01*
X60190Y206923D01*
X59670Y207271D01*
X59055Y207393D01*
X59044Y207391D01*
X58783Y207651D01*
X58721Y207756D01*
X58783Y207861D01*
X59044Y208121D01*
X59055Y208119D01*
X59670Y208241D01*
X60190Y208589D01*
X60539Y209110D01*
X60661Y209724D01*
X60539Y210339D01*
X60190Y210860D01*
X59670Y211208D01*
X59055Y211330D01*
X59044Y211328D01*
X58783Y211588D01*
X58721Y211693D01*
X58783Y211798D01*
X59044Y212058D01*
X59055Y212056D01*
X59670Y212178D01*
X60190Y212526D01*
X60539Y213047D01*
X60661Y213661D01*
X60539Y214276D01*
X60190Y214797D01*
X59670Y215145D01*
X59055Y215267D01*
X58441Y215145D01*
X57920Y214797D01*
X57832Y214665D01*
X51968D01*
X51585Y214589D01*
X51259Y214371D01*
X29212Y192324D01*
X28994Y191998D01*
X28918Y191614D01*
Y187316D01*
X28830Y187249D01*
X28152Y187363D01*
X28104Y187435D01*
X27583Y187783D01*
X27090Y187881D01*
X26007Y188963D01*
Y196303D01*
X26412Y196577D01*
X26507Y196596D01*
X26969Y196505D01*
X27583Y196627D01*
X28104Y196975D01*
X50331Y219202D01*
X50792Y218955D01*
X50757Y218779D01*
X50879Y218165D01*
X51227Y217644D01*
X51748Y217296D01*
X52362Y217174D01*
X52977Y217296D01*
X53498Y217644D01*
X53846Y218165D01*
X53968Y218779D01*
X53846Y219394D01*
X53498Y219915D01*
X52977Y220263D01*
X52362Y220385D01*
X52343Y220381D01*
X52092Y220841D01*
X52303Y221111D01*
X53272D01*
X55558Y218825D01*
X55558Y218825D01*
X56078Y218477D01*
X56693Y218355D01*
X56693Y218355D01*
X73548D01*
X81859Y210044D01*
Y203032D01*
X81859Y203031D01*
X81981Y202417D01*
X82329Y201896D01*
X84343Y199882D01*
X82329Y197868D01*
X81981Y197347D01*
X81859Y196732D01*
X81859Y196732D01*
Y177712D01*
X79650Y175503D01*
X51575D01*
X50960Y175381D01*
X50439Y175033D01*
X50091Y174512D01*
X49969Y173898D01*
X50091Y173283D01*
X50439Y172762D01*
X50960Y172414D01*
X51575Y172292D01*
X80315D01*
X80315Y172292D01*
X80929Y172414D01*
X81450Y172762D01*
X84600Y175912D01*
X84948Y176433D01*
X85070Y177047D01*
Y183110D01*
X85238Y183225D01*
X85570Y183331D01*
X86000Y183044D01*
X86614Y182922D01*
X87229Y183044D01*
X87749Y183392D01*
X88098Y183913D01*
X88220Y184528D01*
X88098Y185142D01*
X87749Y185663D01*
X87229Y186011D01*
X86614Y186133D01*
X86000Y186011D01*
X85570Y185724D01*
X85238Y185830D01*
X85070Y185945D01*
Y196067D01*
X87749Y198747D01*
X88098Y199267D01*
X88220Y199882D01*
X88098Y200496D01*
X87749Y201017D01*
X85070Y203697D01*
Y210275D01*
X85238Y210391D01*
X85570Y210496D01*
X86000Y210209D01*
X86614Y210087D01*
X87229Y210209D01*
X87749Y210558D01*
X88098Y211079D01*
X88220Y211693D01*
X88098Y212307D01*
X87749Y212828D01*
X87229Y213176D01*
X86614Y213299D01*
X86000Y213176D01*
X85479Y212828D01*
X85131Y212307D01*
X85076Y212032D01*
X84803Y211924D01*
X84541Y211903D01*
X76483Y219961D01*
X85781Y229258D01*
X85781Y229258D01*
X86129Y229779D01*
X86251Y230394D01*
Y275989D01*
X90823Y280560D01*
X95111D01*
X95210Y280060D01*
X94842Y279907D01*
X94267Y279466D01*
X93825Y278890D01*
X93547Y278219D01*
X93453Y277500D01*
X93547Y276781D01*
X93825Y276110D01*
X94267Y275535D01*
X94842Y275093D01*
X95513Y274815D01*
X96232Y274720D01*
X97807D01*
X98527Y274815D01*
X99197Y275093D01*
X99773Y275535D01*
X100214Y276110D01*
X100492Y276781D01*
X100587Y277500D01*
X100492Y278219D01*
X100214Y278890D01*
X99773Y279466D01*
X99197Y279907D01*
X98829Y280060D01*
X98928Y280560D01*
X111417D01*
X112032Y280682D01*
X112553Y281030D01*
X112901Y281551D01*
X113023Y282165D01*
X112901Y282780D01*
X112553Y283301D01*
X112032Y283649D01*
X111417Y283771D01*
X90158D01*
X90158Y283771D01*
D02*
G37*
G36*
X7807Y280280D02*
X6232D01*
X5513Y280185D01*
X4843Y279907D01*
X4267Y279466D01*
X3825Y278890D01*
X3547Y278219D01*
X3453Y277500D01*
X3547Y276781D01*
X3825Y276110D01*
X4267Y275535D01*
X4843Y275093D01*
X5513Y274815D01*
X6232Y274720D01*
X7807D01*
X8527Y274815D01*
X9197Y275093D01*
X9773Y275535D01*
X10214Y276110D01*
X10492Y276781D01*
X10587Y277500D01*
X10492Y278219D01*
X10214Y278890D01*
X9773Y279466D01*
X9197Y279907D01*
X8527Y280185D01*
X7807Y280280D01*
D02*
G37*
G36*
X39764Y276389D02*
X39149Y276267D01*
X38628Y275919D01*
X38280Y275398D01*
X38158Y274783D01*
X38280Y274169D01*
X38628Y273648D01*
X39149Y273300D01*
X39764Y273178D01*
X40378Y273300D01*
X40899Y273648D01*
X41247Y274169D01*
X41369Y274783D01*
X41247Y275398D01*
X40899Y275919D01*
X40378Y276267D01*
X39764Y276389D01*
D02*
G37*
G36*
X55905Y276291D02*
X55291Y276168D01*
X54770Y275820D01*
X54422Y275300D01*
X54300Y274685D01*
X54422Y274071D01*
X54770Y273550D01*
X55291Y273202D01*
X55905Y273079D01*
X56520Y273202D01*
X57041Y273550D01*
X57389Y274071D01*
X57511Y274685D01*
X57389Y275300D01*
X57041Y275820D01*
X56520Y276168D01*
X55905Y276291D01*
D02*
G37*
G36*
X97807Y270280D02*
X96232D01*
X95513Y270185D01*
X94842Y269907D01*
X94267Y269465D01*
X93825Y268890D01*
X93547Y268219D01*
X93453Y267500D01*
X93547Y266781D01*
X93825Y266110D01*
X94267Y265534D01*
X94842Y265093D01*
X95513Y264815D01*
X96232Y264720D01*
X97807D01*
X98527Y264815D01*
X99197Y265093D01*
X99773Y265534D01*
X100214Y266110D01*
X100492Y266781D01*
X100587Y267500D01*
X100492Y268219D01*
X100214Y268890D01*
X99773Y269465D01*
X99197Y269907D01*
X98527Y270185D01*
X97807Y270280D01*
D02*
G37*
G36*
X7807D02*
X6232D01*
X5513Y270185D01*
X4843Y269907D01*
X4267Y269465D01*
X3825Y268890D01*
X3547Y268219D01*
X3453Y267500D01*
X3547Y266781D01*
X3825Y266110D01*
X4267Y265534D01*
X4843Y265093D01*
X5513Y264815D01*
X6232Y264720D01*
X7807D01*
X8527Y264815D01*
X9197Y265093D01*
X9773Y265534D01*
X10214Y266110D01*
X10492Y266781D01*
X10587Y267500D01*
X10492Y268219D01*
X10214Y268890D01*
X9773Y269465D01*
X9197Y269907D01*
X8527Y270185D01*
X7807Y270280D01*
D02*
G37*
G36*
X40157Y268712D02*
X39543Y268590D01*
X39022Y268242D01*
X38674Y267721D01*
X38552Y267106D01*
X38674Y266492D01*
X38786Y266324D01*
X38727Y265683D01*
X38379Y265162D01*
X38256Y264547D01*
X38379Y263933D01*
X38727Y263412D01*
X39248Y263064D01*
X39862Y262942D01*
X40477Y263064D01*
X40998Y263412D01*
X41346Y263933D01*
X41468Y264547D01*
X41346Y265162D01*
X41233Y265330D01*
X41293Y265971D01*
X41641Y266492D01*
X41763Y267106D01*
X41641Y267721D01*
X41293Y268242D01*
X40772Y268590D01*
X40157Y268712D01*
D02*
G37*
G36*
X55905Y268614D02*
X55291Y268491D01*
X54770Y268143D01*
X54422Y267622D01*
X54300Y267008D01*
X54422Y266393D01*
X54625Y266089D01*
X54729Y265728D01*
X54625Y265368D01*
X54422Y265063D01*
X54300Y264449D01*
X54422Y263834D01*
X54770Y263314D01*
X55291Y262965D01*
X55905Y262843D01*
X56520Y262965D01*
X57041Y263314D01*
X57389Y263834D01*
X57511Y264449D01*
X57389Y265063D01*
X57186Y265368D01*
X57082Y265728D01*
X57186Y266089D01*
X57389Y266393D01*
X57511Y267008D01*
X57389Y267622D01*
X57041Y268143D01*
X56520Y268491D01*
X55905Y268614D01*
D02*
G37*
G36*
X97807Y260280D02*
X96232D01*
X95513Y260185D01*
X94842Y259907D01*
X94267Y259466D01*
X93825Y258890D01*
X93547Y258219D01*
X93453Y257500D01*
X93547Y256781D01*
X93825Y256110D01*
X94267Y255535D01*
X94842Y255093D01*
X95513Y254815D01*
X96232Y254720D01*
X97807D01*
X98527Y254815D01*
X99197Y255093D01*
X99773Y255535D01*
X100214Y256110D01*
X100492Y256781D01*
X100587Y257500D01*
X100492Y258219D01*
X100214Y258890D01*
X99773Y259466D01*
X99197Y259907D01*
X98527Y260185D01*
X97807Y260280D01*
D02*
G37*
G36*
X7807D02*
X6232D01*
X5513Y260185D01*
X4843Y259907D01*
X4267Y259466D01*
X3825Y258890D01*
X3547Y258219D01*
X3453Y257500D01*
X3547Y256781D01*
X3825Y256110D01*
X4267Y255535D01*
X4843Y255093D01*
X5513Y254815D01*
X6232Y254720D01*
X7807D01*
X8527Y254815D01*
X9197Y255093D01*
X9773Y255535D01*
X10214Y256110D01*
X10492Y256781D01*
X10587Y257500D01*
X10492Y258219D01*
X10214Y258890D01*
X9773Y259466D01*
X9197Y259907D01*
X8527Y260185D01*
X7807Y260280D01*
D02*
G37*
G36*
X40157Y258476D02*
X39543Y258353D01*
X39022Y258005D01*
X38674Y257485D01*
X38552Y256870D01*
X38674Y256256D01*
X38923Y255883D01*
X38986Y255541D01*
X38923Y255200D01*
X38674Y254827D01*
X38552Y254213D01*
X38674Y253598D01*
X39022Y253077D01*
X39543Y252729D01*
X40157Y252607D01*
X40772Y252729D01*
X41293Y253077D01*
X41641Y253598D01*
X41763Y254213D01*
X41641Y254827D01*
X41392Y255200D01*
X41329Y255541D01*
X41392Y255883D01*
X41641Y256256D01*
X41763Y256870D01*
X41641Y257485D01*
X41293Y258005D01*
X40772Y258353D01*
X40157Y258476D01*
D02*
G37*
G36*
X55512Y258574D02*
X54897Y258452D01*
X54376Y258104D01*
X54028Y257583D01*
X53906Y256968D01*
X54028Y256354D01*
X54376Y255833D01*
X54391Y255222D01*
X54127Y254826D01*
X54005Y254211D01*
X54127Y253597D01*
X54475Y253076D01*
X54996Y252728D01*
X55610Y252606D01*
X56225Y252728D01*
X56746Y253076D01*
X57094Y253597D01*
X57216Y254211D01*
X57094Y254826D01*
X56746Y255346D01*
X56731Y255958D01*
X56995Y256354D01*
X57117Y256968D01*
X56995Y257583D01*
X56647Y258104D01*
X56126Y258452D01*
X55512Y258574D01*
D02*
G37*
G36*
X97807Y250280D02*
X96232D01*
X95513Y250185D01*
X94842Y249907D01*
X94267Y249465D01*
X93825Y248890D01*
X93547Y248219D01*
X93453Y247500D01*
X93547Y246781D01*
X93825Y246110D01*
X94267Y245534D01*
X94842Y245093D01*
X95513Y244815D01*
X96232Y244720D01*
X97807D01*
X98527Y244815D01*
X99197Y245093D01*
X99773Y245534D01*
X100214Y246110D01*
X100492Y246781D01*
X100587Y247500D01*
X100492Y248219D01*
X100214Y248890D01*
X99773Y249465D01*
X99197Y249907D01*
X98527Y250185D01*
X97807Y250280D01*
D02*
G37*
G36*
X7807D02*
X6232D01*
X5513Y250185D01*
X4843Y249907D01*
X4267Y249465D01*
X3825Y248890D01*
X3547Y248219D01*
X3453Y247500D01*
X3547Y246781D01*
X3825Y246110D01*
X4267Y245534D01*
X4843Y245093D01*
X5513Y244815D01*
X6232Y244720D01*
X7807D01*
X8527Y244815D01*
X9197Y245093D01*
X9773Y245534D01*
X10214Y246110D01*
X10492Y246781D01*
X10587Y247500D01*
X10492Y248219D01*
X10214Y248890D01*
X9773Y249465D01*
X9197Y249907D01*
X8527Y250185D01*
X7807Y250280D01*
D02*
G37*
G36*
X58268Y247058D02*
X57653Y246936D01*
X57132Y246588D01*
X56784Y246067D01*
X56662Y245453D01*
X56784Y244838D01*
X57132Y244317D01*
X57653Y243969D01*
X58268Y243847D01*
X58882Y243969D01*
X59403Y244317D01*
X59751Y244838D01*
X59873Y245453D01*
X59751Y246067D01*
X59403Y246588D01*
X58882Y246936D01*
X58268Y247058D01*
D02*
G37*
G36*
X20866D02*
X20252Y246936D01*
X19731Y246588D01*
X19383Y246067D01*
X19261Y245453D01*
X19383Y244838D01*
X19731Y244317D01*
X20252Y243969D01*
X20866Y243847D01*
X21481Y243969D01*
X22002Y244317D01*
X22350Y244838D01*
X22472Y245453D01*
X22350Y246067D01*
X22002Y246588D01*
X21481Y246936D01*
X20866Y247058D01*
D02*
G37*
G36*
X97807Y240280D02*
X96232D01*
X95513Y240185D01*
X94842Y239907D01*
X94267Y239465D01*
X93825Y238890D01*
X93547Y238219D01*
X93453Y237500D01*
X93547Y236781D01*
X93825Y236110D01*
X94267Y235535D01*
X94842Y235093D01*
X95513Y234815D01*
X96232Y234720D01*
X97807D01*
X98527Y234815D01*
X99197Y235093D01*
X99773Y235535D01*
X100214Y236110D01*
X100492Y236781D01*
X100587Y237500D01*
X100492Y238219D01*
X100214Y238890D01*
X99773Y239465D01*
X99197Y239907D01*
X98527Y240185D01*
X97807Y240280D01*
D02*
G37*
G36*
X7807D02*
X6232D01*
X5513Y240185D01*
X4843Y239907D01*
X4267Y239465D01*
X3825Y238890D01*
X3547Y238219D01*
X3453Y237500D01*
X3547Y236781D01*
X3825Y236110D01*
X4267Y235535D01*
X4843Y235093D01*
X5513Y234815D01*
X6232Y234720D01*
X7807D01*
X8527Y234815D01*
X9197Y235093D01*
X9773Y235535D01*
X10214Y236110D01*
X10492Y236781D01*
X10587Y237500D01*
X10492Y238219D01*
X10214Y238890D01*
X9773Y239465D01*
X9197Y239907D01*
X8527Y240185D01*
X7807Y240280D01*
D02*
G37*
G36*
X97807Y230280D02*
X96232D01*
X95513Y230185D01*
X94842Y229907D01*
X94267Y229466D01*
X93825Y228890D01*
X93547Y228219D01*
X93453Y227500D01*
X93547Y226781D01*
X93825Y226110D01*
X94267Y225535D01*
X94842Y225093D01*
X95513Y224815D01*
X96232Y224720D01*
X97807D01*
X98527Y224815D01*
X99197Y225093D01*
X99773Y225535D01*
X100214Y226110D01*
X100492Y226781D01*
X100587Y227500D01*
X100492Y228219D01*
X100214Y228890D01*
X99773Y229466D01*
X99197Y229907D01*
X98527Y230185D01*
X97807Y230280D01*
D02*
G37*
G36*
X7807D02*
X6232D01*
X5513Y230185D01*
X4843Y229907D01*
X4267Y229466D01*
X3825Y228890D01*
X3547Y228219D01*
X3453Y227500D01*
X3547Y226781D01*
X3825Y226110D01*
X4267Y225535D01*
X4843Y225093D01*
X5513Y224815D01*
X6232Y224720D01*
X7807D01*
X8527Y224815D01*
X9197Y225093D01*
X9773Y225535D01*
X10214Y226110D01*
X10492Y226781D01*
X10587Y227500D01*
X10492Y228219D01*
X10214Y228890D01*
X9773Y229466D01*
X9197Y229907D01*
X8527Y230185D01*
X7807Y230280D01*
D02*
G37*
G36*
X122205Y226370D02*
X121137Y226229D01*
X120142Y225817D01*
X119287Y225162D01*
X118632Y224307D01*
X118219Y223312D01*
X118079Y222244D01*
X118129Y221863D01*
X118096Y221783D01*
X118107Y221757D01*
X118098Y221729D01*
X118134Y221307D01*
X118129Y220924D01*
X118086Y220549D01*
X118004Y220181D01*
X117884Y219816D01*
X117725Y219454D01*
X117524Y219094D01*
X117280Y218736D01*
X116993Y218378D01*
X116647Y218007D01*
X116594Y217865D01*
X116488Y217708D01*
X116420Y217362D01*
Y214064D01*
X115920Y213965D01*
X115778Y214307D01*
X115122Y215161D01*
X114268Y215817D01*
X113273Y216229D01*
X112205Y216370D01*
X111137Y216229D01*
X110142Y215817D01*
X109287Y215161D01*
X108632Y214307D01*
X108220Y213312D01*
X108079Y212244D01*
X108220Y211176D01*
X108632Y210181D01*
X109287Y209327D01*
X110019Y208765D01*
X109871Y208265D01*
X108661D01*
X108661Y208265D01*
X108316Y208197D01*
X108023Y208001D01*
X108023Y208001D01*
X100542Y200520D01*
X100347Y200227D01*
X100278Y199882D01*
Y199628D01*
X99778Y199459D01*
X99773Y199466D01*
X99197Y199907D01*
X98527Y200185D01*
X97807Y200280D01*
X96232D01*
X95513Y200185D01*
X94842Y199907D01*
X94267Y199466D01*
X93825Y198890D01*
X93547Y198219D01*
X93453Y197500D01*
X93547Y196781D01*
X93825Y196110D01*
X94267Y195535D01*
X94842Y195093D01*
X95513Y194815D01*
X96232Y194720D01*
X97807D01*
X98527Y194815D01*
X99197Y195093D01*
X99773Y195535D01*
X99778Y195541D01*
X100278Y195372D01*
Y189628D01*
X99778Y189459D01*
X99773Y189465D01*
X99197Y189907D01*
X98527Y190185D01*
X97807Y190280D01*
X96232D01*
X95513Y190185D01*
X94842Y189907D01*
X94267Y189465D01*
X93825Y188890D01*
X93547Y188219D01*
X93453Y187500D01*
X93547Y186781D01*
X93825Y186110D01*
X94267Y185535D01*
X94842Y185093D01*
X95513Y184815D01*
X96232Y184720D01*
X97807D01*
X98527Y184815D01*
X99197Y185093D01*
X99773Y185535D01*
X99778Y185541D01*
X100278Y185372D01*
Y179628D01*
X99778Y179459D01*
X99773Y179465D01*
X99197Y179907D01*
X98527Y180185D01*
X97807Y180280D01*
X96232D01*
X95513Y180185D01*
X94842Y179907D01*
X94267Y179465D01*
X93825Y178890D01*
X93547Y178219D01*
X93453Y177500D01*
X93547Y176781D01*
X93825Y176110D01*
X94267Y175534D01*
X94842Y175093D01*
X95513Y174815D01*
X96232Y174720D01*
X97807D01*
X98527Y174815D01*
X99197Y175093D01*
X99773Y175534D01*
X99778Y175541D01*
X100278Y175372D01*
Y169628D01*
X99778Y169459D01*
X99773Y169465D01*
X99197Y169907D01*
X98527Y170185D01*
X97807Y170280D01*
X96232D01*
X95513Y170185D01*
X94842Y169907D01*
X94267Y169465D01*
X93825Y168890D01*
X93547Y168219D01*
X93453Y167500D01*
X93547Y166781D01*
X93825Y166110D01*
X94267Y165534D01*
X94842Y165093D01*
X95513Y164815D01*
X96232Y164720D01*
X97807D01*
X98527Y164815D01*
X99197Y165093D01*
X99773Y165534D01*
X99778Y165541D01*
X100278Y165372D01*
Y159628D01*
X99778Y159459D01*
X99773Y159466D01*
X99197Y159907D01*
X98527Y160185D01*
X97807Y160280D01*
X96232D01*
X95513Y160185D01*
X94842Y159907D01*
X94267Y159466D01*
X93825Y158890D01*
X93547Y158219D01*
X93453Y157500D01*
X93547Y156781D01*
X93825Y156110D01*
X94204Y155616D01*
X94068Y155116D01*
X84519D01*
X83209Y156426D01*
X82916Y156622D01*
X82570Y156691D01*
X62865D01*
X61555Y158001D01*
X61262Y158197D01*
X60917Y158265D01*
X52203D01*
X52131Y158297D01*
X51886Y158301D01*
X51452Y158333D01*
X51280Y158358D01*
X51124Y158390D01*
X50990Y158427D01*
X50879Y158467D01*
X50791Y158508D01*
X50726Y158547D01*
X50646Y158608D01*
X50530Y158639D01*
X50221Y158846D01*
X49606Y158968D01*
X48992Y158846D01*
X48471Y158498D01*
X48123Y157977D01*
X48074Y157730D01*
X47765Y157589D01*
X47528Y157548D01*
X47295Y157704D01*
X46949Y157773D01*
X44742D01*
X44315Y158058D01*
X43701Y158180D01*
X43086Y158058D01*
X42565Y157710D01*
X42217Y157189D01*
X42095Y156575D01*
X42217Y155960D01*
X42565Y155439D01*
X43086Y155091D01*
X43701Y154969D01*
X43981Y155025D01*
X44357Y155005D01*
X44525Y154662D01*
X44580Y154385D01*
X44876Y153943D01*
X44787Y153644D01*
X44659Y153443D01*
X42992D01*
X42632Y153803D01*
X42603Y153876D01*
X42433Y154052D01*
X42149Y154382D01*
X42046Y154521D01*
X41957Y154654D01*
X41889Y154775D01*
X41838Y154881D01*
X41805Y154972D01*
X41787Y155046D01*
X41774Y155146D01*
X41713Y155250D01*
X41641Y155614D01*
X41293Y156135D01*
X40772Y156483D01*
X40157Y156606D01*
X39543Y156483D01*
X39022Y156135D01*
X38674Y155614D01*
X38619Y155338D01*
X38452Y154995D01*
X38076Y154975D01*
X37795Y155031D01*
X37181Y154909D01*
X36660Y154561D01*
X36312Y154040D01*
X36190Y153425D01*
X36192Y153414D01*
X35838Y153060D01*
X35827Y153062D01*
X35212Y152940D01*
X34691Y152592D01*
X34343Y152071D01*
X34221Y151457D01*
X34343Y150842D01*
X34639Y150399D01*
X34551Y150101D01*
X34423Y149899D01*
X32972D01*
X32921Y149927D01*
X32900Y149921D01*
X32881Y149930D01*
X32408Y149950D01*
X32225Y149971D01*
X32053Y150001D01*
X31902Y150037D01*
X31771Y150078D01*
X31660Y150124D01*
X31568Y150173D01*
X31493Y150222D01*
X31404Y150297D01*
X31300Y150330D01*
X30929Y150578D01*
X30315Y150700D01*
X29700Y150578D01*
X29180Y150230D01*
X28831Y149709D01*
X28709Y149094D01*
X28831Y148480D01*
X29180Y147959D01*
X29700Y147611D01*
X30315Y147489D01*
X30929Y147611D01*
X31071Y147705D01*
X31383Y147551D01*
X31496Y147421D01*
X31516Y147381D01*
X31465Y147126D01*
X31587Y146511D01*
X31936Y145991D01*
X32456Y145643D01*
X33071Y145520D01*
X33350Y145576D01*
X33650Y145126D01*
X33556Y144984D01*
X33434Y144370D01*
X33556Y143756D01*
X33904Y143235D01*
X34425Y142887D01*
X35039Y142764D01*
X35654Y142887D01*
X36175Y143235D01*
X36523Y143756D01*
X36595Y144120D01*
X36656Y144225D01*
X36668Y144324D01*
X36687Y144398D01*
X36720Y144489D01*
X36771Y144595D01*
X36839Y144716D01*
X36927Y144849D01*
X37031Y144989D01*
X37315Y145318D01*
X37485Y145494D01*
X37514Y145567D01*
X37677Y145731D01*
X50165D01*
X50456Y145231D01*
X50430Y145102D01*
X50263Y144758D01*
X49887Y144739D01*
X49606Y144795D01*
X48992Y144672D01*
X48471Y144324D01*
X48123Y143803D01*
X48001Y143189D01*
X48094Y142722D01*
X47803Y142222D01*
X45551D01*
X44339Y143434D01*
X44046Y143630D01*
X43863Y143666D01*
X43727Y143729D01*
X43303Y143747D01*
X43139Y143765D01*
X42983Y143791D01*
X42843Y143824D01*
X42720Y143861D01*
X42613Y143903D01*
X42521Y143947D01*
X42444Y143994D01*
X42352Y144063D01*
X42229Y144094D01*
X41953Y144279D01*
X41339Y144401D01*
X40724Y144279D01*
X40203Y143931D01*
X39855Y143410D01*
X39733Y142795D01*
X39855Y142181D01*
X40203Y141660D01*
X40724Y141312D01*
X41205Y141216D01*
X41423Y140864D01*
X41464Y140705D01*
X41430Y140654D01*
X41308Y140039D01*
X41430Y139425D01*
X41778Y138904D01*
X42299Y138556D01*
X42913Y138434D01*
X43528Y138556D01*
X44049Y138904D01*
X44270Y139235D01*
X76096D01*
X76965Y138366D01*
X76774Y137904D01*
X43148D01*
X43076Y137935D01*
X42831Y137940D01*
X42397Y137972D01*
X42225Y137997D01*
X42068Y138029D01*
X41934Y138066D01*
X41824Y138106D01*
X41736Y138146D01*
X41671Y138185D01*
X41591Y138247D01*
X41475Y138278D01*
X41166Y138484D01*
X40551Y138607D01*
X39937Y138484D01*
X39416Y138136D01*
X39068Y137616D01*
X38945Y137001D01*
X39023Y136613D01*
X38995Y136329D01*
X38676Y136073D01*
X38362Y136011D01*
X37841Y135663D01*
X37493Y135142D01*
X37371Y134528D01*
X37493Y133913D01*
X37841Y133392D01*
X38362Y133044D01*
X38976Y132922D01*
X39591Y133044D01*
X39900Y133250D01*
X40016Y133282D01*
X40096Y133343D01*
X40161Y133382D01*
X40249Y133423D01*
X40360Y133463D01*
X40494Y133499D01*
X40650Y133531D01*
X40822Y133557D01*
X41256Y133589D01*
X41501Y133593D01*
X41573Y133624D01*
X78366D01*
X84924Y127067D01*
Y117992D01*
X84992Y117647D01*
X85188Y117353D01*
X91881Y110661D01*
X92174Y110465D01*
X92520Y110396D01*
X94716D01*
X94833Y109944D01*
X94828Y109896D01*
X94267Y109466D01*
X93825Y108890D01*
X93547Y108219D01*
X93453Y107500D01*
X93547Y106781D01*
X93825Y106110D01*
X94267Y105535D01*
X94842Y105093D01*
X95513Y104815D01*
X96232Y104720D01*
X97807D01*
X98527Y104815D01*
X99197Y105093D01*
X99773Y105535D01*
X100214Y106110D01*
X100492Y106781D01*
X100545Y107182D01*
X101053Y107213D01*
X101065Y107194D01*
Y97696D01*
X100565Y97663D01*
X100545Y97818D01*
X100492Y98219D01*
X100214Y98890D01*
X99773Y99466D01*
X99197Y99907D01*
X98527Y100185D01*
X97807Y100280D01*
X96232D01*
X95513Y100185D01*
X94842Y99907D01*
X94267Y99466D01*
X93825Y98890D01*
X93547Y98219D01*
X93453Y97500D01*
X93547Y96781D01*
X93825Y96110D01*
X94267Y95534D01*
X94842Y95093D01*
X95513Y94815D01*
X96232Y94720D01*
X97807D01*
X98527Y94815D01*
X99197Y95093D01*
X99773Y95534D01*
X100214Y96110D01*
X100492Y96781D01*
X100545Y97182D01*
X100565Y97337D01*
X101065Y97304D01*
Y87696D01*
X100565Y87663D01*
X100545Y87818D01*
X100492Y88219D01*
X100214Y88890D01*
X99773Y89465D01*
X99197Y89907D01*
X98527Y90185D01*
X97807Y90280D01*
X96232D01*
X95513Y90185D01*
X94842Y89907D01*
X94267Y89465D01*
X93825Y88890D01*
X93547Y88219D01*
X93453Y87500D01*
X93547Y86781D01*
X93825Y86110D01*
X94267Y85535D01*
X94842Y85093D01*
X95513Y84815D01*
X96232Y84720D01*
X97807D01*
X98527Y84815D01*
X99197Y85093D01*
X99773Y85535D01*
X100214Y86110D01*
X100492Y86781D01*
X100545Y87182D01*
X100565Y87337D01*
X101065Y87304D01*
Y77696D01*
X100565Y77663D01*
X100545Y77818D01*
X100492Y78219D01*
X100214Y78890D01*
X99773Y79466D01*
X99197Y79907D01*
X98527Y80185D01*
X97807Y80280D01*
X96232D01*
X95513Y80185D01*
X94842Y79907D01*
X94267Y79466D01*
X93825Y78890D01*
X93547Y78219D01*
X93453Y77500D01*
X93547Y76781D01*
X93825Y76110D01*
X94267Y75534D01*
X94842Y75093D01*
X95513Y74815D01*
X96232Y74720D01*
X97807D01*
X98527Y74815D01*
X99197Y75093D01*
X99773Y75534D01*
X100214Y76110D01*
X100492Y76781D01*
X100545Y77182D01*
X100565Y77337D01*
X101065Y77304D01*
Y69961D01*
X101134Y69615D01*
X101330Y69322D01*
X104086Y66566D01*
X104086Y66566D01*
X104379Y66370D01*
X104724Y66302D01*
X104725Y66302D01*
X109964D01*
X110126Y65852D01*
X110121Y65802D01*
X109287Y65162D01*
X108632Y64307D01*
X108220Y63312D01*
X108079Y62244D01*
X108220Y61176D01*
X108632Y60181D01*
X109287Y59327D01*
X110142Y58671D01*
X111137Y58259D01*
X112205Y58118D01*
X113273Y58259D01*
X114268Y58671D01*
X115122Y59327D01*
X115778Y60181D01*
X116190Y61176D01*
X116331Y62244D01*
X116190Y63312D01*
X115778Y64307D01*
X115122Y65162D01*
X114288Y65802D01*
X114284Y65852D01*
X114445Y66302D01*
X116809D01*
X116919Y66183D01*
X117211Y65818D01*
X117461Y65448D01*
X117668Y65075D01*
X117835Y64696D01*
X117963Y64312D01*
X118052Y63920D01*
X118102Y63520D01*
X118115Y63108D01*
X118087Y62657D01*
X118094Y62637D01*
X118085Y62617D01*
X118118Y62539D01*
X118079Y62244D01*
X118219Y61176D01*
X118632Y60181D01*
X119287Y59327D01*
X120142Y58671D01*
X121137Y58259D01*
X122205Y58118D01*
X123273Y58259D01*
X124268Y58671D01*
X125122Y59327D01*
X125778Y60181D01*
X126190Y61176D01*
X126331Y62244D01*
X126190Y63312D01*
X125778Y64307D01*
X125122Y65162D01*
X124268Y65817D01*
X123273Y66229D01*
X122205Y66370D01*
X121910Y66331D01*
X121832Y66363D01*
X121812Y66355D01*
X121792Y66362D01*
X121341Y66334D01*
X120929Y66347D01*
X120528Y66397D01*
X120137Y66486D01*
X119753Y66614D01*
X119374Y66780D01*
X119000Y66988D01*
X118631Y67237D01*
X118266Y67530D01*
X117889Y67881D01*
X117747Y67934D01*
X117590Y68039D01*
X117244Y68108D01*
X105098D01*
X102872Y70335D01*
Y76969D01*
X103334Y77161D01*
X104480Y76015D01*
X104772Y75819D01*
X105118Y75750D01*
X116495D01*
X116598Y75641D01*
X116893Y75281D01*
X117154Y74913D01*
X117381Y74536D01*
X117575Y74151D01*
X117737Y73756D01*
X117868Y73350D01*
X117966Y72934D01*
X118034Y72505D01*
X118071Y72041D01*
X118086Y72012D01*
X118079Y71980D01*
X118123Y71911D01*
X118219Y71176D01*
X118632Y70181D01*
X119287Y69327D01*
X120142Y68671D01*
X121137Y68259D01*
X122205Y68118D01*
X123273Y68259D01*
X124268Y68671D01*
X125122Y69327D01*
X125778Y70181D01*
X126190Y71176D01*
X126331Y72244D01*
X126190Y73312D01*
X125778Y74307D01*
X125122Y75161D01*
X124268Y75817D01*
X123273Y76229D01*
X122205Y76370D01*
X121137Y76229D01*
X121067Y76200D01*
X121031Y76208D01*
X121009Y76195D01*
X120984Y76198D01*
X120610Y76102D01*
X120279Y76059D01*
X119954Y76058D01*
X119630Y76098D01*
X119304Y76181D01*
X118974Y76309D01*
X118637Y76484D01*
X118293Y76709D01*
X118039Y76910D01*
X117955Y77287D01*
X118037Y77582D01*
X118312Y77799D01*
X118652Y78022D01*
X118985Y78195D01*
X119310Y78321D01*
X119630Y78403D01*
X119948Y78442D01*
X120266Y78439D01*
X120589Y78396D01*
X120955Y78299D01*
X120983Y78303D01*
X121006Y78288D01*
X121046Y78297D01*
X121137Y78259D01*
X122205Y78118D01*
X123273Y78259D01*
X124268Y78671D01*
X125122Y79327D01*
X125778Y80181D01*
X126190Y81176D01*
X126331Y82244D01*
X126190Y83312D01*
X125778Y84307D01*
X125122Y85162D01*
X124268Y85817D01*
X123273Y86229D01*
X122205Y86370D01*
X121137Y86229D01*
X120142Y85817D01*
X119287Y85162D01*
X118632Y84307D01*
X118219Y83312D01*
X118119Y82546D01*
X118078Y82482D01*
X118085Y82448D01*
X118070Y82417D01*
X118036Y81962D01*
X117972Y81542D01*
X117877Y81134D01*
X117750Y80735D01*
X117590Y80346D01*
X117399Y79965D01*
X117174Y79593D01*
X116914Y79228D01*
X116621Y78870D01*
X116519Y78761D01*
X115163D01*
X115003Y79235D01*
X115122Y79327D01*
X115778Y80181D01*
X116190Y81176D01*
X116331Y82244D01*
X116190Y83312D01*
X115778Y84307D01*
X115122Y85162D01*
X114268Y85817D01*
X113273Y86229D01*
X112205Y86370D01*
X111137Y86229D01*
X110142Y85817D01*
X109287Y85162D01*
X108632Y84307D01*
X108466Y83906D01*
X108387Y83838D01*
X108315Y83695D01*
X108252Y83610D01*
X108169Y83531D01*
X108058Y83453D01*
X107913Y83380D01*
X107730Y83313D01*
X107509Y83257D01*
X107248Y83214D01*
X106949Y83188D01*
X106948Y83188D01*
X106462Y83673D01*
Y101450D01*
X106924Y101641D01*
X106960Y101605D01*
X106960Y101605D01*
X107253Y101410D01*
X107445Y101372D01*
X107586Y101310D01*
X107781Y101306D01*
X107939Y101296D01*
X108068Y101281D01*
X108167Y101262D01*
X108210Y101250D01*
X108220Y101176D01*
X108632Y100181D01*
X109287Y99327D01*
X110142Y98671D01*
X111137Y98259D01*
X112205Y98118D01*
X113273Y98259D01*
X114268Y98671D01*
X115122Y99327D01*
X115778Y100181D01*
X116190Y101176D01*
X116331Y102244D01*
X116190Y103312D01*
X115778Y104307D01*
X115122Y105161D01*
X114268Y105817D01*
X113273Y106229D01*
X112205Y106370D01*
X111137Y106229D01*
X110142Y105817D01*
X109287Y105161D01*
X108632Y104307D01*
X108424Y103807D01*
X107836Y103657D01*
X107643Y103813D01*
Y111722D01*
X108143Y111755D01*
X108220Y111176D01*
X108632Y110181D01*
X109287Y109327D01*
X110142Y108671D01*
X111137Y108259D01*
X112205Y108118D01*
X113273Y108259D01*
X114268Y108671D01*
X115122Y109327D01*
X115778Y110181D01*
X115920Y110524D01*
X116420Y110424D01*
Y107126D01*
X116488Y106780D01*
X116594Y106623D01*
X116647Y106481D01*
X116993Y106110D01*
X117280Y105752D01*
X117524Y105394D01*
X117725Y105034D01*
X117884Y104672D01*
X118004Y104308D01*
X118086Y103939D01*
X118129Y103564D01*
X118134Y103181D01*
X118098Y102759D01*
X118107Y102731D01*
X118096Y102705D01*
X118129Y102625D01*
X118079Y102244D01*
X118219Y101176D01*
X118632Y100181D01*
X119287Y99327D01*
X120142Y98671D01*
X121137Y98259D01*
X122205Y98118D01*
X123273Y98259D01*
X124268Y98671D01*
X125122Y99327D01*
X125778Y100181D01*
X126190Y101176D01*
X126331Y102244D01*
X126190Y103312D01*
X125778Y104307D01*
X125122Y105161D01*
X124268Y105817D01*
X123273Y106229D01*
X122205Y106370D01*
X121824Y106320D01*
X121744Y106353D01*
X121717Y106342D01*
X121690Y106351D01*
X121267Y106315D01*
X120885Y106320D01*
X120510Y106363D01*
X120141Y106445D01*
X119777Y106564D01*
X119415Y106724D01*
X119055Y106925D01*
X118696Y107168D01*
X118339Y107456D01*
X118226Y107561D01*
Y109910D01*
X118726Y110058D01*
X119287Y109327D01*
X120142Y108671D01*
X121137Y108259D01*
X122205Y108118D01*
X123273Y108259D01*
X124268Y108671D01*
X125122Y109327D01*
X125778Y110181D01*
X126190Y111176D01*
X126331Y112244D01*
X126190Y113312D01*
X125778Y114307D01*
X125122Y115162D01*
X124268Y115817D01*
X123273Y116229D01*
X122205Y116370D01*
X121137Y116229D01*
X120142Y115817D01*
X119287Y115162D01*
X118726Y114430D01*
X118226Y114578D01*
Y115236D01*
X118157Y115582D01*
X117962Y115875D01*
X115993Y117843D01*
X115700Y118039D01*
X115354Y118108D01*
X114215D01*
X114115Y118608D01*
X114268Y118671D01*
X115122Y119327D01*
X115778Y120181D01*
X116190Y121176D01*
X116331Y122244D01*
X116190Y123312D01*
X115778Y124307D01*
X115122Y125162D01*
X114268Y125817D01*
X113273Y126229D01*
X112205Y126370D01*
X111137Y126229D01*
X110142Y125817D01*
X109602Y125403D01*
X109493Y125370D01*
X108966Y124943D01*
X108431Y124574D01*
X107870Y124249D01*
X107281Y123967D01*
X106664Y123728D01*
X106017Y123531D01*
X105339Y123378D01*
X104631Y123267D01*
X103892Y123201D01*
X103454Y123188D01*
X101713Y124930D01*
X101420Y125126D01*
X101074Y125195D01*
X100342D01*
X100342Y125195D01*
X100108D01*
X99895Y125695D01*
X100214Y126110D01*
X100492Y126781D01*
X100587Y127500D01*
X100492Y128219D01*
X100214Y128890D01*
X99773Y129465D01*
X99622Y129581D01*
X99792Y130081D01*
X104820D01*
X105166Y130150D01*
X105459Y130346D01*
X106412Y131299D01*
X106487Y131297D01*
X106857Y131261D01*
X107189Y131203D01*
X107482Y131124D01*
X107737Y131028D01*
X107957Y130915D01*
X108143Y130787D01*
X108301Y130644D01*
X108435Y130484D01*
X108570Y130266D01*
X108608Y130239D01*
X108632Y130181D01*
X109287Y129327D01*
X110142Y128671D01*
X111137Y128259D01*
X112205Y128118D01*
X113273Y128259D01*
X114268Y128671D01*
X115122Y129327D01*
X115778Y130181D01*
X116190Y131176D01*
X116331Y132244D01*
X116190Y133312D01*
X115778Y134307D01*
X115122Y135161D01*
X114268Y135817D01*
X114115Y135880D01*
X114215Y136380D01*
X116535D01*
X116881Y136449D01*
X117036Y136553D01*
X117177Y136604D01*
X117577Y136972D01*
X117971Y137276D01*
X118378Y137534D01*
X118799Y137748D01*
X119236Y137919D01*
X119690Y138048D01*
X120163Y138134D01*
X120657Y138178D01*
X121172Y138178D01*
X121734Y138132D01*
X121840Y138166D01*
X122205Y138118D01*
X123273Y138259D01*
X124268Y138671D01*
X125122Y139327D01*
X125778Y140181D01*
X126190Y141176D01*
X126331Y142244D01*
X126190Y143312D01*
X125778Y144307D01*
X125122Y145161D01*
X124268Y145817D01*
X123273Y146229D01*
X122205Y146370D01*
X121137Y146229D01*
X120142Y145817D01*
X119287Y145161D01*
X118632Y144307D01*
X118219Y143312D01*
X118184Y143041D01*
X118129Y142961D01*
X117847Y141651D01*
X117678Y141073D01*
X117485Y140524D01*
X117269Y140009D01*
X117032Y139529D01*
X116774Y139083D01*
X116495Y138671D01*
X116195Y138292D01*
X116098Y138187D01*
X114445D01*
X114284Y138637D01*
X114288Y138687D01*
X115122Y139327D01*
X115778Y140181D01*
X116190Y141176D01*
X116331Y142244D01*
X116190Y143312D01*
X115778Y144307D01*
X115122Y145161D01*
X114391Y145723D01*
X114539Y146223D01*
X114961D01*
X115306Y146292D01*
X115599Y146487D01*
X117962Y148850D01*
X118157Y149143D01*
X118226Y149488D01*
Y149910D01*
X118726Y150058D01*
X119287Y149327D01*
X120142Y148671D01*
X121137Y148259D01*
X122205Y148118D01*
X123273Y148259D01*
X124268Y148671D01*
X125122Y149327D01*
X125778Y150181D01*
X126190Y151176D01*
X126331Y152244D01*
X126190Y153312D01*
X125778Y154307D01*
X125122Y155161D01*
X124268Y155817D01*
X123273Y156229D01*
X122205Y156370D01*
X121137Y156229D01*
X120142Y155817D01*
X119287Y155161D01*
X118726Y154430D01*
X118226Y154578D01*
Y159910D01*
X118726Y160058D01*
X119287Y159327D01*
X120142Y158671D01*
X121137Y158259D01*
X122205Y158118D01*
X123273Y158259D01*
X124268Y158671D01*
X125122Y159327D01*
X125778Y160181D01*
X126190Y161176D01*
X126331Y162244D01*
X126190Y163312D01*
X125778Y164307D01*
X125122Y165162D01*
X124268Y165817D01*
X123273Y166229D01*
X122205Y166370D01*
X121137Y166229D01*
X120142Y165817D01*
X119287Y165162D01*
X118726Y164430D01*
X118226Y164578D01*
Y176927D01*
X118339Y177033D01*
X118696Y177320D01*
X119055Y177563D01*
X119415Y177764D01*
X119777Y177924D01*
X120141Y178044D01*
X120510Y178125D01*
X120885Y178168D01*
X121267Y178173D01*
X121690Y178138D01*
X121717Y178146D01*
X121744Y178135D01*
X121824Y178168D01*
X122205Y178118D01*
X123273Y178259D01*
X124268Y178671D01*
X125122Y179327D01*
X125778Y180181D01*
X126190Y181176D01*
X126331Y182244D01*
X126190Y183312D01*
X125778Y184307D01*
X125122Y185161D01*
X124268Y185817D01*
X123273Y186229D01*
X122205Y186370D01*
X121137Y186229D01*
X120142Y185817D01*
X119287Y185161D01*
X118632Y184307D01*
X118219Y183312D01*
X118079Y182244D01*
X118129Y181863D01*
X118096Y181783D01*
X118107Y181757D01*
X118098Y181729D01*
X118134Y181307D01*
X118129Y180924D01*
X118086Y180549D01*
X118004Y180181D01*
X117884Y179816D01*
X117725Y179454D01*
X117524Y179094D01*
X117280Y178736D01*
X116993Y178378D01*
X116647Y178007D01*
X116594Y177865D01*
X116488Y177708D01*
X116420Y177362D01*
Y174064D01*
X115920Y173965D01*
X115778Y174307D01*
X115122Y175162D01*
X114268Y175817D01*
X113273Y176229D01*
X112205Y176370D01*
X111137Y176229D01*
X110142Y175817D01*
X109287Y175162D01*
X108632Y174307D01*
X108220Y173312D01*
X108079Y172244D01*
X108220Y171176D01*
X108632Y170181D01*
X109287Y169327D01*
X110142Y168671D01*
X111137Y168259D01*
X112205Y168118D01*
X113273Y168259D01*
X114268Y168671D01*
X115122Y169327D01*
X115778Y170181D01*
X115920Y170524D01*
X116420Y170424D01*
Y164064D01*
X115920Y163965D01*
X115778Y164307D01*
X115122Y165162D01*
X114268Y165817D01*
X113273Y166229D01*
X112205Y166370D01*
X111137Y166229D01*
X110142Y165817D01*
X109287Y165162D01*
X108632Y164307D01*
X108220Y163312D01*
X108079Y162244D01*
X108220Y161176D01*
X108632Y160181D01*
X109287Y159327D01*
X110142Y158671D01*
X111137Y158259D01*
X112205Y158118D01*
X113273Y158259D01*
X114268Y158671D01*
X115122Y159327D01*
X115778Y160181D01*
X115920Y160524D01*
X116420Y160424D01*
Y149862D01*
X114586Y148029D01*
X107874D01*
X107528Y147960D01*
X107309Y147814D01*
X106809Y147958D01*
Y183760D01*
X109429Y186380D01*
X110195D01*
X110294Y185880D01*
X110142Y185817D01*
X109287Y185161D01*
X108632Y184307D01*
X108220Y183312D01*
X108079Y182244D01*
X108220Y181176D01*
X108632Y180181D01*
X109287Y179327D01*
X110142Y178671D01*
X111137Y178259D01*
X112205Y178118D01*
X113273Y178259D01*
X114268Y178671D01*
X115122Y179327D01*
X115778Y180181D01*
X116190Y181176D01*
X116331Y182244D01*
X116190Y183312D01*
X115778Y184307D01*
X115122Y185161D01*
X114268Y185817D01*
X114115Y185880D01*
X114215Y186380D01*
X115354D01*
X115700Y186449D01*
X115993Y186645D01*
X117962Y188613D01*
X118157Y188906D01*
X118226Y189252D01*
Y196927D01*
X118339Y197033D01*
X118696Y197320D01*
X119055Y197563D01*
X119415Y197764D01*
X119777Y197924D01*
X120141Y198044D01*
X120510Y198125D01*
X120885Y198168D01*
X121267Y198173D01*
X121690Y198138D01*
X121717Y198146D01*
X121744Y198135D01*
X121824Y198168D01*
X122205Y198118D01*
X123273Y198259D01*
X124268Y198671D01*
X125122Y199327D01*
X125778Y200181D01*
X126190Y201176D01*
X126331Y202244D01*
X126190Y203312D01*
X125778Y204307D01*
X125122Y205161D01*
X124268Y205817D01*
X123273Y206229D01*
X122205Y206370D01*
X121137Y206229D01*
X120142Y205817D01*
X119287Y205161D01*
X118726Y204430D01*
X118226Y204578D01*
Y206927D01*
X118339Y207033D01*
X118696Y207320D01*
X119055Y207563D01*
X119415Y207764D01*
X119777Y207924D01*
X120141Y208044D01*
X120510Y208125D01*
X120885Y208168D01*
X121267Y208173D01*
X121690Y208138D01*
X121717Y208146D01*
X121744Y208135D01*
X121824Y208168D01*
X122205Y208118D01*
X123273Y208259D01*
X124268Y208671D01*
X125122Y209327D01*
X125778Y210181D01*
X126190Y211176D01*
X126331Y212244D01*
X126190Y213312D01*
X125778Y214307D01*
X125122Y215161D01*
X124268Y215817D01*
X123273Y216229D01*
X122205Y216370D01*
X121137Y216229D01*
X120142Y215817D01*
X119287Y215161D01*
X118726Y214430D01*
X118226Y214578D01*
Y216927D01*
X118339Y217033D01*
X118696Y217320D01*
X119055Y217563D01*
X119415Y217764D01*
X119777Y217924D01*
X120141Y218044D01*
X120510Y218125D01*
X120885Y218168D01*
X121267Y218174D01*
X121690Y218138D01*
X121717Y218146D01*
X121744Y218135D01*
X121824Y218168D01*
X122205Y218118D01*
X123273Y218259D01*
X124268Y218671D01*
X125122Y219327D01*
X125778Y220181D01*
X126190Y221176D01*
X126331Y222244D01*
X126190Y223312D01*
X125778Y224307D01*
X125122Y225162D01*
X124268Y225817D01*
X123273Y226229D01*
X122205Y226370D01*
D02*
G37*
G36*
X97807Y220280D02*
X96232D01*
X95513Y220185D01*
X94842Y219907D01*
X94267Y219465D01*
X93825Y218890D01*
X93547Y218219D01*
X93453Y217500D01*
X93547Y216781D01*
X93825Y216110D01*
X94267Y215534D01*
X94842Y215093D01*
X95513Y214815D01*
X96232Y214720D01*
X97807D01*
X98527Y214815D01*
X99197Y215093D01*
X99773Y215534D01*
X100214Y216110D01*
X100492Y216781D01*
X100587Y217500D01*
X100492Y218219D01*
X100214Y218890D01*
X99773Y219465D01*
X99197Y219907D01*
X98527Y220185D01*
X97807Y220280D01*
D02*
G37*
G36*
X7807D02*
X6232D01*
X5513Y220185D01*
X4843Y219907D01*
X4267Y219465D01*
X3825Y218890D01*
X3547Y218219D01*
X3453Y217500D01*
X3547Y216781D01*
X3825Y216110D01*
X4267Y215534D01*
X4843Y215093D01*
X5513Y214815D01*
X6232Y214720D01*
X7807D01*
X8527Y214815D01*
X9197Y215093D01*
X9773Y215534D01*
X10214Y216110D01*
X10492Y216781D01*
X10587Y217500D01*
X10492Y218219D01*
X10214Y218890D01*
X9773Y219465D01*
X9197Y219907D01*
X8527Y220185D01*
X7807Y220280D01*
D02*
G37*
G36*
Y210280D02*
X6232D01*
X5513Y210185D01*
X4843Y209907D01*
X4267Y209466D01*
X3825Y208890D01*
X3547Y208219D01*
X3453Y207500D01*
X3547Y206781D01*
X3825Y206110D01*
X4267Y205535D01*
X4843Y205093D01*
X5513Y204815D01*
X6232Y204720D01*
X7807D01*
X8527Y204815D01*
X9197Y205093D01*
X9773Y205535D01*
X10214Y206110D01*
X10492Y206781D01*
X10587Y207500D01*
X10492Y208219D01*
X10214Y208890D01*
X9773Y209466D01*
X9197Y209907D01*
X8527Y210185D01*
X7807Y210280D01*
D02*
G37*
G36*
Y200280D02*
X6232D01*
X5513Y200185D01*
X4843Y199907D01*
X4267Y199466D01*
X3825Y198890D01*
X3547Y198219D01*
X3453Y197500D01*
X3547Y196781D01*
X3825Y196110D01*
X4267Y195535D01*
X4843Y195093D01*
X5513Y194815D01*
X6232Y194720D01*
X7807D01*
X8527Y194815D01*
X9197Y195093D01*
X9773Y195535D01*
X10214Y196110D01*
X10492Y196781D01*
X10587Y197500D01*
X10492Y198219D01*
X10214Y198890D01*
X9773Y199466D01*
X9197Y199907D01*
X8527Y200185D01*
X7807Y200280D01*
D02*
G37*
G36*
Y190280D02*
X6232D01*
X5513Y190185D01*
X4843Y189907D01*
X4267Y189465D01*
X3825Y188890D01*
X3547Y188219D01*
X3453Y187500D01*
X3547Y186781D01*
X3825Y186110D01*
X4267Y185535D01*
X4843Y185093D01*
X5513Y184815D01*
X6232Y184720D01*
X7807D01*
X8527Y184815D01*
X9197Y185093D01*
X9773Y185535D01*
X10214Y186110D01*
X10492Y186781D01*
X10587Y187500D01*
X10492Y188219D01*
X10214Y188890D01*
X9773Y189465D01*
X9197Y189907D01*
X8527Y190185D01*
X7807Y190280D01*
D02*
G37*
G36*
X57973Y180720D02*
X57358Y180598D01*
X56837Y180250D01*
X56489Y179729D01*
X56367Y179114D01*
X56489Y178500D01*
X56837Y177979D01*
X57358Y177631D01*
X57973Y177508D01*
X58587Y177631D01*
X59108Y177979D01*
X59456Y178500D01*
X59578Y179114D01*
X59456Y179729D01*
X59108Y180250D01*
X58587Y180598D01*
X57973Y180720D01*
D02*
G37*
G36*
X49606Y179539D02*
X48992Y179417D01*
X48471Y179069D01*
X48123Y178548D01*
X48001Y177933D01*
X48123Y177319D01*
X48471Y176798D01*
X48992Y176450D01*
X49606Y176327D01*
X50221Y176450D01*
X50742Y176798D01*
X51090Y177319D01*
X51212Y177933D01*
X51090Y178548D01*
X50742Y179069D01*
X50221Y179417D01*
X49606Y179539D01*
D02*
G37*
G36*
X7807Y180280D02*
X6232D01*
X5513Y180185D01*
X4843Y179907D01*
X4267Y179465D01*
X3825Y178890D01*
X3547Y178219D01*
X3453Y177500D01*
X3547Y176781D01*
X3825Y176110D01*
X4267Y175534D01*
X4843Y175093D01*
X5513Y174815D01*
X6232Y174720D01*
X7807D01*
X8527Y174815D01*
X9197Y175093D01*
X9773Y175534D01*
X10214Y176110D01*
X10492Y176781D01*
X10587Y177500D01*
X10492Y178219D01*
X10214Y178890D01*
X9773Y179465D01*
X9197Y179907D01*
X8527Y180185D01*
X7807Y180280D01*
D02*
G37*
G36*
X88583Y168023D02*
X87968Y167901D01*
X87447Y167553D01*
X87099Y167032D01*
X86977Y166417D01*
X87099Y165803D01*
X87447Y165282D01*
Y164797D01*
X87099Y164276D01*
X86977Y163661D01*
X87099Y163047D01*
X87447Y162526D01*
Y162041D01*
X87099Y161520D01*
X86977Y160906D01*
X87099Y160291D01*
X87447Y159770D01*
Y159285D01*
X87099Y158764D01*
X86977Y158150D01*
X87099Y157535D01*
X87447Y157014D01*
X87968Y156666D01*
X88583Y156544D01*
X89197Y156666D01*
X89718Y157014D01*
X90066Y157535D01*
X90188Y158150D01*
X90066Y158764D01*
X89718Y159285D01*
Y159770D01*
X90066Y160291D01*
X90188Y160906D01*
X90066Y161520D01*
X89718Y162041D01*
Y162526D01*
X90066Y163047D01*
X90188Y163661D01*
X90066Y164276D01*
X89718Y164797D01*
Y165282D01*
X90066Y165803D01*
X90188Y166417D01*
X90066Y167032D01*
X89718Y167553D01*
X89197Y167901D01*
X88583Y168023D01*
D02*
G37*
G36*
X7807Y160280D02*
X6232D01*
X5513Y160185D01*
X4843Y159907D01*
X4267Y159466D01*
X3825Y158890D01*
X3547Y158219D01*
X3453Y157500D01*
X3547Y156781D01*
X3825Y156110D01*
X4267Y155535D01*
X4843Y155093D01*
X5513Y154815D01*
X6232Y154720D01*
X7807D01*
X8527Y154815D01*
X9197Y155093D01*
X9773Y155535D01*
X10214Y156110D01*
X10492Y156781D01*
X10587Y157500D01*
X10492Y158219D01*
X10214Y158890D01*
X9773Y159466D01*
X9197Y159907D01*
X8527Y160185D01*
X7807Y160280D01*
D02*
G37*
G36*
Y150280D02*
X6232D01*
X5513Y150185D01*
X4843Y149907D01*
X4267Y149466D01*
X3825Y148890D01*
X3547Y148219D01*
X3453Y147500D01*
X3547Y146781D01*
X3825Y146110D01*
X4267Y145535D01*
X4843Y145093D01*
X5513Y144815D01*
X6232Y144720D01*
X7807D01*
X8527Y144815D01*
X9197Y145093D01*
X9773Y145535D01*
X10214Y146110D01*
X10492Y146781D01*
X10587Y147500D01*
X10492Y148219D01*
X10214Y148890D01*
X9773Y149466D01*
X9197Y149907D01*
X8527Y150185D01*
X7807Y150280D01*
D02*
G37*
G36*
Y140280D02*
X6232D01*
X5513Y140185D01*
X4843Y139907D01*
X4267Y139465D01*
X3825Y138890D01*
X3547Y138219D01*
X3453Y137500D01*
X3547Y136781D01*
X3825Y136110D01*
X4267Y135535D01*
X4843Y135093D01*
X5513Y134815D01*
X6232Y134720D01*
X7807D01*
X8527Y134815D01*
X9197Y135093D01*
X9773Y135535D01*
X10214Y136110D01*
X10492Y136781D01*
X10587Y137500D01*
X10492Y138219D01*
X10214Y138890D01*
X9773Y139465D01*
X9197Y139907D01*
X8527Y140185D01*
X7807Y140280D01*
D02*
G37*
G36*
X122205Y136370D02*
X121137Y136229D01*
X120142Y135817D01*
X119287Y135161D01*
X118632Y134307D01*
X118219Y133312D01*
X118079Y132244D01*
X118219Y131176D01*
X118632Y130181D01*
X119287Y129327D01*
X120142Y128671D01*
X121137Y128259D01*
X122205Y128118D01*
X123273Y128259D01*
X124268Y128671D01*
X125122Y129327D01*
X125778Y130181D01*
X126190Y131176D01*
X126331Y132244D01*
X126190Y133312D01*
X125778Y134307D01*
X125122Y135161D01*
X124268Y135817D01*
X123273Y136229D01*
X122205Y136370D01*
D02*
G37*
G36*
X7807Y130280D02*
X6232D01*
X5513Y130185D01*
X4843Y129907D01*
X4267Y129465D01*
X3825Y128890D01*
X3547Y128219D01*
X3453Y127500D01*
X3547Y126781D01*
X3825Y126110D01*
X4267Y125534D01*
X4843Y125093D01*
X5513Y124815D01*
X6232Y124720D01*
X7807D01*
X8527Y124815D01*
X9197Y125093D01*
X9773Y125534D01*
X10214Y126110D01*
X10492Y126781D01*
X10587Y127500D01*
X10492Y128219D01*
X10214Y128890D01*
X9773Y129465D01*
X9197Y129907D01*
X8527Y130185D01*
X7807Y130280D01*
D02*
G37*
G36*
X12205Y120779D02*
X11590Y120657D01*
X11069Y120309D01*
X10721Y119788D01*
X10605Y119202D01*
X10502Y119140D01*
X10122Y119011D01*
X9773Y119465D01*
X9197Y119907D01*
X8527Y120185D01*
X7807Y120280D01*
X6232D01*
X5513Y120185D01*
X4843Y119907D01*
X4267Y119465D01*
X3825Y118890D01*
X3547Y118219D01*
X3453Y117500D01*
X3547Y116781D01*
X3825Y116110D01*
X4267Y115534D01*
X4843Y115093D01*
X5513Y114815D01*
X6232Y114720D01*
X7807D01*
X8527Y114815D01*
X9197Y115093D01*
X9773Y115534D01*
X10121Y115989D01*
X10626Y115874D01*
X10629Y115872D01*
X10721Y115409D01*
X11069Y114888D01*
X11590Y114540D01*
X12205Y114418D01*
X12819Y114540D01*
X13340Y114888D01*
X13688Y115409D01*
X13810Y116024D01*
X13688Y116638D01*
X13340Y117159D01*
X13132Y117298D01*
Y117899D01*
X13340Y118038D01*
X13688Y118559D01*
X13810Y119173D01*
X13688Y119788D01*
X13340Y120309D01*
X12819Y120657D01*
X12205Y120779D01*
D02*
G37*
G36*
X80315Y119992D02*
X79700Y119869D01*
X79180Y119521D01*
X78831Y119000D01*
X78709Y118386D01*
X78831Y117771D01*
X79180Y117251D01*
X79700Y116902D01*
X80315Y116780D01*
X80327Y116782D01*
X80680Y116429D01*
X80678Y116417D01*
X80800Y115803D01*
X81148Y115282D01*
X81669Y114934D01*
X82284Y114812D01*
X82898Y114934D01*
X83419Y115282D01*
X83767Y115803D01*
X83889Y116417D01*
X83767Y117032D01*
X83419Y117553D01*
X82898Y117901D01*
X82284Y118023D01*
X82272Y118021D01*
X81918Y118374D01*
X81921Y118386D01*
X81798Y119000D01*
X81450Y119521D01*
X80929Y119869D01*
X80315Y119992D01*
D02*
G37*
G36*
X51181D02*
X50567Y119869D01*
X50046Y119521D01*
X49698Y119000D01*
X49575Y118386D01*
X49698Y117771D01*
X50046Y117251D01*
X50567Y116902D01*
X51181Y116780D01*
X51513Y116846D01*
X51943Y116446D01*
X51938Y116417D01*
X52060Y115803D01*
X52408Y115282D01*
X52929Y114934D01*
X53543Y114812D01*
X54158Y114934D01*
X54679Y115282D01*
X55027Y115803D01*
X55149Y116417D01*
X55027Y117032D01*
X54679Y117553D01*
X54158Y117901D01*
X53543Y118023D01*
X53211Y117957D01*
X52781Y118358D01*
X52787Y118386D01*
X52665Y119000D01*
X52316Y119521D01*
X51796Y119869D01*
X51181Y119992D01*
D02*
G37*
G36*
Y114086D02*
X50567Y113964D01*
X50046Y113616D01*
X49698Y113095D01*
X49575Y112480D01*
X49698Y111866D01*
X50046Y111345D01*
X50567Y110997D01*
X51181Y110875D01*
X51513Y110941D01*
X51943Y110540D01*
X51938Y110512D01*
X52060Y109897D01*
X52408Y109376D01*
X52929Y109028D01*
X53543Y108906D01*
X54158Y109028D01*
X54679Y109376D01*
X55027Y109897D01*
X55149Y110512D01*
X55027Y111126D01*
X54679Y111647D01*
X54158Y111995D01*
X53543Y112118D01*
X53211Y112051D01*
X52781Y112452D01*
X52787Y112480D01*
X52665Y113095D01*
X52316Y113616D01*
X51796Y113964D01*
X51181Y114086D01*
D02*
G37*
G36*
X82284Y108180D02*
X81669Y108058D01*
X81148Y107710D01*
X80800Y107189D01*
X80678Y106575D01*
X80680Y106563D01*
X80327Y106210D01*
X80315Y106212D01*
X79700Y106090D01*
X79180Y105742D01*
X78831Y105221D01*
X78709Y104606D01*
X78831Y103992D01*
X79180Y103471D01*
X79700Y103123D01*
X80315Y103001D01*
X80929Y103123D01*
X81450Y103471D01*
X81798Y103992D01*
X81921Y104606D01*
X81918Y104618D01*
X82272Y104972D01*
X82284Y104969D01*
X82898Y105091D01*
X83419Y105439D01*
X83767Y105960D01*
X83889Y106575D01*
X83767Y107189D01*
X83419Y107710D01*
X82898Y108058D01*
X82284Y108180D01*
D02*
G37*
G36*
X7807Y110280D02*
X6232D01*
X5513Y110185D01*
X4843Y109907D01*
X4267Y109466D01*
X3825Y108890D01*
X3547Y108219D01*
X3453Y107500D01*
X3547Y106781D01*
X3825Y106110D01*
X4267Y105535D01*
X4843Y105093D01*
X5513Y104815D01*
X6232Y104720D01*
X7807D01*
X8527Y104815D01*
X9197Y105093D01*
X9773Y105535D01*
X10214Y106110D01*
X10492Y106781D01*
X10587Y107500D01*
X10492Y108219D01*
X10214Y108890D01*
X9773Y109466D01*
X9197Y109907D01*
X8527Y110185D01*
X7807Y110280D01*
D02*
G37*
G36*
X24016Y107787D02*
X23401Y107665D01*
X22880Y107317D01*
X22532Y106796D01*
X22410Y106181D01*
X22532Y105567D01*
X22880Y105046D01*
X23401Y104698D01*
X24016Y104576D01*
X24630Y104698D01*
X25151Y105046D01*
X25499Y105567D01*
X25621Y106181D01*
X25499Y106796D01*
X25151Y107317D01*
X24630Y107665D01*
X24016Y107787D01*
D02*
G37*
G36*
X51181Y108180D02*
X50567Y108058D01*
X50046Y107710D01*
X49698Y107189D01*
X49575Y106575D01*
X49698Y105960D01*
X50046Y105439D01*
X50567Y105091D01*
X51181Y104969D01*
X51513Y105035D01*
X51943Y104634D01*
X51938Y104606D01*
X52060Y103992D01*
X52408Y103471D01*
X52929Y103123D01*
X53543Y103001D01*
X54158Y103123D01*
X54679Y103471D01*
X55027Y103992D01*
X55149Y104606D01*
X55027Y105221D01*
X54679Y105742D01*
X54158Y106090D01*
X53543Y106212D01*
X53211Y106146D01*
X52781Y106547D01*
X52787Y106575D01*
X52665Y107189D01*
X52316Y107710D01*
X51796Y108058D01*
X51181Y108180D01*
D02*
G37*
G36*
X82284Y102275D02*
X81669Y102153D01*
X81148Y101805D01*
X80800Y101284D01*
X80678Y100669D01*
X80680Y100658D01*
X80327Y100304D01*
X80315Y100306D01*
X79700Y100184D01*
X79180Y99836D01*
X78831Y99315D01*
X78709Y98701D01*
X78831Y98086D01*
X79180Y97565D01*
X79700Y97217D01*
X80315Y97095D01*
X80327Y97097D01*
X80680Y96744D01*
X80678Y96732D01*
X80680Y96721D01*
X80327Y96367D01*
X80315Y96369D01*
X79700Y96247D01*
X79180Y95899D01*
X78831Y95378D01*
X78709Y94764D01*
X78831Y94149D01*
X79180Y93628D01*
X79700Y93280D01*
X80315Y93158D01*
X80929Y93280D01*
X81450Y93628D01*
X81798Y94149D01*
X81921Y94764D01*
X81918Y94775D01*
X82272Y95129D01*
X82284Y95127D01*
X82898Y95249D01*
X83419Y95597D01*
X83767Y96118D01*
X83889Y96732D01*
X83767Y97347D01*
X83419Y97868D01*
X82898Y98216D01*
X82284Y98338D01*
X82272Y98336D01*
X81918Y98689D01*
X81921Y98701D01*
X81918Y98712D01*
X82272Y99066D01*
X82284Y99064D01*
X82898Y99186D01*
X83419Y99534D01*
X83767Y100055D01*
X83889Y100669D01*
X83767Y101284D01*
X83419Y101805D01*
X82898Y102153D01*
X82284Y102275D01*
D02*
G37*
G36*
X51181D02*
X50567Y102153D01*
X50046Y101805D01*
X49698Y101284D01*
X49575Y100669D01*
X49698Y100055D01*
X50046Y99534D01*
X50567Y99186D01*
X51181Y99064D01*
X51796Y99186D01*
X51937Y99280D01*
X52387Y98980D01*
X52331Y98701D01*
X52387Y98422D01*
X51937Y98121D01*
X51796Y98216D01*
X51181Y98338D01*
X50567Y98216D01*
X50046Y97868D01*
X49698Y97347D01*
X49575Y96732D01*
X49698Y96118D01*
X50046Y95597D01*
X50567Y95249D01*
X51181Y95127D01*
X51513Y95193D01*
X51943Y94792D01*
X51938Y94764D01*
X52060Y94149D01*
X52408Y93628D01*
X52929Y93280D01*
X53543Y93158D01*
X54158Y93280D01*
X54679Y93628D01*
X55027Y94149D01*
X55149Y94764D01*
X55027Y95378D01*
X54679Y95899D01*
X54158Y96247D01*
X53543Y96369D01*
X53311Y96323D01*
X52919Y96664D01*
X52923Y96883D01*
X53093Y97025D01*
X53401Y97202D01*
X53937Y97095D01*
X54552Y97217D01*
X55072Y97565D01*
X55420Y98086D01*
X55543Y98701D01*
X55420Y99315D01*
X55072Y99836D01*
X54552Y100184D01*
X53937Y100306D01*
X53323Y100184D01*
X53181Y100090D01*
X52731Y100391D01*
X52787Y100669D01*
X52665Y101284D01*
X52316Y101805D01*
X51796Y102153D01*
X51181Y102275D01*
D02*
G37*
G36*
X112205Y96370D02*
X111137Y96229D01*
X110142Y95817D01*
X109287Y95161D01*
X108632Y94307D01*
X108220Y93312D01*
X108079Y92244D01*
X108220Y91176D01*
X108632Y90181D01*
X109287Y89327D01*
X110142Y88671D01*
X111137Y88259D01*
X112205Y88118D01*
X113273Y88259D01*
X114268Y88671D01*
X115122Y89327D01*
X115778Y90181D01*
X116190Y91176D01*
X116331Y92244D01*
X116190Y93312D01*
X115778Y94307D01*
X115122Y95161D01*
X114268Y95817D01*
X113273Y96229D01*
X112205Y96370D01*
D02*
G37*
G36*
X51181Y92432D02*
X50567Y92310D01*
X50046Y91962D01*
X49698Y91441D01*
X49575Y90827D01*
X49698Y90212D01*
X50046Y89691D01*
X50567Y89343D01*
X51181Y89221D01*
X51513Y89287D01*
X51943Y88886D01*
X51938Y88858D01*
X52060Y88244D01*
X52408Y87723D01*
X52929Y87375D01*
X53543Y87253D01*
X54158Y87375D01*
X54679Y87723D01*
X55027Y88244D01*
X55149Y88858D01*
X55027Y89473D01*
X54679Y89994D01*
X54158Y90342D01*
X53543Y90464D01*
X53211Y90398D01*
X52781Y90799D01*
X52787Y90827D01*
X52665Y91441D01*
X52316Y91962D01*
X51796Y92310D01*
X51181Y92432D01*
D02*
G37*
G36*
X23622Y89676D02*
X23008Y89554D01*
X22487Y89206D01*
X22139Y88685D01*
X22016Y88071D01*
X22139Y87456D01*
X22487Y86936D01*
X23008Y86588D01*
X23622Y86465D01*
X24237Y86588D01*
X24757Y86936D01*
X25106Y87456D01*
X25228Y88071D01*
X25106Y88685D01*
X24757Y89206D01*
X24237Y89554D01*
X23622Y89676D01*
D02*
G37*
G36*
X51181Y86527D02*
X50567Y86405D01*
X50046Y86057D01*
X49698Y85536D01*
X49575Y84921D01*
X49698Y84307D01*
X50046Y83786D01*
X50567Y83438D01*
X51181Y83316D01*
X51513Y83382D01*
X51943Y82981D01*
X51938Y82953D01*
X52060Y82338D01*
X52408Y81817D01*
X52929Y81469D01*
X53543Y81347D01*
X54158Y81469D01*
X54679Y81817D01*
X55027Y82338D01*
X55149Y82953D01*
X55027Y83567D01*
X54679Y84088D01*
X54158Y84436D01*
X53543Y84558D01*
X53211Y84492D01*
X52781Y84893D01*
X52787Y84921D01*
X52665Y85536D01*
X52316Y86057D01*
X51796Y86405D01*
X51181Y86527D01*
D02*
G37*
G36*
X82284Y80621D02*
X81669Y80499D01*
X81148Y80151D01*
X80800Y79630D01*
X80678Y79016D01*
X80680Y79004D01*
X80327Y78651D01*
X80315Y78653D01*
X79700Y78531D01*
X79180Y78183D01*
X78831Y77662D01*
X78709Y77047D01*
X78831Y76433D01*
X79180Y75912D01*
X79700Y75564D01*
X80315Y75442D01*
X80929Y75564D01*
X81450Y75912D01*
X81798Y76433D01*
X81921Y77047D01*
X81918Y77059D01*
X82272Y77412D01*
X82284Y77410D01*
X82898Y77532D01*
X83419Y77880D01*
X83767Y78401D01*
X83889Y79016D01*
X83767Y79630D01*
X83419Y80151D01*
X82898Y80499D01*
X82284Y80621D01*
D02*
G37*
G36*
X22835Y68810D02*
X22220Y68688D01*
X21699Y68340D01*
X21351Y67819D01*
X21229Y67205D01*
X21351Y66590D01*
X21699Y66069D01*
X22220Y65721D01*
X22835Y65599D01*
X23449Y65721D01*
X23970Y66069D01*
X24318Y66590D01*
X24440Y67205D01*
X24318Y67819D01*
X23970Y68340D01*
X23449Y68688D01*
X22835Y68810D01*
D02*
G37*
G36*
X97807Y70280D02*
X96232D01*
X95513Y70185D01*
X94842Y69907D01*
X94267Y69466D01*
X93825Y68890D01*
X93547Y68219D01*
X93453Y67500D01*
X93547Y66781D01*
X93825Y66110D01*
X94267Y65535D01*
X94842Y65093D01*
X95513Y64815D01*
X96232Y64720D01*
X97807D01*
X98527Y64815D01*
X99197Y65093D01*
X99773Y65535D01*
X100214Y66110D01*
X100492Y66781D01*
X100587Y67500D01*
X100492Y68219D01*
X100214Y68890D01*
X99773Y69466D01*
X99197Y69907D01*
X98527Y70185D01*
X97807Y70280D01*
D02*
G37*
G36*
X7807D02*
X6232D01*
X5513Y70185D01*
X4843Y69907D01*
X4267Y69466D01*
X3825Y68890D01*
X3547Y68219D01*
X3453Y67500D01*
X3547Y66781D01*
X3825Y66110D01*
X4267Y65535D01*
X4843Y65093D01*
X5513Y64815D01*
X6232Y64720D01*
X7807D01*
X8527Y64815D01*
X9197Y65093D01*
X9773Y65535D01*
X10214Y66110D01*
X10492Y66781D01*
X10587Y67500D01*
X10492Y68219D01*
X10214Y68890D01*
X9773Y69466D01*
X9197Y69907D01*
X8527Y70185D01*
X7807Y70280D01*
D02*
G37*
G36*
X79134Y66448D02*
X78519Y66326D01*
X77999Y65978D01*
X77650Y65457D01*
X77528Y64842D01*
X77650Y64228D01*
X77999Y63707D01*
X78519Y63359D01*
X79134Y63237D01*
X79748Y63359D01*
X79824Y63410D01*
X80380Y63180D01*
X80406Y63047D01*
X80754Y62526D01*
X81275Y62178D01*
X81890Y62056D01*
X82504Y62178D01*
X83025Y62526D01*
X83373Y63047D01*
X83495Y63661D01*
X83373Y64276D01*
X83025Y64797D01*
X82504Y65145D01*
X81890Y65267D01*
X81275Y65145D01*
X81199Y65094D01*
X80644Y65324D01*
X80617Y65457D01*
X80269Y65978D01*
X79748Y66326D01*
X79134Y66448D01*
D02*
G37*
G36*
X74803Y65267D02*
X74189Y65145D01*
X73668Y64797D01*
X73320Y64276D01*
X73198Y63661D01*
X73320Y63047D01*
X73668Y62526D01*
X74189Y62178D01*
X74803Y62056D01*
X75418Y62178D01*
X75938Y62526D01*
X76287Y63047D01*
X76409Y63661D01*
X76287Y64276D01*
X75938Y64797D01*
X75418Y65145D01*
X74803Y65267D01*
D02*
G37*
G36*
X63779Y67236D02*
X63165Y67113D01*
X62644Y66765D01*
X62296Y66244D01*
X62174Y65630D01*
X62296Y65016D01*
X62644Y64495D01*
X63165Y64147D01*
X63779Y64024D01*
X64112Y64090D01*
X64542Y63690D01*
X64536Y63661D01*
X64658Y63047D01*
X65006Y62526D01*
X65527Y62178D01*
X66142Y62056D01*
X66756Y62178D01*
X67277Y62526D01*
X67625Y63047D01*
X67747Y63661D01*
X67625Y64276D01*
X67277Y64797D01*
X66756Y65145D01*
X66142Y65267D01*
X65810Y65201D01*
X65380Y65602D01*
X65385Y65630D01*
X65263Y66244D01*
X64915Y66765D01*
X64394Y67113D01*
X63779Y67236D01*
D02*
G37*
G36*
X24016Y65267D02*
X23401Y65145D01*
X22880Y64797D01*
X22532Y64276D01*
X22410Y63661D01*
X22532Y63047D01*
X22880Y62526D01*
X23401Y62178D01*
X24016Y62056D01*
X24630Y62178D01*
X25151Y62526D01*
X25499Y63047D01*
X25621Y63661D01*
X25499Y64276D01*
X25151Y64797D01*
X24630Y65145D01*
X24016Y65267D01*
D02*
G37*
G36*
X80315Y61330D02*
X79700Y61208D01*
X79180Y60860D01*
X78831Y60339D01*
X78709Y59724D01*
X78831Y59110D01*
X79180Y58589D01*
X79700Y58241D01*
X80243Y58133D01*
X80420Y58028D01*
X80680Y57767D01*
X80678Y57756D01*
X80800Y57142D01*
X81148Y56621D01*
X81669Y56273D01*
X82284Y56150D01*
X82898Y56273D01*
X83419Y56621D01*
X83767Y57142D01*
X83889Y57756D01*
X83767Y58370D01*
X83419Y58891D01*
X82898Y59239D01*
X82284Y59362D01*
X82272Y59359D01*
X81918Y59713D01*
X81921Y59724D01*
X81798Y60339D01*
X81450Y60860D01*
X80929Y61208D01*
X80315Y61330D01*
D02*
G37*
G36*
X24016D02*
X23401Y61208D01*
X22880Y60860D01*
X22532Y60339D01*
X22410Y59724D01*
X22532Y59110D01*
X22880Y58589D01*
X23401Y58241D01*
X24016Y58119D01*
X24348Y58185D01*
X24778Y57784D01*
X24772Y57756D01*
X24894Y57142D01*
X25243Y56621D01*
X25763Y56273D01*
X26378Y56150D01*
X26992Y56273D01*
X27513Y56621D01*
X27861Y57142D01*
X27984Y57756D01*
X27861Y58370D01*
X27513Y58891D01*
X26992Y59239D01*
X26378Y59362D01*
X26046Y59295D01*
X25616Y59696D01*
X25621Y59724D01*
X25499Y60339D01*
X25151Y60860D01*
X24630Y61208D01*
X24016Y61330D01*
D02*
G37*
G36*
X97807Y60280D02*
X96232D01*
X95513Y60185D01*
X94842Y59907D01*
X94267Y59465D01*
X93825Y58890D01*
X93547Y58219D01*
X93453Y57500D01*
X93547Y56781D01*
X93825Y56110D01*
X94267Y55534D01*
X94842Y55093D01*
X95513Y54815D01*
X96232Y54720D01*
X97807D01*
X98527Y54815D01*
X99197Y55093D01*
X99773Y55534D01*
X100214Y56110D01*
X100492Y56781D01*
X100587Y57500D01*
X100492Y58219D01*
X100214Y58890D01*
X99773Y59465D01*
X99197Y59907D01*
X98527Y60185D01*
X97807Y60280D01*
D02*
G37*
G36*
X7807D02*
X6232D01*
X5513Y60185D01*
X4843Y59907D01*
X4267Y59465D01*
X3825Y58890D01*
X3547Y58219D01*
X3453Y57500D01*
X3547Y56781D01*
X3825Y56110D01*
X4267Y55534D01*
X4843Y55093D01*
X5513Y54815D01*
X6232Y54720D01*
X7807D01*
X8527Y54815D01*
X9197Y55093D01*
X9773Y55534D01*
X10214Y56110D01*
X10492Y56781D01*
X10587Y57500D01*
X10492Y58219D01*
X10214Y58890D01*
X9773Y59465D01*
X9197Y59907D01*
X8527Y60185D01*
X7807Y60280D01*
D02*
G37*
G36*
X63779Y61330D02*
X63165Y61208D01*
X62644Y60860D01*
X62296Y60339D01*
X62174Y59724D01*
X62296Y59110D01*
X62644Y58589D01*
X63165Y58241D01*
X63779Y58119D01*
X64112Y58185D01*
X64542Y57784D01*
X64536Y57756D01*
X64658Y57142D01*
X65006Y56621D01*
X65527Y56273D01*
X66142Y56150D01*
X66170Y56156D01*
X66571Y55726D01*
X66505Y55394D01*
X66627Y54779D01*
X66975Y54258D01*
X67496Y53910D01*
X68110Y53788D01*
X68725Y53910D01*
X69246Y54258D01*
X69594Y54779D01*
X69716Y55394D01*
X69594Y56008D01*
X69246Y56529D01*
X68725Y56877D01*
X68110Y56999D01*
X68082Y56994D01*
X67681Y57424D01*
X67747Y57756D01*
X67625Y58370D01*
X67277Y58891D01*
X66756Y59239D01*
X66142Y59362D01*
X65810Y59295D01*
X65380Y59696D01*
X65385Y59724D01*
X65263Y60339D01*
X64915Y60860D01*
X64394Y61208D01*
X63779Y61330D01*
D02*
G37*
G36*
X12598Y56606D02*
X11984Y56484D01*
X11463Y56135D01*
X11115Y55615D01*
X10993Y55000D01*
X11115Y54386D01*
X11463Y53865D01*
X11984Y53517D01*
X12598Y53394D01*
X13213Y53517D01*
X13734Y53865D01*
X14082Y54386D01*
X14204Y55000D01*
X14082Y55615D01*
X13734Y56135D01*
X13213Y56484D01*
X12598Y56606D01*
D02*
G37*
G36*
X78347Y55818D02*
X77732Y55696D01*
X77211Y55348D01*
X76863Y54827D01*
X76741Y54213D01*
X76863Y53598D01*
X77211Y53077D01*
X77732Y52729D01*
X78347Y52607D01*
X78961Y52729D01*
X79482Y53077D01*
X79830Y53598D01*
X79952Y54213D01*
X79830Y54827D01*
X79482Y55348D01*
X78961Y55696D01*
X78347Y55818D01*
D02*
G37*
G36*
X63779Y55425D02*
X63165Y55302D01*
X62644Y54954D01*
X62296Y54433D01*
X62174Y53819D01*
X62296Y53204D01*
X62644Y52684D01*
X63165Y52336D01*
X63779Y52213D01*
X64112Y52279D01*
X64542Y51879D01*
X64536Y51850D01*
X64658Y51236D01*
X65006Y50715D01*
X65527Y50367D01*
X66142Y50245D01*
X66756Y50367D01*
X67277Y50715D01*
X67625Y51236D01*
X67747Y51850D01*
X67625Y52465D01*
X67277Y52986D01*
X66756Y53334D01*
X66142Y53456D01*
X65810Y53390D01*
X65380Y53791D01*
X65385Y53819D01*
X65263Y54433D01*
X64915Y54954D01*
X64394Y55302D01*
X63779Y55425D01*
D02*
G37*
G36*
X24016D02*
X23401Y55302D01*
X22880Y54954D01*
X22532Y54433D01*
X22410Y53819D01*
X22532Y53204D01*
X22880Y52684D01*
X23401Y52336D01*
X24016Y52213D01*
X24348Y52279D01*
X24778Y51879D01*
X24772Y51850D01*
X24894Y51236D01*
X25243Y50715D01*
X25763Y50367D01*
X26378Y50245D01*
X26992Y50367D01*
X27513Y50715D01*
X27861Y51236D01*
X27984Y51850D01*
X27861Y52465D01*
X27513Y52986D01*
X26992Y53334D01*
X26378Y53456D01*
X26046Y53390D01*
X25616Y53791D01*
X25621Y53819D01*
X25499Y54433D01*
X25151Y54954D01*
X24630Y55302D01*
X24016Y55425D01*
D02*
G37*
G36*
X112205Y56370D02*
X111137Y56229D01*
X110142Y55817D01*
X109287Y55161D01*
X108632Y54307D01*
X108220Y53312D01*
X108079Y52244D01*
X108220Y51176D01*
X108632Y50181D01*
X109287Y49327D01*
X110142Y48671D01*
X111137Y48259D01*
X112205Y48118D01*
X113273Y48259D01*
X114268Y48671D01*
X115122Y49327D01*
X115778Y50181D01*
X116190Y51176D01*
X116331Y52244D01*
X116190Y53312D01*
X115778Y54307D01*
X115122Y55161D01*
X114268Y55817D01*
X113273Y56229D01*
X112205Y56370D01*
D02*
G37*
G36*
X97807Y50280D02*
X96232D01*
X95513Y50185D01*
X94842Y49907D01*
X94267Y49466D01*
X93825Y48890D01*
X93547Y48219D01*
X93453Y47500D01*
X93547Y46781D01*
X93825Y46110D01*
X94267Y45535D01*
X94842Y45093D01*
X95513Y44815D01*
X96232Y44720D01*
X97807D01*
X98527Y44815D01*
X99197Y45093D01*
X99773Y45535D01*
X100214Y46110D01*
X100492Y46781D01*
X100587Y47500D01*
X100492Y48219D01*
X100214Y48890D01*
X99773Y49466D01*
X99197Y49907D01*
X98527Y50185D01*
X97807Y50280D01*
D02*
G37*
G36*
X7807D02*
X6232D01*
X5513Y50185D01*
X4843Y49907D01*
X4267Y49466D01*
X3825Y48890D01*
X3547Y48219D01*
X3453Y47500D01*
X3547Y46781D01*
X3825Y46110D01*
X4267Y45535D01*
X4843Y45093D01*
X5513Y44815D01*
X6232Y44720D01*
X7807D01*
X8527Y44815D01*
X9197Y45093D01*
X9773Y45535D01*
X10214Y46110D01*
X10492Y46781D01*
X10587Y47500D01*
X10492Y48219D01*
X10214Y48890D01*
X9773Y49466D01*
X9197Y49907D01*
X8527Y50185D01*
X7807Y50280D01*
D02*
G37*
G36*
X52756Y45582D02*
X52141Y45460D01*
X51621Y45112D01*
X51272Y44591D01*
X51150Y43976D01*
X51153Y43965D01*
X50799Y43611D01*
X50787Y43613D01*
X50173Y43491D01*
X49652Y43143D01*
X49304Y42622D01*
X49182Y42008D01*
X49304Y41393D01*
X49652Y40872D01*
X50173Y40525D01*
X50787Y40402D01*
X51402Y40525D01*
X51923Y40872D01*
X52271Y41393D01*
X52393Y42008D01*
X52391Y42020D01*
X52744Y42373D01*
X52756Y42371D01*
X53370Y42493D01*
X53891Y42841D01*
X54239Y43362D01*
X54362Y43976D01*
X54239Y44591D01*
X53891Y45112D01*
X53370Y45460D01*
X52756Y45582D01*
D02*
G37*
G36*
X91339D02*
X90724Y45460D01*
X90203Y45112D01*
X89855Y44591D01*
X89733Y43976D01*
X89855Y43362D01*
X90203Y42841D01*
X90724Y42493D01*
X91339Y42371D01*
X91953Y42493D01*
X92474Y42841D01*
X92822Y43362D01*
X92944Y43976D01*
X92822Y44591D01*
X92474Y45112D01*
X91953Y45460D01*
X91339Y45582D01*
D02*
G37*
G36*
X63779Y49519D02*
X63165Y49397D01*
X62644Y49049D01*
X62296Y48528D01*
X62174Y47913D01*
X62296Y47299D01*
X62644Y46778D01*
X63165Y46430D01*
X63779Y46308D01*
X64145Y45945D01*
X63779Y45582D01*
X63165Y45460D01*
X62644Y45112D01*
X62296Y44591D01*
X62174Y43976D01*
X62296Y43362D01*
X62644Y42841D01*
X63165Y42493D01*
X63779Y42371D01*
X64112Y42437D01*
X64542Y42036D01*
X64536Y42008D01*
X64658Y41393D01*
X65006Y40872D01*
X65527Y40525D01*
X66142Y40402D01*
X66756Y40525D01*
X67277Y40872D01*
X67625Y41393D01*
X67747Y42008D01*
X67625Y42622D01*
X67277Y43143D01*
X66756Y43491D01*
X66142Y43613D01*
X65776Y43976D01*
X66142Y44339D01*
X66756Y44462D01*
X67277Y44809D01*
X67625Y45330D01*
X67747Y45945D01*
X67625Y46559D01*
X67277Y47080D01*
X66756Y47428D01*
X66142Y47550D01*
X65810Y47484D01*
X65380Y47885D01*
X65385Y47913D01*
X65263Y48528D01*
X64915Y49049D01*
X64394Y49397D01*
X63779Y49519D01*
D02*
G37*
G36*
X24016D02*
X23401Y49397D01*
X22880Y49049D01*
X22532Y48528D01*
X22410Y47913D01*
X22532Y47299D01*
X22880Y46778D01*
X23401Y46430D01*
X24016Y46308D01*
X24381Y45945D01*
X24016Y45582D01*
X23401Y45460D01*
X22880Y45112D01*
X22532Y44591D01*
X22410Y43976D01*
X22532Y43362D01*
X22880Y42841D01*
X23401Y42493D01*
X24016Y42371D01*
X24348Y42437D01*
X24778Y42036D01*
X24772Y42008D01*
X24894Y41393D01*
X25243Y40872D01*
X25763Y40525D01*
X26378Y40402D01*
X26992Y40525D01*
X27513Y40872D01*
X27861Y41393D01*
X27984Y42008D01*
X27861Y42622D01*
X27513Y43143D01*
X26992Y43491D01*
X26378Y43613D01*
X26013Y43976D01*
X26378Y44339D01*
X26992Y44462D01*
X27513Y44809D01*
X27861Y45330D01*
X27984Y45945D01*
X27861Y46559D01*
X27513Y47080D01*
X26992Y47428D01*
X26378Y47550D01*
X26046Y47484D01*
X25616Y47885D01*
X25621Y47913D01*
X25499Y48528D01*
X25151Y49049D01*
X24630Y49397D01*
X24016Y49519D01*
D02*
G37*
G36*
X122205Y46370D02*
X121137Y46229D01*
X120142Y45817D01*
X119287Y45162D01*
X118632Y44307D01*
X118219Y43312D01*
X118079Y42244D01*
X118219Y41176D01*
X118632Y40181D01*
X119287Y39327D01*
X120142Y38671D01*
X121137Y38259D01*
X122205Y38118D01*
X123273Y38259D01*
X124268Y38671D01*
X125122Y39327D01*
X125778Y40181D01*
X126190Y41176D01*
X126331Y42244D01*
X126190Y43312D01*
X125778Y44307D01*
X125122Y45162D01*
X124268Y45817D01*
X123273Y46229D01*
X122205Y46370D01*
D02*
G37*
G36*
X112205D02*
X111137Y46229D01*
X110142Y45817D01*
X109287Y45162D01*
X108632Y44307D01*
X108220Y43312D01*
X108079Y42244D01*
X108220Y41176D01*
X108632Y40181D01*
X109287Y39327D01*
X110142Y38671D01*
X111137Y38259D01*
X112205Y38118D01*
X113273Y38259D01*
X114268Y38671D01*
X115122Y39327D01*
X115778Y40181D01*
X116190Y41176D01*
X116331Y42244D01*
X116190Y43312D01*
X115778Y44307D01*
X115122Y45162D01*
X114268Y45817D01*
X113273Y46229D01*
X112205Y46370D01*
D02*
G37*
G36*
X52756Y39676D02*
X52141Y39554D01*
X51621Y39206D01*
X51272Y38685D01*
X51150Y38071D01*
X51153Y38059D01*
X50799Y37706D01*
X50787Y37708D01*
X50173Y37586D01*
X49652Y37238D01*
X49304Y36717D01*
X49182Y36102D01*
X49304Y35488D01*
X49652Y34967D01*
X50173Y34619D01*
X50787Y34497D01*
X51402Y34619D01*
X51923Y34967D01*
X52271Y35488D01*
X52393Y36102D01*
X52391Y36114D01*
X52744Y36467D01*
X52756Y36465D01*
X53370Y36588D01*
X53891Y36935D01*
X54239Y37456D01*
X54362Y38071D01*
X54239Y38685D01*
X53891Y39206D01*
X53370Y39554D01*
X52756Y39676D01*
D02*
G37*
G36*
X80315Y37708D02*
X79700Y37586D01*
X79180Y37238D01*
X79017Y36994D01*
X78381Y36818D01*
X78351Y36838D01*
X77736Y36960D01*
X77122Y36838D01*
X76601Y36490D01*
X76253Y35969D01*
X76131Y35354D01*
X76253Y34740D01*
X76601Y34219D01*
X77122Y33871D01*
X77155Y33864D01*
X77260Y33334D01*
X77211Y33301D01*
X76863Y32780D01*
X76741Y32165D01*
X76743Y32154D01*
X76390Y31800D01*
X76378Y31802D01*
X75763Y31680D01*
X75243Y31332D01*
X74894Y30811D01*
X74772Y30197D01*
X74894Y29582D01*
X75243Y29061D01*
X75763Y28713D01*
X76378Y28591D01*
X76992Y28713D01*
X77513Y29061D01*
X77861Y29582D01*
X77984Y30197D01*
X77981Y30209D01*
X78335Y30562D01*
X78347Y30560D01*
X78961Y30682D01*
X79482Y31030D01*
X79830Y31551D01*
X79952Y32165D01*
X79830Y32780D01*
X79482Y33301D01*
X78961Y33649D01*
X78928Y33655D01*
X78822Y34186D01*
X78872Y34219D01*
X79034Y34463D01*
X79671Y34639D01*
X79700Y34619D01*
X80315Y34497D01*
X80929Y34619D01*
X81450Y34967D01*
X81798Y35488D01*
X81921Y36102D01*
X81798Y36717D01*
X81450Y37238D01*
X80929Y37586D01*
X80315Y37708D01*
D02*
G37*
G36*
X97807Y40280D02*
X96232D01*
X95513Y40185D01*
X94842Y39907D01*
X94267Y39465D01*
X93825Y38890D01*
X93547Y38219D01*
X93453Y37500D01*
X93547Y36781D01*
X93825Y36110D01*
X94267Y35535D01*
X94842Y35093D01*
X95513Y34815D01*
X96232Y34720D01*
X97807D01*
X98527Y34815D01*
X99197Y35093D01*
X99773Y35535D01*
X100214Y36110D01*
X100492Y36781D01*
X100587Y37500D01*
X100492Y38219D01*
X100214Y38890D01*
X99773Y39465D01*
X99197Y39907D01*
X98527Y40185D01*
X97807Y40280D01*
D02*
G37*
G36*
X7807D02*
X6232D01*
X5513Y40185D01*
X4843Y39907D01*
X4267Y39465D01*
X3825Y38890D01*
X3547Y38219D01*
X3453Y37500D01*
X3547Y36781D01*
X3825Y36110D01*
X4267Y35535D01*
X4843Y35093D01*
X5513Y34815D01*
X6232Y34720D01*
X7807D01*
X8527Y34815D01*
X9197Y35093D01*
X9773Y35535D01*
X10214Y36110D01*
X10492Y36781D01*
X10587Y37500D01*
X10492Y38219D01*
X10214Y38890D01*
X9773Y39465D01*
X9197Y39907D01*
X8527Y40185D01*
X7807Y40280D01*
D02*
G37*
G36*
X24016Y39676D02*
X23401Y39554D01*
X22880Y39206D01*
X22532Y38685D01*
X22410Y38071D01*
X22532Y37456D01*
X22880Y36935D01*
X23401Y36588D01*
X24016Y36465D01*
X24348Y36531D01*
X24778Y36131D01*
X24772Y36102D01*
X24894Y35488D01*
X25243Y34967D01*
X25763Y34619D01*
X26378Y34497D01*
X26992Y34619D01*
X27513Y34967D01*
X27861Y35488D01*
X27984Y36102D01*
X27861Y36717D01*
X27513Y37238D01*
X26992Y37586D01*
X26378Y37708D01*
X26046Y37642D01*
X25616Y38043D01*
X25621Y38071D01*
X25499Y38685D01*
X25151Y39206D01*
X24630Y39554D01*
X24016Y39676D01*
D02*
G37*
G36*
X12598Y35739D02*
X11984Y35617D01*
X11463Y35269D01*
X11115Y34748D01*
X10993Y34134D01*
X11115Y33519D01*
X11463Y32998D01*
X11984Y32651D01*
X12598Y32528D01*
X13213Y32651D01*
X13734Y32998D01*
X14082Y33519D01*
X14204Y34134D01*
X14082Y34748D01*
X13734Y35269D01*
X13213Y35617D01*
X12598Y35739D01*
D02*
G37*
G36*
X63779Y39676D02*
X63165Y39554D01*
X62644Y39206D01*
X62296Y38685D01*
X62174Y38071D01*
X62296Y37456D01*
X62644Y36935D01*
X63165Y36588D01*
X63779Y36465D01*
X64112Y36531D01*
X64542Y36131D01*
X64536Y36102D01*
X64658Y35488D01*
X65006Y34967D01*
X65527Y34619D01*
X66142Y34497D01*
X66474Y34563D01*
X66904Y34162D01*
X66898Y34134D01*
X67020Y33519D01*
X67369Y32998D01*
X67889Y32650D01*
X68504Y32528D01*
X69118Y32650D01*
X69639Y32998D01*
X69987Y33519D01*
X70110Y34134D01*
X69987Y34748D01*
X69639Y35269D01*
X69118Y35617D01*
X68504Y35739D01*
X68172Y35673D01*
X67742Y36074D01*
X67747Y36102D01*
X67625Y36717D01*
X67277Y37238D01*
X66756Y37586D01*
X66142Y37708D01*
X65810Y37642D01*
X65380Y38043D01*
X65385Y38071D01*
X65263Y38685D01*
X64915Y39206D01*
X64394Y39554D01*
X63779Y39676D01*
D02*
G37*
G36*
X52756Y33771D02*
X52141Y33649D01*
X51621Y33301D01*
X51272Y32780D01*
X51150Y32165D01*
X51153Y32154D01*
X50799Y31800D01*
X50787Y31802D01*
X50173Y31680D01*
X49652Y31332D01*
X49304Y30811D01*
X49182Y30197D01*
X49304Y29582D01*
X49652Y29061D01*
X50173Y28713D01*
X50787Y28591D01*
X51402Y28713D01*
X51923Y29061D01*
X52271Y29582D01*
X52393Y30197D01*
X52391Y30209D01*
X52744Y30562D01*
X52756Y30560D01*
X53370Y30682D01*
X53891Y31030D01*
X54239Y31551D01*
X54362Y32165D01*
X54239Y32780D01*
X53891Y33301D01*
X53370Y33649D01*
X52756Y33771D01*
D02*
G37*
G36*
X63779Y33771D02*
X63165Y33649D01*
X62644Y33301D01*
X62296Y32780D01*
X62174Y32165D01*
X62296Y31551D01*
X62644Y31030D01*
X63165Y30682D01*
X63779Y30560D01*
X64112Y30626D01*
X64542Y30225D01*
X64536Y30197D01*
X64658Y29582D01*
X65006Y29061D01*
X65527Y28713D01*
X66142Y28591D01*
X66756Y28713D01*
X67277Y29061D01*
X67625Y29582D01*
X67747Y30197D01*
X67625Y30811D01*
X67277Y31332D01*
X66756Y31680D01*
X66142Y31802D01*
X65810Y31736D01*
X65380Y32137D01*
X65385Y32165D01*
X65263Y32780D01*
X64915Y33301D01*
X64394Y33649D01*
X63779Y33771D01*
D02*
G37*
G36*
X24016D02*
X23401Y33649D01*
X22880Y33301D01*
X22532Y32780D01*
X22410Y32165D01*
X22532Y31551D01*
X22880Y31030D01*
X23401Y30682D01*
X24016Y30560D01*
X24348Y30626D01*
X24778Y30225D01*
X24772Y30197D01*
X24894Y29582D01*
X25243Y29061D01*
X25763Y28713D01*
X26378Y28591D01*
X26992Y28713D01*
X27513Y29061D01*
X27861Y29582D01*
X27984Y30197D01*
X27861Y30811D01*
X27513Y31332D01*
X26992Y31680D01*
X26378Y31802D01*
X26046Y31736D01*
X25616Y32137D01*
X25621Y32165D01*
X25499Y32780D01*
X25151Y33301D01*
X24630Y33649D01*
X24016Y33771D01*
D02*
G37*
G36*
X116295Y36335D02*
X108114D01*
Y28154D01*
X116295D01*
Y36335D01*
D02*
G37*
G36*
X122205Y36370D02*
X121137Y36229D01*
X120142Y35817D01*
X119287Y35162D01*
X118632Y34307D01*
X118219Y33312D01*
X118079Y32244D01*
X118219Y31176D01*
X118632Y30181D01*
X119287Y29327D01*
X120142Y28671D01*
X121137Y28259D01*
X122205Y28118D01*
X123273Y28259D01*
X124268Y28671D01*
X125122Y29327D01*
X125778Y30181D01*
X126190Y31176D01*
X126331Y32244D01*
X126190Y33312D01*
X125778Y34307D01*
X125122Y35162D01*
X124268Y35817D01*
X123273Y36229D01*
X122205Y36370D01*
D02*
G37*
G36*
X52756Y27865D02*
X52141Y27743D01*
X51621Y27395D01*
X51272Y26874D01*
X51150Y26260D01*
X51153Y26248D01*
X50799Y25895D01*
X50787Y25897D01*
X50173Y25775D01*
X49652Y25427D01*
X49304Y24906D01*
X49182Y24291D01*
X49304Y23677D01*
X49652Y23156D01*
X50173Y22808D01*
X50787Y22686D01*
X51402Y22808D01*
X51923Y23156D01*
X52271Y23677D01*
X52393Y24291D01*
X52391Y24303D01*
X52744Y24656D01*
X52756Y24654D01*
X53370Y24776D01*
X53891Y25124D01*
X54239Y25645D01*
X54362Y26260D01*
X54239Y26874D01*
X53891Y27395D01*
X53370Y27743D01*
X52756Y27865D01*
D02*
G37*
G36*
X97807Y30280D02*
X96232D01*
X95513Y30185D01*
X94842Y29907D01*
X94267Y29465D01*
X93825Y28890D01*
X93547Y28219D01*
X93453Y27500D01*
X93547Y26781D01*
X93825Y26110D01*
X94267Y25534D01*
X94842Y25093D01*
X95513Y24815D01*
X96232Y24720D01*
X97807D01*
X98527Y24815D01*
X99197Y25093D01*
X99773Y25534D01*
X100214Y26110D01*
X100492Y26781D01*
X100587Y27500D01*
X100492Y28219D01*
X100214Y28890D01*
X99773Y29465D01*
X99197Y29907D01*
X98527Y30185D01*
X97807Y30280D01*
D02*
G37*
G36*
X7807D02*
X6232D01*
X5513Y30185D01*
X4843Y29907D01*
X4267Y29465D01*
X3825Y28890D01*
X3547Y28219D01*
X3453Y27500D01*
X3547Y26781D01*
X3825Y26110D01*
X4267Y25534D01*
X4843Y25093D01*
X5513Y24815D01*
X6232Y24720D01*
X7807D01*
X8527Y24815D01*
X9197Y25093D01*
X9773Y25534D01*
X10214Y26110D01*
X10492Y26781D01*
X10587Y27500D01*
X10492Y28219D01*
X10214Y28890D01*
X9773Y29465D01*
X9197Y29907D01*
X8527Y30185D01*
X7807Y30280D01*
D02*
G37*
G36*
X74410Y27865D02*
X73795Y27743D01*
X73274Y27395D01*
X72926Y26874D01*
X72804Y26260D01*
X72926Y25645D01*
X73274Y25124D01*
X73795Y24776D01*
X74410Y24654D01*
X75024Y24776D01*
X75545Y25124D01*
X75893Y25645D01*
X76015Y26260D01*
X75893Y26874D01*
X75545Y27395D01*
X75024Y27743D01*
X74410Y27865D01*
D02*
G37*
G36*
X63779Y27865D02*
X63165Y27743D01*
X62644Y27395D01*
X62296Y26874D01*
X62174Y26260D01*
X62296Y25645D01*
X62644Y25124D01*
X63165Y24776D01*
X63779Y24654D01*
X64112Y24720D01*
X64542Y24319D01*
X64536Y24291D01*
X64658Y23677D01*
X65006Y23156D01*
X65527Y22808D01*
X66142Y22686D01*
X66756Y22808D01*
X67277Y23156D01*
X67625Y23677D01*
X67747Y24291D01*
X67625Y24906D01*
X67277Y25427D01*
X66756Y25775D01*
X66142Y25897D01*
X65810Y25831D01*
X65380Y26232D01*
X65385Y26260D01*
X65263Y26874D01*
X64915Y27395D01*
X64394Y27743D01*
X63779Y27865D01*
D02*
G37*
G36*
X24016D02*
X23401Y27743D01*
X22880Y27395D01*
X22532Y26874D01*
X22410Y26260D01*
X22532Y25645D01*
X22880Y25124D01*
X23401Y24776D01*
X24016Y24654D01*
X24348Y24720D01*
X24778Y24319D01*
X24772Y24291D01*
X24894Y23677D01*
X25243Y23156D01*
X25763Y22808D01*
X26378Y22686D01*
X26992Y22808D01*
X27513Y23156D01*
X27861Y23677D01*
X27984Y24291D01*
X27861Y24906D01*
X27513Y25427D01*
X26992Y25775D01*
X26378Y25897D01*
X26046Y25831D01*
X25616Y26232D01*
X25621Y26260D01*
X25499Y26874D01*
X25151Y27395D01*
X24630Y27743D01*
X24016Y27865D01*
D02*
G37*
G36*
X80315Y23141D02*
X79700Y23019D01*
X79180Y22671D01*
X78831Y22150D01*
X78709Y21535D01*
X78831Y20921D01*
X79180Y20400D01*
X79700Y20052D01*
X80315Y19930D01*
X80929Y20052D01*
X81450Y20400D01*
X81798Y20921D01*
X81921Y21535D01*
X81798Y22150D01*
X81450Y22671D01*
X80929Y23019D01*
X80315Y23141D01*
D02*
G37*
G36*
X97807Y20280D02*
X96232D01*
X95513Y20185D01*
X94842Y19907D01*
X94267Y19466D01*
X93825Y18890D01*
X93547Y18219D01*
X93453Y17500D01*
X93547Y16781D01*
X93825Y16110D01*
X94267Y15534D01*
X94842Y15093D01*
X95513Y14815D01*
X96232Y14720D01*
X97807D01*
X98527Y14815D01*
X99197Y15093D01*
X99773Y15534D01*
X100214Y16110D01*
X100492Y16781D01*
X100587Y17500D01*
X100492Y18219D01*
X100214Y18890D01*
X99773Y19466D01*
X99197Y19907D01*
X98527Y20185D01*
X97807Y20280D01*
D02*
G37*
G36*
X7807D02*
X6232D01*
X5513Y20185D01*
X4843Y19907D01*
X4267Y19466D01*
X3825Y18890D01*
X3547Y18219D01*
X3453Y17500D01*
X3547Y16781D01*
X3825Y16110D01*
X4267Y15534D01*
X4843Y15093D01*
X5513Y14815D01*
X6232Y14720D01*
X7807D01*
X8527Y14815D01*
X9197Y15093D01*
X9773Y15534D01*
X10214Y16110D01*
X10492Y16781D01*
X10587Y17500D01*
X10492Y18219D01*
X10214Y18890D01*
X9773Y19466D01*
X9197Y19907D01*
X8527Y20185D01*
X7807Y20280D01*
D02*
G37*
G36*
X97807Y10280D02*
X96232D01*
X95513Y10185D01*
X94842Y9907D01*
X94267Y9465D01*
X93825Y8890D01*
X93547Y8219D01*
X93453Y7500D01*
X93547Y6781D01*
X93825Y6110D01*
X94267Y5534D01*
X94842Y5093D01*
X95513Y4815D01*
X96232Y4720D01*
X97807D01*
X98527Y4815D01*
X99197Y5093D01*
X99773Y5534D01*
X100214Y6110D01*
X100492Y6781D01*
X100587Y7500D01*
X100492Y8219D01*
X100214Y8890D01*
X99773Y9465D01*
X99197Y9907D01*
X98527Y10185D01*
X97807Y10280D01*
D02*
G37*
G36*
X7807D02*
X6232D01*
X5513Y10185D01*
X4843Y9907D01*
X4267Y9465D01*
X3825Y8890D01*
X3547Y8219D01*
X3453Y7500D01*
X3547Y6781D01*
X3825Y6110D01*
X4267Y5534D01*
X4843Y5093D01*
X5513Y4815D01*
X6232Y4720D01*
X7807D01*
X8527Y4815D01*
X9197Y5093D01*
X9773Y5534D01*
X10214Y6110D01*
X10492Y6781D01*
X10587Y7500D01*
X10492Y8219D01*
X10214Y8890D01*
X9773Y9465D01*
X9197Y9907D01*
X8527Y10185D01*
X7807Y10280D01*
D02*
G37*
G36*
X104331Y8788D02*
X103585Y8690D01*
X102889Y8402D01*
X102292Y7944D01*
X101834Y7347D01*
X101546Y6652D01*
X101448Y5906D01*
X101546Y5159D01*
X101834Y4464D01*
X102292Y3867D01*
X102889Y3409D01*
X103585Y3121D01*
X104331Y3023D01*
X105077Y3121D01*
X105772Y3409D01*
X106369Y3867D01*
X106827Y4464D01*
X107115Y5159D01*
X107214Y5906D01*
X107115Y6652D01*
X106827Y7347D01*
X106369Y7944D01*
X105772Y8402D01*
X105077Y8690D01*
X104331Y8788D01*
D02*
G37*
G36*
X15748D02*
X15002Y8690D01*
X14307Y8402D01*
X13710Y7944D01*
X13251Y7347D01*
X12963Y6652D01*
X12865Y5906D01*
X12963Y5159D01*
X13251Y4464D01*
X13710Y3867D01*
X14307Y3409D01*
X15002Y3121D01*
X15748Y3023D01*
X16494Y3121D01*
X17189Y3409D01*
X17787Y3867D01*
X18245Y4464D01*
X18533Y5159D01*
X18631Y5906D01*
X18533Y6652D01*
X18245Y7347D01*
X17787Y7944D01*
X17189Y8402D01*
X16494Y8690D01*
X15748Y8788D01*
D02*
G37*
%LPD*%
G36*
X76418Y314264D02*
X75453D01*
Y315156D01*
X76418D01*
Y314264D01*
D02*
G37*
G36*
X58560Y313842D02*
X58676Y313824D01*
X58789Y313794D01*
X58895Y313758D01*
X58997Y313714D01*
X59088Y313667D01*
X59175Y313613D01*
X59255Y313562D01*
X59328Y313507D01*
X59390Y313452D01*
X59444Y313405D01*
X59492Y313361D01*
X59528Y313325D01*
X59554Y313296D01*
X59568Y313278D01*
X59575Y313270D01*
Y313769D01*
X60464D01*
Y310118D01*
X59499D01*
Y311887D01*
Y311982D01*
X59495Y312073D01*
X59492Y312153D01*
X59488Y312229D01*
X59481Y312295D01*
X59474Y312357D01*
X59466Y312411D01*
X59459Y312462D01*
X59455Y312506D01*
X59448Y312542D01*
X59441Y312572D01*
X59434Y312597D01*
X59430Y312615D01*
X59426Y312630D01*
X59422Y312637D01*
Y312641D01*
X59390Y312721D01*
X59350Y312790D01*
X59310Y312848D01*
X59266Y312899D01*
X59230Y312935D01*
X59197Y312965D01*
X59175Y312979D01*
X59171Y312986D01*
X59168D01*
X59099Y313026D01*
X59029Y313059D01*
X58960Y313081D01*
X58898Y313096D01*
X58844Y313103D01*
X58822Y313107D01*
X58800Y313110D01*
X58764D01*
X58698Y313107D01*
X58640Y313099D01*
X58589Y313085D01*
X58549Y313074D01*
X58516Y313059D01*
X58491Y313045D01*
X58476Y313037D01*
X58473Y313034D01*
X58432Y313001D01*
X58400Y312965D01*
X58374Y312928D01*
X58352Y312888D01*
X58334Y312855D01*
X58323Y312826D01*
X58316Y312808D01*
X58312Y312804D01*
Y312801D01*
X58301Y312768D01*
X58294Y312728D01*
X58287Y312681D01*
X58280Y312630D01*
X58272Y312517D01*
X58265Y312400D01*
X58261Y312346D01*
Y312291D01*
X58258Y312244D01*
Y312204D01*
Y312167D01*
Y312138D01*
Y312124D01*
Y312117D01*
Y310118D01*
X57293D01*
Y311869D01*
Y311964D01*
X57289Y312047D01*
X57286Y312127D01*
X57282Y312204D01*
X57275Y312273D01*
X57268Y312331D01*
X57260Y312389D01*
X57253Y312437D01*
X57249Y312480D01*
X57242Y312521D01*
X57235Y312550D01*
X57228Y312579D01*
X57224Y312597D01*
X57220Y312612D01*
X57217Y312619D01*
Y312622D01*
X57184Y312706D01*
X57144Y312783D01*
X57100Y312844D01*
X57056Y312895D01*
X57020Y312935D01*
X56987Y312965D01*
X56966Y312979D01*
X56962Y312986D01*
X56958D01*
X56889Y313026D01*
X56824Y313059D01*
X56758Y313081D01*
X56700Y313096D01*
X56649Y313103D01*
X56609Y313110D01*
X56576D01*
X56525Y313107D01*
X56478Y313103D01*
X56434Y313092D01*
X56394Y313077D01*
X56325Y313045D01*
X56267Y313008D01*
X56223Y312968D01*
X56190Y312935D01*
X56179Y312921D01*
X56172Y312910D01*
X56165Y312906D01*
Y312903D01*
X56147Y312870D01*
X56132Y312826D01*
X56117Y312779D01*
X56107Y312724D01*
X56088Y312612D01*
X56074Y312491D01*
X56070Y312433D01*
X56066Y312379D01*
Y312331D01*
X56063Y312288D01*
Y312251D01*
Y312226D01*
Y312208D01*
Y312200D01*
Y310118D01*
X55098D01*
Y312448D01*
Y312542D01*
X55102Y312630D01*
X55109Y312713D01*
X55113Y312786D01*
X55120Y312855D01*
X55131Y312917D01*
X55138Y312972D01*
X55149Y313023D01*
X55160Y313067D01*
X55167Y313103D01*
X55175Y313136D01*
X55186Y313161D01*
X55189Y313179D01*
X55196Y313194D01*
X55200Y313201D01*
Y313205D01*
X55258Y313318D01*
X55291Y313369D01*
X55324Y313412D01*
X55357Y313456D01*
X55393Y313496D01*
X55426Y313532D01*
X55459Y313565D01*
X55491Y313591D01*
X55520Y313616D01*
X55546Y313638D01*
X55568Y313656D01*
X55590Y313667D01*
X55604Y313678D01*
X55611Y313685D01*
X55615D01*
X55670Y313714D01*
X55724Y313740D01*
X55837Y313780D01*
X55954Y313809D01*
X56059Y313827D01*
X56107Y313835D01*
X56154Y313842D01*
X56194Y313845D01*
X56227D01*
X56256Y313849D01*
X56296D01*
X56412Y313842D01*
X56521Y313827D01*
X56623Y313802D01*
X56671Y313791D01*
X56714Y313776D01*
X56751Y313762D01*
X56787Y313751D01*
X56816Y313736D01*
X56845Y313725D01*
X56864Y313718D01*
X56878Y313711D01*
X56889Y313703D01*
X56893D01*
X56995Y313642D01*
X57089Y313573D01*
X57177Y313500D01*
X57253Y313431D01*
X57289Y313398D01*
X57319Y313365D01*
X57344Y313339D01*
X57366Y313314D01*
X57384Y313296D01*
X57399Y313281D01*
X57406Y313270D01*
X57410Y313267D01*
X57475Y313369D01*
X57544Y313460D01*
X57613Y313532D01*
X57683Y313594D01*
X57741Y313642D01*
X57766Y313660D01*
X57788Y313678D01*
X57806Y313689D01*
X57821Y313696D01*
X57828Y313703D01*
X57832D01*
X57934Y313751D01*
X58036Y313787D01*
X58138Y313813D01*
X58232Y313831D01*
X58276Y313838D01*
X58316Y313842D01*
X58352Y313845D01*
X58381D01*
X58407Y313849D01*
X58440D01*
X58560Y313842D01*
D02*
G37*
G36*
X42180Y310118D02*
X41310D01*
X39861Y313769D01*
X40855D01*
X41546Y311905D01*
X41568Y311847D01*
X41587Y311792D01*
X41605Y311738D01*
X41619Y311691D01*
X41634Y311654D01*
X41645Y311621D01*
X41648Y311603D01*
X41652Y311596D01*
X41656Y311581D01*
X41663Y311560D01*
X41674Y311516D01*
X41692Y311465D01*
X41707Y311410D01*
X41725Y311363D01*
X41736Y311323D01*
X41743Y311305D01*
X41747Y311294D01*
X41750Y311287D01*
Y311283D01*
X41951Y311905D01*
X42638Y313769D01*
X43650D01*
X42180Y310118D01*
D02*
G37*
G36*
X69727Y314493D02*
Y313769D01*
X70171D01*
Y313001D01*
X69727D01*
Y311407D01*
Y311316D01*
Y311232D01*
X69724Y311152D01*
Y311083D01*
X69720Y311021D01*
X69716Y310966D01*
Y310915D01*
X69713Y310875D01*
X69709Y310839D01*
X69705Y310806D01*
Y310781D01*
X69702Y310759D01*
Y310744D01*
X69698Y310733D01*
Y310730D01*
Y310726D01*
X69684Y310642D01*
X69662Y310566D01*
X69640Y310500D01*
X69618Y310446D01*
X69596Y310406D01*
X69578Y310373D01*
X69567Y310355D01*
X69564Y310347D01*
X69524Y310297D01*
X69473Y310253D01*
X69425Y310216D01*
X69374Y310184D01*
X69327Y310158D01*
X69291Y310136D01*
X69276Y310129D01*
X69265Y310125D01*
X69261Y310122D01*
X69258D01*
X69178Y310093D01*
X69094Y310071D01*
X69018Y310056D01*
X68945Y310045D01*
X68879Y310038D01*
X68854D01*
X68832Y310034D01*
X68788D01*
X68632Y310042D01*
X68490Y310056D01*
X68421Y310067D01*
X68359Y310078D01*
X68300Y310093D01*
X68246Y310107D01*
X68199Y310118D01*
X68155Y310133D01*
X68115Y310144D01*
X68082Y310155D01*
X68057Y310162D01*
X68038Y310169D01*
X68028Y310176D01*
X68024D01*
X68108Y310926D01*
X68199Y310897D01*
X68275Y310875D01*
X68344Y310857D01*
X68399Y310846D01*
X68442Y310839D01*
X68472Y310835D01*
X68497D01*
X68530Y310839D01*
X68563Y310842D01*
X68592Y310850D01*
X68613Y310861D01*
X68635Y310868D01*
X68650Y310875D01*
X68657Y310879D01*
X68661Y310882D01*
X68683Y310901D01*
X68701Y310923D01*
X68715Y310941D01*
X68726Y310959D01*
X68734Y310977D01*
X68741Y310992D01*
X68745Y310999D01*
Y311003D01*
X68748Y311021D01*
X68752Y311046D01*
Y311079D01*
X68756Y311116D01*
Y311159D01*
X68759Y311203D01*
Y311294D01*
X68763Y311381D01*
Y311421D01*
Y311454D01*
Y311487D01*
Y311509D01*
Y311523D01*
Y311527D01*
Y313001D01*
X68104D01*
Y313769D01*
X68763D01*
Y315061D01*
X69727Y314493D01*
D02*
G37*
G36*
X45842Y313842D02*
X45969Y313827D01*
X46089Y313802D01*
X46202Y313769D01*
X46308Y313729D01*
X46406Y313685D01*
X46497Y313638D01*
X46581Y313591D01*
X46653Y313543D01*
X46719Y313496D01*
X46777Y313452D01*
X46824Y313412D01*
X46861Y313380D01*
X46886Y313354D01*
X46901Y313339D01*
X46908Y313332D01*
X46992Y313230D01*
X47065Y313125D01*
X47127Y313012D01*
X47181Y312895D01*
X47229Y312775D01*
X47265Y312659D01*
X47298Y312542D01*
X47323Y312429D01*
X47341Y312324D01*
X47356Y312226D01*
X47367Y312138D01*
X47374Y312062D01*
X47378Y312029D01*
Y312000D01*
Y311975D01*
X47381Y311953D01*
Y311934D01*
Y311924D01*
Y311916D01*
Y311913D01*
X47378Y311774D01*
X47367Y311640D01*
X47349Y311512D01*
X47323Y311396D01*
X47298Y311283D01*
X47269Y311181D01*
X47236Y311086D01*
X47199Y310999D01*
X47167Y310919D01*
X47134Y310850D01*
X47105Y310791D01*
X47076Y310744D01*
X47054Y310704D01*
X47036Y310675D01*
X47025Y310661D01*
X47021Y310653D01*
X46930Y310544D01*
X46828Y310449D01*
X46723Y310366D01*
X46610Y310297D01*
X46493Y310235D01*
X46377Y310187D01*
X46260Y310144D01*
X46147Y310111D01*
X46038Y310085D01*
X45936Y310067D01*
X45849Y310053D01*
X45769Y310045D01*
X45733Y310042D01*
X45703Y310038D01*
X45678D01*
X45652Y310034D01*
X45612D01*
X45503Y310038D01*
X45398Y310045D01*
X45296Y310060D01*
X45201Y310078D01*
X45114Y310096D01*
X45030Y310122D01*
X44957Y310147D01*
X44888Y310173D01*
X44826Y310198D01*
X44768Y310220D01*
X44724Y310245D01*
X44684Y310264D01*
X44651Y310282D01*
X44630Y310297D01*
X44615Y310304D01*
X44611Y310307D01*
X44539Y310362D01*
X44469Y310420D01*
X44407Y310486D01*
X44349Y310551D01*
X44298Y310617D01*
X44247Y310686D01*
X44204Y310752D01*
X44167Y310817D01*
X44131Y310875D01*
X44102Y310933D01*
X44076Y310984D01*
X44058Y311028D01*
X44040Y311065D01*
X44029Y311094D01*
X44025Y311108D01*
X44022Y311116D01*
X44983Y311276D01*
X45015Y311177D01*
X45052Y311097D01*
X45092Y311028D01*
X45132Y310974D01*
X45165Y310930D01*
X45194Y310901D01*
X45212Y310882D01*
X45216Y310875D01*
X45219D01*
X45281Y310835D01*
X45343Y310806D01*
X45408Y310784D01*
X45467Y310770D01*
X45521Y310762D01*
X45561Y310759D01*
X45580Y310755D01*
X45601D01*
X45663Y310759D01*
X45722Y310766D01*
X45776Y310777D01*
X45831Y310791D01*
X45925Y310832D01*
X45969Y310850D01*
X46005Y310875D01*
X46042Y310897D01*
X46071Y310915D01*
X46100Y310937D01*
X46122Y310955D01*
X46140Y310970D01*
X46151Y310981D01*
X46158Y310988D01*
X46162Y310992D01*
X46202Y311039D01*
X46235Y311090D01*
X46264Y311145D01*
X46293Y311199D01*
X46315Y311254D01*
X46333Y311308D01*
X46359Y311418D01*
X46369Y311469D01*
X46377Y311512D01*
X46384Y311556D01*
X46388Y311592D01*
Y311621D01*
X46391Y311643D01*
Y311658D01*
Y311662D01*
X43971D01*
X43974Y311862D01*
X43985Y312051D01*
X44007Y312226D01*
X44033Y312386D01*
X44069Y312535D01*
X44105Y312670D01*
X44149Y312793D01*
X44193Y312903D01*
X44236Y312997D01*
X44276Y313081D01*
X44317Y313150D01*
X44353Y313209D01*
X44382Y313252D01*
X44404Y313285D01*
X44422Y313303D01*
X44426Y313310D01*
X44517Y313405D01*
X44615Y313489D01*
X44717Y313562D01*
X44822Y313623D01*
X44932Y313674D01*
X45037Y313718D01*
X45143Y313755D01*
X45241Y313784D01*
X45336Y313805D01*
X45427Y313820D01*
X45503Y313835D01*
X45572Y313842D01*
X45631Y313845D01*
X45652D01*
X45671Y313849D01*
X45707D01*
X45842Y313842D01*
D02*
G37*
G36*
X81102Y310118D02*
X80087D01*
Y312018D01*
X79301D01*
X79180Y312022D01*
X79071Y312025D01*
X78969Y312029D01*
X78875Y312033D01*
X78787Y312040D01*
X78711Y312047D01*
X78642Y312055D01*
X78576Y312058D01*
X78525Y312066D01*
X78478Y312073D01*
X78442Y312076D01*
X78409Y312080D01*
X78391Y312084D01*
X78376Y312087D01*
X78372D01*
X78271Y312113D01*
X78176Y312149D01*
X78088Y312189D01*
X78008Y312229D01*
X77972Y312247D01*
X77939Y312266D01*
X77914Y312284D01*
X77888Y312298D01*
X77870Y312309D01*
X77855Y312320D01*
X77848Y312324D01*
X77845Y312328D01*
X77754Y312400D01*
X77670Y312480D01*
X77597Y312564D01*
X77535Y312644D01*
X77484Y312713D01*
X77466Y312746D01*
X77448Y312772D01*
X77437Y312793D01*
X77426Y312808D01*
X77422Y312819D01*
X77419Y312823D01*
X77390Y312884D01*
X77360Y312946D01*
X77320Y313077D01*
X77288Y313209D01*
X77277Y313274D01*
X77269Y313332D01*
X77262Y313390D01*
X77255Y313441D01*
X77251Y313489D01*
Y313529D01*
X77248Y313562D01*
Y313583D01*
Y313602D01*
Y313605D01*
X77251Y313714D01*
X77258Y313820D01*
X77273Y313918D01*
X77295Y314013D01*
X77317Y314100D01*
X77342Y314180D01*
X77368Y314253D01*
X77393Y314319D01*
X77422Y314381D01*
X77448Y314432D01*
X77473Y314479D01*
X77495Y314515D01*
X77513Y314544D01*
X77528Y314566D01*
X77539Y314581D01*
X77542Y314584D01*
X77597Y314654D01*
X77655Y314715D01*
X77717Y314774D01*
X77779Y314825D01*
X77841Y314868D01*
X77899Y314908D01*
X77957Y314945D01*
X78012Y314974D01*
X78067Y315003D01*
X78114Y315025D01*
X78158Y315043D01*
X78194Y315058D01*
X78223Y315065D01*
X78249Y315072D01*
X78263Y315079D01*
X78267D01*
X78296Y315087D01*
X78325Y315094D01*
X78398Y315105D01*
X78482Y315116D01*
X78573Y315123D01*
X78671Y315130D01*
X78773Y315138D01*
X78977Y315145D01*
X79075Y315149D01*
X79166Y315152D01*
X79250D01*
X79326Y315156D01*
X81102D01*
Y310118D01*
D02*
G37*
G36*
X76418D02*
X75453D01*
Y313769D01*
X76418D01*
Y310118D01*
D02*
G37*
G36*
X61530Y313845D02*
X61610Y313831D01*
X61679Y313813D01*
X61741Y313791D01*
X61792Y313769D01*
X61832Y313751D01*
X61847Y313744D01*
X61858Y313736D01*
X61861Y313733D01*
X61865D01*
X61898Y313707D01*
X61934Y313678D01*
X61971Y313645D01*
X62007Y313609D01*
X62076Y313529D01*
X62138Y313449D01*
X62193Y313372D01*
X62218Y313336D01*
X62236Y313307D01*
X62254Y313285D01*
X62265Y313263D01*
X62273Y313252D01*
X62276Y313248D01*
Y313769D01*
X63172D01*
Y310118D01*
X62207D01*
Y311243D01*
Y311330D01*
Y311410D01*
X62204Y311563D01*
X62200Y311701D01*
X62196Y311829D01*
X62189Y311938D01*
X62182Y312040D01*
X62174Y312127D01*
X62167Y312204D01*
X62160Y312269D01*
X62152Y312324D01*
X62145Y312371D01*
X62138Y312408D01*
X62134Y312433D01*
X62131Y312451D01*
X62127Y312462D01*
Y312466D01*
X62112Y312517D01*
X62094Y312568D01*
X62076Y312612D01*
X62058Y312652D01*
X62040Y312688D01*
X62021Y312721D01*
X61989Y312779D01*
X61956Y312819D01*
X61931Y312848D01*
X61916Y312866D01*
X61909Y312870D01*
X61854Y312906D01*
X61796Y312935D01*
X61738Y312954D01*
X61683Y312968D01*
X61636Y312976D01*
X61596Y312983D01*
X61523D01*
X61483Y312976D01*
X61403Y312957D01*
X61326Y312932D01*
X61257Y312903D01*
X61195Y312874D01*
X61170Y312859D01*
X61148Y312848D01*
X61133Y312837D01*
X61119Y312830D01*
X61111Y312826D01*
X61108Y312823D01*
X60806Y313664D01*
X60864Y313696D01*
X60922Y313725D01*
X60980Y313751D01*
X61035Y313773D01*
X61144Y313805D01*
X61243Y313827D01*
X61286Y313835D01*
X61326Y313838D01*
X61359Y313842D01*
X61388Y313845D01*
X61414Y313849D01*
X61446D01*
X61530Y313845D01*
D02*
G37*
G36*
X52168Y310118D02*
X51152D01*
Y312222D01*
X50887D01*
X50825Y312218D01*
X50770D01*
X50723Y312215D01*
X50676Y312208D01*
X50632Y312204D01*
X50595Y312200D01*
X50563Y312193D01*
X50534Y312189D01*
X50508Y312182D01*
X50486Y312178D01*
X50468Y312175D01*
X50457Y312171D01*
X50446Y312167D01*
X50439Y312164D01*
X50377Y312138D01*
X50323Y312106D01*
X50272Y312073D01*
X50224Y312036D01*
X50188Y312004D01*
X50159Y311978D01*
X50141Y311960D01*
X50133Y311953D01*
X50104Y311920D01*
X50068Y311876D01*
X50028Y311829D01*
X49988Y311774D01*
X49944Y311712D01*
X49900Y311651D01*
X49809Y311527D01*
X49766Y311465D01*
X49726Y311407D01*
X49689Y311356D01*
X49656Y311308D01*
X49631Y311268D01*
X49613Y311239D01*
X49598Y311221D01*
X49595Y311214D01*
X48863Y310118D01*
X47644D01*
X48259Y311101D01*
X48324Y311207D01*
X48390Y311305D01*
X48448Y311392D01*
X48502Y311476D01*
X48553Y311549D01*
X48601Y311618D01*
X48645Y311676D01*
X48684Y311727D01*
X48721Y311774D01*
X48750Y311814D01*
X48776Y311847D01*
X48797Y311873D01*
X48816Y311891D01*
X48827Y311905D01*
X48834Y311913D01*
X48837Y311916D01*
X48921Y312000D01*
X49012Y312080D01*
X49103Y312153D01*
X49191Y312218D01*
X49231Y312244D01*
X49267Y312269D01*
X49300Y312291D01*
X49329Y312309D01*
X49351Y312324D01*
X49369Y312335D01*
X49380Y312338D01*
X49383Y312342D01*
X49263Y312364D01*
X49150Y312389D01*
X49045Y312419D01*
X48947Y312455D01*
X48856Y312491D01*
X48776Y312531D01*
X48703Y312568D01*
X48634Y312608D01*
X48575Y312648D01*
X48524Y312684D01*
X48484Y312717D01*
X48448Y312746D01*
X48422Y312772D01*
X48401Y312790D01*
X48390Y312801D01*
X48386Y312804D01*
X48328Y312877D01*
X48277Y312950D01*
X48230Y313030D01*
X48193Y313107D01*
X48160Y313187D01*
X48131Y313263D01*
X48109Y313339D01*
X48091Y313412D01*
X48080Y313481D01*
X48069Y313543D01*
X48062Y313602D01*
X48055Y313649D01*
Y313689D01*
X48051Y313718D01*
Y313736D01*
Y313744D01*
X48055Y313827D01*
X48062Y313904D01*
X48073Y313980D01*
X48084Y314053D01*
X48102Y314122D01*
X48120Y314188D01*
X48142Y314249D01*
X48160Y314304D01*
X48182Y314355D01*
X48204Y314402D01*
X48222Y314439D01*
X48237Y314472D01*
X48251Y314497D01*
X48262Y314519D01*
X48270Y314530D01*
X48273Y314533D01*
X48317Y314595D01*
X48361Y314654D01*
X48408Y314708D01*
X48455Y314756D01*
X48506Y314799D01*
X48553Y314839D01*
X48601Y314876D01*
X48648Y314908D01*
X48692Y314934D01*
X48732Y314956D01*
X48768Y314978D01*
X48797Y314992D01*
X48823Y315003D01*
X48845Y315010D01*
X48856Y315018D01*
X48859D01*
X48932Y315043D01*
X49016Y315065D01*
X49103Y315083D01*
X49194Y315098D01*
X49391Y315123D01*
X49485Y315130D01*
X49580Y315138D01*
X49671Y315145D01*
X49755Y315149D01*
X49831Y315152D01*
X49900D01*
X49955Y315156D01*
X52168D01*
Y310118D01*
D02*
G37*
G36*
X37306D02*
X35340D01*
X35264Y310122D01*
X35118D01*
X35053Y310125D01*
X34991D01*
X34878Y310129D01*
X34780D01*
X34692Y310133D01*
X34616Y310136D01*
X34550Y310140D01*
X34499D01*
X34456Y310144D01*
X34423Y310147D01*
X34398D01*
X34379Y310151D01*
X34368D01*
X34223Y310173D01*
X34154Y310187D01*
X34088Y310206D01*
X34030Y310224D01*
X33972Y310245D01*
X33921Y310264D01*
X33873Y310286D01*
X33830Y310304D01*
X33793Y310326D01*
X33760Y310340D01*
X33735Y310358D01*
X33713Y310369D01*
X33695Y310380D01*
X33688Y310384D01*
X33684Y310387D01*
X33586Y310468D01*
X33498Y310551D01*
X33426Y310639D01*
X33360Y310722D01*
X33313Y310795D01*
X33291Y310828D01*
X33276Y310853D01*
X33266Y310875D01*
X33255Y310893D01*
X33247Y310904D01*
Y310908D01*
X33218Y310970D01*
X33193Y311032D01*
X33156Y311152D01*
X33127Y311265D01*
X33116Y311316D01*
X33105Y311367D01*
X33102Y311410D01*
X33094Y311454D01*
X33091Y311487D01*
Y311520D01*
X33087Y311545D01*
Y311563D01*
Y311574D01*
Y311578D01*
X33091Y311658D01*
X33098Y311734D01*
X33109Y311811D01*
X33127Y311880D01*
X33145Y311949D01*
X33164Y312011D01*
X33189Y312069D01*
X33211Y312124D01*
X33233Y312171D01*
X33255Y312215D01*
X33276Y312251D01*
X33295Y312280D01*
X33313Y312306D01*
X33324Y312324D01*
X33331Y312335D01*
X33335Y312338D01*
X33382Y312397D01*
X33437Y312451D01*
X33491Y312502D01*
X33549Y312546D01*
X33608Y312586D01*
X33666Y312626D01*
X33724Y312659D01*
X33779Y312688D01*
X33833Y312713D01*
X33884Y312735D01*
X33928Y312754D01*
X33964Y312768D01*
X33997Y312779D01*
X34019Y312786D01*
X34037Y312793D01*
X34041D01*
X33924Y312855D01*
X33822Y312925D01*
X33735Y313001D01*
X33699Y313037D01*
X33662Y313070D01*
X33633Y313107D01*
X33604Y313136D01*
X33582Y313165D01*
X33560Y313190D01*
X33546Y313209D01*
X33535Y313223D01*
X33531Y313234D01*
X33528Y313238D01*
X33495Y313292D01*
X33462Y313350D01*
X33437Y313409D01*
X33415Y313463D01*
X33382Y313573D01*
X33360Y313671D01*
X33349Y313718D01*
X33346Y313758D01*
X33342Y313794D01*
X33338Y313827D01*
X33335Y313853D01*
Y313871D01*
Y313882D01*
Y313885D01*
Y313947D01*
X33342Y314006D01*
X33360Y314115D01*
X33386Y314217D01*
X33397Y314260D01*
X33411Y314304D01*
X33426Y314340D01*
X33440Y314377D01*
X33455Y314406D01*
X33466Y314428D01*
X33477Y314450D01*
X33484Y314464D01*
X33487Y314472D01*
X33491Y314475D01*
X33553Y314570D01*
X33615Y314650D01*
X33680Y314723D01*
X33742Y314785D01*
X33797Y314832D01*
X33837Y314865D01*
X33855Y314879D01*
X33866Y314886D01*
X33873Y314894D01*
X33877D01*
X33968Y314948D01*
X34059Y314996D01*
X34146Y315032D01*
X34226Y315061D01*
X34266Y315072D01*
X34299Y315079D01*
X34328Y315087D01*
X34354Y315094D01*
X34376Y315098D01*
X34390Y315101D01*
X34401Y315105D01*
X34405D01*
X34463Y315112D01*
X34525Y315123D01*
X34594Y315130D01*
X34667Y315134D01*
X34813Y315145D01*
X34958Y315149D01*
X35027Y315152D01*
X35089D01*
X35144Y315156D01*
X37306D01*
Y310118D01*
D02*
G37*
G36*
X65873Y313845D02*
X65971Y313838D01*
X66062Y313827D01*
X66153Y313813D01*
X66237Y313794D01*
X66317Y313773D01*
X66393Y313751D01*
X66462Y313729D01*
X66524Y313707D01*
X66579Y313685D01*
X66630Y313664D01*
X66670Y313645D01*
X66703Y313631D01*
X66728Y313620D01*
X66743Y313613D01*
X66746Y313609D01*
X66826Y313562D01*
X66899Y313511D01*
X66968Y313456D01*
X67034Y313401D01*
X67092Y313343D01*
X67147Y313289D01*
X67198Y313230D01*
X67245Y313176D01*
X67285Y313125D01*
X67318Y313077D01*
X67347Y313034D01*
X67372Y312994D01*
X67391Y312965D01*
X67405Y312939D01*
X67412Y312925D01*
X67416Y312921D01*
X67456Y312837D01*
X67492Y312754D01*
X67525Y312670D01*
X67554Y312586D01*
X67576Y312506D01*
X67594Y312429D01*
X67609Y312357D01*
X67624Y312288D01*
X67634Y312226D01*
X67642Y312167D01*
X67645Y312117D01*
X67649Y312076D01*
X67653Y312040D01*
Y312015D01*
Y312000D01*
Y311993D01*
X67649Y311876D01*
X67642Y311767D01*
X67631Y311662D01*
X67616Y311560D01*
X67598Y311465D01*
X67576Y311378D01*
X67558Y311297D01*
X67532Y311221D01*
X67511Y311156D01*
X67492Y311094D01*
X67471Y311043D01*
X67452Y311003D01*
X67438Y310966D01*
X67427Y310944D01*
X67420Y310926D01*
X67416Y310923D01*
X67369Y310842D01*
X67318Y310770D01*
X67263Y310700D01*
X67208Y310635D01*
X67150Y310577D01*
X67092Y310522D01*
X67037Y310471D01*
X66983Y310427D01*
X66928Y310387D01*
X66881Y310355D01*
X66837Y310326D01*
X66801Y310304D01*
X66768Y310286D01*
X66743Y310271D01*
X66728Y310264D01*
X66724Y310260D01*
X66637Y310220D01*
X66553Y310187D01*
X66466Y310155D01*
X66382Y310129D01*
X66302Y310107D01*
X66222Y310089D01*
X66146Y310074D01*
X66076Y310064D01*
X66011Y310053D01*
X65949Y310045D01*
X65898Y310042D01*
X65851Y310038D01*
X65818Y310034D01*
X65767D01*
X65618Y310042D01*
X65476Y310056D01*
X65341Y310085D01*
X65214Y310118D01*
X65094Y310162D01*
X64985Y310206D01*
X64882Y310256D01*
X64788Y310307D01*
X64704Y310355D01*
X64631Y310406D01*
X64569Y310449D01*
X64515Y310493D01*
X64475Y310526D01*
X64446Y310555D01*
X64428Y310570D01*
X64420Y310577D01*
X64326Y310682D01*
X64242Y310791D01*
X64173Y310908D01*
X64111Y311021D01*
X64060Y311137D01*
X64016Y311250D01*
X63980Y311363D01*
X63951Y311469D01*
X63929Y311567D01*
X63914Y311658D01*
X63900Y311742D01*
X63892Y311811D01*
X63889Y311869D01*
Y311894D01*
X63885Y311913D01*
Y311927D01*
Y311938D01*
Y311945D01*
Y311949D01*
X63892Y312098D01*
X63907Y312244D01*
X63933Y312379D01*
X63969Y312510D01*
X64009Y312630D01*
X64053Y312743D01*
X64100Y312844D01*
X64151Y312939D01*
X64202Y313023D01*
X64249Y313096D01*
X64293Y313161D01*
X64333Y313212D01*
X64366Y313256D01*
X64395Y313285D01*
X64409Y313303D01*
X64417Y313310D01*
X64518Y313405D01*
X64628Y313489D01*
X64737Y313562D01*
X64850Y313623D01*
X64966Y313674D01*
X65079Y313718D01*
X65188Y313755D01*
X65294Y313784D01*
X65392Y313805D01*
X65483Y313820D01*
X65567Y313835D01*
X65636Y313842D01*
X65694Y313845D01*
X65716D01*
X65738Y313849D01*
X65774D01*
X65873Y313845D01*
D02*
G37*
G36*
X72803Y315236D02*
X72905Y315232D01*
X73003Y315225D01*
X73098Y315211D01*
X73185Y315200D01*
X73265Y315185D01*
X73342Y315167D01*
X73411Y315152D01*
X73473Y315134D01*
X73527Y315120D01*
X73575Y315101D01*
X73615Y315090D01*
X73644Y315079D01*
X73669Y315069D01*
X73684Y315065D01*
X73688Y315061D01*
X73764Y315029D01*
X73833Y314988D01*
X73899Y314948D01*
X73961Y314908D01*
X74015Y314865D01*
X74066Y314825D01*
X74114Y314781D01*
X74157Y314741D01*
X74194Y314701D01*
X74226Y314668D01*
X74256Y314635D01*
X74277Y314606D01*
X74296Y314584D01*
X74306Y314566D01*
X74314Y314555D01*
X74317Y314552D01*
X74354Y314490D01*
X74387Y314424D01*
X74416Y314362D01*
X74441Y314297D01*
X74463Y314235D01*
X74481Y314177D01*
X74492Y314119D01*
X74507Y314068D01*
X74514Y314017D01*
X74521Y313969D01*
X74525Y313929D01*
X74528Y313896D01*
X74532Y313867D01*
Y313849D01*
Y313835D01*
Y313831D01*
X74528Y313722D01*
X74514Y313616D01*
X74489Y313514D01*
X74459Y313420D01*
X74427Y313332D01*
X74387Y313248D01*
X74343Y313172D01*
X74299Y313103D01*
X74259Y313037D01*
X74216Y312983D01*
X74176Y312932D01*
X74143Y312892D01*
X74114Y312863D01*
X74088Y312837D01*
X74073Y312823D01*
X74070Y312819D01*
X74001Y312764D01*
X73924Y312713D01*
X73841Y312663D01*
X73750Y312615D01*
X73659Y312572D01*
X73560Y312531D01*
X73466Y312495D01*
X73371Y312459D01*
X73284Y312429D01*
X73200Y312400D01*
X73124Y312375D01*
X73054Y312357D01*
X73000Y312342D01*
X72978Y312335D01*
X72960Y312331D01*
X72945Y312324D01*
X72934D01*
X72927Y312320D01*
X72923D01*
X72811Y312291D01*
X72705Y312266D01*
X72610Y312244D01*
X72527Y312222D01*
X72450Y312200D01*
X72385Y312182D01*
X72326Y312167D01*
X72275Y312153D01*
X72235Y312142D01*
X72199Y312131D01*
X72170Y312120D01*
X72144Y312113D01*
X72130Y312109D01*
X72115Y312106D01*
X72112Y312102D01*
X72108D01*
X72061Y312084D01*
X72017Y312066D01*
X71940Y312029D01*
X71875Y311989D01*
X71824Y311956D01*
X71788Y311924D01*
X71762Y311902D01*
X71744Y311887D01*
X71740Y311880D01*
X71704Y311833D01*
X71678Y311782D01*
X71660Y311731D01*
X71649Y311683D01*
X71638Y311640D01*
X71635Y311607D01*
Y311585D01*
Y311581D01*
Y311578D01*
X71638Y311527D01*
X71646Y311476D01*
X71657Y311432D01*
X71675Y311385D01*
X71715Y311305D01*
X71759Y311232D01*
X71784Y311203D01*
X71806Y311174D01*
X71828Y311152D01*
X71846Y311130D01*
X71864Y311116D01*
X71875Y311105D01*
X71882Y311097D01*
X71886Y311094D01*
X71933Y311057D01*
X71988Y311024D01*
X72046Y310999D01*
X72104Y310974D01*
X72166Y310955D01*
X72228Y310937D01*
X72348Y310912D01*
X72403Y310904D01*
X72457Y310897D01*
X72505Y310893D01*
X72545Y310890D01*
X72578Y310886D01*
X72625D01*
X72708Y310890D01*
X72789Y310897D01*
X72865Y310908D01*
X72938Y310923D01*
X73003Y310941D01*
X73062Y310959D01*
X73120Y310981D01*
X73167Y311003D01*
X73215Y311024D01*
X73251Y311046D01*
X73287Y311065D01*
X73313Y311083D01*
X73335Y311097D01*
X73349Y311108D01*
X73360Y311116D01*
X73364Y311119D01*
X73411Y311166D01*
X73458Y311217D01*
X73498Y311272D01*
X73535Y311330D01*
X73568Y311392D01*
X73597Y311454D01*
X73648Y311574D01*
X73666Y311629D01*
X73680Y311680D01*
X73695Y311727D01*
X73706Y311771D01*
X73713Y311803D01*
X73721Y311829D01*
X73724Y311843D01*
Y311851D01*
X74714Y311756D01*
X74692Y311603D01*
X74660Y311458D01*
X74623Y311323D01*
X74576Y311196D01*
X74528Y311083D01*
X74478Y310977D01*
X74427Y310879D01*
X74372Y310795D01*
X74321Y310719D01*
X74274Y310653D01*
X74226Y310595D01*
X74186Y310551D01*
X74154Y310515D01*
X74128Y310489D01*
X74114Y310471D01*
X74106Y310468D01*
X74004Y310391D01*
X73895Y310322D01*
X73779Y310264D01*
X73659Y310213D01*
X73539Y310169D01*
X73415Y310136D01*
X73295Y310107D01*
X73178Y310082D01*
X73069Y310064D01*
X72967Y310049D01*
X72872Y310042D01*
X72792Y310034D01*
X72759Y310031D01*
X72727D01*
X72701Y310027D01*
X72636D01*
X72516Y310031D01*
X72399Y310034D01*
X72290Y310045D01*
X72188Y310056D01*
X72093Y310071D01*
X72002Y310085D01*
X71919Y310100D01*
X71842Y310118D01*
X71777Y310136D01*
X71715Y310151D01*
X71664Y310165D01*
X71624Y310180D01*
X71587Y310191D01*
X71562Y310202D01*
X71547Y310206D01*
X71544Y310209D01*
X71464Y310245D01*
X71387Y310286D01*
X71318Y310329D01*
X71253Y310377D01*
X71191Y310420D01*
X71136Y310468D01*
X71085Y310515D01*
X71038Y310559D01*
X70998Y310602D01*
X70961Y310642D01*
X70932Y310679D01*
X70907Y310708D01*
X70889Y310733D01*
X70874Y310755D01*
X70867Y310766D01*
X70863Y310770D01*
X70819Y310842D01*
X70783Y310912D01*
X70750Y310984D01*
X70721Y311057D01*
X70699Y311126D01*
X70677Y311192D01*
X70663Y311257D01*
X70648Y311319D01*
X70641Y311374D01*
X70634Y311425D01*
X70626Y311469D01*
X70623Y311509D01*
X70619Y311538D01*
Y311563D01*
Y311578D01*
Y311581D01*
X70623Y311669D01*
X70626Y311753D01*
X70637Y311833D01*
X70652Y311909D01*
X70666Y311978D01*
X70685Y312044D01*
X70703Y312106D01*
X70721Y312160D01*
X70739Y312211D01*
X70758Y312255D01*
X70776Y312291D01*
X70790Y312324D01*
X70805Y312349D01*
X70816Y312368D01*
X70819Y312379D01*
X70823Y312382D01*
X70863Y312440D01*
X70903Y312499D01*
X70994Y312601D01*
X71041Y312648D01*
X71089Y312688D01*
X71132Y312728D01*
X71176Y312761D01*
X71220Y312793D01*
X71256Y312819D01*
X71293Y312841D01*
X71322Y312863D01*
X71347Y312877D01*
X71365Y312888D01*
X71376Y312892D01*
X71380Y312895D01*
X71449Y312932D01*
X71529Y312965D01*
X71613Y313001D01*
X71700Y313034D01*
X71882Y313096D01*
X71973Y313121D01*
X72061Y313150D01*
X72144Y313172D01*
X72221Y313194D01*
X72294Y313212D01*
X72355Y313230D01*
X72406Y313241D01*
X72443Y313252D01*
X72457Y313256D01*
X72468D01*
X72472Y313259D01*
X72476D01*
X72607Y313292D01*
X72730Y313325D01*
X72836Y313354D01*
X72934Y313387D01*
X73022Y313416D01*
X73098Y313445D01*
X73163Y313471D01*
X73222Y313496D01*
X73269Y313518D01*
X73309Y313536D01*
X73342Y313554D01*
X73367Y313569D01*
X73389Y313583D01*
X73400Y313591D01*
X73407Y313598D01*
X73411D01*
X73462Y313649D01*
X73498Y313700D01*
X73524Y313751D01*
X73542Y313798D01*
X73553Y313842D01*
X73557Y313875D01*
X73560Y313896D01*
Y313900D01*
Y313904D01*
X73557Y313940D01*
X73553Y313973D01*
X73535Y314035D01*
X73509Y314086D01*
X73480Y314129D01*
X73451Y314166D01*
X73426Y314191D01*
X73407Y314210D01*
X73400Y314213D01*
X73349Y314246D01*
X73298Y314275D01*
X73244Y314300D01*
X73185Y314322D01*
X73069Y314355D01*
X72960Y314377D01*
X72905Y314384D01*
X72858Y314388D01*
X72814Y314391D01*
X72778Y314395D01*
X72749Y314399D01*
X72628D01*
X72552Y314391D01*
X72487Y314384D01*
X72425Y314373D01*
X72366Y314359D01*
X72312Y314344D01*
X72264Y314330D01*
X72221Y314315D01*
X72184Y314297D01*
X72152Y314282D01*
X72123Y314268D01*
X72101Y314253D01*
X72082Y314242D01*
X72071Y314235D01*
X72064Y314231D01*
X72061Y314228D01*
X72021Y314195D01*
X71988Y314155D01*
X71926Y314068D01*
X71879Y313977D01*
X71839Y313885D01*
X71824Y313842D01*
X71813Y313802D01*
X71802Y313765D01*
X71795Y313733D01*
X71788Y313707D01*
X71784Y313689D01*
X71780Y313674D01*
Y313671D01*
X70765Y313714D01*
X70776Y313842D01*
X70794Y313962D01*
X70819Y314075D01*
X70856Y314180D01*
X70892Y314279D01*
X70936Y314370D01*
X70979Y314453D01*
X71027Y314526D01*
X71074Y314595D01*
X71118Y314654D01*
X71158Y314704D01*
X71194Y314745D01*
X71227Y314777D01*
X71249Y314803D01*
X71263Y314817D01*
X71271Y314821D01*
X71365Y314894D01*
X71467Y314959D01*
X71580Y315014D01*
X71693Y315065D01*
X71813Y315105D01*
X71933Y315138D01*
X72050Y315167D01*
X72162Y315189D01*
X72272Y315203D01*
X72370Y315218D01*
X72461Y315229D01*
X72541Y315232D01*
X72578Y315236D01*
X72607D01*
X72632Y315240D01*
X72698D01*
X72803Y315236D01*
D02*
G37*
%LPC*%
G36*
X45678Y313110D02*
X45649D01*
X45594Y313107D01*
X45543Y313099D01*
X45492Y313088D01*
X45445Y313077D01*
X45361Y313041D01*
X45288Y313001D01*
X45256Y312979D01*
X45226Y312957D01*
X45205Y312939D01*
X45183Y312925D01*
X45168Y312910D01*
X45157Y312899D01*
X45150Y312892D01*
X45146Y312888D01*
X45110Y312844D01*
X45077Y312797D01*
X45048Y312750D01*
X45026Y312695D01*
X44986Y312590D01*
X44961Y312488D01*
X44950Y312440D01*
X44943Y312397D01*
X44935Y312357D01*
X44932Y312320D01*
Y312291D01*
X44928Y312269D01*
Y312255D01*
Y312251D01*
X46377D01*
Y312324D01*
X46369Y312393D01*
X46359Y312455D01*
X46348Y312517D01*
X46330Y312572D01*
X46315Y312622D01*
X46297Y312670D01*
X46275Y312713D01*
X46257Y312750D01*
X46238Y312783D01*
X46220Y312812D01*
X46206Y312834D01*
X46191Y312852D01*
X46180Y312866D01*
X46177Y312874D01*
X46173Y312877D01*
X46133Y312917D01*
X46089Y312954D01*
X46049Y312986D01*
X46002Y313012D01*
X45958Y313034D01*
X45915Y313052D01*
X45834Y313081D01*
X45794Y313092D01*
X45762Y313099D01*
X45729Y313103D01*
X45700Y313107D01*
X45678Y313110D01*
D02*
G37*
G36*
X80087Y314304D02*
X79410D01*
X79326Y314300D01*
X79253Y314297D01*
X79184D01*
X79126Y314293D01*
X79075Y314290D01*
X79028Y314286D01*
X78987Y314282D01*
X78955Y314279D01*
X78926Y314275D01*
X78904D01*
X78889Y314271D01*
X78875Y314268D01*
X78867D01*
X78780Y314246D01*
X78700Y314213D01*
X78631Y314177D01*
X78569Y314140D01*
X78522Y314100D01*
X78489Y314071D01*
X78467Y314049D01*
X78460Y314046D01*
Y314042D01*
X78431Y314009D01*
X78405Y313973D01*
X78365Y313896D01*
X78336Y313820D01*
X78318Y313747D01*
X78303Y313685D01*
X78300Y313656D01*
Y313634D01*
X78296Y313613D01*
Y313598D01*
Y313591D01*
Y313587D01*
X78300Y313507D01*
X78314Y313431D01*
X78332Y313365D01*
X78354Y313307D01*
X78376Y313259D01*
X78394Y313223D01*
X78401Y313212D01*
X78409Y313201D01*
X78412Y313198D01*
Y313194D01*
X78460Y313136D01*
X78511Y313085D01*
X78565Y313041D01*
X78616Y313008D01*
X78664Y312979D01*
X78700Y312961D01*
X78715Y312954D01*
X78722Y312950D01*
X78729Y312946D01*
X78733D01*
X78776Y312932D01*
X78824Y312921D01*
X78882Y312910D01*
X78944Y312903D01*
X79075Y312888D01*
X79210Y312881D01*
X79272Y312877D01*
X79333Y312874D01*
X79388D01*
X79435Y312870D01*
X80087D01*
Y314304D01*
D02*
G37*
G36*
X51152D02*
X50064D01*
X49984Y314300D01*
X49915D01*
X49857Y314297D01*
X49758D01*
X49722Y314293D01*
X49693D01*
X49667Y314290D01*
X49649D01*
X49635Y314286D01*
X49620D01*
X49533Y314264D01*
X49456Y314235D01*
X49391Y314202D01*
X49336Y314169D01*
X49292Y314137D01*
X49263Y314111D01*
X49245Y314093D01*
X49238Y314089D01*
Y314086D01*
X49191Y314024D01*
X49158Y313958D01*
X49132Y313889D01*
X49118Y313824D01*
X49107Y313765D01*
X49103Y313744D01*
Y313722D01*
X49099Y313703D01*
Y313689D01*
Y313682D01*
Y313678D01*
X49103Y313598D01*
X49114Y313525D01*
X49132Y313460D01*
X49150Y313405D01*
X49172Y313361D01*
X49187Y313329D01*
X49201Y313307D01*
X49205Y313299D01*
X49245Y313245D01*
X49292Y313201D01*
X49340Y313165D01*
X49383Y313136D01*
X49427Y313114D01*
X49460Y313096D01*
X49482Y313088D01*
X49485Y313085D01*
X49489D01*
X49529Y313074D01*
X49580Y313067D01*
X49642Y313059D01*
X49707Y313052D01*
X49780Y313045D01*
X49857Y313041D01*
X50013Y313034D01*
X50090Y313030D01*
X50228D01*
X50286Y313026D01*
X51152D01*
Y314304D01*
D02*
G37*
G36*
X36290Y314319D02*
X35362D01*
X35271Y314315D01*
X35187D01*
X35118Y314311D01*
X35005D01*
X34962Y314308D01*
X34925D01*
X34896Y314304D01*
X34874D01*
X34856Y314300D01*
X34838D01*
X34747Y314282D01*
X34670Y314260D01*
X34605Y314231D01*
X34550Y314199D01*
X34510Y314169D01*
X34481Y314144D01*
X34463Y314129D01*
X34456Y314122D01*
X34412Y314064D01*
X34379Y314002D01*
X34358Y313940D01*
X34339Y313878D01*
X34332Y313824D01*
X34328Y313784D01*
X34325Y313765D01*
Y313755D01*
Y313747D01*
Y313744D01*
X34332Y313656D01*
X34350Y313580D01*
X34372Y313511D01*
X34401Y313456D01*
X34430Y313412D01*
X34452Y313376D01*
X34470Y313358D01*
X34478Y313350D01*
X34539Y313299D01*
X34605Y313259D01*
X34670Y313227D01*
X34736Y313205D01*
X34794Y313187D01*
X34820Y313179D01*
X34842Y313176D01*
X34860Y313172D01*
X34874Y313168D01*
X34885D01*
X34918Y313165D01*
X34958D01*
X35009Y313161D01*
X35064D01*
X35122Y313158D01*
X35307D01*
X35369Y313154D01*
X36290D01*
Y314319D01*
D02*
G37*
G36*
Y312317D02*
X35344D01*
X35227Y312313D01*
X35125Y312309D01*
X35034Y312306D01*
X34951Y312298D01*
X34878Y312295D01*
X34813Y312288D01*
X34754Y312280D01*
X34707Y312273D01*
X34667Y312266D01*
X34634Y312262D01*
X34609Y312255D01*
X34587Y312251D01*
X34576Y312247D01*
X34569Y312244D01*
X34565D01*
X34492Y312215D01*
X34427Y312178D01*
X34372Y312138D01*
X34328Y312102D01*
X34292Y312066D01*
X34270Y312036D01*
X34252Y312018D01*
X34248Y312015D01*
Y312011D01*
X34212Y311949D01*
X34183Y311883D01*
X34165Y311822D01*
X34150Y311760D01*
X34143Y311709D01*
X34135Y311665D01*
Y311651D01*
Y311640D01*
Y311632D01*
Y311629D01*
X34143Y311534D01*
X34157Y311447D01*
X34183Y311374D01*
X34208Y311312D01*
X34234Y311265D01*
X34259Y311228D01*
X34274Y311207D01*
X34281Y311203D01*
Y311199D01*
X34339Y311145D01*
X34398Y311101D01*
X34459Y311065D01*
X34518Y311039D01*
X34569Y311021D01*
X34612Y311006D01*
X34627Y311003D01*
X34638D01*
X34645Y310999D01*
X34649D01*
X34681Y310995D01*
X34721Y310988D01*
X34769Y310984D01*
X34820Y310981D01*
X34878D01*
X34936Y310977D01*
X35053Y310974D01*
X35111D01*
X35166Y310970D01*
X36290D01*
Y312317D01*
D02*
G37*
G36*
X65807Y313063D02*
X65771D01*
X65702Y313059D01*
X65636Y313052D01*
X65570Y313037D01*
X65512Y313019D01*
X65458Y312994D01*
X65403Y312972D01*
X65356Y312943D01*
X65312Y312917D01*
X65272Y312892D01*
X65239Y312863D01*
X65206Y312841D01*
X65185Y312819D01*
X65163Y312797D01*
X65148Y312783D01*
X65141Y312775D01*
X65137Y312772D01*
X65090Y312713D01*
X65054Y312655D01*
X65017Y312590D01*
X64988Y312521D01*
X64963Y312451D01*
X64941Y312382D01*
X64926Y312317D01*
X64912Y312251D01*
X64901Y312189D01*
X64893Y312131D01*
X64886Y312080D01*
X64882Y312033D01*
X64879Y311996D01*
Y311971D01*
Y311953D01*
Y311945D01*
X64882Y311847D01*
X64890Y311753D01*
X64904Y311665D01*
X64919Y311581D01*
X64937Y311509D01*
X64959Y311439D01*
X64985Y311378D01*
X65006Y311319D01*
X65032Y311272D01*
X65057Y311228D01*
X65079Y311192D01*
X65097Y311163D01*
X65112Y311137D01*
X65126Y311123D01*
X65134Y311112D01*
X65137Y311108D01*
X65185Y311057D01*
X65239Y311014D01*
X65290Y310974D01*
X65345Y310941D01*
X65396Y310915D01*
X65450Y310890D01*
X65501Y310872D01*
X65549Y310857D01*
X65596Y310846D01*
X65636Y310835D01*
X65676Y310828D01*
X65709Y310824D01*
X65734D01*
X65753Y310821D01*
X65771D01*
X65840Y310824D01*
X65905Y310832D01*
X65971Y310846D01*
X66029Y310864D01*
X66087Y310886D01*
X66138Y310912D01*
X66186Y310937D01*
X66229Y310966D01*
X66269Y310992D01*
X66306Y311017D01*
X66335Y311043D01*
X66360Y311065D01*
X66382Y311083D01*
X66397Y311097D01*
X66404Y311105D01*
X66408Y311108D01*
X66451Y311166D01*
X66491Y311228D01*
X66524Y311294D01*
X66553Y311359D01*
X66579Y311428D01*
X66601Y311498D01*
X66619Y311567D01*
X66630Y311632D01*
X66641Y311694D01*
X66648Y311753D01*
X66655Y311807D01*
X66659Y311851D01*
X66663Y311891D01*
Y311916D01*
Y311934D01*
Y311942D01*
X66659Y312040D01*
X66652Y312135D01*
X66641Y312218D01*
X66623Y312302D01*
X66604Y312375D01*
X66582Y312444D01*
X66557Y312506D01*
X66535Y312561D01*
X66510Y312608D01*
X66488Y312652D01*
X66466Y312688D01*
X66448Y312717D01*
X66430Y312743D01*
X66419Y312757D01*
X66411Y312768D01*
X66408Y312772D01*
X66357Y312823D01*
X66306Y312866D01*
X66251Y312906D01*
X66200Y312939D01*
X66146Y312968D01*
X66091Y312994D01*
X66040Y313012D01*
X65993Y313026D01*
X65945Y313037D01*
X65905Y313048D01*
X65865Y313056D01*
X65833Y313059D01*
X65807Y313063D01*
D02*
G37*
%LPD*%
G36*
X56437Y210954D02*
X56348Y211019D01*
X56238Y211078D01*
X56107Y211130D01*
X55956Y211175D01*
X55783Y211213D01*
X55590Y211244D01*
X55142Y211285D01*
X54610Y211299D01*
Y212087D01*
X54886Y212090D01*
X55590Y212142D01*
X55783Y212173D01*
X55956Y212211D01*
X56107Y212256D01*
X56238Y212308D01*
X56348Y212366D01*
X56437Y212432D01*
Y210954D01*
D02*
G37*
G36*
X56437Y207017D02*
X56348Y207082D01*
X56238Y207141D01*
X56107Y207193D01*
X55956Y207238D01*
X55783Y207276D01*
X55590Y207307D01*
X55142Y207348D01*
X54610Y207362D01*
Y208150D01*
X54886Y208153D01*
X55590Y208205D01*
X55783Y208236D01*
X55956Y208274D01*
X56107Y208319D01*
X56238Y208371D01*
X56348Y208429D01*
X56437Y208495D01*
Y207017D01*
D02*
G37*
G36*
X56437Y203080D02*
X56348Y203145D01*
X56238Y203204D01*
X56107Y203256D01*
X55956Y203301D01*
X55783Y203339D01*
X55590Y203370D01*
X55142Y203411D01*
X54610Y203425D01*
Y204213D01*
X54886Y204216D01*
X55590Y204268D01*
X55783Y204299D01*
X55956Y204337D01*
X56107Y204382D01*
X56238Y204434D01*
X56348Y204492D01*
X56437Y204558D01*
Y203080D01*
D02*
G37*
G36*
Y199143D02*
X56348Y199208D01*
X56238Y199267D01*
X56107Y199319D01*
X55956Y199364D01*
X55783Y199402D01*
X55590Y199433D01*
X55142Y199474D01*
X54610Y199488D01*
Y200276D01*
X54886Y200279D01*
X55590Y200331D01*
X55783Y200362D01*
X55956Y200400D01*
X56107Y200445D01*
X56238Y200497D01*
X56348Y200555D01*
X56437Y200621D01*
Y199143D01*
D02*
G37*
G36*
Y195206D02*
X56348Y195271D01*
X56238Y195330D01*
X56107Y195382D01*
X55956Y195427D01*
X55783Y195465D01*
X55590Y195496D01*
X55142Y195537D01*
X54610Y195551D01*
Y196339D01*
X54886Y196342D01*
X55590Y196394D01*
X55783Y196425D01*
X55956Y196463D01*
X56107Y196508D01*
X56238Y196560D01*
X56348Y196618D01*
X56437Y196684D01*
Y195206D01*
D02*
G37*
G36*
X54333Y130001D02*
X54366Y129514D01*
X54386Y129385D01*
X54410Y129274D01*
X54439Y129179D01*
X54472Y129101D01*
X54510Y129041D01*
X54552Y128997D01*
X53322D01*
X53364Y129041D01*
X53402Y129101D01*
X53435Y129179D01*
X53464Y129274D01*
X53488Y129385D01*
X53508Y129514D01*
X53534Y129822D01*
X53543Y130197D01*
X54331D01*
X54333Y130001D01*
D02*
G37*
G36*
X50531Y127489D02*
X50442Y127555D01*
X50332Y127614D01*
X50202Y127665D01*
X50050Y127710D01*
X49878Y127748D01*
X49685Y127779D01*
X49236Y127821D01*
X48704Y127835D01*
Y128622D01*
X48981Y128626D01*
X49685Y128677D01*
X49878Y128708D01*
X50050Y128746D01*
X50202Y128791D01*
X50332Y128843D01*
X50442Y128902D01*
X50531Y128967D01*
Y127489D01*
D02*
G37*
G36*
X46570Y129073D02*
X46689Y128978D01*
X46812Y128895D01*
X46939Y128823D01*
X47071Y128761D01*
X47208Y128711D01*
X47349Y128672D01*
X47495Y128644D01*
X47646Y128628D01*
X47801Y128622D01*
Y127835D01*
X47646Y127830D01*
X47498Y127816D01*
X47357Y127792D01*
X47221Y127759D01*
X47091Y127716D01*
X46968Y127664D01*
X46852Y127602D01*
X46741Y127531D01*
X46636Y127450D01*
X46538Y127359D01*
X45981Y127916D01*
X46035Y127981D01*
X46072Y128051D01*
X46091Y128126D01*
X46092Y128205D01*
X46076Y128289D01*
X46043Y128379D01*
X45993Y128473D01*
X45925Y128572D01*
X45840Y128676D01*
X45737Y128785D01*
X46457Y129179D01*
X46570Y129073D01*
D02*
G37*
G36*
X81240Y123946D02*
X81151Y124012D01*
X81041Y124070D01*
X80910Y124122D01*
X80759Y124167D01*
X80587Y124205D01*
X80393Y124236D01*
X79945Y124277D01*
X79413Y124291D01*
Y125079D01*
X79689Y125082D01*
X80393Y125134D01*
X80587Y125165D01*
X80759Y125203D01*
X80910Y125248D01*
X81041Y125300D01*
X81151Y125359D01*
X81240Y125424D01*
Y123946D01*
D02*
G37*
G36*
X75528Y81911D02*
X74248Y81246D01*
X74279Y81390D01*
X74291Y81533D01*
X74286Y81677D01*
X74262Y81820D01*
X74220Y81963D01*
X74160Y82105D01*
X74081Y82248D01*
X73985Y82390D01*
X73870Y82532D01*
X73737Y82674D01*
X74294Y83231D01*
X75528Y81911D01*
D02*
G37*
G36*
X77071Y82821D02*
X77606Y82360D01*
X77764Y82245D01*
X77913Y82150D01*
X78052Y82075D01*
X78181Y82019D01*
X78300Y81983D01*
X78410Y81967D01*
X77364Y80921D01*
X77348Y81030D01*
X77312Y81150D01*
X77256Y81279D01*
X77180Y81418D01*
X77086Y81566D01*
X76971Y81725D01*
X76683Y82071D01*
X76317Y82457D01*
X76873Y83014D01*
X77071Y82821D01*
D02*
G37*
G36*
X70476Y65773D02*
X70530Y65124D01*
X70563Y64942D01*
X70603Y64777D01*
X70650Y64630D01*
X70704Y64500D01*
X70766Y64387D01*
X70835Y64292D01*
X69323D01*
X69392Y64387D01*
X69453Y64500D01*
X69507Y64630D01*
X69555Y64777D01*
X69595Y64942D01*
X69627Y65124D01*
X69671Y65539D01*
X69681Y65773D01*
X69685Y66024D01*
X70472D01*
X70476Y65773D01*
D02*
G37*
G36*
X13324Y22223D02*
X13437Y22161D01*
X13567Y22107D01*
X13714Y22060D01*
X13879Y22020D01*
X14061Y21987D01*
X14476Y21944D01*
X14710Y21933D01*
X14961Y21929D01*
Y21142D01*
X14710Y21138D01*
X14061Y21084D01*
X13879Y21051D01*
X13714Y21011D01*
X13567Y20964D01*
X13437Y20910D01*
X13324Y20848D01*
X13229Y20779D01*
Y22291D01*
X13324Y22223D01*
D02*
G37*
G36*
X64244Y19766D02*
X64138Y19749D01*
X64022Y19713D01*
X63895Y19656D01*
X63758Y19580D01*
X63611Y19484D01*
X63454Y19369D01*
X63108Y19079D01*
X62721Y18711D01*
X62151Y19255D01*
X62343Y19452D01*
X62802Y19987D01*
X62915Y20146D01*
X63010Y20297D01*
X63084Y20437D01*
X63139Y20569D01*
X63175Y20691D01*
X63191Y20804D01*
X64244Y19766D01*
D02*
G37*
G36*
X58012Y17253D02*
X57923Y17319D01*
X57813Y17377D01*
X57682Y17429D01*
X57531Y17474D01*
X57358Y17512D01*
X57165Y17543D01*
X56717Y17585D01*
X56185Y17598D01*
Y18386D01*
X56461Y18389D01*
X57165Y18441D01*
X57358Y18472D01*
X57531Y18510D01*
X57682Y18555D01*
X57813Y18607D01*
X57923Y18666D01*
X58012Y18731D01*
Y17253D01*
D02*
G37*
G36*
X121744Y218775D02*
X121290Y218813D01*
X120844Y218807D01*
X120404Y218756D01*
X119972Y218661D01*
X119547Y218521D01*
X119130Y218337D01*
X118719Y218108D01*
X118316Y217834D01*
X117920Y217516D01*
X117532Y217153D01*
X117114Y217571D01*
X117477Y217960D01*
X117795Y218355D01*
X118068Y218759D01*
X118297Y219169D01*
X118482Y219586D01*
X118622Y220011D01*
X118717Y220444D01*
X118768Y220883D01*
X118774Y221329D01*
X118735Y221783D01*
X121744Y218775D01*
D02*
G37*
G36*
Y208775D02*
X121290Y208813D01*
X120844Y208807D01*
X120404Y208756D01*
X119972Y208661D01*
X119547Y208521D01*
X119130Y208337D01*
X118719Y208108D01*
X118316Y207834D01*
X117920Y207516D01*
X117532Y207153D01*
X117114Y207571D01*
X117477Y207960D01*
X117795Y208355D01*
X118068Y208759D01*
X118297Y209169D01*
X118482Y209587D01*
X118622Y210011D01*
X118717Y210443D01*
X118768Y210883D01*
X118774Y211330D01*
X118735Y211783D01*
X121744Y208775D01*
D02*
G37*
G36*
Y198775D02*
X121290Y198813D01*
X120844Y198807D01*
X120404Y198756D01*
X119972Y198661D01*
X119547Y198521D01*
X119130Y198337D01*
X118719Y198108D01*
X118316Y197834D01*
X117920Y197516D01*
X117532Y197153D01*
X117114Y197571D01*
X117477Y197960D01*
X117795Y198355D01*
X118068Y198759D01*
X118297Y199169D01*
X118482Y199586D01*
X118622Y200011D01*
X118717Y200444D01*
X118768Y200883D01*
X118774Y201329D01*
X118735Y201783D01*
X121744Y198775D01*
D02*
G37*
G36*
X112104Y188746D02*
X111302Y188742D01*
X110529Y188683D01*
X109786Y188570D01*
X109072Y188402D01*
X108387Y188179D01*
X107731Y187901D01*
X107105Y187569D01*
X106508Y187182D01*
X105940Y186740D01*
X105401Y186244D01*
X105090Y186768D01*
X105702Y187403D01*
X106761Y188653D01*
X107209Y189267D01*
X107602Y189875D01*
X107941Y190476D01*
X108225Y191070D01*
X108455Y191657D01*
X108630Y192237D01*
X108751Y192810D01*
X112104Y188746D01*
D02*
G37*
G36*
X121744Y178775D02*
X121290Y178813D01*
X120844Y178807D01*
X120404Y178756D01*
X119972Y178661D01*
X119547Y178521D01*
X119130Y178337D01*
X118719Y178108D01*
X118316Y177834D01*
X117920Y177516D01*
X117532Y177153D01*
X117114Y177571D01*
X117477Y177960D01*
X117795Y178356D01*
X118068Y178759D01*
X118297Y179169D01*
X118482Y179587D01*
X118622Y180011D01*
X118717Y180444D01*
X118768Y180883D01*
X118774Y181330D01*
X118735Y181783D01*
X121744Y178775D01*
D02*
G37*
G36*
X50366Y158017D02*
X50492Y157942D01*
X50636Y157875D01*
X50797Y157817D01*
X50975Y157768D01*
X51170Y157729D01*
X51381Y157697D01*
X51857Y157662D01*
X52120Y157658D01*
Y157067D01*
X51857Y157062D01*
X51381Y157027D01*
X51170Y156996D01*
X50975Y156956D01*
X50797Y156907D01*
X50636Y156849D01*
X50492Y156783D01*
X50366Y156707D01*
X50256Y156623D01*
Y158101D01*
X50366Y158017D01*
D02*
G37*
G36*
X47015Y154718D02*
X47023Y154658D01*
X47043Y154590D01*
X47077Y154516D01*
X47123Y154435D01*
X47183Y154348D01*
X47255Y154253D01*
X47440Y154044D01*
X47551Y153929D01*
X47134Y153512D01*
X47019Y153623D01*
X46715Y153880D01*
X46628Y153940D01*
X46547Y153986D01*
X46473Y154020D01*
X46405Y154041D01*
X46345Y154048D01*
X46291Y154042D01*
X47021Y154772D01*
X47015Y154718D01*
D02*
G37*
G36*
X41157Y154926D02*
X41194Y154783D01*
X41248Y154634D01*
X41321Y154480D01*
X41412Y154320D01*
X41522Y154154D01*
X41650Y153982D01*
X41961Y153621D01*
X42144Y153431D01*
X41726Y153014D01*
X41537Y153197D01*
X41176Y153508D01*
X41004Y153636D01*
X40838Y153745D01*
X40677Y153836D01*
X40523Y153909D01*
X40374Y153964D01*
X40231Y154000D01*
X40094Y154018D01*
X41140Y155063D01*
X41157Y154926D01*
D02*
G37*
G36*
X38788Y153512D02*
X38832Y153412D01*
X38895Y153299D01*
X38977Y153174D01*
X39079Y153035D01*
X39341Y152720D01*
X39681Y152354D01*
X39880Y152152D01*
X39593Y151604D01*
X39418Y151770D01*
X39242Y151918D01*
X39067Y152047D01*
X38892Y152158D01*
X38716Y152251D01*
X38541Y152326D01*
X38365Y152382D01*
X38189Y152420D01*
X38013Y152440D01*
X37837Y152442D01*
X38764Y153599D01*
X38788Y153512D01*
D02*
G37*
G36*
X36751Y151812D02*
X36775Y151799D01*
X36811Y151788D01*
X36860Y151778D01*
X36920Y151770D01*
X37076Y151759D01*
X37402Y151752D01*
Y151161D01*
X37281Y151161D01*
X36860Y151135D01*
X36811Y151125D01*
X36775Y151114D01*
X36751Y151102D01*
X36739Y151088D01*
Y151826D01*
X36751Y151812D01*
D02*
G37*
G36*
X31109Y149710D02*
X31241Y149622D01*
X31389Y149545D01*
X31552Y149478D01*
X31730Y149421D01*
X31924Y149374D01*
X32133Y149338D01*
X32358Y149312D01*
X32854Y149291D01*
X32792Y148701D01*
X32521Y148697D01*
X31823Y148642D01*
X31628Y148608D01*
X31451Y148567D01*
X31294Y148519D01*
X31156Y148464D01*
X31036Y148401D01*
X30936Y148331D01*
X30992Y149808D01*
X31109Y149710D01*
D02*
G37*
G36*
X35548Y147520D02*
X35344Y147510D01*
X35148Y147482D01*
X34961Y147436D01*
X34783Y147370D01*
X34613Y147286D01*
X34452Y147184D01*
X34300Y147063D01*
X34156Y146923D01*
X34021Y146764D01*
X33894Y146587D01*
X33457Y148031D01*
X35348Y148110D01*
X35548Y147520D01*
D02*
G37*
G36*
X37026Y145939D02*
X36843Y145749D01*
X36532Y145388D01*
X36404Y145217D01*
X36294Y145050D01*
X36203Y144890D01*
X36130Y144736D01*
X36076Y144587D01*
X36039Y144444D01*
X36022Y144307D01*
X34976Y145352D01*
X35113Y145370D01*
X35256Y145406D01*
X35405Y145461D01*
X35559Y145534D01*
X35720Y145625D01*
X35886Y145735D01*
X36058Y145862D01*
X36419Y146173D01*
X36608Y146356D01*
X37026Y145939D01*
D02*
G37*
G36*
X52795Y145318D02*
X52867Y145264D01*
X52952Y145216D01*
X53052Y145174D01*
X53165Y145139D01*
X53292Y145110D01*
X53433Y145088D01*
X53587Y145072D01*
X53937Y145059D01*
Y144468D01*
X53755Y144465D01*
X53433Y144440D01*
X53292Y144417D01*
X53165Y144388D01*
X53052Y144353D01*
X52952Y144312D01*
X52867Y144264D01*
X52795Y144209D01*
X52737Y144149D01*
Y145379D01*
X52795Y145318D01*
D02*
G37*
G36*
X50488Y143683D02*
X50629Y143559D01*
X50780Y143449D01*
X50943Y143354D01*
X51117Y143273D01*
X51303Y143208D01*
X51500Y143156D01*
X51709Y143120D01*
X51929Y143098D01*
X52160Y143091D01*
X51884Y142500D01*
X51592Y142499D01*
X50384Y142428D01*
X50272Y142406D01*
X50186Y142381D01*
X50126Y142353D01*
X50360Y143822D01*
X50488Y143683D01*
D02*
G37*
G36*
X42086Y143464D02*
X42215Y143385D01*
X42357Y143316D01*
X42511Y143256D01*
X42678Y143206D01*
X42858Y143164D01*
X43050Y143132D01*
X43254Y143109D01*
X43701Y143091D01*
Y142500D01*
X43471Y142495D01*
X43050Y142458D01*
X42858Y142426D01*
X42678Y142385D01*
X42511Y142334D01*
X42357Y142274D01*
X42215Y142205D01*
X42086Y142127D01*
X41969Y142039D01*
Y143551D01*
X42086Y143464D01*
D02*
G37*
G36*
X121786Y138769D02*
X121198Y138817D01*
X120628Y138817D01*
X120078Y138768D01*
X119545Y138671D01*
X119032Y138526D01*
X118537Y138332D01*
X118061Y138090D01*
X117603Y137800D01*
X117165Y137461D01*
X116744Y137075D01*
X116327Y137492D01*
X116681Y137876D01*
X117011Y138293D01*
X117316Y138743D01*
X117596Y139227D01*
X117851Y139744D01*
X118081Y140294D01*
X118287Y140877D01*
X118467Y141494D01*
X118754Y142827D01*
X121786Y138769D01*
D02*
G37*
G36*
X41311Y137656D02*
X41437Y137580D01*
X41581Y137514D01*
X41742Y137456D01*
X41919Y137407D01*
X42114Y137367D01*
X42326Y137336D01*
X42802Y137301D01*
X43065Y137296D01*
Y136706D01*
X42802Y136701D01*
X42326Y136666D01*
X42114Y136635D01*
X41919Y136595D01*
X41742Y136546D01*
X41581Y136488D01*
X41437Y136422D01*
X41311Y136346D01*
X41201Y136262D01*
Y137740D01*
X41311Y137656D01*
D02*
G37*
G36*
X39736Y135182D02*
X39862Y135107D01*
X40006Y135040D01*
X40167Y134983D01*
X40345Y134934D01*
X40540Y134894D01*
X40752Y134863D01*
X41227Y134827D01*
X41490Y134823D01*
Y134232D01*
X41227Y134228D01*
X40752Y134192D01*
X40540Y134161D01*
X40345Y134121D01*
X40167Y134072D01*
X40006Y134015D01*
X39862Y133948D01*
X39736Y133873D01*
X39626Y133788D01*
Y135267D01*
X39736Y135182D01*
D02*
G37*
G36*
X109113Y130604D02*
X108954Y130859D01*
X108763Y131088D01*
X108540Y131290D01*
X108285Y131465D01*
X107998Y131613D01*
X107678Y131734D01*
X107327Y131828D01*
X106943Y131895D01*
X106528Y131935D01*
X106080Y131949D01*
Y132539D01*
X106528Y132553D01*
X106943Y132593D01*
X107327Y132660D01*
X107678Y132755D01*
X107998Y132876D01*
X108285Y133024D01*
X108540Y133199D01*
X108763Y133400D01*
X108954Y133629D01*
X109113Y133885D01*
Y130604D01*
D02*
G37*
G36*
X109895Y119614D02*
X109349Y120058D01*
X108774Y120455D01*
X108169Y120805D01*
X107535Y121108D01*
X106872Y121365D01*
X106180Y121575D01*
X105459Y121739D01*
X104709Y121855D01*
X103930Y121925D01*
X103121Y121949D01*
Y122539D01*
X103930Y122563D01*
X104709Y122633D01*
X105459Y122749D01*
X106180Y122913D01*
X106872Y123123D01*
X107535Y123380D01*
X108169Y123683D01*
X108774Y124034D01*
X109349Y124431D01*
X109895Y124874D01*
Y119614D01*
D02*
G37*
G36*
X117920Y106972D02*
X118316Y106654D01*
X118719Y106380D01*
X119130Y106151D01*
X119547Y105967D01*
X119972Y105827D01*
X120404Y105732D01*
X120844Y105681D01*
X121290Y105675D01*
X121744Y105714D01*
X118735Y102705D01*
X118774Y103159D01*
X118768Y103605D01*
X118717Y104045D01*
X118622Y104477D01*
X118482Y104902D01*
X118297Y105319D01*
X118068Y105730D01*
X117795Y106133D01*
X117477Y106529D01*
X117114Y106917D01*
X117532Y107335D01*
X117920Y106972D01*
D02*
G37*
G36*
X108774Y101553D02*
X108748Y101628D01*
X108701Y101695D01*
X108634Y101755D01*
X108547Y101806D01*
X108440Y101850D01*
X108312Y101885D01*
X108164Y101913D01*
X107996Y101933D01*
X107807Y101945D01*
X107598Y101949D01*
Y102539D01*
X107807Y102543D01*
X108164Y102575D01*
X108312Y102603D01*
X108440Y102638D01*
X108547Y102682D01*
X108634Y102734D01*
X108701Y102793D01*
X108748Y102860D01*
X108774Y102936D01*
Y101553D01*
D02*
G37*
G36*
X108958Y80937D02*
X108861Y81130D01*
X108734Y81302D01*
X108576Y81453D01*
X108387Y81585D01*
X108168Y81696D01*
X107919Y81787D01*
X107639Y81858D01*
X107328Y81908D01*
X106986Y81939D01*
X106614Y81949D01*
Y82539D01*
X106986Y82550D01*
X107328Y82580D01*
X107639Y82630D01*
X107919Y82701D01*
X108168Y82792D01*
X108387Y82903D01*
X108576Y83035D01*
X108734Y83187D01*
X108861Y83359D01*
X108958Y83551D01*
Y80937D01*
D02*
G37*
G36*
X121118Y78917D02*
X120713Y79024D01*
X120311Y79078D01*
X119911Y79081D01*
X119512Y79032D01*
X119115Y78931D01*
X118721Y78779D01*
X118328Y78574D01*
X117937Y78318D01*
X117549Y78009D01*
X117162Y77649D01*
X116744Y78067D01*
X117101Y78448D01*
X117423Y78839D01*
X117708Y79242D01*
X117958Y79656D01*
X118173Y80081D01*
X118351Y80516D01*
X118494Y80963D01*
X118600Y81421D01*
X118672Y81890D01*
X118707Y82370D01*
X121118Y78917D01*
D02*
G37*
G36*
X117527Y76500D02*
X117919Y76190D01*
X118313Y75932D01*
X118710Y75726D01*
X119109Y75571D01*
X119511Y75469D01*
X119915Y75419D01*
X120322Y75420D01*
X120731Y75474D01*
X121143Y75579D01*
X118708Y72092D01*
X118669Y72581D01*
X118594Y73057D01*
X118484Y73522D01*
X118338Y73975D01*
X118157Y74417D01*
X117941Y74846D01*
X117689Y75263D01*
X117402Y75669D01*
X117079Y76063D01*
X116720Y76445D01*
X117138Y76862D01*
X117527Y76500D01*
D02*
G37*
G36*
X117848Y67046D02*
X118252Y66722D01*
X118666Y66443D01*
X119089Y66207D01*
X119523Y66016D01*
X119965Y65869D01*
X120417Y65767D01*
X120879Y65709D01*
X121351Y65694D01*
X121832Y65724D01*
X118725Y62617D01*
X118755Y63098D01*
X118740Y63569D01*
X118682Y64031D01*
X118579Y64484D01*
X118432Y64926D01*
X118241Y65359D01*
X118006Y65783D01*
X117727Y66197D01*
X117403Y66601D01*
X117035Y66996D01*
X117453Y67414D01*
X117848Y67046D01*
D02*
G37*
D10*
X13664Y73368D02*
X15354Y75059D01*
X13644Y73368D02*
X13664D01*
X13386Y73110D02*
X13644Y73368D01*
X10236Y73110D02*
X13386D01*
X14764Y135296D02*
X15354Y134706D01*
Y75059D02*
Y134706D01*
X16142Y135867D02*
X16732Y135276D01*
Y74488D02*
Y135276D01*
X12598Y70354D02*
X16732Y74488D01*
X17520Y136438D02*
X18110Y135847D01*
Y73524D02*
Y135847D01*
X17323Y72736D02*
X18110Y73524D01*
X14764Y135296D02*
Y156004D01*
X13386Y123110D02*
Y156575D01*
X13386Y123110D02*
X13386Y123110D01*
X43701Y169173D02*
X43701Y169173D01*
X43701Y167403D02*
Y169173D01*
X27165Y150867D02*
X43701Y167403D01*
X27165Y140433D02*
Y150867D01*
X42323Y169744D02*
X42323Y169744D01*
X42323Y167973D02*
Y169744D01*
X25787Y151438D02*
X42323Y167973D01*
X25787Y139862D02*
Y151438D01*
X40945Y170315D02*
X40945Y170315D01*
X40945Y168544D02*
Y170315D01*
X24409Y152009D02*
X40945Y168544D01*
X24409Y139292D02*
Y152009D01*
X23031Y152579D02*
X39567Y169115D01*
X23031Y138721D02*
Y152579D01*
X21654Y153150D02*
X38189Y169686D01*
X21654Y138150D02*
Y153150D01*
X20276Y153721D02*
X36811Y170256D01*
X20276Y137579D02*
Y153721D01*
X18898Y154292D02*
X35433Y170827D01*
X18898Y137009D02*
Y154292D01*
X17520Y154863D02*
X34055Y171398D01*
X17520Y136438D02*
Y154863D01*
X32677Y171969D02*
Y190473D01*
X16142Y155433D02*
X32677Y171969D01*
X16142Y135867D02*
Y155433D01*
X31299Y172539D02*
Y191043D01*
X14764Y156004D02*
X31299Y172539D01*
X29921Y173110D02*
Y191614D01*
X13386Y156575D02*
X29921Y173110D01*
X39567Y187619D02*
X51830Y199882D01*
X39567Y169115D02*
Y187619D01*
X38189Y188190D02*
X51850Y201850D01*
X38189Y169686D02*
Y188190D01*
X36811Y188760D02*
X51869Y203819D01*
X36811Y170256D02*
Y188760D01*
X35433Y189331D02*
X51889Y205787D01*
X35433Y170827D02*
Y189331D01*
X34055Y189902D02*
X51909Y207756D01*
X34055Y171398D02*
Y189902D01*
X32677Y190473D02*
X51929Y209724D01*
X31299Y191043D02*
X51949Y211693D01*
X29921Y191614D02*
X51968Y213661D01*
X40945Y187048D02*
X51810Y197913D01*
X40945Y170315D02*
Y187048D01*
X42323Y186477D02*
X51790Y195945D01*
X42323Y169744D02*
Y186477D01*
X43701Y185709D02*
X51968Y193976D01*
X43701Y169173D02*
Y185709D01*
X18898Y137009D02*
X36024Y119883D01*
X21654Y138150D02*
X38780Y121024D01*
X23031Y138721D02*
X40157Y121595D01*
X24409Y139292D02*
X41535Y122166D01*
X27165Y140433D02*
X36614Y130984D01*
X45472Y129606D02*
X46850Y128228D01*
X36043Y129606D02*
X45472D01*
X25787Y139862D02*
X36043Y129606D01*
X53150Y130984D02*
X53937Y130197D01*
X36614Y130984D02*
X53150D01*
X51968Y193976D02*
X59055D01*
X51968Y213661D02*
X59055D01*
X51949Y211693D02*
X57087D01*
X51929Y209724D02*
X59055D01*
X51909Y207756D02*
X57087D01*
X51889Y205787D02*
X59055D01*
X51869Y203819D02*
X57087D01*
X51850Y201850D02*
X59055D01*
X51830Y199882D02*
X57087D01*
X51810Y197913D02*
X59055D01*
X51790Y195945D02*
X57087D01*
X20276Y137579D02*
X37402Y120453D01*
X46260Y127638D02*
X46850Y128228D01*
X46260Y79547D02*
Y127638D01*
X46850Y128228D02*
X51181D01*
X41535Y122126D02*
X44882Y118780D01*
X41535Y122126D02*
Y122166D01*
X40157Y121555D02*
X43504Y118209D01*
X40157Y121555D02*
Y121595D01*
X38780Y120984D02*
X42126Y117638D01*
X38780Y120984D02*
Y121024D01*
X37402Y75472D02*
Y120453D01*
X36024Y74902D02*
Y119883D01*
X42126Y77835D02*
Y117638D01*
X43504Y78405D02*
Y118209D01*
X44882Y78976D02*
Y118780D01*
X53937Y128228D02*
Y130197D01*
X17323Y23898D02*
Y72736D01*
X14961Y21535D02*
X17323Y23898D01*
X12598Y21535D02*
X14961D01*
X47638Y17992D02*
X58661D01*
X45669Y19961D02*
X47638Y17992D01*
X45669Y19961D02*
Y67205D01*
X47244Y16024D02*
X59477D01*
X44291Y18976D02*
X47244Y16024D01*
X44291Y18976D02*
Y66634D01*
X59477Y16024D02*
X64173Y20720D01*
X79134Y124685D02*
X81890D01*
X75984Y121535D02*
X79134Y124685D01*
X75984Y83346D02*
Y121535D01*
Y83346D02*
X78347Y80984D01*
X75197D02*
Y81772D01*
X74016Y82953D02*
X75197Y81772D01*
X71232Y82953D02*
X74016D01*
X51122Y74685D02*
X62964D01*
X70079Y63661D02*
Y66024D01*
X65748Y70354D02*
X70079Y66024D01*
X49606Y70354D02*
X65748D01*
X36024Y74902D02*
X44291Y66634D01*
X37402Y75472D02*
X45669Y67205D01*
X46260Y79547D02*
X51122Y74685D01*
X44882Y78976D02*
X50748Y73110D01*
X43504Y78405D02*
X50177Y71732D01*
X42126Y77835D02*
X49606Y70354D01*
X50748Y73110D02*
X64173D01*
X50177Y71732D02*
X64764D01*
X64173Y20720D02*
Y20748D01*
X64764Y71732D02*
X72047Y79016D01*
X76012D01*
X77981Y80984D01*
X78347D01*
X64173Y73110D02*
X72047Y80984D01*
X62964Y74685D02*
X71232Y82953D01*
D43*
X90158Y282165D02*
X111417D01*
X84646Y276654D02*
X90158Y282165D01*
X84646Y230394D02*
Y276654D01*
X74213Y219961D02*
X84646Y230394D01*
X51575Y173898D02*
X80315D01*
X83465Y177047D01*
Y196732D01*
X86614Y199882D01*
X83465Y203031D02*
X86614Y199882D01*
X83465Y203031D02*
Y210709D01*
X74213Y219961D02*
X83465Y210709D01*
X56693Y219961D02*
X74213D01*
X53937Y222717D02*
X56693Y219961D01*
X51575Y222717D02*
X53937D01*
X51575Y222716D02*
Y222717D01*
X26969Y198110D02*
X51575Y222716D01*
D44*
X24803Y188465D02*
X26969Y186299D01*
X24803Y188465D02*
Y211693D01*
X27165Y214055D01*
D46*
X109606Y212244D02*
X112205D01*
X109055Y197126D02*
X114173D01*
X103543Y191614D02*
X109055Y197126D01*
X103543Y154308D02*
Y191614D01*
X84145Y154213D02*
X100394D01*
X82570Y155787D02*
X84145Y154213D01*
X100394D02*
X101181Y155000D01*
X104724Y153819D02*
X104724Y153819D01*
X104724Y153532D02*
Y153819D01*
X101861Y150669D02*
X104724Y153532D01*
X101575Y150669D02*
X101861D01*
X101575Y150669D02*
X101575Y150669D01*
X103543Y154308D02*
X103543Y154308D01*
X103543Y154022D02*
Y154308D01*
X101372Y151850D02*
X103543Y154022D01*
X101086Y151850D02*
X101372D01*
X101086Y151850D02*
X101086Y151850D01*
X100883Y153032D02*
X102362Y154511D01*
X100596Y153032D02*
X100883D01*
X100596Y153032D02*
X100596Y153032D01*
X101181Y155000D02*
Y199882D01*
X102362Y154511D02*
Y191912D01*
X83656Y153032D02*
X100596D01*
X83166Y151850D02*
X101086D01*
X104724Y153819D02*
Y185984D01*
X82677Y150669D02*
X101575D01*
X62491Y155787D02*
X82570D01*
X60917Y157362D02*
X62491Y155787D01*
X49606Y157362D02*
X60917D01*
X43701Y156575D02*
X43996Y156870D01*
X46949D01*
X48819Y155000D01*
X55826D01*
X47343Y153720D02*
X56217D01*
X46063Y155000D02*
X47343Y153720D01*
X42618Y152539D02*
X56706D01*
X40256Y151358D02*
X56291D01*
X38681Y150177D02*
X55801D01*
X31201Y148996D02*
X55312D01*
X33760Y147815D02*
X54823D01*
X37303Y146634D02*
X54035D01*
X55826Y155000D02*
X56908Y156083D01*
X60526D01*
X62002Y154606D01*
X82081D01*
X83656Y153032D01*
X102362Y191912D02*
X102362Y191912D01*
Y192891D01*
X111715Y202244D01*
X112205D01*
X101181Y199882D02*
X108661Y207362D01*
X110984Y192244D02*
X112205D01*
X104724Y185984D02*
X110984Y192244D01*
X115354Y187284D02*
X117323Y189252D01*
X109055Y187284D02*
X115354D01*
X105905Y184134D02*
X109055Y187284D01*
X117323Y189252D02*
Y197362D01*
X56217Y153720D02*
X57398Y154902D01*
X56291Y151358D02*
X57767Y149882D01*
X55801Y150177D02*
X57278Y148701D01*
X55312Y148996D02*
X56788Y147520D01*
X54823Y147815D02*
X56299Y146339D01*
X54035Y146634D02*
X55512Y145158D01*
X57398Y154902D02*
X60036D01*
X61513Y153425D01*
X81592D01*
X83166Y151850D01*
X61024Y152244D02*
X81102D01*
X59547Y153720D02*
X61024Y152244D01*
X57887Y153720D02*
X59547D01*
X40551Y154606D02*
X42618Y152539D01*
X56706D02*
X57887Y153720D01*
X81102Y152244D02*
X82677Y150669D01*
X58661Y151850D02*
X59449Y151063D01*
X80578D01*
X108661Y207362D02*
X114961D01*
X117323Y209724D01*
Y217362D01*
X122205Y222244D01*
X117323Y197362D02*
X122205Y202244D01*
X114173Y197126D02*
X117323Y200276D01*
Y207362D01*
X122205Y212244D01*
X80578Y151063D02*
X88452Y143189D01*
X102267D01*
X105905Y146828D01*
Y184134D01*
X38189Y153425D02*
X40256Y151358D01*
X57767Y149882D02*
X80089D01*
X87963Y142008D01*
X102756D01*
X107874Y147126D01*
X114961D01*
X117323Y149488D01*
Y177362D01*
X122205Y182244D01*
X35039Y144370D02*
X37303Y146634D01*
X77937Y137001D02*
X87008Y127930D01*
X40551Y137001D02*
X77937D01*
X45177Y141319D02*
X76960D01*
X43701Y142795D02*
X45177Y141319D01*
X41339Y142795D02*
X43701D01*
X37402Y151457D02*
X38681Y150177D01*
X36614Y151457D02*
X37402D01*
X33071Y147126D02*
X33760Y147815D01*
X76960Y141319D02*
X89370Y128909D01*
X76471Y140138D02*
X88189Y128419D01*
X43602Y140138D02*
X76471D01*
X42913Y140039D02*
X43504D01*
X43602Y140138D01*
X38976Y134528D02*
X78740D01*
X49606Y143189D02*
X50000Y142795D01*
X54724Y143976D02*
X77643D01*
X53937Y144764D02*
X54724Y143976D01*
X51968Y144764D02*
X53937D01*
X55512Y145158D02*
X78132D01*
X56299Y146339D02*
X78621D01*
X56788Y147520D02*
X79111D01*
X57278Y148701D02*
X79600D01*
X50000Y142795D02*
X77154D01*
X78740Y134528D02*
X85827Y127441D01*
X106276Y77858D02*
X116953D01*
X104378Y79756D02*
X106276Y77858D01*
X104378Y79756D02*
Y109677D01*
X105118Y76653D02*
X116929D01*
X103150Y78622D02*
X105118Y76653D01*
X103150Y78622D02*
Y109235D01*
X101969Y69961D02*
Y108746D01*
X99415Y111299D02*
X101969Y108746D01*
X92520Y111299D02*
X99415D01*
X99905Y112480D02*
X103150Y109235D01*
X93009Y112480D02*
X99905D01*
X100394Y113661D02*
X104378Y109677D01*
X93498Y113661D02*
X100394D01*
X88189Y118971D02*
X93498Y113661D01*
X88189Y118971D02*
Y128419D01*
X87008Y118481D02*
X93009Y112480D01*
X87008Y118481D02*
Y127930D01*
X85827Y117992D02*
X92520Y111299D01*
X85827Y117992D02*
Y127441D01*
X89370Y123110D02*
Y128909D01*
Y123110D02*
X91732Y120748D01*
X90551Y123898D02*
Y129398D01*
Y123898D02*
X92520Y121929D01*
X91732Y124685D02*
Y129887D01*
Y124685D02*
X93307Y123110D01*
X92913Y125472D02*
Y130376D01*
Y125472D02*
X94095Y124291D01*
X78132Y145158D02*
X92913Y130376D01*
X77154Y142795D02*
X90551Y129398D01*
X94095Y124291D02*
X100342D01*
X79600Y148701D02*
X94954Y133346D01*
X103307D01*
X79111Y147520D02*
X94465Y132165D01*
X78621Y146339D02*
X93976Y130984D01*
X104820D02*
X106080Y132244D01*
X93976Y130984D02*
X104820D01*
X104331Y132165D02*
X109449Y137284D01*
X94465Y132165D02*
X104331D01*
X103307Y133346D02*
X112205Y142244D01*
X103121Y122244D02*
X112205D01*
X101074Y124291D02*
X103121Y122244D01*
X100342Y124291D02*
X101074D01*
X100342Y124291D02*
X100342Y124291D01*
X106490Y117205D02*
X115354D01*
X100585Y123110D02*
X106490Y117205D01*
X99853Y123110D02*
X100585D01*
X99853Y123110D02*
X99853Y123110D01*
X106740Y103102D02*
Y115285D01*
X100095Y121929D02*
X106740Y115285D01*
X92520Y121929D02*
X100095D01*
X105559Y83299D02*
Y114795D01*
X99606Y120748D02*
X105559Y114795D01*
X91732Y120748D02*
X99606D01*
X93307Y123110D02*
X99853D01*
X77643Y143976D02*
X91732Y129887D01*
X106614Y82244D02*
X112205D01*
X105559Y83299D02*
X106614Y82244D01*
X107598Y102244D02*
X112205D01*
X106740Y103102D02*
X107598Y102244D01*
X106080Y132244D02*
X112205D01*
X109449Y137284D02*
X116535D01*
X115354Y117205D02*
X117323Y115236D01*
X121339Y82244D02*
X122205D01*
X116953Y77858D02*
X121339Y82244D01*
X121339Y72244D02*
X122205D01*
X116929Y76653D02*
X121339Y72244D01*
X121496Y142244D02*
X122205D01*
X116535Y137284D02*
X121496Y142244D01*
X117323Y107126D02*
Y115236D01*
Y107126D02*
X122205Y102244D01*
X101969Y69961D02*
X104724Y67205D01*
X117244D01*
X122205Y62244D01*
D48*
X112205Y32244D02*
D03*
D49*
X122205D02*
D03*
X112205Y42244D02*
D03*
X122205D02*
D03*
X112205Y52244D02*
D03*
X122205D02*
D03*
X112205Y62244D02*
D03*
X122205D02*
D03*
X112205Y72244D02*
D03*
X122205D02*
D03*
X112205Y82244D02*
D03*
X122205D02*
D03*
X112205Y92244D02*
D03*
X122205D02*
D03*
X112205Y102244D02*
D03*
X122205D02*
D03*
X112205Y112244D02*
D03*
X122205D02*
D03*
X112205Y122244D02*
D03*
X122205D02*
D03*
X112205Y132244D02*
D03*
X122205D02*
D03*
X112205Y142244D02*
D03*
X122205D02*
D03*
X112205Y152244D02*
D03*
X122205D02*
D03*
X112205Y162244D02*
D03*
X122205D02*
D03*
X112205Y172244D02*
D03*
X122205D02*
D03*
X112205Y182244D02*
D03*
X122205D02*
D03*
X112205Y192244D02*
D03*
X122205D02*
D03*
X112205Y202244D02*
D03*
X122205D02*
D03*
X112205Y212244D02*
D03*
X122205D02*
D03*
X112205Y222244D02*
D03*
X122205D02*
D03*
D50*
X117205Y13044D02*
D03*
Y241444D02*
D03*
D51*
X7020Y317500D02*
D03*
D52*
Y307500D02*
D03*
Y297500D02*
D03*
Y287500D02*
D03*
Y277500D02*
D03*
Y267500D02*
D03*
Y257500D02*
D03*
Y247500D02*
D03*
Y237500D02*
D03*
Y227500D02*
D03*
Y217500D02*
D03*
Y207500D02*
D03*
Y197500D02*
D03*
Y187500D02*
D03*
Y177500D02*
D03*
Y167500D02*
D03*
Y157500D02*
D03*
Y147500D02*
D03*
Y137500D02*
D03*
Y127500D02*
D03*
Y117500D02*
D03*
Y107500D02*
D03*
Y97500D02*
D03*
Y87500D02*
D03*
Y77500D02*
D03*
Y67500D02*
D03*
Y57500D02*
D03*
Y47500D02*
D03*
Y37500D02*
D03*
Y27500D02*
D03*
Y17500D02*
D03*
Y7500D02*
D03*
X97020Y317500D02*
D03*
Y307500D02*
D03*
Y297500D02*
D03*
Y287500D02*
D03*
Y277500D02*
D03*
Y267500D02*
D03*
Y257500D02*
D03*
Y247500D02*
D03*
Y237500D02*
D03*
Y227500D02*
D03*
Y217500D02*
D03*
Y207500D02*
D03*
Y197500D02*
D03*
Y187500D02*
D03*
Y177500D02*
D03*
Y167500D02*
D03*
Y157500D02*
D03*
Y147500D02*
D03*
Y137500D02*
D03*
Y127500D02*
D03*
Y117500D02*
D03*
Y107500D02*
D03*
Y97500D02*
D03*
Y87500D02*
D03*
Y77500D02*
D03*
Y67500D02*
D03*
Y57500D02*
D03*
Y47500D02*
D03*
Y37500D02*
D03*
Y27500D02*
D03*
Y17500D02*
D03*
Y7500D02*
D03*
D53*
X88189Y313386D02*
D03*
X104331Y5906D02*
D03*
X15748D02*
D03*
D54*
X127165Y285512D02*
D03*
X111417Y282165D02*
D03*
X104724Y278228D02*
D03*
X52362Y218779D02*
D03*
X27559Y174488D02*
D03*
X58268Y245453D02*
D03*
X20866D02*
D03*
Y310906D02*
D03*
Y307362D02*
D03*
X24409D02*
D03*
X24409Y310906D02*
D03*
Y303425D02*
D03*
X24409Y299882D02*
D03*
X20866D02*
D03*
Y303425D02*
D03*
X70866Y321142D02*
D03*
X73622D02*
D03*
X47638Y288465D02*
D03*
X50000Y287283D02*
D03*
X51968Y284921D02*
D03*
X53937Y282953D02*
D03*
Y280197D02*
D03*
X55905Y274685D02*
D03*
Y267008D02*
D03*
Y264449D02*
D03*
X55512Y256968D02*
D03*
X55610Y254211D02*
D03*
X40157Y254213D02*
D03*
Y256870D02*
D03*
X39764Y274783D02*
D03*
X39862Y264547D02*
D03*
X40157Y267106D02*
D03*
X26969Y198110D02*
D03*
Y186299D02*
D03*
X23622Y88071D02*
D03*
X24016Y106181D02*
D03*
X59055Y213661D02*
D03*
X57087Y211693D02*
D03*
X59055Y209724D02*
D03*
X57087Y207756D02*
D03*
X59055Y205787D02*
D03*
X45669Y176654D02*
D03*
X57087Y203819D02*
D03*
X59055Y201850D02*
D03*
X57087Y199882D02*
D03*
X59055Y193976D02*
D03*
Y197913D02*
D03*
X57087Y195945D02*
D03*
X88583Y163661D02*
D03*
Y166417D02*
D03*
Y160906D02*
D03*
Y158150D02*
D03*
X57973Y179114D02*
D03*
X49606Y177933D02*
D03*
X86614Y184528D02*
D03*
Y211693D02*
D03*
Y199882D02*
D03*
X59449Y222717D02*
D03*
X51575D02*
D03*
X27165Y214055D02*
D03*
X51575Y173898D02*
D03*
X53937Y98701D02*
D03*
X46063Y155000D02*
D03*
X49606Y157362D02*
D03*
X43701Y156575D02*
D03*
X40157Y155000D02*
D03*
X37795Y153425D02*
D03*
X58661Y151850D02*
D03*
X35827Y151457D02*
D03*
X41339Y142795D02*
D03*
X42913Y140039D02*
D03*
X49606Y143189D02*
D03*
X51968Y144764D02*
D03*
X40551Y137001D02*
D03*
X38976Y134528D02*
D03*
X33071Y147126D02*
D03*
X30315Y149094D02*
D03*
X35039Y144370D02*
D03*
X7087Y92795D02*
D03*
Y82559D02*
D03*
X8268Y32165D02*
D03*
Y22323D02*
D03*
X18110Y14173D02*
D03*
X39764Y101457D02*
D03*
X23622Y97520D02*
D03*
X69685Y97520D02*
D03*
X19291Y71535D02*
D03*
X82284Y84921D02*
D03*
X10236Y101457D02*
D03*
X6693Y102244D02*
D03*
X6299Y112480D02*
D03*
X63299Y83346D02*
D03*
X23622Y103425D02*
D03*
Y91614D02*
D03*
X12205Y61693D02*
D03*
X75197Y80984D02*
D03*
X78347D02*
D03*
X80315Y77047D02*
D03*
X72047Y80984D02*
D03*
X81890Y124685D02*
D03*
X51181Y128228D02*
D03*
X53937D02*
D03*
X13386Y123110D02*
D03*
X12598Y21535D02*
D03*
X80315D02*
D03*
X64173Y20748D02*
D03*
X58661Y17992D02*
D03*
X10236Y73110D02*
D03*
X12598Y70354D02*
D03*
X74803Y63661D02*
D03*
X70079D02*
D03*
X11417Y85315D02*
D03*
X12598Y55000D02*
D03*
Y34134D02*
D03*
X78347Y108543D02*
D03*
X77953Y86890D02*
D03*
X77736Y35354D02*
D03*
X68110Y55394D02*
D03*
X68504Y34134D02*
D03*
X78347Y54213D02*
D03*
X51181Y90827D02*
D03*
X53543Y88858D02*
D03*
X51181Y84921D02*
D03*
X74410Y26260D02*
D03*
X76378Y30197D02*
D03*
X80315Y36102D02*
D03*
X78347Y32165D02*
D03*
X91339Y43976D02*
D03*
X80315Y59724D02*
D03*
X82284Y57756D02*
D03*
X81890Y63661D02*
D03*
X79134Y64842D02*
D03*
X50787Y42008D02*
D03*
X52756Y43976D02*
D03*
X50787Y36102D02*
D03*
X52756Y38071D02*
D03*
Y32165D02*
D03*
X50787Y30197D02*
D03*
X52756Y26260D02*
D03*
X50787Y24291D02*
D03*
X12598Y77047D02*
D03*
X12205Y79803D02*
D03*
X12598Y82953D02*
D03*
Y88858D02*
D03*
X10630Y90827D02*
D03*
X11024Y93583D02*
D03*
X11811Y96339D02*
D03*
X12205Y99094D02*
D03*
X12669Y105000D02*
D03*
Y107756D02*
D03*
X12598Y110512D02*
D03*
X10236Y112480D02*
D03*
X12205Y116024D02*
D03*
Y119173D02*
D03*
X80315Y104606D02*
D03*
Y118386D02*
D03*
X82284Y116417D02*
D03*
Y112480D02*
D03*
X80315Y110512D02*
D03*
Y82953D02*
D03*
Y88858D02*
D03*
X82284Y90827D02*
D03*
Y100669D02*
D03*
X80315Y94764D02*
D03*
X82284Y96732D02*
D03*
X80315Y98701D02*
D03*
X82284Y79016D02*
D03*
Y106575D02*
D03*
X24016Y63661D02*
D03*
X22835Y67205D02*
D03*
X66142Y24291D02*
D03*
X26378D02*
D03*
X63779Y26260D02*
D03*
X24016D02*
D03*
X63779Y32165D02*
D03*
X24016D02*
D03*
X66142Y51850D02*
D03*
X26378D02*
D03*
X66142Y30197D02*
D03*
X26378D02*
D03*
X63779Y53819D02*
D03*
X24016D02*
D03*
X63779Y47913D02*
D03*
X24016D02*
D03*
X63779Y59724D02*
D03*
X24016D02*
D03*
X63779Y38071D02*
D03*
X24016D02*
D03*
X66142Y57756D02*
D03*
X26378D02*
D03*
X66142Y36102D02*
D03*
X26378D02*
D03*
X66142Y63661D02*
D03*
Y45945D02*
D03*
X26378D02*
D03*
X63779Y65630D02*
D03*
Y43976D02*
D03*
X24016D02*
D03*
X66142Y42008D02*
D03*
X26378D02*
D03*
X53543Y116417D02*
D03*
X51181Y112480D02*
D03*
X53543Y110512D02*
D03*
X51181Y106575D02*
D03*
X53543Y104606D02*
D03*
X51181Y100669D02*
D03*
X53543Y77047D02*
D03*
X51181Y79016D02*
D03*
X53543Y82953D02*
D03*
Y94764D02*
D03*
X51181Y96732D02*
D03*
Y118386D02*
D03*
M02*
